<?xml version="1.0" standalone="no"?>
<!DOCTYPE svg PUBLIC "-//W3C//DTD SVG 1.1//EN" "http://www.w3.org/Graphics/SVG/1.1/DTD/svg11.dtd" >
<svg xmlns="http://www.w3.org/2000/svg" xmlns:xlink="http://www.w3.org/1999/xlink" version="1.1">
<metadata>
Created by FontForge 20170731 at Thu Nov  3 01:20:00 2011
 By Aleksey,,,
2011, Dan Sayers (i@iotic.com)
</metadata>
<defs>
<font id="AveriaSerif-Italic" horiz-adv-x="1066" >
  <font-face 
    font-family="Averia Serif"
    font-weight="500"
    font-style="italic"
    font-stretch="normal"
    units-per-em="2048"
    panose-1="2 0 6 3 0 0 0 0 0 4"
    ascent="1594"
    descent="-454"
    x-height="901"
    cap-height="1362"
    bbox="-268 -491 2104 1825"
    underline-thickness="98"
    underline-position="-338"
    slope="-11.2"
    unicode-range="U+0020-25CA"
  />
<missing-glyph horiz-adv-x="1152" 
d="M814 65q109 0 109 10q0 21 -248 382q-8 12 -54 83t-50 71l-49 -75l-5 -9l-38 -58q-4 -7 -11 -17q-247 -359 -247 -382q0 -1 18 -1l10 -1l9 -1l69 -2h487zM150 725v-368q0 -196 5 -196t110 161l61 90q22 34 35 52.5t34.5 51.5t68.5 100t47 73v10q0 8 -132 201t-139 204
l-86 127q-4 0 -4 -506zM993 635v119q0 478 -5 478t-54 -75t-175.5 -256t-126.5 -198t76.5 -126.5t175 -260.5t104 -151t5.5 470zM677 1331h-31l-10 -1h-61q-356 0 -356 -8.5t52 -84t79.5 -118t49.5 -73.5t96 -145.5t79 -114.5t63 89.5t67 103.5t23 34l123 186q80 114 80 123
t-254 9zM53 40v200l1 25v451q0 692 2 697q7 18 83 18h845q99 0 103 -16.5t4 -402.5v-424l1 -100v-475q0 -35 -31.5 -38.5t-276.5 -3.5h-449q-261 0 -271.5 6t-10.5 63z" />
    <glyph glyph-name=".notdef" horiz-adv-x="1152" 
d="M814 65q109 0 109 10q0 21 -248 382q-8 12 -54 83t-50 71l-49 -75l-5 -9l-38 -58q-4 -7 -11 -17q-247 -359 -247 -382q0 -1 18 -1l10 -1l9 -1l69 -2h487zM150 725v-368q0 -196 5 -196t110 161l61 90q22 34 35 52.5t34.5 51.5t68.5 100t47 73v10q0 8 -132 201t-139 204
l-86 127q-4 0 -4 -506zM993 635v119q0 478 -5 478t-54 -75t-175.5 -256t-126.5 -198t76.5 -126.5t175 -260.5t104 -151t5.5 470zM677 1331h-31l-10 -1h-61q-356 0 -356 -8.5t52 -84t79.5 -118t49.5 -73.5t96 -145.5t79 -114.5t63 89.5t67 103.5t23 34l123 186q80 114 80 123
t-254 9zM53 40v200l1 25v451q0 692 2 697q7 18 83 18h845q99 0 103 -16.5t4 -402.5v-424l1 -100v-475q0 -35 -31.5 -38.5t-276.5 -3.5h-449q-261 0 -271.5 6t-10.5 63z" />
    <glyph glyph-name=".notdef" horiz-adv-x="1152" 
d="M814 65q109 0 109 10q0 21 -248 382q-8 12 -54 83t-50 71l-49 -75l-5 -9l-38 -58q-4 -7 -11 -17q-247 -359 -247 -382q0 -1 18 -1l10 -1l9 -1l69 -2h487zM150 725v-368q0 -196 5 -196t110 161l61 90q22 34 35 52.5t34.5 51.5t68.5 100t47 73v10q0 8 -132 201t-139 204
l-86 127q-4 0 -4 -506zM993 635v119q0 478 -5 478t-54 -75t-175.5 -256t-126.5 -198t76.5 -126.5t175 -260.5t104 -151t5.5 470zM677 1331h-31l-10 -1h-61q-356 0 -356 -8.5t52 -84t79.5 -118t49.5 -73.5t96 -145.5t79 -114.5t63 89.5t67 103.5t23 34l123 186q80 114 80 123
t-254 9zM53 40v200l1 25v451q0 692 2 697q7 18 83 18h845q99 0 103 -16.5t4 -402.5v-424l1 -100v-475q0 -35 -31.5 -38.5t-276.5 -3.5h-449q-261 0 -271.5 6t-10.5 63z" />
    <glyph glyph-name="glyph1" horiz-adv-x="0" 
 />
    <glyph glyph-name="glyph2" horiz-adv-x="2048" 
 />
    <glyph glyph-name="space" unicode=" " horiz-adv-x="554" 
 />
    <glyph glyph-name="exclam" unicode="!" horiz-adv-x="637" 
d="M240 239h26q41 0 71.5 -25.5t30.5 -72.5v-21l-1 -4v-9q-3 -12 -3 -16q0 -28 -32 -66.5t-76 -38.5l-25 -3h-9q-51 0 -81 25t-30 68v30l4 25q0 43 39 75.5t86 32.5zM252 413v30q0 2 11 90l3 23l4 24l3 24l9 66q5 30 8 54l3 24q0 8 7 46l4 34q54 404 66 451q27 100 151 100
h12q80 0 80 -61v-10q0 -79 -232 -808q-35 -109 -96 -109h-11q-22 0 -22 22z" />
    <glyph glyph-name="quotedbl" unicode="&#x22;" horiz-adv-x="841" 
d="M521 1381v-24q0 -113 -126 -415q-25 -60 -62 -60h-13q-35 0 -35 27v13l1 7v7l3 41l3 36l2 28q4 28 4 43l3 28l2 34l1 7v14l1 7v14l4 47q5 35 5 77.5t26 76t99 33.5h7q75 0 75 -41zM862 1337q0 -99 -127 -404q-22 -52 -64 -52t-42 31v13l1 7l2 35l2 28l2 14l3 43
q4 28 4 42q2 14 2 21l9 130l1 6l1 13l3 32q0 126 120 126h14q72 0 72 -37v-24q-3 -18 -3 -24z" />
    <glyph glyph-name="numbersign" unicode="#" horiz-adv-x="1153" 
d="M474 551h94l5 1h6q108 0 119 13t30.5 78t21.5 70l21 66q13 32 13 45v4q0 5 -14 5h-52l-6 -1h-43q-106 0 -118 -14t-46 -128l-2 -5l-3 -10l-11 -36l-11 -35q-14 -35 -14 -44v-4q0 -5 10 -5zM717 964q84 0 99 13.5t64 166t54 160.5q22 40 71.5 40t49.5 -42
q0 -11 -36.5 -135t-36.5 -158t79.5 -46.5t79.5 -50.5q0 -47 -43 -64q-21 -8 -91 -13.5t-87 -26t-45 -114.5t-28 -110q0 -27 91 -32.5t91 -51.5t-40 -64q-14 -6 -86 -13t-101 -34t-69 -158.5t-49 -150.5q-24 -53 -74.5 -53t-50.5 31t41.5 170t41.5 157q0 35 -127 35
q-69 0 -85 -17.5t-64 -165.5t-55 -163q-24 -47 -70 -47h-28q-26 0 -26 34q0 7 40.5 145t40.5 161t-14 35t-79 21t-65 33q0 67 48 87q8 3 80.5 8.5t95.5 34.5q60 73 60 190q0 34 -10.5 42.5t-87 18.5t-76.5 52t46 60q6 2 86 13.5t103.5 43t61 154.5t51.5 144q27 42 74.5 42
t47.5 -44l-83 -298q0 -32 19 -38q7 -2 91 -2z" />
    <glyph glyph-name="dollar" unicode="$" 
d="M514 85q88 0 154 75.5t66 166.5v5q0 56 -30 110q-52 94 -109 94q-14 0 -20 -21q-94 -313 -94 -424q0 -8 9 -8h5q12 2 19 2zM639 1203v4q0 7 -7 7h-5l-6 -1h-5q-79 0 -142.5 -63.5t-63.5 -151.5v-5q0 -52 30 -100q51 -81 100 -81h4q10 0 14 20q81 365 81 371zM339 118
q49 0 69 45q71 162 71 351q0 66 -86 138q-87 72 -123 132t-36 136q0 157 114 261q84 76 213 106q64 15 79 26.5t42 70t53.5 58.5t40.5 -35l10 -42q5 -22 14.5 -32t51 -41t69.5 -47t37 -26q31 -36 31 -115.5t-50 -79.5q-21 0 -66 77t-105 77q-38 0 -60 -62q-67 -190 -67 -297
q0 -50 95 -122t138.5 -139t43.5 -157q0 -141 -92.5 -244.5t-229.5 -137.5q-18 -4 -63.5 -13t-62 -19t-40 -84t-56.5 -74t-36 66t-24 93.5t-98 46t-109.5 49.5t-32.5 101v24q0 62 38 101l18 12q31 0 83 -102t126 -102z" />
    <glyph glyph-name="percent" unicode="%" horiz-adv-x="1656" 
d="M1404 529q0 22 -25.5 50.5t-52.5 28.5h-20q-74 0 -134 -112q-77 -143 -77 -274v-34q0 -61 27 -91.5t54 -30.5h19q69 0 140 122t71 259v46q-2 14 -2 36zM612 1297h-20q-74 0 -142.5 -127.5t-68.5 -259.5v-27q3 -18 3 -44t26 -55.5t59 -29.5h13q73 0 140.5 125t67.5 237
l2 14l1 27v13q0 67 -27 97t-54 30zM1319 695h33q91 0 152.5 -66.5t61.5 -166.5v-32q0 -76 -34 -166q-70 -183 -228 -257q-61 -29 -131 -29h-11q-105 0 -165.5 69.5t-60.5 174.5v11q0 90 34.5 176t85.5 148t123 100t140 38zM1479 1333q0 -50 -938 -1192q-110 -134 -169 -134
t-59 19q0 46 975 1233q76 93 133.5 93t57.5 -19zM605 1384h23q92 0 158 -61.5t66 -171.5v-33q0 -80 -34 -166q-74 -184 -218 -252q-70 -33 -130 -33h-22l-12 1q-94 0 -153.5 68.5t-59.5 164.5v43q0 66 34 155t91 154t127 98t130 33z" />
    <glyph glyph-name="ampersand" unicode="&#x26;" horiz-adv-x="1485" 
d="M281 372v-36q0 -92 69.5 -167.5t169.5 -75.5h33q60 0 138 42t78 88v14q0 24 -181 306q-72 112 -87 112h-19q-65 0 -133 -98t-68 -185zM869 1132q0 53 -33 91t-83 38h-17q-64 0 -114.5 -57t-50.5 -133v-36q3 -18 3 -29q0 -50 50 -133q17 -28 36 -28h6q60 0 130 90t70 144
l3 29v24zM1199 740q166 0 166 -37v-10q0 -24 -33 -46l-44 -17q-21 -11 -38 -34q-160 -223 -160 -312q0 -53 64 -115q32 -32 92 -51t60 -44q0 -52 -157 -52q-35 0 -98 24.5t-116.5 24.5t-187 -35.5t-278.5 -35.5h-34q-235 0 -327 165q-32 58 -32 117v32q0 93 52 184t161 165
l86 55q26 25 26 111q0 1 -10 54.5t-10 105.5q0 149 90.5 248.5t231.5 99.5t213.5 -63.5t72.5 -167.5t-67 -210q-22 -34 -88 -97t-66 -90q0 -58 99 -168q65 -72 109 -72t91.5 76t47.5 136l-4 23q0 36 88 36z" />
    <glyph glyph-name="quotesingle" unicode="'" horiz-adv-x="500" 
d="M433 1421h34q63 0 63 -40v-12l-1 -6v-6q0 -87 -122 -404q-28 -72 -67 -72h-13q-35 0 -35 27v20l1 7v13l2 21l2 29q4 28 4 42q2 14 2 22l2 14l2 28l1 7l4 62v14l4 48q3 21 3 33q2 12 2 19q0 134 112 134z" />
    <glyph glyph-name="parenleft" unicode="(" horiz-adv-x="748" 
d="M833 1444q36 0 36 -24.5t-92 -113t-162 -184.5q-70 -94 -136 -246q-131 -301 -131 -659q0 -201 100 -413q42 -90 42 -106q0 -48 -32 -48q-46 0 -109 78t-102 166q-89 199 -89 422v23q0 336 190 653q97 163 257 307.5t228 144.5z" />
    <glyph glyph-name="parenright" unicode=")" horiz-adv-x="747" 
d="M-72 -323q0 21 91 108.5t161 180.5q70 94 137 246q134 305 134 646q0 208 -87 404q-56 126 -56 138q0 44 37 44t100.5 -76t115.5 -193q79 -177 79 -381v-45q0 -156 -50.5 -333.5t-151.5 -335.5t-221 -266q-185 -167 -255 -167q-34 0 -34 30z" />
    <glyph glyph-name="asterisk" unicode="*" horiz-adv-x="910" 
d="M725 1008l54 -124q0 -63 -37 -63l-44 14q-53 17 -64.5 17t-34 -32t-46.5 -32l-26 2l-31 -1q-35 0 -48 39.5t-21.5 39.5t-27.5 -2l-29 -3q-45 -3 -54 -3q-22 0 -22 36t75 99q33 28 33 54q0 5 -57.5 53t-57.5 94q0 53 70 53q21 0 85.5 -53.5t80.5 -53.5t23.5 97t17.5 119
q19 41 74 41t55 -66q0 -19 -27 -98t-27 -89.5t11.5 -10.5t84.5 36.5t108 36.5q53 0 53 -44q0 -56 -72 -98q-99 -57 -99 -58z" />
    <glyph glyph-name="plus" unicode="+" horiz-adv-x="1153" 
d="M517 430q0 26 -16 33t-189 7t-173 40v18q0 67 21.5 75.5t181.5 8.5t169 2q20 5 21 49t1 152t16 170q9 35 86 35q38 0 47.5 -9.5t9.5 -59.5l-3 -55q-2 -37 -2 -56l-9 -191q0 -35 166 -35t189 -5t23 -44v-19q0 -59 -27.5 -67.5t-182.5 -8.5t-169.5 -6.5t-15.5 -61
t-1 -152.5t-16 -160q-9 -36 -63 -36h-38q-37 0 -37 66v5q2 71 3.5 108t1.5 57l3 57q3 57 3 83z" />
    <glyph glyph-name="comma" unicode="," horiz-adv-x="556" 
d="M14 -265v11q0 17 36 45q127 99 127 180q0 24 -32 74t-32 94.5t38.5 79.5t95.5 35h15q104 0 104 -124v-8l-1 -8q0 -117 -96 -242q-62 -81 -131 -123.5t-96.5 -42.5t-27.5 29z" />
    <glyph glyph-name="hyphen" unicode="-" horiz-adv-x="715" 
d="M619 578q30 0 30 -15v-18q0 -67 -23.5 -97t-103.5 -30h-353q-74 0 -74 20l1 6v7q0 93 46 116q20 10 265 10l48 1h164z" />
    <glyph glyph-name="period" unicode="." horiz-adv-x="554" 
d="M233 -17h-28q-46 0 -77 26t-31 77v23q0 54 36 97.5t94 43.5h28q43 0 85 -35q23 -19 23 -70v-17q0 -60 -36.5 -102.5t-93.5 -42.5z" />
    <glyph glyph-name="slash" unicode="/" horiz-adv-x="807" 
d="M854 1417q65 0 65 -27q0 -18 -47 -109q-398 -773 -704 -1288q-69 -117 -133.5 -117t-64.5 26q0 14 50 114q337 674 717 1314q52 87 117 87z" />
    <glyph glyph-name="zero" unicode="0" horiz-adv-x="1099" 
d="M457 84h25q64 0 128 68q134 142 206 502q38 190 38 287v57q0 98 -38.5 160t-102.5 62h-25q-60 0 -124 -64q-137 -137 -210 -503q-40 -200 -40 -305v-14q0 -115 37 -182.5t106 -67.5zM1067 920v-58q0 -143 -55 -328.5t-139 -305.5t-192 -186t-221 -66h-19
q-158 0 -247.5 115.5t-89.5 314.5v19q0 159 55 343q106 356 338 497q103 63 215 63h19q154 0 245 -112.5t91 -295.5z" />
    <glyph glyph-name="one" unicode="1" horiz-adv-x="1049" 
d="M130 24q0 37 87 71.5t116 59.5t44.5 65t92.5 387t77 405.5t-34 78.5q-14 8 -88 19.5t-74 31.5q0 35 63 58q306 112 378 112q41 0 41 -42q0 -30 -39.5 -187.5t-109.5 -480t-70 -378.5t35 -88q16 -14 74 -42.5t58 -60.5t-351 -32h-44l-44 -1h-45l-67 -1h-44q-56 0 -56 25z
" />
    <glyph glyph-name="two" unicode="2" horiz-adv-x="1082" 
d="M165 10q-109 0 -109 46q0 84 365 406q178 157 252 248q117 145 117 249t-53 156t-137.5 52t-169.5 -74q-121 -106 -150 -106t-29 41q0 39 39 108q102 186 370 186q164 0 260.5 -87.5t96.5 -235t-135 -302.5q-78 -89 -306.5 -268t-228.5 -222q0 -25 113 -25l60 2h62
q98 0 188 29.5t95 29.5q40 0 40 -40q0 -99 -68 -163q-41 -39 -190 -39h-130l-160 5q-130 4 -192 4z" />
    <glyph glyph-name="three" unicode="3" horiz-adv-x="1076" 
d="M115 201q23 0 123.5 -63.5t202.5 -63.5t184 94.5t82 211.5t-74 179q-42 35 -141.5 57.5t-99.5 65.5q0 24 110 68q262 105 262 267q0 63 -47 103.5t-125 40.5t-170.5 -56t-96.5 -56q-33 0 -33 41q0 21 30.5 77.5t91.5 93.5q96 58 244 58h33q145 0 230 -63.5t85 -143.5v-30
q0 -153 -200 -293q-75 -53 -75 -73q0 -4 65 -48t102 -104t37 -158q0 -92 -47 -182q-93 -179 -309 -247q-105 -34 -196 -34h-33q-133 0 -214.5 50.5t-81.5 140.5q0 67 61 67z" />
    <glyph glyph-name="four" unicode="4" horiz-adv-x="1098" 
d="M346 468h216q52 0 62 32q5 15 26 115.5t59 271.5t38 179t-4 8q-28 0 -232 -255q-58 -72 -175 -199t-117 -143q0 -9 127 -9zM989 1266v-19v-2q0 -53 -61 -316q-62 -267 -62 -325t57 -99t57 -92q0 -12 -44 -48.5t-54 -52.5q-70 -112 -70 -123.5t9.5 -39t9.5 -51.5
q0 -62 -60.5 -97.5t-182.5 -35.5h-47q-52 0 -81 21.5t-29 57t49 84.5t49 102t-39 76t-188 23t-195 20.5t-46 69t85 147.5q384 446 596 658q90 90 190 90q57 0 57 -48z" />
    <glyph glyph-name="five" unicode="5" horiz-adv-x="1075" 
d="M996 1309q62 0 62 -47q0 -26 -26.5 -69.5t-61.5 -61.5t-236 -18t-233.5 -30t-61.5 -105.5t-29 -103.5t9 -34.5t107 -13.5q100 -7 170 -28q70 -22 128 -70q120 -99 120 -265q0 -111 -45 -203q-92 -187 -293 -270q-113 -46 -224 -46h-34q-133 0 -209.5 47.5t-76.5 120.5v24
q0 57 59 57q33 0 124 -61.5t158 -61.5t132.5 29.5t111.5 86.5q72 90 72 231q0 52 -28.5 108t-78.5 90q-75 52 -241 58q-54 2 -71 8q-45 16 -45 78q0 28 59 227.5t82 241.5q40 73 168 73l96 -3q64 -2 127 -2l154 9q46 4 55 4z" />
    <glyph glyph-name="six" unicode="6" horiz-adv-x="1093" 
d="M785 517q0 98 -45 156.5t-115 58.5h-27q-103 0 -186 -105.5t-83 -261.5v-46q0 -114 51 -174t125 -60l9 1h9q92 0 176 117.5t84 256.5l2 19v38zM456 838q0 -36 65 -36l20 6q72 22 132 22q134 0 225.5 -91.5t91.5 -254.5q0 -93 -38 -189q-77 -192 -254 -274
q-88 -41 -191 -41h-26q-165 0 -264 122.5t-99 313.5v26q0 156 62 324t176.5 297t257 198.5t275.5 69.5h21q60 0 93.5 -26.5t33.5 -52.5q0 -37 -149.5 -52t-233 -75t-141 -148.5t-57.5 -138.5z" />
    <glyph glyph-name="seven" unicode="7" horiz-adv-x="1071" 
d="M300.5 -46q-77.5 0 -77.5 46q0 77 326 560.5t326 526t-165 42.5t-242 -21.5t-142.5 -64.5t-73.5 -43q-30 0 -30 34q0 123 79 243q24 37 91 37q80 -7 127 -7t73 1l52 2h235q26 -1 52 -1q181 0 181 -42q0 -52 -74.5 -181t-223.5 -368t-210 -350.5t-120 -230t-66 -127.5
q-40 -56 -117.5 -56z" />
    <glyph glyph-name="eight" unicode="8" horiz-adv-x="1093" 
d="M279 311v-18q0 -90 55 -150.5t142 -60.5h9q108 0 184.5 84t76.5 208l-1 8q0 93 -74.5 174.5t-149.5 81.5h-9q-78 0 -155.5 -111.5t-77.5 -215.5zM465 1033v-20q0 -90 67 -157t120 -67h7q64 0 131.5 93t67.5 191v15q0 78 -45.5 128.5t-116.5 50.5h-14q-89 0 -153 -71
t-64 -163zM265 988q0 154 131 268t318 114q222 0 307 -155q30 -55 30 -114v-22q-1 -160 -185 -292q-80 -57 -80 -64t56 -60q55 -53 86 -112t31 -141q0 -174 -143 -302.5t-359 -128.5q-163 0 -271 82.5t-108 222.5v22q0 185 224 339q96 66 96 71.5t-48 58.5q-85 93 -85 213z
" />
    <glyph glyph-name="nine" unicode="9" horiz-adv-x="1093" 
d="M546 575h26q55 0 108.5 32t85.5 80q75 113 75 267v19q0 110 -44.5 179t-125.5 69h-9q-107 0 -190 -125t-83 -267v-47q0 -89 45.5 -148t111.5 -59zM664 1328q263 0 353 -235q35 -93 35 -203v-27q0 -161 -62.5 -330.5t-173 -294.5t-254 -195t-276.5 -70h-21
q-60 0 -98.5 28.5t-38.5 49.5q0 34 153 53t232 71.5t140.5 140t61.5 157.5q0 31 -57 31q-7 0 -54 -12t-93 -12q-148 0 -236.5 97.5t-88.5 261.5q0 84 38.5 178t110 167.5t159 108.5t170.5 35z" />
    <glyph glyph-name="colon" unicode=":" horiz-adv-x="587" 
d="M214 -12q-45 0 -75.5 25.5t-30.5 73.5v31q0 50 37 93t93 43h24q48 0 79.5 -26.5t31.5 -82.5v-9q0 -53 -32.5 -99t-81.5 -46l-22 -3h-23zM386 903h18q49 0 80 -26t31 -75v-25q0 -53 -44 -106q-27 -32 -73 -32q-10 -2 -14 -2h-22q-112 0 -112 107v9l4 35q0 53 43.5 84
t88.5 31z" />
    <glyph glyph-name="semicolon" unicode=";" horiz-adv-x="587" 
d="M376 155v-24q0 -127 -107 -253q-73 -86 -135 -119.5t-82 -33.5h-6q-23 0 -23 31v5q0 15 40 49q124 104 124 180q0 30 -32.5 70.5t-32.5 90t40.5 83t91.5 33.5h16l8 -1q98 0 98 -111zM341 644q-36 0 -62.5 26.5t-26.5 74.5v18l1 5v9q2 8 2 12q0 57 43 88t85 31h28
q50 0 77.5 -27.5t27.5 -68.5v-35q0 -48 -36 -91.5t-94 -43.5h-32q-10 2 -13 2z" />
    <glyph glyph-name="less" unicode="&#x3c;" horiz-adv-x="1151" 
d="M1010 1021q27 0 27 -44v-17q0 -60 -95 -115q-63 -37 -325 -164t-262 -132q0 -16 272 -160t307 -167q69 -45 69 -105t-19.5 -60t-85.5 34q-632 325 -691.5 359.5t-59.5 76.5q0 70 58 101q742 393 805 393z" />
    <glyph glyph-name="equal" unicode="=" horiz-adv-x="1155" 
d="M287 438h635q145 0 145 -35v-31q0 -64 -28 -70.5t-391 -6.5h-451q-61 0 -61 24v53q0 51 19.5 58.5t131.5 7.5zM635 796h352q93 0 93 -35v-21l-1 -11q0 -61 -20 -68.5t-142 -7.5h-666q-103 0 -103 35v31q0 66 33 71.5t454 5.5z" />
    <glyph glyph-name="greater" unicode="&#x3e;" horiz-adv-x="1151" 
d="M162 109v18q0 52 102 111q26 15 303 153.5t277 143.5q0 20 -235 137.5t-324.5 171.5t-89.5 115t29 61q12 0 656 -331q172 -88 172 -126q0 -76 -40 -101.5t-430 -215t-405 -189.5t-15 52z" />
    <glyph glyph-name="question" unicode="?" horiz-adv-x="929" 
d="M317 -16q-54 0 -81.5 27.5t-27.5 73.5v13l1 4v9q2 8 2 13q0 33 32.5 72t69.5 39q16 4 21 4h31q43 0 73 -25t30 -68v-34q0 -44 -33.5 -84.5t-78.5 -40.5l-26 -3h-13zM929 1090v-18q0 -104 -60.5 -187.5t-188.5 -175.5t-156.5 -123.5t-42 -97t-18.5 -72.5q-20 -26 -54 -26
q-67 0 -67 147q0 64 64 145q27 34 119.5 116t133.5 150t41 138t-37.5 96t-93.5 26t-136 -57t-111 -57q-44 0 -44 71v15q0 76 91 135.5t219 59.5h19q139 0 230.5 -81.5t91.5 -203.5z" />
    <glyph glyph-name="at" unicode="@" horiz-adv-x="1541" 
d="M157 526q0 140 65 288.5t181 258t256.5 161.5t264.5 52q254 0 407 -136t153 -343.5t-109 -357.5q-63 -86 -141.5 -127.5t-139 -41.5t-88 14t-39.5 45t-29 31l-30 -22q-57 -42 -99 -65.5t-107.5 -23.5t-110.5 57t-45 135q0 141 72 243q111 158 223 158l34 -1
q-55 -18 -127 -114q-88 -118 -89 -232l-2 -14l-1 -22v-21q0 -49 21.5 -77t52.5 -28h11l6 1q80 0 172.5 139t92.5 281v26q0 56 -57 65l26 6q66 12 100.5 12t34.5 -73q0 -14 -27.5 -132t-27.5 -161q0 -96 63 -96q31 0 81.5 33.5t90.5 98.5q64 103 64 241q0 76 -30 146
q-58 137 -198 201q-96 44 -218 44q-124 0 -238 -53q-114 -54 -202 -152q-178 -198 -178 -484q0 -101 36 -198q73 -197 273 -272q97 -36 202 -36t217 32q85 25 105 25q6 0 6 -2q0 -34 -143.5 -77t-262 -43t-223 43t-174.5 110q-175 167 -175 458z" />
    <glyph glyph-name="A" unicode="A" horiz-adv-x="1336" 
d="M554 570h229q79 0 79 28v7l-1 7v7l-4 45l-3 38l-2 30q-4 32 -5 47t-2 26.5t-2 22.5l-3 28q-2 16 -3 31.5t-1 22.5l-6 62q-6 45 -6 87.5t-15.5 42.5t-77.5 -125q-4 -8 -60 -106l-109 -191q-55 -89 -55 -96v-5q0 -9 47 -9zM916 1359q37 0 60.5 -28.5t37.5 -101t27 -206
t52 -468t49 -375t61.5 -70t51.5 -45.5q0 -38 -25.5 -48.5t-236 -10.5t-210.5 39q0 13 26.5 45.5t32.5 44.5q39 73 39 180.5t-43 136.5q-24 16 -203.5 16t-212 -36t-79.5 -148t-47 -172q0 -21 25 -46t25 -32q0 -32 -96 -32h-151q-156 0 -156 38q0 19 119 102q42 29 127 158
q22 33 193.5 317.5t251 437t125.5 213.5q69 91 157 91z" />
    <glyph glyph-name="B" unicode="B" horiz-adv-x="1265" 
d="M520 106h50q144 0 241.5 89t97.5 223v37q0 96 -66.5 151t-165.5 55l-20 2h-60q-20 -2 -27 -2q-47 0 -66 -62q-93 -298 -93 -427v-22q0 -44 109 -44zM588 769h58q145 0 240 78t95 215v9l-1 8q0 91 -56.5 137t-139.5 46h-44q-81 0 -105 -63q-17 -43 -39.5 -156.5
t-37 -171.5t-14.5 -69v-12q0 -21 44 -21zM794 1365q417 0 417 -277q0 -117 -69 -197t-148.5 -115t-79.5 -36q0 -7 74.5 -48t116.5 -106q42 -66 42 -168q-1 -102 -53 -184q-97 -153 -288 -202q-119 -31 -270 -31h-132l-27 1h-151l-76 -1h-75q-65 0 -65 26.5t99 84.5
q57 33 85 126q14 48 101 450t87 467.5t-36 94.5q-69 56 -69 64q0 42 125 42l51 2l156 3l52 2q52 2 79 2h54z" />
    <glyph glyph-name="C" unicode="C" horiz-adv-x="1310" 
d="M1344 1262q0 -121 -32 -215q-18 -53 -52 -53q-15 0 -61 83.5t-119.5 130t-183.5 46.5t-208 -67q-187 -127 -267 -383q-42 -134 -42 -256q0 -317 210 -400q57 -22 157 -22t252 81.5t158 81.5q27 0 27 -29t-38 -94t-120 -115q-31 -19 -149.5 -45t-182.5 -26h-35
q-236 0 -382 146t-147 389v34q1 159 73 323q145 328 456 456q122 50 258 50h32q74 0 169 -23t113 -23l26 1l26 2q62 0 62 -73z" />
    <glyph glyph-name="D" unicode="D" horiz-adv-x="1465" 
d="M550 108h51q115 0 222 52q205 99 305 376q50 141 50 280v50q0 87 -31.5 169.5t-77.5 126.5q-99 94 -247 94h-35q-117 0 -143 -69q-3 -9 -58.5 -262t-109.5 -492t-54 -269q0 -56 128 -56zM392 1151.5q0 67.5 -32 93.5q-76 62 -76 67q0 46 114 46l48 2q25 1 50 1l50 2
l178 3h81q439 0 567 -291q52 -117 52 -246v-26q0 -175 -76 -332q-151 -310 -455 -420q-141 -51 -326 -51h-180l-25 1h-122l-100 -1h-74q-53 0 -53 30.5t92 76.5q60 30 89 116q14 40 106 450.5t92 478z" />
    <glyph glyph-name="E" unicode="E" horiz-adv-x="1227" 
d="M34 55q0 13 94 72q48 30 77 124q13 43 99.5 441t86.5 456.5t-32 85.5q-75 63 -75 66q0 34 78 43q144 16 547 16h124q121 0 152.5 -18.5t31.5 -112.5v-37q0 -107 -35 -107q-13 0 -53.5 49.5t-106 77t-209.5 27.5q-78 0 -134 -89q-103 -164 -103 -279q0 -36 19 -50
q39 -29 105 -29t93 15t65.5 49.5t62 34.5t34.5 -16t11 -100t-37 -196q-24 -72 -59 -72q-15 0 -83 80q-44 51 -124 51q-117 0 -155 -71q-57 -106 -57 -311q0 -84 34 -109q35 -25 161 -25q215 0 343 112q74 65 102 65q14 0 14 -36t-38 -119t-75 -113t-174 -30h-253l-44 1
l-176 1l-172 2q-139 0 -139 51z" />
    <glyph glyph-name="F" unicode="F" horiz-adv-x="1162" 
d="M392 1135.5q0 72.5 -35 104.5q-57 52 -57 58q0 31 38.5 41t176.5 10l107 3q232 8 324 8h138q102 0 123 -18.5t21 -117t-17 -133t-32 -34.5q-21 0 -53.5 58t-75.5 83q-76 44 -259 44q-70 0 -125 -106q-96 -185 -96 -312q0 -22 31.5 -39.5t104.5 -17.5t151.5 52.5t100 52.5
t21.5 -61q0 -131 -54 -256q-31 -71 -79 -71q-31 0 -53 47t-47.5 62.5t-74.5 15.5q-115 0 -154 -66q-51 -86 -51 -342q0 -74 46 -131q23 -29 23 -36q0 -32 -132 -32l-69 2q-70 2 -107 2q-131 0 -174 31l-13 14q0 37 74.5 74t95.5 102l9 35q26 102 59.5 267.5t73.5 349.5
t40 256.5z" />
    <glyph glyph-name="G" unicode="G" horiz-adv-x="1431" 
d="M1383 1251v-34q0 -107 -40 -177q-16 -28 -29 -28q-19 0 -76.5 79.5t-134.5 121t-208 41.5q-82 0 -181.5 -56.5t-172 -154.5t-116 -229t-43.5 -295t82 -280q43 -61 111 -97.5t142 -36.5t132 24.5t82 59.5q46 67 46 246q0 60 -43 112q-16 19 -16 28q0 33 207 33t237 -31
l8 -19q0 -16 -44.5 -57t-62 -78.5t-51 -178.5t-70 -174t-116 -45.5t-144.5 -25.5t-118 -18l-42 -2q-258 0 -403 128q-185 163 -185 413v41q0 149 62 297q129 308 412 445q159 76 312 76h40q32 0 370 -51q53 -8 53 -77z" />
    <glyph glyph-name="H" unicode="H" horiz-adv-x="1532" 
d="M385 1160q0 51 -30 75l-31 17q-47 27 -47 43q0 34 28 43t194 9l197 2q93 0 93 -29q0 -11 -53 -50t-79 -103q-93 -227 -93 -359q0 -41 86 -49q54 -5 287 -5q157 0 192 59q17 29 40.5 156t23.5 176t-30.5 109t-30.5 61q0 45 302 45h98q93 0 93 -37q0 -22 -78 -64t-107 -135
q-10 -31 -103.5 -459t-93.5 -447q0 -70 39 -98q73 -52 73 -66q0 -28 -47 -39q-26 -6 -246.5 -6t-220.5 35l13 20l55 39q69 62 136 308q36 133 36 198q0 31 -47 42q-30 7 -243.5 7t-254.5 -35q-24 -20 -39 -73q-58 -199 -58 -297t18 -134l17 -25q23 -35 23 -48
q0 -45 -333 -45h-48q-105 0 -105 28q0 47 79.5 80.5t105.5 120.5q13 45 101 462t88 468z" />
    <glyph glyph-name="I" unicode="I" horiz-adv-x="760" 
d="M21 24q0 33 60 63t83.5 54.5t55.5 110.5q1 2 93.5 409.5t92.5 508.5q0 54 -44 86q-69 50 -69 74q0 32 94 32h68l22 -1l273 1h62q31 0 31 -29t-59.5 -58.5t-86 -59t-58.5 -130t-105.5 -461t-73.5 -418.5t35 -93q7 -7 42 -30.5t35 -41.5q0 -42 -94 -42l-22 1h-89l-46 1h-69
l-135 -2h-63q-33 0 -33 25z" />
    <glyph glyph-name="J" unicode="J" horiz-adv-x="951" 
d="M-35 22q0 103 86 103q52 0 95 -30t76 -30q58 0 120 67q120 129 211 550q60 278 60 460q0 54 -46 82q-98 60 -98 75q0 61 299 61h137q115 0 115 -28.5t-47 -62.5t-70.5 -101.5t-111.5 -475.5t-173.5 -553t-199 -213t-235.5 -68h-25q-193 0 -193 164z" />
    <glyph glyph-name="K" unicode="K" horiz-adv-x="1369" 
d="M398 1158.5q0 51.5 -50 88.5q-51 37 -51 62.5t30.5 35.5t129.5 10t143 1l87 2q98 0 98 -35q0 -2 -48 -48t-79 -117t-62.5 -202t-31.5 -160.5t24 -29.5q70 0 323 249q157 155 157 221l-7 26l-13 23l-7 22l8 21q25 31 137 31h46l46 -1q177 0 177 -40q0 -22 -81.5 -68
t-154.5 -104.5t-231 -204.5t-158 -212t245 -469q40 -66 107 -133t67 -80q0 -50 -136 -50h-91q-134 0 -165 48q-3 5 -25 130t-83 244t-123 163q-24 17 -55 17q-42 0 -69 -89q-46 -154 -46 -253.5t21 -139.5l16 -25q22 -34 22 -42q0 -32 -43 -41t-236 -9t-193 33q0 28 88 82
q52 32 75 110.5t66 293t84.5 401.5t41.5 238.5z" />
    <glyph glyph-name="L" unicode="L" horiz-adv-x="1158" 
d="M399 1175.5q0 52.5 -38 77.5q-82 53 -82 63q0 46 69 46h115l30 -1h60q274 0 274 -29q0 -24 -59.5 -56.5t-84 -58.5t-50 -105.5t-114.5 -476.5t-89 -448t50 -65q28 -8 143.5 -8t185.5 33.5t158 124t111.5 90.5t23.5 -44.5t-56 -212.5q-24 -71 -52 -87.5t-505 -16.5
l-223 -1h-151q-85 0 -85 39q0 13 92 83q48 37 80 132q7 20 102 444.5t95 477z" />
    <glyph glyph-name="M" unicode="M" horiz-adv-x="1779" 
d="M387 1126q0 72 -24 112l-28 32q-26 31 -26 52q0 30 149 30t189.5 -26t63 -78t86 -446t85.5 -394l29 33l225 372q214 355 265.5 422t113.5 92.5t158 25.5q155 0 155 -42l-22 -33l-69 -66q-40 -47 -60 -119.5t-93 -440t-73 -426t26 -94.5l30 -30q36 -31 36 -45l-24 -23
q-57 -32 -274 -32q-136 0 -136 41l14 21l22 26q25 33 46.5 91t59.5 206q137 534 137 650l-3 28q-23 0 -291.5 -445t-286.5 -469q-65 -88 -123 -88q-29 0 -45 52.5t-79 482.5t-99 430l-15 -32q-20 -55 -102 -430t-82 -413t11.5 -72.5t11.5 -39.5q0 -32 -104 -32
q-218 0 -218 44q0 24 65 74.5t101 156t154 589.5q44 181 44 253z" />
    <glyph glyph-name="N" unicode="N" horiz-adv-x="1479" 
d="M18 48q0 23 73 62.5t103 130.5q19 57 100.5 448t81.5 444.5t-30 84.5q-87 89 -87 93q0 41 169 41q100 0 147.5 -27.5t89.5 -90t236 -464t198 -401.5q29 0 92.5 342.5t63.5 413t-11.5 98t-35.5 61.5t-24 38q0 39 119 39h141q136 0 136 -26q0 -38 -48 -79
q-90 -78 -103 -106q-27 -59 -184 -792l-20 -94q-20 -99 -29 -138l-10 -44q-22 -76 -65 -76q-75 0 -167 157q-27 46 -221.5 458.5t-224.5 412.5l-12 -30q-29 -98 -83.5 -392.5t-54.5 -386.5t17 -124l15 -24q25 -34 25 -36q0 -40 -149 -40h-45q-147 0 -175 8t-28 39z" />
    <glyph glyph-name="O" unicode="O" horiz-adv-x="1482" 
d="M380 500v-49q0 -169 78 -268.5t215 -99.5q195 0 351 213q69 95 122.5 255t53.5 322v17q0 180 -75 281.5t-200 101.5h-33q-88 -1 -184 -63q-177 -116 -273 -401q-55 -165 -55 -309zM1445 871v-43q0 -156 -67 -318q-138 -332 -425 -467q-141 -67 -292 -67h-46
q-95 0 -187 39q-190 80 -259 277q-34 97 -34 214l1 22v23q0 149 72 309q150 335 444 463q131 57 270 57h45q94 0 183 -38q186 -79 254 -259q41 -109 41 -212z" />
    <glyph glyph-name="P" unicode="P" horiz-adv-x="1213" 
d="M997 1004v38q0 105 -63 157.5t-163 52.5h-10q-93 0 -120 -58q-6 -14 -58.5 -244.5t-52.5 -245.5v-7q0 -30 85 -30h29q234 0 323 201q30 69 30 136zM18 30q0 24 100 89q45 29 77 133q11 36 70 308.5t88.5 396.5t29.5 187.5t-28 93.5q-1 2 -36 28.5t-35 37.5q0 49 164 49
l52 2q26 1 52 1l51 2q26 1 52 1l51 2l79 1h27q314 0 396 -193q26 -60 26 -121v-26q0 -102 -48 -193q-100 -187 -329 -246q-90 -23 -267 -23q-75 0 -95 -35q-63 -108 -63 -308q0 -67 43 -102q85 -70 85 -80q0 -36 -104 -36h-102l-25 1h-132l-76 -1q-103 0 -103 31z" />
    <glyph glyph-name="Q" unicode="Q" horiz-adv-x="1472" 
d="M610 101h44q95 0 166 51q70 50 158 184q160 243 160 496v47q0 144 -67 240t-190 96h-16q-189 0 -336 -215q-75 -110 -115.5 -254.5t-40.5 -250.5v-33l1 -16q0 -148 67 -246.5t169 -98.5zM222 683v30q0 116 34 200t105 157q173 178 254.5 224t204.5 46h51q236 0 376 -144
t140 -410q0 -198 -114 -381q-62 -99 -223.5 -241.5t-161.5 -174.5q0 -38 187 -130q100 -49 165 -49l47 3q31 2 67.5 2t36.5 -20q0 -39 -97 -82t-179 -43h-29q-169 0 -716 288q-59 31 -59 140l-2 83q0 43 -14 93l-18 51q-55 157 -55 358z" />
    <glyph glyph-name="R" unicode="R" horiz-adv-x="1319" 
d="M536 745v-13q0 -22 55 -22h36q173 0 259 86q105 105 105 246l-1 9q0 95 -54.5 149.5t-146.5 54.5h-48q-76 0 -100 -61q-3 -7 -54 -224t-51 -225zM382 1149.5q0 68.5 -35 101.5l-19 14l-19 12q-24 19 -24 31q0 39 52 45.5t272 6.5l100 1h67q317 0 408 -155q39 -67 39 -167
t-57.5 -179t-153.5 -140t-96 -76q0 -7 39.5 -116t72 -213.5t54.5 -139.5t58 -56l26 -13l27 -12q38 -18 38 -28v-22q0 -47 -123 -47h-34q-131 0 -187 70q-35 44 -92 223t-88 228q-54 85 -147 85q-53 0 -71 -68q-46 -170 -46 -275.5t11 -131t33 -56t22 -33.5q0 -39 -209.5 -39
t-246.5 7t-37 42q0 30 86 61q54 20 74 69.5t69 285.5t52 248q85 368 85 436.5z" />
    <glyph glyph-name="S" unicode="S" horiz-adv-x="1077" 
d="M141 391h1q26 0 63 -87q90 -206 290 -207q109 0 185.5 62.5t76.5 162t-66 165.5q-33 33 -182.5 129.5t-206 176t-56.5 171.5q0 182 126 297q59 54 143 86.5t163 32.5h36q47 0 127 -18t181 -18q48 0 48 -78q0 -143 -36 -221q-15 -33 -30 -33q-32 0 -70 80.5t-94 126
t-155 45.5t-164.5 -61.5t-65.5 -172.5q0 -67 64 -130q34 -33 173.5 -117t194.5 -145q85 -95 85 -243q0 -79 -37 -157q-80 -169 -271 -231q-82 -27 -171 -27t-179 25t-140 25l-27 -2l-26 -1q-58 0 -58 68v29q0 138 35 225q17 42 43 42z" />
    <glyph glyph-name="T" unicode="T" horiz-adv-x="1238" 
d="M252 37q0 24 66.5 53.5t89 54.5t44 92t106.5 452.5t85 464.5t-58 79q-108 0 -171 -42.5t-120.5 -111t-79.5 -68.5t-22 31t25 148.5t36 132.5q22 30 291 30l67 2q34 1 67 1l68 2l529 5q66 0 66 -43q0 -174 -42 -273q-12 -29 -29 -29q-30 0 -59 75.5t-81 111t-151 35.5
q-62 0 -89 -87q-4 -14 -99 -437.5t-95 -500.5t50 -112q71 -49 71 -72q0 -31 -90 -31h-66l-35 1h-34l-234 3q-106 0 -106 33z" />
    <glyph glyph-name="U" unicode="U" horiz-adv-x="1442" 
d="M219 369q0 97 72.5 429.5t72.5 376.5t-58 71t-58 48q0 44 54 54q37 7 180 7l38 1l38 2q51 2 79 2q105 0 105 -25q0 -16 -16 -30q-56 -50 -57 -52q-49 -64 -86 -198q-140 -511 -140 -712q0 -121 86 -189q65 -51 173 -51q224 0 331 226q54 116 114 408.5t60 389t-18 131.5
q-4 8 -23 35t-19 36q0 34 128 34h78q148 0 173 -11t25 -40q0 -35 -68 -66.5t-88 -87.5q-8 -21 -100 -425.5t-157 -511.5t-181.5 -173.5t-261.5 -66.5h-44q-114 0 -205 34q-227 85 -227 354z" />
    <glyph glyph-name="V" unicode="V" horiz-adv-x="1316" 
d="M648 1319q0 -3 -35.5 -70.5t-35.5 -174.5q0 -475 55 -750l8 -22q47 0 377 618q117 219 117 314q0 24 -17.5 49t-17.5 34q0 45 144 45h105q124 0 124 -47q0 -33 -75 -84t-101 -90q-61 -94 -120 -194.5t-285.5 -471t-236.5 -384.5q-74 -101 -137.5 -101t-78.5 70
q-8 39 -61 551.5t-62.5 551.5t-63 78t-53.5 73q0 42 283 42q167 0 167 -37z" />
    <glyph glyph-name="W" unicode="W" horiz-adv-x="1842" 
d="M1618 1269q0 75 268 75q82 0 82 -36q0 -25 -38 -58q-77 -66 -94 -97l-21 -44l-19 -47q-34 -80 -66 -144l-54 -101q-27 -51 -158 -313t-191 -365t-136 -103q-60 0 -90.5 111.5t-47.5 432.5t-48 321l-26 -40q-20 -34 -149 -280t-195 -347t-116 -140t-76 -39q-66 0 -84 70
q-31 123 -31 668l1 54l2 53q1 35 1 125.5t-9.5 130.5t-45.5 76t-36 40v25q0 26 143 26t207 -23q42 -15 42 -52q0 -16 -13 -52l-26 -73q-20 -78 -20 -223l-2 -48l-2 -98q-1 -49 -1 -181.5t23.5 -132.5t219.5 355q44 81 91 209q110 301 232 301h1q59 0 82 -22q43 -41 43 -167
t11 -255.5t11 -285.5t19 -156q36 0 247 479q82 187 82 277l-5 34q-8 49 -8 60z" />
    <glyph glyph-name="X" unicode="X" horiz-adv-x="1332" 
d="M721 41q0 3 39 43t39 66q0 126 -108 345q-21 43 -41 43q-41 0 -223 -243q-82 -109 -82 -149.5t25.5 -76.5t25.5 -41q0 -30 -303 -30h-44q-90 0 -90 27t136 105q63 36 157 138q256 277 297.5 331t41.5 102q0 79 -187 434q-36 68 -70 96q-89 73 -89 86q0 43 245 43t245 -30
q0 -8 -35.5 -46t-35.5 -101.5t86 -261.5q25 -57 36 -57q25 0 155.5 150.5t130.5 209.5q0 26 -25 66t-25 42q0 30 81 30h88l45 -1q201 0 201 -34q0 -24 -89.5 -75t-178.5 -144q-313 -329 -313 -396q0 -39 52 -156q156 -351 162 -362q34 -57 75 -81q77 -44 77 -56
q0 -37 -24 -46.5t-220 -9.5l-89 -1l-44 -1q-124 0 -124 42z" />
    <glyph glyph-name="Y" unicode="Y" horiz-adv-x="1237" 
d="M197 1295q0 56 358 56q81 0 81 -26q0 -8 -24.5 -39t-24.5 -77q0 -84 115 -435q14 -44 23 -44q39 0 182.5 227t143.5 294q0 15 -14 35l-19 27q0 45 80 45h61q225 0 225 -44q0 -32 -81 -75.5t-130 -100.5q-195 -227 -357 -503q-58 -100 -85 -217.5t-27 -194.5t36 -112
q72 -70 72 -71q0 -41 -144 -41h-34l-34 1l-236 -1h-31q-73 0 -73 38q0 18 86 61q59 30 90 101q77 180 77 352t-155 548q-38 92 -84 121q-77 49 -77 75z" />
    <glyph glyph-name="Z" unicode="Z" horiz-adv-x="1227" 
d="M949 1233q0 13 -165.5 13t-252 -32.5t-163 -112.5t-100 -80t-23.5 27q0 64 46 210q21 66 51 84t377 18h277l79 2h39q145 0 145 -41q0 -59 -92 -177t-459.5 -550.5t-367.5 -455.5t203 -23t318 50q68 29 149.5 107.5t94.5 78.5q25 0 25 -29.5t-31 -138t-47 -134.5
q-34 -54 -146 -54h-188l-39 1l-82 1l-86 2l-249 2q-234 0 -234 34q0 52 86.5 166t460.5 553t374 479z" />
    <glyph glyph-name="bracketleft" unicode="[" horiz-adv-x="753" 
d="M863 1410q-1 -44 -97 -66t-114 -35q-39 -28 -74 -138q-36 -110 -152 -669t-116 -621t30 -86q6 -3 82 -27t76 -50q0 -43 -92 -43h-24l-24 1l-73 1h-32q-120 0 -141 7q-24 8 -23 37v19q0 43 57 293t81 375q146 779 211 952q21 57 68 67q29 6 219 6l97 2q41 0 41 -25z" />
    <glyph glyph-name="backslash" unicode="\" horiz-adv-x="960" 
d="M203 1383q0 36 65.5 36t96.5 -73q12 -29 83.5 -249.5t98.5 -295t98 -287.5t133.5 -379.5t62.5 -213.5q0 -36 -56 -36h-16q-57 0 -92 82.5t-52 144t-46 143.5l-47 138q-8 23 -23 70t-29 84l-22 66q-11 33 -22 65t-22.5 68.5t-39 110.5t-41 117.5t-72 203.5t-58.5 205z" />
    <glyph glyph-name="bracketright" unicode="]" horiz-adv-x="755" 
d="M-64 -300q0 42 100 66t124 40t58 112t154 674q120 576 120 636t-31 86q-10 8 -82 30t-72 52q0 39 92 39l24 -1l98 -1q151 -1 173 -7t22 -36v-20q0 -35 -41 -214t-158 -741t-144 -637t-57 -88t-191 -13l-99 -2l-25 -1q-65 0 -65 26z" />
    <glyph glyph-name="asciicircum" unicode="^" horiz-adv-x="1099" 
d="M1013 655q0 -26 -62.5 -26t-107.5 72q-31 49 -135.5 251.5t-115.5 202.5q-1 0 -112 -194t-140 -235q-70 -99 -129 -99t-59 27q0 8 70 127.5t178 315.5t131 225t84 29h15q37 0 108 -138q275 -532 275 -558z" />
    <glyph glyph-name="underscore" unicode="_" horiz-adv-x="1049" 
d="M899 -265h-35l-12 1h-116l-24 1h-105l-23 1h-106l-35 1q-498 0 -498 31v11l1 11v11q0 38 7 46.5t71 8.5h211l12 -1l256 -1q498 0 498 -32v-22l-1 -11q0 -39 -6.5 -47.5t-94.5 -8.5z" />
    <glyph glyph-name="grave" unicode="`" horiz-adv-x="805" 
d="M369 1414h20q54 0 118 -73q153 -175 153 -231v-13q0 -26 -34 -26h-15q-35 0 -175.5 125t-140.5 152v13q0 53 74 53z" />
    <glyph glyph-name="a" unicode="a" 
d="M344 124h14q37 0 86 35q91 65 146.5 150.5t95 204.5t39.5 191v8q0 44 -29.5 73.5t-88.5 29.5l-8 -1q-54 0 -111 -45t-102 -121q-120 -204 -120 -381v-16q0 -63 22.5 -95.5t55.5 -32.5zM729 2q-100 0 -100 129q0 62 -20 62q-11 0 -76 -61q-137 -129 -274 -129
q-96 0 -149.5 65t-53.5 156v20q0 120 52 244q111 264 311 373q88 48 159 48t122 -24.5t63.5 -24.5t52.5 26t72 26h17q65 0 65 -72q0 -35 -73.5 -274t-73.5 -327q0 -62 48 -62q20 -2 33 -2q50 0 50 -38q0 -44 -76 -89.5t-149 -45.5z" />
    <glyph glyph-name="b" unicode="b" horiz-adv-x="1067" 
d="M323 243v-43q0 -47 39 -80t90 -33h9q56 0 116 40q126 84 199 313q29 92 29 174v17q0 67 -26.5 111.5t-82.5 44.5h-8q-48 0 -111 -42t-124 -128.5t-95.5 -195.5t-34.5 -178zM343 1231.5q0 42.5 -45 69.5t-45 47t18 34q60 46 223 46q85 0 85 -75q0 -21 -55 -241t-55 -273.5
t17.5 -53.5t66.5 29.5t102.5 52.5t141 23t151.5 -72.5t64 -180.5v-25q0 -104 -52 -228q-101 -238 -303 -341q-90 -45 -184 -45h-23q-32 0 -95 16.5t-69 16.5t-41 -4l-35 -4q-51 0 -85.5 28.5t-34.5 87.5t60 252q6 20 99.5 409t93.5 431.5z" />
    <glyph glyph-name="c" unicode="c" horiz-adv-x="895" 
d="M287 338q0 -219 192 -219q57 0 156.5 41.5t121 41.5t21.5 -17.5t-19 -39.5q-53 -63 -158.5 -114t-205.5 -51h-21q-134 0 -219.5 88.5t-85.5 227.5v21v4q0 101 47 215q95 232 310 336q95 46 198 46h20q111 0 183 -38q50 -27 50 -80v-16q0 -38 -28.5 -72t-56 -34t-89 56
t-119.5 56q-117 0 -207 -138t-90 -314z" />
    <glyph glyph-name="d" unicode="d" horiz-adv-x="1111" 
d="M282 296v-26q0 -67 25.5 -107t70.5 -40h15q51 0 118.5 49.5t127 136t88 189.5t28.5 150l2 18l1 26v9q0 52 -34 83.5t-98 31.5l-9 -1q-110 0 -212 -148q-57 -83 -90 -193t-33 -178zM850.5 999q34.5 94 34.5 173t-15 98.5t-38.5 40.5t-23.5 38t19 30q77 52 224 52
q78 0 78 -97q0 -16 -124.5 -524t-124.5 -582q0 -40 57 -53.5t57 -51t-72.5 -77t-128.5 -39.5q-101 0 -128 100q-16 58 -32 58q-16 -1 -63 -39q-150 -122 -259 -122t-173 70t-64 190q0 258 182 471q159 186 372 186l137 -16q51 0 85.5 94z" />
    <glyph glyph-name="e" unicode="e" horiz-adv-x="928" 
d="M415 510q109 0 220 74q72 48 72 111v27q0 41 -25.5 75t-78.5 34q-88 0 -163 -84q-109 -123 -109 -195v-28q0 -20 18 -20h17q36 6 49 6zM636 932h19q101 0 171.5 -53.5t70.5 -151.5v-18q0 -107 -82 -167q-111 -81 -355 -117q-119 -18 -134 -27q-39 -24 -39 -104
t49.5 -125.5t121 -45.5t127.5 22.5t108 48.5t70 26q34 0 34 -32q0 -14 -42 -59.5t-148.5 -94.5t-208.5 -49h-20q-130 0 -217 84t-87 241q0 112 45 222q96 236 310 345q107 55 207 55z" />
    <glyph glyph-name="f" unicode="f" horiz-adv-x="679" 
d="M855 1234q-11 0 -59 29t-78 29q-75 0 -123.5 -89.5t-48.5 -220.5q0 -58 64 -76q97 -27 97 -56q0 -19 -68.5 -49.5t-110.5 -71t-62.5 -88.5t-94.5 -378.5t-126 -422.5q-106 -186 -248 -186h-24q-34 0 -67 22.5t-33 46.5q0 55 53.5 59.5t89.5 42t74.5 130.5t94 353.5
t55.5 299t-14.5 114t-19.5 85t-17 22.5t-12 20t67.5 68.5t129 192t148.5 207.5q127 112 287 112q86 0 125 -41q18 -20 18 -60t-28 -67t-69 -27z" />
    <glyph glyph-name="g" unicode="g" horiz-adv-x="937" 
d="M102 -241v-24q0 -53 66.5 -95t180.5 -42h9q111 0 194 48.5t83 114.5v18q0 64 -83 102q-111 51 -231 51l-7 -1q-73 0 -142.5 -63t-69.5 -109zM332 429q0 -49 25.5 -85t65.5 -36h17q75 0 138 108.5t63 224.5l1 7l1 8l1 28v14q0 121 -88 121h-18q-76 0 -140 -110t-64 -219
l-2 -15v-46zM584 884l194 -19q30 0 63 2l50 3q75 0 75 -41q0 -25 -30 -45q-58 -38 -69 -57.5t-25.5 -95.5t-39.5 -137t-87 -121.5t-121 -83t-130 -37t-80 -18.5q-60 -29 -60 -66t40 -59q20 -11 162 -57.5t190 -83.5q77 -59 77 -155q0 -48 -32 -105t-91 -100
q-134 -99 -337 -99h-31q-158 0 -256.5 64t-98.5 147v22q0 48 28.5 84.5t112.5 93t84 72.5l-3 14l-21 35q-16 33 -16 71.5t52.5 84t52.5 46.5q0 14 -50 86q-50 71 -50 147q0 160 131 287q57 55 133.5 88t155.5 33h27z" />
    <glyph glyph-name="h" unicode="h" horiz-adv-x="1121" 
d="M773 26q-100 0 -100 116q0 39 46.5 217.5t46.5 262.5t-25 109t-62.5 25t-101 -47.5t-128 -157t-107 -284.5t-59.5 -201q-42 -63 -145 -63q-52 0 -52 60v26q0 82 58.5 275t69.5 243q122 549 122 586t-19 59q-55 64 -55 65q0 39 48 62q78 38 144 38h26q33 0 61 -29
t28 -68.5t-54.5 -261t-54.5 -285.5q0 -26 22 -26q15 1 67 37q144 102 241 102h1q97 0 144.5 -55t47.5 -139v-32v-3q0 -60 -33 -208q-34 -152 -34 -314q0 -13 7.5 -17.5t7.5 -17t-41 -43.5t-117 -31z" />
    <glyph glyph-name="i" unicode="i" horiz-adv-x="621" 
d="M514 141q0 -43 -104 -95t-185 -52h-15q-49 0 -75.5 26.5t-26.5 66.5v13q0 28 75.5 271.5t75.5 312t-45 75.5q-81 13 -81 46q0 40 61 68q111 51 215 51h13q39 0 56 -20.5t17 -64.5t-66.5 -302t-66.5 -330q0 -52 56 -52l64 10q32 0 32 -24zM347 1231q0 62 36 98t95 36h9
q54 0 78 -24t25 -40.5t1 -20.5l1 -15v-4l-1 -4q0 -55 -32 -93t-70 -38l-25 -3h-13q-48 0 -74.5 22.5t-26.5 46.5l-3 15v24z" />
    <glyph glyph-name="j" unicode="j" horiz-adv-x="604" 
d="M-205 -356q1 68 133 69q70 0 110.5 31t69 109t105 418.5t76.5 396t-16.5 75t-66.5 31.5t-50 41q0 34 65 59q141 55 238 55q71 0 71 -83v-17q0 -47 -92 -456t-153.5 -535t-160.5 -203t-187.5 -77t-115 26t-26.5 60zM618 1260q0 -63 -35.5 -98.5t-82.5 -35.5h-29
q-12 3 -20 3q-74 0 -74 65q-2 6 -2 11l-2 16v12q0 54 33.5 94t88.5 40h26q41 0 67.5 -21t26.5 -47l3 -15v-24z" />
    <glyph glyph-name="k" unicode="k" horiz-adv-x="1056" 
d="M136 23q-61 0 -61 67.5t58 235.5q9 26 103 429.5t94 459t-30 78.5q-74 56 -74 57q0 36 40 49q88 28 243 28q54 0 54 -59q0 -48 -65 -328.5t-65 -375.5q0 -59 33.5 -59t126.5 101.5t151.5 140.5t140 39t81.5 -48q0 -27 -103 -86q-213 -122 -213 -200q0 -23 59.5 -164.5
t92 -187.5t91 -62t58.5 -31.5t-62.5 -51.5t-153.5 -36q-55 0 -94.5 57t-98 200t-89.5 143q-75 0 -121 -199q-22 -93 -52 -133q-49 -64 -144 -64z" />
    <glyph glyph-name="l" unicode="l" horiz-adv-x="604" 
d="M493 127.5q0 -21.5 -52 -55.5q-124 -80 -235 -80h-19q-35 0 -64.5 26t-29.5 78v18q0 39 42 175.5t131 510t89 429t-51.5 84.5t-51.5 47.5t28 32.5q74 37 253 37h15q54 0 54 -48v-17q0 -5 -125 -530t-125 -609.5t61 -84.5l55 8q25 0 25 -21.5z" />
    <glyph glyph-name="m" unicode="m" horiz-adv-x="1643" 
d="M1349 48q-132 0 -132 164q0 50 27 185t27 194q0 146 -61 146q-40 0 -93 -48t-114 -159t-99 -270.5t-79.5 -206t-140.5 -46.5q-65 0 -65 54q0 19 29 111q121 382 121 518q0 63 -56 63q-109 0 -225 -152q-74 -98 -127.5 -271.5t-75.5 -211.5q-44 -76 -91 -76q-41 0 -41 127
v35q0 60 12 164t21.5 153.5t9.5 62.5l-7 51q-6 44 -6 73q0 78 46.5 112t88 34t59.5 -39q44 -93 49 -93q22 0 158 93.5t219.5 93.5t121 -37.5t55.5 -98.5t29 -61t73.5 45.5t72.5 51.5q95 59 179 59t127 -55t43 -130v-37q0 -40 -28.5 -177.5t-28.5 -223t17 -102.5l21 -10
q10 -5 10 -17t-20 -25q-66 -43 -126 -43z" />
    <glyph glyph-name="n" unicode="n" horiz-adv-x="1149" 
d="M811 8q-113 0 -113 135q0 65 49 248.5t49 259.5t-23.5 96t-55.5 20t-88 -36.5t-126 -132.5t-120 -259q-7 -22 -31.5 -123.5t-46.5 -138.5q-38 -63 -116 -63q-70 0 -70 75v45q0 108 54 247t54 250q0 31 -34 59t-34 58q0 57 60.5 100.5t132.5 43.5q40 0 68 -50t28 -104
t4 -54q12 0 81 64q170 158 301 158h24q81 0 122.5 -53.5t41.5 -126t-47 -251.5t-47 -260t39 -81l61 13q8 0 8 -18.5t-34 -44.5q-98 -76 -191 -76z" />
    <glyph glyph-name="o" unicode="o" horiz-adv-x="1025" 
d="M297 328v-51q0 -79 37 -134t97 -55h29q39 0 94.5 37t100.5 114q105 179 105 333l2 21v41q0 87 -35.5 142.5t-97.5 55.5h-19q-57 0 -113 -44t-92 -105q-108 -184 -108 -355zM638 935h30q134 0 220.5 -91.5t86.5 -246.5l-1 -14q0 -102 -45.5 -217.5t-126.5 -200.5
q-172 -180 -380 -180h-15q-151 0 -237 91t-86 233v30q0 98 44.5 211t121.5 198t178.5 136t209.5 51z" />
    <glyph glyph-name="p" unicode="p" horiz-adv-x="1090" 
d="M833 592v38q0 76 -30.5 123.5t-81.5 47.5h-25q-108 0 -215.5 -184t-107.5 -379v-35q0 -44 36 -74.5t82 -30.5h26q101 0 214 164q29 42 65.5 141.5t36.5 188.5zM307 -355q0 -103 -211 -103h-25q-75 0 -111 32q-15 13 -15 27v15q0 14 24 52l11 18q56 82 75 148t105 430.5
t86 411.5t-42 83t-42 51t24 30q87 56 206 56q28 0 49 -31t37 -31t53 23q113 70 218 70h21q116 0 193.5 -79.5t77.5 -204.5q0 -246 -164 -443q-69 -83 -170.5 -139.5t-202.5 -56.5q-17 0 -48 2l-44 3q-66 0 -107.5 -52.5t-41.5 -166.5q0 -32 22 -81.5t22 -63.5z" />
    <glyph glyph-name="q" unicode="q" horiz-adv-x="1070" 
d="M769 677v43q0 46 -36 76.5t-79 30.5h-27q-46 0 -106 -39.5t-106 -111.5q-124 -192 -124 -353v-45q0 -69 27.5 -107.5t62.5 -38.5h23q50 0 121 52t123 132q121 187 121 361zM850 -387q0 -62 -220 -62h-49q-123 0 -123 56q0 19 42.5 89t90.5 207.5t48 221.5q0 16 -9 16
q-14 -1 -66 -33q-147 -93 -256 -93h-2h-3q-94 0 -159 71q-64 70 -64 183v26q0 100 48 221.5t134 220.5q166 190 369 190q61 0 124 -27t76.5 -27t58.5 24.5t86 24.5q57 0 57 -70q0 -34 -33.5 -128.5t-51 -156t-98.5 -413.5t-81 -404.5t40.5 -91.5t40.5 -45z" />
    <glyph glyph-name="r" unicode="r" horiz-adv-x="825" 
d="M343 907h13q58 0 81.5 -32.5t23.5 -116.5t8 -84t37 36q137 172 251 173q75 0 75 -57v-12q0 -51 -57 -93q-27 -20 -102 -20t-112.5 -35.5t-85.5 -124.5t-87.5 -279t-52.5 -209q-38 -54 -138 -54q-42 0 -65 16t-23 81.5t68 259.5t68 312q0 36 -45.5 57.5t-45.5 60.5t65 80
t124 41z" />
    <glyph glyph-name="s" unicode="s" horiz-adv-x="825" 
d="M36 117q0 77 22.5 110.5t47.5 33.5t64.5 -58.5t78.5 -86.5t116 -28t115 39.5t38 90.5t-46 94q-20 18 -121.5 85t-142 120t-40.5 135q0 118 107 198.5t247 80.5h24q116 0 193 -34q43 -19 43 -78v-21q0 -64 -21.5 -93.5t-42 -29.5t-84 73.5t-131.5 73.5t-109.5 -31.5
t-41.5 -81t32.5 -81t135 -95t145.5 -116t43 -131.5q0 -127 -105 -216.5t-276 -89.5h-25q-124 0 -216 39q-50 21 -50 98z" />
    <glyph glyph-name="t" unicode="t" horiz-adv-x="712" 
d="M717 862q0 -46 -108.5 -70.5t-135 -66.5t-73 -232.5t-46.5 -264.5t69 -74q27 0 83 17.5t71 17.5q31 0 31 -28q0 -54 -89 -101q-135 -71 -224 -71h-20q-62 0 -101 53t-39 116v19q0 51 55.5 278.5t55.5 266t-51.5 67.5t-51.5 60.5t64.5 48t80 29t49.5 93t50 98.5
q46 50 103 50h14q39 0 39 -58l-8 -123q0 -40 23 -59.5t91 -27t68 -38.5z" />
    <glyph glyph-name="u" unicode="u" horiz-adv-x="1136" 
d="M131 807v13q0 7 28 21q120 60 188.5 60t88.5 -28t20 -89t-49.5 -266.5t-49.5 -272t25 -87.5t47 -21h2q46 0 111 53q154 126 223 381.5t73 262.5q32 53 99 53q33 0 46 -31t13 -102t-37.5 -221t-37.5 -237q0 -51 42 -71t42 -71t-36 -82q-64 -56 -131 -56t-98.5 40
t-31.5 144q0 25 -12.5 25t-88.5 -71q-164 -153 -287 -153h-25q-63 0 -112 48t-49 125t53.5 291t53.5 253t-46 54q-64 21 -64 35z" />
    <glyph glyph-name="v" unicode="v" horiz-adv-x="1023" 
d="M471 203q21 0 67 34q87 64 156 167q100 150 100 302q0 26 -12 70t-12 65.5t36.5 47t91 25.5t87.5 -28.5t33 -81.5v-20q0 -31 -48 -116q-192 -340 -218 -373q-92 -116 -190 -198t-158 -82h-18q-79 0 -109 70q-14 32 -14 205l3 168q0 168 -30 245q-15 40 -74 40t-59 36.5
t90 78t154 41.5t88.5 -58t24.5 -227l-10 -335q0 -76 21 -76z" />
    <glyph glyph-name="w" unicode="w" horiz-adv-x="1492" 
d="M971 714l-10 -370q0 -112 32 -112q21 0 74.5 43t128 181.5t74.5 277.5l-2 27l-1 26q0 106 117 106q73 0 73 -77q0 -32 -58 -198.5t-162.5 -328t-167 -217t-128 -55.5t-119.5 96q-25 45 -60 183t-56 138q-6 0 -44 -52q-205 -280 -310 -280q-63 0 -91 47q-12 20 -12 171
t-11 198t-57.5 162t-46.5 120q0 54 56 77.5t126 23.5t103 -28.5t33 -93.5q0 -15 -13 -134.5t-13 -266t38.5 -146.5t115 134t139.5 284.5t74 165.5q41 56 108 56q40 0 55 -51.5t15 -106.5z" />
    <glyph glyph-name="x" unicode="x" horiz-adv-x="1027" 
d="M929 147q0 -43 -94.5 -96.5t-168.5 -53.5q-39 0 -65 32t-78 155t-74 123t-156 -187q-88 -123 -139 -123h-22q-42 0 -80 25t-38 66q0 49 84 68t147.5 74.5t113.5 127.5t50 108t-34 121t-63 121t-118 36q-46 0 -46 32.5t56 64.5q118 68 179.5 68t87 -39.5t67 -135.5
t50.5 -96q22 0 135 136t157 136h21q35 0 69.5 -29t34.5 -52v-17q0 -49 -80.5 -61.5t-153.5 -81.5q-131 -124 -131 -210.5t83 -229.5q42 -73 99 -73l76 13q31 0 31 -22z" />
    <glyph glyph-name="y" unicode="y" horiz-adv-x="1005" 
d="M878 906q103 0 103 -89v-22q0 -19 -83 -207q-173 -392 -317 -594.5t-270.5 -316t-228.5 -113.5t-102 64q0 21 110.5 59.5t185.5 109.5q105 100 105 224t-149 597q-16 51 -58 93t-42 50q0 23 35 49q89 67 138.5 67t73.5 -24t54 -116t49.5 -304t41.5 -212q52 0 143.5 186
t91.5 313q0 18 -2 49l-3 43q0 43 34.5 68.5t89.5 25.5z" />
    <glyph glyph-name="z" unicode="z" horiz-adv-x="937" 
d="M864 907q33 0 33 -48t-71 -134t-293.5 -297.5t-222.5 -250.5q0 -12 21 -17q140 -36 256 -36q62 0 115 53q84 84 102 84q31 0 31 -52q0 -115 -69 -188q-41 -44 -149 -44t-227.5 26t-166.5 26t-81 -7l-24 -6q-43 -11 -44 -11q-44 0 -44 51t79.5 138.5t305 302t225.5 249.5
q0 13 -133 13t-171.5 -15t-89 -62.5t-67.5 -47.5q-30 0 -30 52q0 119 68 191q33 35 118 35h56q43 0 146.5 -14.5t154.5 -14.5t82 6l46 11q29 7 44 7z" />
    <glyph glyph-name="braceleft" unicode="{" horiz-adv-x="767" 
d="M143 555q0 22 106 72q61 29 89.5 85.5t53.5 275t95 314.5q49 67 130 106.5t172 39.5h23q39 0 39 -20q0 -14 -111 -88q-59 -39 -99.5 -110.5t-65.5 -246t-52 -243t-79 -112.5q-19 -16 -61 -39t-42 -27t33.5 -31t53.5 -62.5t20 -99t-37.5 -213.5t-37.5 -229q0 -113 87 -181
q47 -38 47 -52q0 -31 -60 -31q-121 0 -194 64t-73 184q0 77 47.5 240t47.5 225t-27 92t-66 51.5t-39 35.5z" />
    <glyph glyph-name="bar" unicode="|" horiz-adv-x="790" 
d="M426 -378h-39q-57 0 -57 66v60l20 811q0 613 22 892q4 56 69 56h20q56 0 56 -67v-80l-19 -791q0 -683 -22 -892q-6 -55 -50 -55z" />
    <glyph glyph-name="braceright" unicode="}" horiz-adv-x="767" 
d="M359 1449q285 0 285 -253q0 -73 -46 -234q-46 -160 -46 -218q0 -92 65.5 -131.5t65.5 -60.5q0 -7 -114 -67q-58 -30 -85 -89q-18 -38 -49 -268.5t-91.5 -312t-145 -117.5t-153.5 -36t-69 11v13q0 9 112 87q65 45 100 112t66.5 259.5t58.5 250t59 85t74 51t42 27t-34.5 30
t-55 61.5t-20.5 120q0 26 37 187.5t37 235t-46 134.5q-10 14 -48.5 45t-38.5 49q0 29 40 29z" />
    <glyph glyph-name="asciitilde" unicode="~" horiz-adv-x="1129" 
d="M796.5 553q55.5 0 107.5 55q78 83 96 83q48 0 48 -59q0 -90 -113 -178q-64 -50 -144.5 -50t-218.5 69t-194 69t-121.5 -69.5t-73.5 -69.5h-10q-47 0 -47 69.5t85 144.5t176 75l11 -1q78 0 210.5 -69t188 -69z" />
    <glyph glyph-name="uni00A0" unicode="&#xa0;" horiz-adv-x="554" 
 />
    <glyph glyph-name="exclamdown" unicode="&#xa1;" horiz-adv-x="610" 
d="M364 588q30 0 30 -25v-10q0 -16 -56 -427.5t-65 -442.5t-41.5 -57.5t-104.5 -26.5h-12q-79 0 -79 61v10q0 93 244 825q31 93 84 93zM283 847v8q0 45 41 102q25 35 72 35l8 2h30q39 0 71 -27t32 -74v-21q0 -48 -35.5 -90.5t-76.5 -42.5q-10 -2 -13 -2l-17 -1l-5 1
q-54 0 -80.5 31.5t-26.5 78.5z" />
    <glyph glyph-name="cent" unicode="&#xa2;" horiz-adv-x="1027" 
d="M623 857v13q0 12 -7 12h-6q-79 0 -173 -136t-94 -280l-3 -24l-1 -31v-7q0 -79 28 -131.5t59 -52.5h6q19 0 53 128l16 59q18 68 23.5 89.5t8 29t9.5 32.5l10 37q9 36 11.5 42.5t14 50.5t28.5 103.5t17 65.5zM133 414q0 77 38.5 174.5t108.5 181t157 133t138 73t64 36.5
t49.5 77.5t63.5 64.5t34 -28q29 -115 41 -130q81 -97 81 -133v-16q0 -65 -63 -65q-8 0 -47 18t-59 18q-40 0 -71 -84q-124 -331 -124 -481q0 -50 41 -50t113 31.5t83 31.5q22 0 22 -19q0 -36 -134 -119.5t-163 -121.5q-97 -127 -109 -127q-23 0 -23 49l2 18l5 38
q0 42 -71 100q-115 95 -134 127q-43 74 -43 157v46z" />
    <glyph glyph-name="sterling" unicode="&#xa3;" horiz-adv-x="1109" 
d="M145 632q0 22 66.5 52.5t80.5 50t48.5 138.5t73.5 193q40 74 102 138q141 144 352 144q111 0 168 -33.5t57 -126.5q0 -51 -22 -75t-39.5 -24t-81.5 60.5t-126 60.5q-101 0 -165 -104q-84 -136 -84 -289q0 -59 17 -81t108.5 -44t91.5 -49q0 -15 -118 -55.5t-153 -84.5
t-73 -162t-38 -132q0 -43 66.5 -67t168 -24t161.5 32q22 11 79 75t98 64t41 -65q0 -38 -30 -105.5t-79 -114.5t-161 -47t-265.5 32.5t-208.5 32.5t-127 -10t-83 -10q-50 0 -50 22q0 36 78 97.5t122 141.5q73 133 73 232q0 39 -12 56t-74 32.5t-62 48.5z" />
    <glyph glyph-name="currency" unicode="&#xa4;" horiz-adv-x="1114" 
d="M843 641v40q0 103 -72 181t-166 78h-26q-111 0 -189 -92t-78 -202v-30q0 -105 69 -186.5t170 -81.5h26q111 0 188.5 91.5t77.5 201.5zM240 901q0 18 -47.5 69t-47.5 68.5t29.5 47t46.5 29.5t65.5 -48.5t74 -48.5t68 16t75 25.5t90.5 9.5t88 -7.5t70 -23t68.5 -15.5
t76.5 48t63.5 48t44 -27.5t28.5 -45t-50 -69t-50 -69t28 -82.5t28 -147.5t-14.5 -128t-37 -93t-22.5 -68t46.5 -73.5t46.5 -71t-29.5 -46.5t-45 -28.5t-66.5 49t-74.5 49t-65.5 -14t-77 -24q-36 -10 -104 -10t-124.5 22.5t-84.5 22.5t-59 -27q-84 -72 -87 -72
q-17 0 -44.5 27.5t-27.5 45.5t52.5 70.5t52.5 82.5q0 5 -16.5 42t-29 78.5t-12.5 115t37 172.5t37 101z" />
    <glyph glyph-name="yen" unicode="&#xa5;" horiz-adv-x="1113" 
d="M539 1165.5q0 -38.5 28 -137t45.5 -163.5t23.5 -85l12 -39l16 -17q12 0 93 117q195 283 195 353q0 26 -11 49l-18 36q0 44 81 44h40q187 0 187 -26.5t-77.5 -90t-182.5 -212t-105 -216.5q0 -30 40 -68.5t40 -44.5q0 -29 -110.5 -64t-110.5 -95q0 -36 99 -52.5t99 -44.5
q0 -33 -105.5 -41t-150 -43.5t-44.5 -106t28 -104.5l22 -21l25 -19q21 -20 21 -40q0 -33 -297 -33l-129 -2q-77 0 -77 29q0 19 41 44l64 34l28 22q57 60 57 145q0 41 -17.5 56.5t-116.5 30t-99 54.5q0 13 119 38.5t119 74.5t-83 77q-60 20 -60 53q0 13 16 30l18 15
q83 72 83 157t-75 233q-12 24 -56 86.5t-44 74.5q0 36 62 46q96 15 237 15q73 0 73 -27l-5 -13l-23 -39q-15 -31 -15 -69.5z" />
    <glyph glyph-name="brokenbar" unicode="&#xa6;" horiz-adv-x="774" 
d="M383 -269h-8q-49 0 -59 11t-10 64v42l1 8v33l1 17v25l1 16v17l1 25v33l1 17v33l1 17v17l1 17v16l1 25v34l1 16v26l1 16v17l1 17v25l1 17v25l2 41q0 29 57 29h41q44 0 44 -66v-24l-1 -9v-25l-1 -17v-33l-1 -17v-17l-1 -17v-33l-1 -17v-17l-1 -16v-17l-1 -17v-33l-1 -17
v-17l-1 -25v-33l-1 -17v-25l-1 -17v-33l-1 -25v-16l-1 -25v-17l-1 -24q0 -30 -65 -30zM477 1075q0 -266 -9 -308q-6 -29 -66 -29h-33q-42 0 -42 59v17l1 8v42l1 17v16l1 17v33l1 17v17l1 17v33l1 17v16l1 26v16l1 17v17l1 25v33l1 17v25l1 17v16l1 17v25l1 17v25l1 17v25
q0 36 41 36h66q34 0 34 -43v-83l-1 -8v-51l-1 -25v-33l-1 -8v-34l-1 -16v-25l-1 -17v-17z" />
    <glyph glyph-name="section" unicode="&#xa7;" horiz-adv-x="1020" 
d="M314 672v-30q0 -73 78 -174q195 -254 243 -254h6q19 0 59.5 49t40.5 122v14q0 88 -80 190q-194 247 -247 247q-18 0 -59 -49.5t-41 -114.5zM32 -162q0 26 18.5 51.5t59.5 25.5t84 -60t71.5 -80t101 -20t128 55.5t55.5 128.5t-38.5 127t-144.5 154t-153 175t-47 161.5
t27 142.5t85.5 117.5t58.5 84.5l-4 25l-6 28q-5 31 -5 57q0 143 101 246q59 60 137 92.5t155 32.5h32q105 0 172.5 -49t67.5 -117q0 -28 -18 -54t-56.5 -26t-93.5 71.5t-136 71.5t-129 -54t-48 -119.5t37 -113t138 -140.5t154 -174t53 -185.5t-61 -194.5q-98 -144 -98 -152
l2 -25l2 -28q2 -29 2 -78.5t-30 -122.5q-61 -146 -225 -208q-78 -30 -157 -30h-32q-102 0 -181 51.5t-79 132.5z" />
    <glyph glyph-name="dieresis" unicode="&#xa8;" horiz-adv-x="790" 
d="M352 1301h23q36 0 60.5 -24.5t24.5 -53.5l2 -18v-7q0 -52 -32 -84t-59 -32l-18 -3h-22q-37 0 -62.5 25.5t-25.5 62.5v18l4 25q0 27 32 59t73 32zM611 1161v28q0 45 33.5 78.5t74.5 33.5h19q12 -3 27.5 -3t39.5 -24t24 -59v-25q-3 -12 -3 -29.5t-30.5 -48t-57.5 -30.5
l-18 -3h-22q-31 0 -59 22.5t-28 59.5z" />
    <glyph glyph-name="copyright" unicode="&#xa9;" horiz-adv-x="1564" 
d="M1336 664v60q0 111 -47 220q-92 214 -285 310q-104 52 -211 52h-38q-109 0 -213.5 -47.5t-182.5 -135t-119 -197.5t-41 -208v-61v-5q0 -111 47 -218q94 -219 302 -314q97 -44 194 -44h57q103 0 203 51q202 104 286 312q48 120 48 225zM1071 919q0 -37 -23 -37
q-8 0 -48.5 48t-87 72t-135.5 24t-152.5 -94t-63.5 -243.5t69 -237.5t192 -88q71 0 159 50t93 50t5 -16q0 -67 -88.5 -117t-196.5 -50q-194 0 -300 102q-63 60 -91.5 136t-28.5 146v42q0 81 37.5 163t94.5 133q115 103 270 103l209 -22q50 0 64 -27q22 -42 22 -137z
M1422 676q0 -121 -47 -246t-136 -223.5t-215 -155t-251 -56.5h-44q-118 0 -238 55t-209 154q-178 198 -178 479q0 136 48 267.5t145 231.5q201 207 474 207q123 0 243 -47.5t211.5 -139t144 -219.5t52.5 -260v-47z" />
    <glyph glyph-name="ordfeminine" unicode="&#xaa;" horiz-adv-x="710" 
d="M272 894q0 -60 44 -60h5l4 1q76 0 158.5 130t82.5 217l2 10v15q0 53 -61 53h-20q-67 0 -123 -88q-87 -137 -87 -217l-3 -16l-2 -25v-20zM581 744h-20q-34 0 -46.5 25t-12.5 102h-1q-7 0 -105 -74q-67 -50 -132 -50t-103 38t-38 105v13q0 59 32 139q33 80 93 150
q115 133 246 133q30 0 65.5 -15.5t41.5 -15.5t34 17t41 17h12q53 0 53 -31v-10q0 -18 -52 -180.5t-52 -222.5q0 -29 37 -29q16 2 24 2q30 0 30 -19q0 -30 -34 -52q-66 -42 -113 -42z" />
    <glyph glyph-name="guillemotleft" unicode="&#xab;" horiz-adv-x="910" 
d="M527 802v-7q0 -20 -120 -170t-120 -164t58 -145q58 -130 58 -168t-42 -38q-17 0 -136 162t-119 189v8q0 24 182 193t210 169t29 -29zM866 798v-7q0 -23 -118 -170q-117 -146 -117 -161q0 -13 57 -142q56 -127 56 -165t-40 -38q-19 0 -136 159q-116 159 -117 189
q0 30 179 195q180 166 202 167q34 0 34 -27z" />
    <glyph glyph-name="logicalnot" unicode="&#xac;" horiz-adv-x="1148" 
d="M904 734q114 0 132 -5.5t18 -47.5v-57l-1 -15l-4 -118l-7 -162l-1 -29l-1 -14l-1 -42q0 -42 -43 -42h-28q-45 0 -54.5 25t-9.5 184t-18.5 171t-399.5 12h-118l-43 1h-72l-84 2q-40 0 -40 46v28q0 53 21.5 57.5t461.5 4.5l176 1h116z" />
    <glyph glyph-name="uni00AD" unicode="&#xad;" horiz-adv-x="664" 
d="M574 564q35 0 35 -16v-5l-1 -6q0 -66 -27 -107q-16 -24 -81 -24h-372q-50 0 -50 15v12q0 97 40 117q26 13 266 13l27 1h163z" />
    <glyph glyph-name="registered" unicode="&#xae;" horiz-adv-x="1348" 
d="M745 1262h-48q-96 0 -184.5 -41t-154.5 -110q-142 -148 -142 -356v-17q0 -193 136 -343q55 -61 147 -103.5t187 -42.5h32q99 0 189 43t155.5 115t99.5 162t34 173v50q0 92 -38 178q-78 174 -234 246q-99 46 -179 46zM612 814l2 -17q0 -17 16 -17h21l4 1l55 5q5 1 10 1
q37 0 73 28.5t36 68.5v26q-3 15 -3 23q0 37 -35.5 72.5t-87.5 35.5h-47q-32 0 -38 -19q-6 -20 -6 -72v-56l-1 -13v-12l-1 -16v-16l1 -4v-15zM154 717v39q0 109 42.5 220.5t117.5 195.5q142 160 387 160h19q107 0 207 -42.5t169 -120.5t115.5 -202.5t46.5 -239.5v-37
q0 -213 -164.5 -345t-430.5 -132h-52q-182 0 -340 178q-62 70 -89.5 134.5t-27.5 191.5zM603 1118h99q123 0 188.5 -49t65.5 -117t-20 -98.5t-44.5 -55t-24.5 -32.5t59 -111.5t89.5 -135.5t30.5 -45q0 -37 -110 -37q-62 0 -133 115.5t-130 115.5q-47 0 -47 -124
q0 -45 17.5 -69t17.5 -25q0 -16 -37 -16h-15q-201 0 -201 52q0 8 24 27q23 19 29.5 47t6.5 255l3 83v32l1 16v46q0 45 -21 69.5t-21 34.5q0 22 173 22z" />
    <glyph glyph-name="macron" unicode="&#xaf;" horiz-adv-x="828" 
d="M736 1157h-339q-143 0 -143 24v13q0 81 44 81l306 4h167q107 0 107 -25v-12q0 -59 -32 -78q-12 -7 -110 -7z" />
    <glyph glyph-name="degree" unicode="&#xb0;" horiz-adv-x="748" 
d="M326 1057q0 -45 43 -88t97 -43h11q64 0 109.5 53.5t45.5 129.5l-1 5q0 66 -40.5 112.5t-90.5 46.5h-31q-54 0 -99.5 -53t-45.5 -111v-35q2 -12 2 -17zM480 837h-36q-104 0 -173 75.5t-69 167.5v8q0 102 79.5 188.5t193.5 86.5h36q91 0 166 -69t75 -165v-27
q0 -108 -85.5 -186.5t-186.5 -78.5z" />
    <glyph glyph-name="plusminus" unicode="&#xb1;" horiz-adv-x="1124" 
d="M440 158h443q130 0 130 -33v-30q0 -65 -30.5 -70.5t-354.5 -5.5h-434q-90 0 -90 33v31q0 60 18.5 67.5t317.5 7.5zM543 277h-16q-29 0 -29 148.5t-17.5 158.5t-164.5 10t-170 5t-23 37v33q0 46 16 53.5t174 7.5t173 8q25 14 25 127l2 66q2 32 2 69.5t16 47t64 9.5h33
q28 0 28 -152t14 -162.5t170 -10.5t173.5 -6.5t17.5 -42.5v-16q0 -53 -24 -63t-175.5 -10t-166.5 -9q-25 -15 -25 -133l-2 -66q0 -87 -16 -98t-79 -11z" />
    <glyph glyph-name="uni00B2" unicode="&#xb2;" horiz-adv-x="688" 
d="M561 1228q0 109 -113 109q-48 0 -100 -52t-85 -52q-24 0 -24 35q0 72 73 122.5t167 50.5h41q80 0 141.5 -50.5t61.5 -118.5v-17q0 -95 -89 -187q-35 -36 -172 -142t-137 -114q0 -19 93 -19t151.5 17t64.5 17q25 0 25 -23q0 -67 -51 -107q-26 -20 -133 -20h-57l-19 1
l-38 1q-19 1 -38 1l-39 2h-57q-108 0 -108 27q0 40 163.5 176.5t221 207t57.5 135.5z" />
    <glyph glyph-name="uni00B3" unicode="&#xb3;" horiz-adv-x="686" 
d="M182 822q15 0 68.5 -42t109.5 -42t108 46.5t52 116t-41 101.5q-24 19 -90 31.5t-66 34.5q0 20 73 46q157 55 157 140t-88 85q-44 0 -102.5 -33.5t-77 -33.5t-18.5 23q0 58 64 101.5t166 43.5h21q91 0 146 -39t55 -93.5t-26.5 -91.5t-80.5 -75.5t-54 -44.5t35.5 -26
t62 -53.5t26.5 -94.5t-33.5 -114t-89.5 -89q-99 -64 -245 -64q-81 0 -134 26.5t-53 80.5v14q0 46 55 46z" />
    <glyph glyph-name="acute" unicode="&#xb4;" horiz-adv-x="766" 
d="M790 1327v-10q0 -37 -120 -121q-233 -163 -249 -163h-10q-35 0 -35 23v5q0 68 178 226q105 93 150 93h21q65 0 65 -53z" />
    <glyph glyph-name="mu" unicode="&#xb5;" horiz-adv-x="1130" 
d="M358 243q0 -109 86 -109q29 0 76 31q75 49 145 164t127 382q22 97 33 117q33 58 99 58q36 0 48.5 -17.5t12.5 -86t-43.5 -264t-43.5 -251t35 -67.5q58 -19 58 -54v-16q0 -19 -38 -52q-68 -59 -142 -59q-40 0 -64.5 19.5t-41 84.5t-48.5 65q-17 0 -57 -31l-46 -37
q-30 -24 -66.5 -49t-130 -55.5t-110.5 -49.5t-46.5 -158t-34.5 -152q-35 -86 -113 -86q-59 0 -59 78q0 24 106 474.5t106 519.5l-7 117q0 55 51.5 87t106.5 32t70.5 -24t15.5 -99t-42.5 -272t-42.5 -240z" />
    <glyph glyph-name="paragraph" unicode="&#xb6;" horiz-adv-x="1096" 
d="M1135 1287q0 -5 -61 -67.5t-78 -112.5t-85 -437t-98 -538q-31 -151 -36 -216.5t-9 -90.5q-14 -81 -61 -81t-47 70t34.5 263.5t75 539.5t40.5 377q0 22 -68 22q-8 0 -100 -561q-25 -153 -125 -566q-26 -108 -93 -108q-48 0 -48 119q0 61 26.5 269.5t26.5 228.5
q0 56 -100.5 190t-106.5 149q-23 60 -23 157q0 98 53 190q104 181 364 225q138 23 320 23h39q160 0 160 -45z" />
    <glyph glyph-name="periodcentered" unicode="&#xb7;" horiz-adv-x="530" 
d="M170 560v22q0 39 33 85t95 46h19q12 -3 32 -3t49.5 -29.5t29.5 -63.5l3 -24v-9l-1 -4v-9q-3 -14 -3 -17q0 -31 -37 -68t-88 -37h-18q-44 0 -79 29t-35 82z" />
    <glyph glyph-name="cedilla" unicode="&#xb8;" horiz-adv-x="762" 
d="M142 -348q136 0 136 92q0 28 -54 61.5t-54 47.5q0 39 93 140q25 27 74 27h8q19 0 19 -9.5t-22 -43.5t-22 -46t54 -61t54 -96v-25q0 -62 -76.5 -115t-164.5 -53h-44q-81 0 -81 26v6q0 49 80 49z" />
    <glyph glyph-name="uni00B9" unicode="&#xb9;" horiz-adv-x="679" 
d="M231 675q-54 0 -54 21t63 45t81.5 63.5t62 234.5t43.5 214q0 41 -43 52q-77 20 -77 36.5t24 26.5q163 70 274 70q19 0 19 -22v-11q0 -19 -23 -104.5t-65.5 -277t-42.5 -223.5t48 -56.5t48 -39.5q0 -29 -70 -29h-13l-13 1h-211l-39 -1h-12z" />
    <glyph glyph-name="ordmasculine" unicode="&#xba;" horiz-adv-x="682" 
d="M584 1135v38q0 48 -22 73.5t-49 25.5h-18q-53 0 -119 -94.5t-66 -203.5l-3 -27l-2 -31q0 -63 21.5 -91t51.5 -28h17q66 0 118 96q71 130 71 242zM523 1332h20q84 0 139 -55t55 -140v-28q0 -134 -116 -259q-44 -48 -112.5 -80t-132.5 -32h-31q-84 0 -138.5 54.5
t-54.5 130.5v38q0 131 111 251q110 120 260 120z" />
    <glyph glyph-name="guillemotright" unicode="&#xbb;" horiz-adv-x="914" 
d="M414 138v7q0 19 120 169t120 164t-24 65t-58 140t-35 108q0 37 44 37q17 0 135 -162t119 -190v-9q0 -24 -181 -191q-182 -168 -202 -168h-7q-31 0 -31 30zM75 143v8q0 20 117 166q118 147 118 157t-56 146q-56 137 -57 170q0 33 35 33h7q17 0 133 -159t117 -187v-9
q0 -23 -179 -188q-180 -166 -197 -167q-38 0 -38 30z" />
    <glyph glyph-name="onequarter" unicode="&#xbc;" horiz-adv-x="1621" 
d="M1250 600q-20 0 -154 -153q-28 -32 -89 -93t-61 -67.5t34 -6.5h174q25 0 31 19q65 195 65 288l2 9q0 4 -2 4zM1157 -6h-28q-69 0 -69 44q0 29 31 54t31 48q0 52 -141.5 52t-141.5 45v10q0 28 36 70q198 232 381 388q56 48 110.5 48t54.5 -32v-12q0 -25 -35.5 -168
t-35.5 -195q0 -21 43 -41q23 -11 23 -57q0 -1 -42 -43t-42 -83l1 -4q8 -13 8 -37q0 -87 -184 -87zM1320 1334v-13q0 -56 -812 -1177q-116 -160 -153 -160q-56 0 -56 15t857 1258q66 95 107 95q57 0 57 -18zM165 592q-39 0 -39 20.5t63 46t80.5 60t59.5 223.5t42 233
q0 25 -62 37.5t-62 35.5q0 15 25 27q153 73 279 73q20 0 20 -20q0 -42 -63 -285t-63 -322q0 -36 50 -57t50 -44q0 -28 -72 -28h-13l-14 1h-202l-40 -1h-39z" />
    <glyph glyph-name="onehalf" unicode="&#xbd;" horiz-adv-x="1619" 
d="M988 5q-103 0 -103 31q0 36 165 174t220.5 206t55.5 143q0 41 -30 70t-79 29t-106.5 -52.5t-82 -52.5t-24.5 24q0 84 73.5 134.5t169.5 50.5h20q102 0 161.5 -52.5t59.5 -135.5t-80 -173q-35 -40 -176.5 -149.5t-141.5 -118.5q0 -18 89 -18t157 16.5t73 16.5q15 0 15 -23
q0 -68 -54 -106q-27 -19 -116 -19h-77q-38 2 -56 2l-57 3h-76zM1251 1359q56 0 56 -32q0 -40 -621 -898q-324 -447 -348 -447q-54 0 -54 18v12q0 8 241 352.5t381 547.5q308 447 345 447zM155 592q-31 0 -31 18.5t64.5 47.5t86.5 79q8 19 52.5 211.5t44.5 227.5t-60 47
t-60 30.5t32 31.5q169 66 263 66q21 0 21 -18.5t-30 -148.5l-17 -66l-9 -40q-6 -24 -40 -176.5t-34 -184t48.5 -58.5t48.5 -37q0 -30 -43 -30h-143l-13 1h-27l-39 -1h-115z" />
    <glyph glyph-name="threequarters" unicode="&#xbe;" horiz-adv-x="1623" 
d="M1058 279h97q43 0 50 20q67 201 67 297q0 4 -3 4q-18 0 -100 -93.5t-142.5 -154t-60.5 -69.5q0 -4 92 -4zM1176 -7h-28q-69 0 -69 43q0 28 32 54t32 50q0 52 -143 52t-143 44q0 70 409 459q59 56 120 56h13q42 0 42 -31v-12l-38 -184q-33 -160 -33 -179t44 -40
q21 -10 21 -49q0 -18 -41.5 -51.5t-41.5 -79.5l11 -34q0 -98 -187 -98zM1348 1333v-13q0 -10 -43 -72q-694 -1007 -791 -1136t-131 -129q-56 0 -56 14.5t848 1244.5q75 109 116 109q57 0 57 -18zM315 576h-40q-79 0 -125 30.5t-46 78.5v16q0 55 47 55q17 0 72.5 -48
t116.5 -48t104 50.5t43 108.5t-29 84.5t-96 40t-67 46.5q0 17 67.5 36.5t112.5 55t45 104.5q0 19 -21 42t-66.5 23t-101 -36.5t-76 -36.5t-20.5 29q0 61 62 103t150 42h42q87 0 143 -41.5t56 -96.5v-18q0 -64 -67 -119q-15 -12 -53.5 -36.5t-38.5 -36.5l42 -25
q82 -48 82 -151t-98.5 -177.5t-239.5 -74.5z" />
    <glyph glyph-name="questiondown" unicode="&#xbf;" horiz-adv-x="907" 
d="M26 -118v18q0 190 230 349q145 101 175.5 138t41.5 119.5t58 82.5h15q18 0 38 -27.5t20 -108.5t-57 -155q-18 -24 -115 -113.5t-137.5 -159t-40.5 -157.5q0 -53 48 -87q24 -17 78.5 -17t133 63t107.5 63q44 0 44 -75v-15q0 -82 -94 -138.5t-226 -56.5t-225.5 79.5
t-93.5 197.5zM484 881q0 45 41 79.5t91 34.5h9q47 0 79.5 -27t32.5 -71v-30q0 -50 -38 -88t-67 -38q-16 -4 -21 -4h-26q-12 3 -27.5 3t-45.5 25t-30 74v30q2 8 2 12z" />
    <glyph glyph-name="Agrave" unicode="&#xc0;" horiz-adv-x="1330" 
d="M603 563h122q125 0 125 22v21l-1 7l-2 37l-1 8l-5 76l-1 7l-3 47l-1 7l-1 8l-3 47q-4 32 -5.5 51t-3.5 41t-2 32l-3 31q-2 16 -2 23q0 68 -14 68t-81 -124.5t-146.5 -254t-79.5 -145.5q0 -9 108 -9zM923 1360q66 0 86 -126q15 -90 30.5 -264t51.5 -477t36 -305
q13 -58 48 -78q68 -39 68 -50q0 -44 -54 -53q-12 -2 -214.5 -2t-202.5 36q0 8 28.5 47t29.5 41q38 73 38 183.5t-37 140.5q-23 19 -203 19t-217 -40t-85.5 -155t-48.5 -151t45 -71q16 -15 16 -22q0 -32 -90 -32h-212q-99 0 -99 32.5t97 84.5q51 27 127 140t246 394.5
t251.5 427.5t134 213t130.5 67zM669 1705v19q0 25 27 49t50 24h5q46 0 135 -78q182 -159 182 -211v-5q0 -33 -27 -33h-10l-5 1q-38 0 -268 153q-89 59 -89 81z" />
    <glyph glyph-name="Aacute" unicode="&#xc1;" horiz-adv-x="1330" 
d="M558 564h197q95 0 95 28v14l-1 8l-1 22l-6 75l-2 31l-1 8l-3 46q-2 16 -2 23l-3 31l-2 32q-5 32 -6 51t-4.5 55t-3.5 72t-15 36q-2 0 -153.5 -246t-151.5 -277q0 -9 63 -9zM922 1360q67 0 87 -126q9 -54 15 -117l24 -241q14 -144 46.5 -415t32.5 -272q14 -60 48 -79
q68 -39 68 -49q0 -36 -26 -46t-235.5 -10t-209.5 37q0 11 26.5 44.5t31.5 42.5q38 69 38 182t-37 143q-24 19 -203.5 19t-210 -32t-85.5 -149t-55 -178q0 -19 30.5 -47.5t30.5 -32.5q0 -33 -150 -33h-92q-159 0 -159 33t97 85q51 27 127 140t164.5 262t137 227t157.5 267.5
t150 247.5q69 97 152 97zM1230 1733v-21q0 -29 -95 -86q-260 -156 -303 -156h-5q-27 0 -27 23v15q0 50 192 199q113 88 157 88h16q65 0 65 -62z" />
    <glyph glyph-name="Acircumflex" unicode="&#xc2;" horiz-adv-x="1330" 
d="M641 564h68q141 0 141 29v7l-1 7l-7 105l-1 7l-3 47q-1 8 -1 15l-3 31l-2 31q-4 32 -5 47.5t-3.5 41.5t-4 41.5t-2.5 27.5t-2 23.5t-1 42t-14 30.5q-2 0 -154 -247t-152 -276q0 -10 147 -10zM922 1361q64 0 86 -126q9 -52 28 -239l12 -119l5 -60q4 -48 38 -332.5
t36 -294.5q15 -60 48 -79q68 -38 68 -50q0 -44 -55 -53q-12 -2 -214 -2t-202 36q0 14 30.5 51.5t47.5 85.5t17 147t-37 129q-23 18 -203 18t-218.5 -41.5t-85 -155t-46.5 -162.5q0 -20 30 -47t30 -32q0 -33 -90 -33h-212q-98 0 -98 32.5t96 84.5q80 42 254 340
q69 118 156 257.5t193.5 326.5t148.5 241q60 77 137 77zM980 1790h24q42 0 102 -87q116 -168 116 -187q0 -36 -44 -36t-160 116q-41 41 -50.5 41t-55.5 -30l-64 -42l-7 -4l-13 -9q-128 -73 -150 -73h-7q-38 0 -38 18.5t149.5 155.5t197.5 137z" />
    <glyph glyph-name="Atilde" unicode="&#xc3;" horiz-adv-x="1330" 
d="M550 563h205q95 0 95 28v7l-1 7l-7 105l-1 8l-3 46q-1 8 -1 15l-3 31l-2 32q-4 28 -5 45t-2.5 31.5t-2.5 26.5q0 12 -4 49t-4 69t-14 32q-2 0 -154 -246.5t-152 -276.5q0 -9 56 -9zM922 1359q64 0 86 -126q10 -57 20.5 -162.5t13.5 -135.5l6 -60l5 -60q4 -44 38 -331
t36 -296q15 -60 48 -79q68 -38 68 -49q0 -36 -26 -46t-235.5 -10t-209.5 37q0 11 30.5 50.5t47.5 86t17 146.5t-31 124t-209 24t-210.5 -34t-86 -148t-53.5 -177q0 -21 30 -48t30 -32q0 -33 -119 -33h-153q-128 0 -128 33t96 85q56 31 135 151.5t151 241t141.5 232.5
t169.5 288t140 231q70 97 152 97zM674 1503h-15q-30 0 -30 21v8q0 63 63.5 126.5t130 63.5t146.5 -40t123.5 -40t85.5 42t44 42h7q37 0 37 -22v-7q0 -82 -92 -153q-48 -37 -99.5 -37t-150 40.5t-131.5 40.5t-75.5 -42.5t-43.5 -42.5z" />
    <glyph glyph-name="Adieresis" unicode="&#xc4;" horiz-adv-x="1330" 
d="M663 561h37q149 0 149 29v7l-1 7v7l-13 175l-2 31q-4 32 -5 46.5t-2 27t-2 24t-2.5 26t-3.5 38.5t-3.5 39.5t-1.5 45.5t-14 30q-2 0 -154 -247t-152 -276q0 -10 170 -10zM921 1358q61 0 82 -99q11 -52 33.5 -280t55.5 -509t34 -283q15 -60 48 -79q68 -39 68 -50
q0 -44 -55 -53q-12 -2 -214 -2t-202 36q0 12 31 50.5t47.5 88t16.5 148t-30.5 122t-138.5 23.5q-249 0 -281.5 -34.5t-86 -150.5t-53.5 -174q0 -20 30.5 -47.5t30.5 -32.5q0 -33 -91 -33h-182q-128 0 -128 31.5t97 86.5q82 47 253 339q69 118 156 257.5t193.5 326.5
t148.5 241q60 77 137 77zM872 1612q0 -39 -31 -76.5t-76 -37.5h-26q-31 0 -58 21.5t-27 49.5l-3 22v14q5 20 5 36.5t31.5 48t74.5 31.5h19l4 -1h7q10 -3 21 -3t33.5 -22.5t22.5 -46.5l3 -21v-15zM1033 1602q0 51 34 85t76 34h20q39 0 63.5 -24.5t24.5 -48.5l3 -21v-15
q0 -47 -33.5 -80.5t-73.5 -33.5h-26q-37 0 -61.5 24.5t-24.5 54.5l-2 17v8z" />
    <glyph glyph-name="Aring" unicode="&#xc5;" horiz-adv-x="1321" 
d="M544 563h205q94 0 94 22v21l-4 51l-4 46l-2 30q-4 32 -5 46.5t-2 27t-2.5 28t-3.5 29.5q0 14 -2 32q-3 30 -7.5 73t-4.5 52q0 77 -17 77q-11 0 -82 -131l-3 -7l-16 -27q-5 -9 -11.5 -21t-18.5 -33.5t-36 -63.5t-30.5 -55t-27 -49t-24.5 -43.5t-28 -48.5t-24 -48.5
t56 -7.5zM833 1588q0 -13 24.5 -37.5t50.5 -24.5h27q31 0 65.5 34.5t34.5 77.5v26q-3 9 -3 20t-21.5 38t-47.5 27l-7 2h-24q-9 -3 -16 -3q-27 0 -56.5 -37t-29.5 -72v-26q3 -12 3 -25zM914 1362q65 0 86 -131q11 -64 29.5 -280.5t49 -481t43.5 -306t43 -58.5q70 -39 70 -47
q0 -45 -49 -54q-5 -1 -210 -1t-205 39q0 15 31 53t45.5 84.5t14.5 146t-37 128.5q-21 16 -203.5 16t-213 -32.5t-80 -147t-49.5 -174.5q0 -22 30 -49t30 -31q0 -36 -213 -36h-124q-67 0 -67 34t93 83q50 26 111 118q28 41 240 392.5t286.5 485.5t107.5 176q57 73 141 73z
M732 1650q0 53 61 114t144 61h26q61 0 116.5 -43t55.5 -124v-6q0 -83 -65.5 -142t-147.5 -59h-14l-6 1q-69 0 -120.5 46t-51.5 108v25q2 12 2 19z" />
    <glyph glyph-name="AE" unicode="&#xc6;" horiz-adv-x="1846" 
d="M1044 1217v7q0 7 -4 7h-6q-19 0 -136 -163.5t-207.5 -281.5t-90.5 -127t30 -9h156l8 1l67 1l32 2q23 0 36 40q36 108 79 352l11 50q4 18 7.5 35.5t10.5 46t7 39.5zM214 -2q-270 0 -270 40.5t100 108.5q60 41 144 141q252 301 543 716q71 101 90 148t24.5 100t11.5 61
q35 47 327 47h172q269 0 368.5 -22t99.5 -90v-39q0 -106 -40 -106h-1q-22 0 -71 45q-103 94 -231 94l-2 1q-125 0 -167 -58t-75 -170t-33 -199q0 -52 84 -52t121 14t77 44.5t54 30.5q35 0 35 -48q0 -139 -37 -244q-26 -73 -73 -73l-27 22l-21 33l-28 29q-47 36 -109.5 36
t-105.5 -24.5t-61 -64.5q-48 -109 -48 -308q0 -68 53 -90q33 -14 96 -14q159 0 262 49q54 26 116 87t78 61q27 0 27 -32q0 -88 -51 -176q-23 -40 -59 -60q-67 -37 -518 -37h-175l-108 -1q-91 0 -91 38q0 19 47 61.5t74 104.5q62 141 62 252q0 54 -26 72.5t-152 18.5
t-178.5 -39t-147.5 -190.5t-95 -185t13.5 -65t13.5 -37.5q0 -30 -92 -30z" />
    <glyph glyph-name="Ccedilla" unicode="&#xc7;" horiz-adv-x="1328" 
d="M1387 1289q0 -132 -69 -332q-13 -39 -23 -39q-29 0 -47 112q-40 259 -273 259q-102 0 -211 -78q-212 -151 -311 -477q-43 -140 -43 -309t90 -267t214 -98q195 0 352 162q102 104 128 104q10 0 10 -20t-62 -117t-122 -136.5t-158 -72t-194 -32.5h-24l-6 -10
q-24 -37 -24 -45t44.5 -24.5t75.5 -47.5t31 -76v-17q0 -66 -69.5 -120.5t-174.5 -54.5h-44q-119 0 -119 33v7q0 40 34 40l51 -6q43 -5 57 -5q107 0 107 90q0 30 -26.5 56.5t-69 26.5t-42.5 11q0 10 61 96q22 30 37 50q-66 8 -129 34q-187 75 -260 274q-33 89 -33 226.5
t66 297.5q139 338 481 499q167 78 317 78h33q182 0 324 -38q21 -6 21 -34z" />
    <glyph glyph-name="Egrave" unicode="&#xc8;" horiz-adv-x="1220" 
d="M21 51q0 28 64.5 55.5t90.5 96t115.5 480.5t89.5 471.5t-29 85.5l-26 16l-27 13q-27 16 -27 36q0 25 44 35q87 20 584 20h124q122 0 149.5 -18.5t27.5 -80.5q0 -182 -42 -182q-9 0 -49.5 57.5t-106 86.5t-226.5 29q-66 0 -109 -70q-24 -39 -66.5 -166.5t-42.5 -163.5
q0 -65 122 -65q67 0 97 12t79.5 55.5t57.5 43.5q45 0 45 -51q0 -118 -46 -274q-22 -73 -58 -73q-22 0 -44 34q-50 75 -53 78q-39 32 -101 32q-121 0 -160 -67q-66 -112 -66 -354q0 -62 27 -88t158 -26t211 30t153 97.5t96 67.5q15 0 15 -33t-38 -123t-63 -112
q-41 -37 -221 -37l-42 1l-437 2l-43 1q-43 1 -85 1q-142 0 -142 47zM933 1472h-15q-11 0 -268 154q-90 54 -90 85v5l1 5v5q0 25 27 49t50 24l4 -1h5q42 0 135 -81q178 -156 178 -207v-5q-2 -10 -2 -15q0 -18 -25 -18z" />
    <glyph glyph-name="Eacute" unicode="&#xc9;" horiz-adv-x="1220" 
d="M21 51q0 27 64.5 55t98 116t115.5 488t82 452t-29 78l-26 16l-27 13q-27 17 -27 36q0 25 45 35q87 20 583 20h125q121 0 148.5 -18.5t27.5 -80.5q0 -182 -42 -182q-8 0 -50 58.5t-107 86.5t-224 28q-67 0 -110 -70q-26 -42 -67.5 -172t-41.5 -158q0 -65 123 -65
q66 0 97 12.5t80 55.5t56 43q45 0 45 -51q0 -118 -46 -274q-22 -73 -58 -73q-21 0 -43 34q-49 74 -54 78q-40 32 -100 32q-120 0 -160 -67q-16 -27 -41.5 -148t-25.5 -194.5t27 -99.5t158.5 -26t211.5 30t151.5 97.5t96.5 67.5q15 0 15 -34t-37.5 -122.5t-63.5 -111.5
q-42 -37 -221 -37l-41 1l-438 2l-43 1q-43 1 -84 1q-143 0 -143 47zM1110 1732v-21q0 -38 -90 -83q-22 -11 -42 -23t-36.5 -21t-34 -19.5t-102.5 -53t-93 -42.5h-5q-27 0 -27 23v16q0 49 192 198q114 89 168 89l5 -1q20 0 42.5 -22.5t22.5 -39.5z" />
    <glyph glyph-name="Ecircumflex" unicode="&#xca;" horiz-adv-x="1220" 
d="M21 51q0 28 64.5 55.5t92 100t115.5 482.5t88 467.5t-29 83.5l-26 16l-27 13q-27 16 -27 36q0 33 80 38q252 17 589 17h83q122 0 149.5 -18.5t27.5 -80.5q0 -183 -42 -183q-9 0 -49.5 58t-106 87t-226.5 29q-65 0 -109 -70q-23 -37 -66 -165.5t-43 -164.5q0 -65 122 -65
q68 0 98 12.5t79 55.5t57 43q45 0 45 -51q0 -118 -46 -274q-22 -74 -58 -74q-21 0 -44 35q-50 75 -53 78q-38 31 -101 31q-121 0 -160 -66q-66 -112 -66 -354q0 -62 27 -88t158 -26t211 30t153 97.5t96 67.5q15 0 15 -33.5t-38 -122.5t-63 -112q-41 -37 -221 -37h-42l-41 1
l-352 1l-44 1q-87 2 -128 2q-142 0 -142 47zM554 1477h-14q-30 0 -30 21v6q0 10 149.5 147t205.5 137h8q43 0 77 -41q148 -178 148 -234v-6q0 -29 -39.5 -29t-125 78.5t-91.5 78.5t-129 -79t-159 -79z" />
    <glyph glyph-name="Edieresis" unicode="&#xcb;" horiz-adv-x="1220" 
d="M1027 1359q119 0 148 -18.5t29 -80.5q0 -183 -43 -183q-6 0 -48.5 59t-107.5 87t-225 28q-66 0 -110 -70q-23 -37 -65.5 -167.5t-42.5 -164t29 -48.5t104 -15t105 19.5t66 55.5t52 36q45 0 45 -51q0 -115 -47 -274q-22 -74 -57 -74q-21 0 -44 35q-49 74 -54 78
q-39 31 -100 31q-121 0 -160 -66q-17 -28 -42 -149.5t-25 -193.5t27.5 -98.5t159 -26.5t212 31t152.5 97t94 66q16 0 16 -32.5t-37 -121t-71.5 -119.5t-172.5 -31h-124l-43 1l-309 1l-44 1q-44 1 -86 1q-185 0 -185 48q0 21 30 40l34 15q44 19 64.5 43.5t40 89t105.5 461
t86 456t-28 84.5l-26 16l-28 12q-26 16 -26 37q0 38 117 38l552 17h83zM687.5 1719q15.5 0 39.5 -24t24 -56v-29q-3 -12 -3 -18q0 -29 -32 -61t-72 -32h-26q-37 0 -62.5 25.5t-25.5 67.5v7l1 4q0 44 31.5 81.5t78.5 37.5h19q12 -3 27.5 -3zM913 1585v25q0 37 31.5 74.5
t78.5 37.5h19l4 -1h7l15 -3q18 0 41.5 -23.5t23.5 -59.5v-25q-3 -12 -3 -25.5t-28.5 -49.5t-74.5 -36h-27q-37 0 -62 25t-25 61z" />
    <glyph glyph-name="Igrave" unicode="&#xcc;" horiz-adv-x="730" 
d="M36 -2q-33 0 -33 25q0 32 63 57.5t81.5 48.5t46 106t114 495.5t86.5 457t-41 73.5q-74 52 -74 70q0 33 89 33h43l22 -1l292 1h61q29 0 29 -26t-100 -71q-47 -21 -74 -101q-2 -5 -107.5 -459.5t-105.5 -515t43 -93.5q68 -52 68 -70q0 -27 -309 -27l-22 -1h-45l-87 -2h-40z
M390 1798h10q47 0 127 -70q190 -166 190 -214v-10l-1 -5q0 -28 -30 -28h-5q-41 0 -269 152q-94 63 -94 88v14q0 25 27.5 49t44.5 24z" />
    <glyph glyph-name="Iacute" unicode="&#xcd;" horiz-adv-x="730" 
d="M5 24q0 31 63 56.5t80 46.5t47.5 106.5t115.5 501.5t85 440q0 57 -41 86q-74 52 -74 71q0 32 89 32h65l22 -1l270 1h60q30 0 30 -26t-100 -71q-46 -21 -77.5 -107.5t-120.5 -512t-89 -471.5t43 -78q68 -50 68 -70q0 -27 -310 -27l-174 -3q-52 0 -52 26zM880 1733v-20
q0 -34 -95 -86q-286 -156 -303 -156h-5q-27 0 -27 23v15q0 50 206 210q99 77 149 77h10q65 0 65 -63z" />
    <glyph glyph-name="Icircumflex" unicode="&#xce;" horiz-adv-x="730" 
d="M37 -2q-33 0 -33 25q0 32 63 57.5t81.5 48.5t47.5 110t114 493t85 453t-41 76q-74 52 -74 70q0 33 89 33h43l22 -1l292 1h61q30 0 30 -25.5t-101 -71.5q-47 -21 -74 -101q-2 -5 -107.5 -459.5t-105.5 -515t43 -93.5q68 -52 68 -70q0 -27 -309 -27l-22 -1h-45l-87 -2h-40z
M325 1478h-14q-31 0 -31 21q0 32 256 249q47 40 99 40l8 1q45 0 87 -54q139 -181 139 -219t-39.5 -38t-125.5 79t-91.5 79t-128.5 -79t-159 -79z" />
    <glyph glyph-name="Idieresis" unicode="&#xcf;" horiz-adv-x="730" 
d="M7 22q0 32 61.5 56.5t81 47t32.5 61.5t114.5 485.5t101.5 503.5t-41 84q-74 49 -74 70q0 33 110 33l22 -1l334 1h21q49 0 49 -26t-100 -71q-47 -21 -79.5 -114t-120 -511t-87.5 -466t42 -78q69 -49 69 -58q0 -32 -47 -38q-15 -2 -263 -2h-44l-88 -2h-62q-32 0 -32 25z
M459 1718q14 0 37.5 -23.5t23.5 -55.5v-29q0 -44 -33.5 -77.5t-73.5 -33.5h-26q-37 0 -62 25t-25 57v29q0 34 31 73t79 39h19q16 -4 30 -4zM681 1606l4 25q0 27 32 59t74 32h20q12 -4 25 -4q62 0 62 -66q2 -6 2 -10l2 -18v-7q0 -44 -31 -81t-76 -37h-26q-37 0 -61 24t-24 48
l-3 21v14z" />
    <glyph glyph-name="Eth" unicode="&#xd0;" horiz-adv-x="1472" 
d="M1172 790v58q0 198 -103 310t-262 112h-41q-95 0 -119 -64q-7 -18 -44.5 -197t-37.5 -221q0 -28 132.5 -35.5t132.5 -44.5t-30.5 -51t-141.5 -14t-141 -48q-9 -14 -53.5 -197t-44.5 -227t24.5 -59t85.5 -15h45q254 0 411 185q93 109 140 242.5t47 265.5zM16 31
q0 21 65 56t90 91.5t64 228.5t39 185q0 45 -75 53t-75 40q0 54 90.5 63t109.5 53q67 155 67 386q0 49 -51 84t-51 57q0 33 114 33l25 1q26 1 52 1l27 1q27 1 53 1l137 2h115q283 0 446 -142q164 -142 164 -397v-28q0 -182 -89 -356q-176 -344 -562 -423q-101 -21 -466 -21
h-54l-110 -2h-52q-73 0 -73 33z" />
    <glyph glyph-name="Ntilde" unicode="&#xd1;" horiz-adv-x="1472" 
d="M8 48q0 16 87 61q48 25 72 85t112 470t88 458.5t-10 71t-58 62.5t-48 57q0 39 166 39q98 0 146.5 -28t97 -102t237 -464.5t195.5 -390.5q14 0 35 69t75.5 350t54.5 345t-13.5 92.5t-40 62t-26.5 38.5q0 37 119 37h141q130 0 130 -28q0 -35 -68.5 -83.5t-92.5 -115
t-129 -556t-110 -504.5q-21 -69 -67 -69q-27 0 -67.5 35t-76 100.5t-105.5 213.5q-326 685 -346 685t-31 -35.5t-77.5 -360t-66.5 -482.5q0 -32 17 -61l17 -23q30 -35 30 -38q0 -39 -101 -39h-89q-197 0 -197 23v25zM860 1718q40 0 131.5 -40t127.5 -40t78.5 42.5t43.5 42.5
h8q37 0 37 -22v-8q0 -68 -66.5 -129t-124.5 -61t-150.5 40.5t-128.5 40.5t-78.5 -42.5t-50.5 -42.5q-38 0 -38 22v8q0 69 80 142q51 47 131 47z" />
    <glyph glyph-name="Ograve" unicode="&#xd2;" horiz-adv-x="1480" 
d="M376 481v-34l1 -16q0 -172 78.5 -266.5t194.5 -94.5q214 0 361 220q87 131 130.5 294.5t43.5 292.5v49q0 163 -73 261.5t-194 98.5h-33q-91 0 -182 -62q-188 -128 -281 -448q-46 -156 -46 -295zM1432 872v-43q0 -160 -70.5 -326.5t-182.5 -286.5q-226 -241 -550 -241
q-227 0 -362 141q-63 65 -100 161.5t-37 204.5v44q0 154 67.5 316.5t181 288.5t256 188t278.5 62h22q223 0 359 -140q65 -67 101.5 -165t36.5 -204zM767 1792h10q34 0 142 -84q172 -134 172 -195v-10l-1 -4q0 -28 -26 -28h-14q-14 0 -266 151q-88 53 -88 79v19q0 22 25 47
t46 25z" />
    <glyph glyph-name="Oacute" unicode="&#xd3;" horiz-adv-x="1480" 
d="M647 71h32q97 0 189 66q192 138 277 461q40 151 40 279v49q0 163 -74 262t-210 99q-105 -1 -197 -63q-189 -128 -282 -448q-46 -156 -46 -295v-33l1 -17q0 -156 72.5 -258t197.5 -102zM1432 873v-43q0 -161 -68.5 -323t-180.5 -285t-252.5 -184.5t-278.5 -61.5h-46
q-209 0 -353 155q-65 70 -94 169t-29 183v44q0 154 67 315.5t181 288t256.5 188.5t278.5 62h45q98 0 192 -41q172 -75 242 -254q40 -104 40 -213zM1234 1723v-16q0 -27 -94 -83q-255 -153 -295 -153h-11q-27 0 -27 22v15q0 46 196 198q108 84 156 84h10q17 0 41 -21t24 -46z
" />
    <glyph glyph-name="Ocircumflex" unicode="&#xd4;" horiz-adv-x="1480" 
d="M647 71h32q97 0 189 66q192 138 277 461q40 151 40 279v49q0 163 -74 262t-210 99q-105 -1 -197 -63q-189 -128 -282 -448q-46 -156 -46 -295v-33l1 -17q0 -156 72.5 -258t197.5 -102zM1432 873v-43q0 -136 -59 -297.5t-170 -288t-252.5 -197.5t-298.5 -71h-46
q-91 0 -182 36q-183 72 -254 258q-40 104 -40 213v43q0 155 67 316.5t181 288t256.5 188.5t278.5 62h45q96 0 192 -42q173 -75 242 -253q40 -104 40 -213zM987 1780h24q42 0 97 -79q121 -175 121 -190q0 -35 -48 -35q-19 0 -113.5 78.5t-98.5 78.5t-127 -79t-156 -79h-14
q-32 0 -32 16.5t148.5 152.5t198.5 136z" />
    <glyph glyph-name="Otilde" unicode="&#xd5;" horiz-adv-x="1479" 
d="M376 479v-34l1 -16q0 -157 73 -259t213 -102q201 0 348 220q85 128 129.5 291t44.5 296v33q0 179 -73 277.5t-194 98.5h-33q-91 0 -182 -62t-167 -182.5t-118 -280t-42 -280.5zM1432 870v-43q0 -159 -71 -327q-71 -166 -179 -282q-229 -244 -553 -245q-227 0 -362 141
q-63 65 -100 161.5t-37 204.5v44q0 154 67.5 316.5t181 288.5t256 188t278.5 62h22q223 0 359 -140q65 -67 101.5 -165t36.5 -204zM636 1519q0 78 66.5 139t131 61t145.5 -40.5t123.5 -40.5t72.5 30q56 56 61 56h8q31 0 31 -20v-7q0 -72 -78 -143q-53 -49 -118 -49
t-146 40.5t-124.5 40.5t-83.5 -43.5t-50 -43.5h-7q-32 0 -32 20z" />
    <glyph glyph-name="Odieresis" unicode="&#xd6;" horiz-adv-x="1480" 
d="M647 69h32q83 0 174 56t169.5 181t120.5 283t42 286v33q0 179 -74 278t-210 99h-2q-209 0 -363 -245q-76 -120 -118 -280t-42 -281v-33l1 -17q0 -156 72.5 -258t197.5 -102zM1432 871v-43q0 -172 -76 -340q-149 -333 -431 -455q-138 -60 -273 -60q-369 1 -485 303
q-37 96 -37 205v43q0 155 67 316.5t181 288t256.5 188.5t278.5 62h45q96 0 192 -42q173 -75 242 -253q40 -104 40 -213zM751 1497q-30 0 -58 22.5t-28 57.5v29q3 9 3 27.5t30.5 49t60.5 30.5l22 3h8l29 -4q60 0 60 -60l4 -24v-18l-4 -25q0 -26 -29.5 -55.5t-57.5 -29.5
l-18 -3h-22zM1263 1631v-21q0 -38 -30 -75.5t-75 -37.5h-26q-12 3 -26 3t-37 23t-23 58v25q3 9 3 27.5t30.5 49t59.5 30.5q8 2 12 2l15 1h4l29 -4q12 0 38 -20.5t26 -60.5z" />
    <glyph glyph-name="multiply" unicode="&#xd7;" horiz-adv-x="1141" 
d="M582 428q-6 0 -165.5 -159.5t-174.5 -159.5t-47.5 31.5t-32.5 45t158 171.5t158 175.5t-142.5 165t-142.5 160t35 47.5t50.5 35t163 -152.5t155 -152.5t74 69t159 158t105.5 89t46 -33t33 -48.5t-157 -167.5t-157 -170.5t144.5 -168t144.5 -164.5t-33 -48t-52.5 -33
t-164.5 155t-157 155z" />
    <glyph glyph-name="Oslash" unicode="&#xd8;" horiz-adv-x="1481" 
d="M1194 858v54q0 149 -31 149q-13 0 -116 -133.5t-172 -214.5q-414 -487 -414 -529v-11q0 -43 82 -82q50 -24 116 -24h13q90 1 179 53q181 107 293 440q50 150 50 298zM373 480v-41q0 -156 29 -156h7q8 0 353.5 432t345.5 454q0 42 -60.5 76.5t-141.5 34.5l-14 -1
q-102 0 -188 -62q-178 -128 -273 -412q-58 -174 -58 -325zM1221.5 1319q20.5 0 74.5 54t78 54q40 0 40 -48q0 -4 -39.5 -68.5t-39.5 -88t28 -75.5q73 -136 73 -300t-65 -331t-181 -293q-230 -251 -571 -251q-66 0 -154.5 24.5t-118 24.5t-85.5 -57.5t-80 -57.5q-38 0 -38 48
q0 9 46.5 75t46.5 91q0 24 -26 70q-78 136 -78 292v27q0 172 71 337t185 286q229 242 571 242q57 0 127 -19l69 -22q46 -14 66.5 -14z" />
    <glyph glyph-name="Ugrave" unicode="&#xd9;" horiz-adv-x="1436" 
d="M736 1337q0 -14 -19 -30q-59 -49 -61 -51q-37 -45 -73 -165q-149 -501 -149 -755q0 -123 75.5 -183t183 -60t193 55.5t137.5 164t118.5 418t66.5 439.5q0 50 -13 74.5t-35 51t-22 33.5q0 35 122 35h78q199 0 199 -47q0 -30 -65.5 -59.5t-88.5 -97.5q-9 -28 -102 -430
t-156.5 -509t-180.5 -173.5t-262 -66.5h-44q-213 0 -320.5 103.5t-107.5 272.5q0 103 73.5 440t73.5 384.5t-45 69.5q-70 34 -70 49q0 29 27.5 42.5t205.5 13.5l155 5q106 0 106 -24zM1050 1469h-15q-11 0 -268 154q-90 54 -90 90l1 5q0 30 27.5 54t49.5 24l5 -1h5
q41 0 134 -81q178 -156 178 -207v-5q-2 -10 -2 -15q0 -18 -25 -18z" />
    <glyph glyph-name="Uacute" unicode="&#xda;" horiz-adv-x="1436" 
d="M736 1337q0 -13 -38 -44.5t-42 -36.5q-38 -47 -73 -164q-149 -501 -149 -755q0 -124 76 -184q74 -60 182 -60q225 0 331 221q52 109 118.5 417.5t66.5 439.5q0 50 -12.5 73.5t-35 50.5t-22.5 35q0 35 122 35h38q189 0 214 -10t25 -38.5t-66 -59t-88 -96.5
q-13 -37 -103 -432.5t-153 -504t-182 -176t-245 -67.5t-209 16.5t-147 66.5q-134 103 -134 293q0 103 73.5 440t73.5 385t-45 69q-70 33 -70 49q0 29 25 42t171 13l192 6q106 0 106 -24zM819 1492v11l1 5q0 19 25 44q243 243 334 243l5 -1q21 0 43.5 -22.5t22.5 -50.5l-1 -5
q0 -43 -90 -88q-28 -14 -73 -41t-136 -72.5t-99 -45.5h-5q-27 0 -27 23z" />
    <glyph glyph-name="Ucircumflex" unicode="&#xdb;" horiz-adv-x="1436" 
d="M210 367q0 93 73.5 430t73.5 384.5t-45 69.5q-70 34 -70 49q0 29 26.5 42t169.5 13l192 6q106 0 106 -24q0 -13 -37.5 -44t-42.5 -37q-37 -45 -73 -165q-149 -501 -149 -755q0 -123 76 -183q74 -60 182 -60q225 0 331 221q52 109 118.5 417.5t66.5 439.5q0 49 -13.5 74.5
t-35 51t-21.5 32.5q0 35 122 35h78q152 0 175.5 -9.5t23.5 -38.5t-65.5 -58.5t-88.5 -97.5q-13 -39 -103 -434t-154.5 -503.5t-181.5 -175t-262 -66.5h-44q-112 0 -204 35q-224 85 -224 351zM694 1477h-14q-30 0 -30 21v6q0 47 268 253q40 31 90 31t92 -54
q138 -179 138 -221v-6q0 -30 -39.5 -30t-125.5 79t-91.5 79t-128.5 -79t-159 -79z" />
    <glyph glyph-name="Udieresis" unicode="&#xdc;" horiz-adv-x="1436" 
d="M739 1335q0 -15 -37 -44.5t-43 -36.5q-38 -47 -73 -165q-149 -501 -149 -755q0 -122 74.5 -183t183.5 -61q225 0 331 221q52 106 118.5 416t66.5 441q0 50 -12.5 73.5t-35 50.5t-22.5 35q0 35 122 35h78q199 0 199 -47q0 -30 -66 -60.5t-88 -96.5q-14 -41 -103.5 -435
t-155 -504t-182.5 -175t-260 -65h-44q-212 0 -320 103.5t-108 272.5q0 99 73.5 440.5t73.5 386t-45 66.5q-70 34 -70 49q0 30 26.5 43t206.5 13l194 5q67 0 67 -23zM776 1718h30q26 0 53.5 -22t27.5 -50l3 -22v-10q0 -51 -34 -85t-77 -34h-19l-24 4q-20 0 -43.5 23.5
t-23.5 58.5v22l4 24q0 19 29 55t74 36zM1051 1599q0 42 31 80.5t76 38.5h30q8 -2 18.5 -2t36.5 -21t26 -49l3 -21v-15q0 -38 -29.5 -74.5t-59.5 -36.5q-6 -2 -11 -2l-14 -2h-15q-34 0 -61 21.5t-27 47.5q-2 6 -2 10l-2 18v7z" />
    <glyph glyph-name="Yacute" unicode="&#xdd;" horiz-adv-x="1228" 
d="M506 533q0 68 -47 247t-108 331q-37 91 -84 120q-78 48 -78 72l8 13q46 35 355 35q77 0 77 -25q0 -7 -24.5 -36.5t-24.5 -78.5t119 -437q15 -50 22 -50q36 0 185.5 232t149.5 294q0 14 -21.5 41t-21.5 36q0 33 102 33h32q230 0 230 -39q0 -29 -79.5 -72t-130.5 -102
q-160 -186 -337 -476q-62 -102 -87 -176q-56 -168 -56 -295q0 -62 35 -93q5 -5 42.5 -26.5t37.5 -41.5q0 -40 -110 -40h-101l-35 1l-136 -1h-96q-70 0 -70 18q0 40 72 69t98 85q82 177 82 362zM1152 1729v-21q0 -28 -95 -85q-260 -156 -298 -156h-10q-27 0 -27 23v10l1 5
q0 51 214 217q90 70 140 70h10q65 0 65 -63z" />
    <glyph glyph-name="Thorn" unicode="&#xde;" horiz-adv-x="1196" 
d="M922 750v47q0 88 -56.5 144.5t-152.5 56.5h-29q-80 0 -100 -49q-3 -7 -60.5 -251.5t-57.5 -255.5v-7q0 -24 94 -24l9 1q153 0 251 90q43 39 72.5 111t29.5 137zM783 1327.5q0 -29.5 -54.5 -54.5t-75.5 -49.5t-21 -87.5q0 -19 166 -41t246 -85q112 -89 112 -244
q0 -96 -44 -186q-88 -180 -317 -240q-114 -30 -298 -30q-45 0 -58 -18q-25 -35 -25 -102.5t43 -94.5q82 -52 82 -65q0 -34 -76 -34h-106l-26 1q-26 1 -54 1h-110q-156 0 -156 20q0 41 87 87q57 30 80.5 99t113.5 487t90 470t-55 92t-55 56q0 41 181 41l27 1q28 1 56 1l161 5
q86 0 86 -29.5z" />
    <glyph glyph-name="germandbls" unicode="&#xdf;" horiz-adv-x="1128" 
d="M163 582q0 104 76 294t190 335q152 193 374 193q110 0 191 -69t81 -181q0 -62 -32.5 -116.5t-122.5 -137.5t-90 -148q0 -18 66 -99t100.5 -152t34.5 -160q0 -137 -109.5 -243.5t-286.5 -106.5q-75 0 -124.5 30t-49.5 91t45 61q20 0 55 -24t91.5 -24t105.5 61.5t49 152
t-52 180.5q-83 143 -83 188q0 10 88.5 182.5t88.5 235.5t-29 99t-66 36q-135 0 -240 -266q-51 -128 -147 -558t-183 -597q-110 -211 -275 -211q-47 0 -67.5 22t-20.5 70q0 68 103 84q66 11 104 84t89.5 306t51.5 276l-2 37q-4 59 -4 75z" />
    <glyph glyph-name="agrave" unicode="&#xe0;" 
d="M722 718q0 48 -32 75t-78 27h-16q-54 0 -110.5 -44.5t-92.5 -105.5q-130 -221 -130 -389v-25q0 -61 21.5 -94.5t56.5 -33.5h14q43 0 137 75q47 38 105.5 128t90.5 205t32 157l2 16v9zM53 269q0 112 57.5 237.5t138 220.5t171 140.5t154.5 45.5t122 -24.5t67 -24.5
t49.5 26.5t72.5 26.5h17q65 0 65 -72q0 -29 -73.5 -274t-73.5 -309.5t18.5 -73.5t65.5 -9t47 -38q0 -44 -75.5 -89.5t-139.5 -45.5t-87.5 36.5t-23.5 96t-20 59.5q-11 0 -71 -58q-137 -132 -278 -132q-94 0 -148.5 63.5t-54.5 156.5v41zM525 1393h16q58 0 119 -79
q149 -192 149 -242q0 -30 -35 -30h-5q-33 0 -177 128t-144 157v4q0 21 27 41.5t50 20.5z" />
    <glyph glyph-name="aacute" unicode="&#xe1;" 
d="M342 129h14q34 0 86 35q85 56 152 159.5t98 222t31 164.5v9q0 46 -31 74t-78 28h-17q-53 0 -111 -45.5t-107 -129.5q-115 -196 -115 -381q0 -71 22.5 -103.5t55.5 -32.5zM727 7q-100 0 -100 129q0 63 -20 63q-11 0 -74 -59t-127.5 -95t-154.5 -36t-143.5 65t-53.5 155v21
q0 107 48 232q48 126 130 226q170 206 368 206q39 0 97 -24.5t67 -24.5t49.5 26.5t73.5 26.5h16q65 0 65 -72q0 -29 -73.5 -274t-73.5 -327q0 -36 14.5 -50.5t66 -14.5t51.5 -25q0 -57 -76.5 -102.5t-149.5 -45.5zM983 1338v-15q0 -32 -120 -116q-234 -164 -254 -164l-5 1
h-5q-30 0 -30 23l1 5v4q0 22 31 57q164 184 175 193q84 65 126 65h17q64 0 64 -53z" />
    <glyph glyph-name="acircumflex" unicode="&#xe2;" 
d="M723 701v17q0 46 -31 74t-78 28h-17q-42 0 -96.5 -35t-109 -119t-90.5 -198t-36 -179v-41q0 -69 25.5 -94.5t51.5 -25.5h14q34 0 86 35q163 107 248 375q33 105 33 163zM727 6q-100 0 -100 129q0 63 -20 63q-13 0 -73 -58q-137 -132 -277 -132q-96 0 -149.5 65t-53.5 155
v21q0 107 48 232t130 225q170 206 368 207q39 0 97 -24.5t67 -24.5t49.5 26.5t73.5 26.5h16q65 0 65 -72q0 -29 -73.5 -274t-73.5 -327q0 -36 14.5 -50.5t66 -14.5t51.5 -38q0 -44 -76.5 -89.5t-149.5 -45.5zM736 1385h25q38 0 75 -65q117 -205 117 -240q0 -29 -53 -29
q-22 0 -102.5 87.5t-83.5 87.5t-118 -88.5t-147 -88.5h-7q-42 0 -42 19v5q0 18 147 165t189 147z" />
    <glyph glyph-name="atilde" unicode="&#xe3;" 
d="M728 700v17q0 44 -29 73t-72 29h-25q-106 0 -208 -158q-53 -82 -87.5 -191t-34.5 -164l-2 -17v-42q0 -62 24 -91t61.5 -29t107.5 46.5t135.5 148t97.5 223t32 155.5zM605 912q38 0 99 -24t68.5 -24t47.5 26t72 26h16q65 0 65 -72v-16q0 -27 -33 -134l-38 -116
q-76 -241 -76 -335q0 -65 81 -65q51 0 51 -37.5t-71.5 -86t-138.5 -48.5h-16q-52 0 -74 31.5t-26 95.5t-17.5 64t-77.5 -60q-139 -130 -275 -130q-86 0 -144.5 60.5t-58.5 160.5v20q0 107 48 232q49 126 129 224q170 208 369 208zM395 1101v15q0 69 65.5 129t124.5 60
t142 -41.5t129 -41.5t84 60q17 27 35 27h15q27 0 27 -16v-15q0 -70 -80 -143q-50 -46 -110 -46t-143 41.5t-120 41.5t-80.5 -43.5t-46.5 -43.5h-14q-28 0 -28 16z" />
    <glyph glyph-name="adieresis" unicode="&#xe4;" 
d="M723 699v17q0 46 -31 74t-78 28h-17q-42 0 -96.5 -35t-109 -119t-89.5 -194.5t-35 -164.5l-2 -18v-41q0 -61 23 -90.5t54 -29.5h14q33 0 86 35q163 107 248 375q33 105 33 163zM600 911q39 0 97 -24.5t67.5 -24.5t50 26.5t72.5 26.5h16q65 0 65 -72v-16q0 -28 -33 -135
l-12 -39l-13 -38l-25 -78q-64 -227 -64 -279t14.5 -66.5t66 -14.5t51.5 -38q0 -44 -76.5 -89.5t-139 -45.5t-84.5 32.5t-26 96t-18.5 63.5t-74.5 -58q-137 -132 -277 -132q-96 0 -149.5 65t-53.5 155v21q0 119 52.5 243t130.5 220q164 201 361 201h2zM516 1309h22
q36 0 60 -24t24 -47l3 -21v-15l-4 -25q0 -18 -27 -52t-59 -34l-22 -3h-18q-38 0 -63 25t-25 66v11l5 31q0 25 31.5 56.5t72.5 31.5zM773 1180v7q0 46 30.5 84t82.5 38h15q9 -3 22.5 -3t39 -20.5t25.5 -48.5l3 -17v-18l-1 -4v-7q-3 -10 -3 -22t-27.5 -45t-59.5 -33l-21 -3
h-19q-36 0 -61.5 25.5t-25.5 66.5z" />
    <glyph glyph-name="aring" unicode="&#xe5;" 
d="M336 126h14q43 0 137 75q47 38 107.5 131t91.5 211t31 164v9q0 48 -32 75t-77 27h-17q-58 0 -114.5 -48t-88.5 -102q-130 -221 -130 -398v-16q0 -55 19.5 -91.5t58.5 -36.5zM795 1253l-3 26q0 8 -21 34.5t-47 26.5l-6 2h-28q-6 -2 -19.5 -2t-47 -33.5t-33.5 -77.5v-26
q3 -12 3 -22.5t23 -39t63 -28.5h6q41 0 76 35t35 82v19zM48 267q0 112 57.5 237.5t138 220.5t171 140.5t154.5 45.5t122 -24.5t67 -24.5t49.5 26.5t72.5 26.5h17q65 0 65 -72q0 -29 -73.5 -274t-73.5 -304.5t15 -73.5t65.5 -14t50.5 -38q0 -44 -76 -89.5t-139.5 -45.5
t-87 36.5t-23.5 96t-20 59.5q-12 0 -70 -56q-217 -135 -271 -135q-5 0 -8 1q-94 0 -148.5 63.5t-54.5 156.5v41zM492 1195v32q0 71 66 129.5t139 58.5h32q14 -2 20 -2q55 0 100 -51t45 -114v-6q0 -84 -66.5 -143t-145.5 -59h-13l-6 1q-67 0 -119 46t-52 108z" />
    <glyph glyph-name="ae" unicode="&#xe6;" horiz-adv-x="1428" 
d="M351 131h14h2q27 0 83 33q137 78 236 378q48 144 48 166v15q0 25 -24 49t-68 24h-16q-107 0 -211 -151q-74 -107 -104.5 -217.5t-30.5 -162.5v-30q0 -51 22 -77.5t49 -26.5zM1224 694v36q0 33 -23 60t-61 27h-10q-68 0 -141 -83q-104 -119 -104 -214l-3 -16v-10
q0 -17 15 -17h16q94 0 218 83q93 62 93 134zM1180 892h26q78 0 138.5 -50.5t60.5 -146.5q0 -95 -76 -157q-101 -82 -318 -125q-107 -21 -126 -35q-37 -27 -37 -100t45.5 -111.5t120 -38.5t214.5 77q46 26 61 26q28 0 28 -24q0 -54 -166 -141q-117 -61 -219.5 -61t-188.5 60
q-41 28 -55.5 47t-33.5 56t-23 37q-18 0 -98.5 -68.5t-141.5 -99.5t-142 -31t-133 66t-53 172q0 212 179 421q68 79 163 135.5t184 56.5l108 -4l37 2l40 -1l135 -9q55 0 157 23.5t114 23.5z" />
    <glyph glyph-name="ccedilla" unicode="&#xe7;" horiz-adv-x="814" 
d="M305 -6q-91 8 -151 68q-69 69 -69 171v3v40v3q0 95 53 206q114 241 332 350q98 49 186.5 49t137 -44.5t48.5 -102.5t-27.5 -85.5t-61.5 -27.5q-56 0 -95 84.5t-101 84.5q-29 0 -73 -36.5t-108.5 -173t-64.5 -307.5q0 -81 42.5 -123.5t113.5 -42.5t162.5 60t104 60
t12.5 -13.5t-16 -30.5q-72 -77 -176 -135q-85 -48 -167 -56q-4 -5 -8 -11q-24 -34 -24 -44q-1 -8 41 -24q110 -41 110 -125v-18q0 -73 -75.5 -123.5t-168.5 -50.5h-44q-119 0 -119 33v6q0 41 34 41l108 -11q107 0 107 90q0 32 -28 57.5t-69 25.5t-41 11q0 10 61 96
q19 28 34 46z" />
    <glyph glyph-name="egrave" unicode="&#xe8;" horiz-adv-x="895" 
d="M673 735q0 44 -26 70t-61 26h-11l-5 -1h-5q-65 0 -156.5 -103t-91.5 -197l-3 -15v-10q0 -13 18 -13h12q24 4 30 4q80 0 204 69q93 52 93 128l2 10v32zM63 268v56q1 102 53 216q107 234 308 332q105 51 199 51h19q98 0 158.5 -53.5t60.5 -138.5q0 -204 -311 -285
q-38 -10 -132.5 -27t-98.5 -19q-45 -22 -45 -110q0 -174 180 -175q73 0 203 74q57 33 82.5 33t25.5 -20q0 -64 -176 -155q-118 -61 -239.5 -61t-204 79.5t-82.5 202.5zM379 1321v14q0 17 26.5 37t55.5 20h5q55 0 121 -75q152 -174 152 -242v-9q0 -25 -30 -25h-10
q-10 0 -199 147q-121 94 -121 133z" />
    <glyph glyph-name="eacute" unicode="&#xe9;" horiz-adv-x="895" 
d="M318 516v-9q0 -14 18 -14h5l7 1q104 0 234 72q95 53 95 144v26q-2 12 -2 28.5t-25.5 42t-59.5 25.5h-16q-80 0 -153 -94q-103 -132 -103 -222zM67 269v56v4q0 99 53 215q109 239 325 338q92 42 182 42h19q98 0 158.5 -53.5t60.5 -138.5q0 -203 -311 -284
q-50 -13 -138 -29t-93 -18q-46 -20 -46 -102t41.5 -132.5t129.5 -50.5t213 74q56 33 82 33t26 -20q0 -62 -144.5 -138.5t-249.5 -76.5h-38q-116 0 -193 83.5t-77 197.5zM908 1335v-10l-1 -5q0 -33 -119 -116q-233 -163 -249 -163h-10q-35 0 -35 23v5q0 70 207 254
q74 66 131 66l6 -1q70 0 70 -53z" />
    <glyph glyph-name="ecircumflex" unicode="&#xea;" horiz-adv-x="895" 
d="M373 495q104 0 227 82q78 52 78 137v16q0 44 -25 72.5t-68 28.5h-5l-5 -1q-71 0 -164 -106t-93 -214q0 -18 19 -18h11q18 3 25 3zM278 294q0 -179 180 -179q78 0 204 74q57 33 82 33t25 -19.5t-41.5 -64.5t-148.5 -98.5t-227 -53.5t-202.5 79.5t-82.5 221.5v18
q0 117 50 229q106 238 311 338q105 51 199 51h19q98 0 158.5 -53.5t60.5 -138.5v-18q0 -104 -110.5 -181t-316.5 -110q-99 -15 -114 -22q-46 -22 -46 -106zM887 1070q0 -22 -54 -22q-25 0 -100 88.5t-86 88.5t-116 -89t-151 -89t-46 20q0 25 257 282q34 34 84 34h16
q37 0 66.5 -39.5t96.5 -183.5l33 -71v-19z" />
    <glyph glyph-name="edieresis" unicode="&#xeb;" horiz-adv-x="896" 
d="M680 728q0 49 -26 75t-56 26h-26q-66 0 -159 -106.5t-93 -214.5q0 -18 19 -18h5q12 2 19 2q107 0 230 77q84 53 84 117l3 26v16zM280 293q0 -179 180 -179q79 0 204 74q56 33 81.5 33t25.5 -21q0 -59 -143 -137t-250 -78h-19q-125 0 -207.5 79.5t-82.5 220.5v19
q0 107 47.5 221.5t129.5 205t185.5 141t197.5 50.5h19q96 0 157.5 -52t61.5 -141v-17q0 -44 -30 -96q-84 -144 -397 -195q-95 -15 -114 -23q-46 -20 -46 -105zM449 1086h-7q-38 0 -64.5 21t-26.5 48l-3 18v21q3 12 3 25.5t28 48t61 34.5l22 3h11q12 -3 22 -3q65 0 65 -67
l3 -21v-14l-4 -25q0 -26 -31.5 -57.5t-78.5 -31.5zM926 1221v-22l-1 -4v-7q-3 -10 -3 -14q0 -25 -31 -56t-69 -31h-29q-33 0 -57.5 24.5t-24.5 58.5v21l1 4v7q2 6 2 10q0 30 30 60t59 30q8 2 11 2l15 1h4l29 -4q18 0 41 -23t23 -57z" />
    <glyph glyph-name="igrave" unicode="&#xec;" horiz-adv-x="584" 
d="M393 917h23q56 0 56 -105q0 -15 -71 -299t-71 -322.5t36 -38.5l107 24q21 0 21 -22v-9q0 -39 -109 -95.5t-185 -56.5h-14q-37 0 -61 25t-24 65v12q0 25 70 296t70 303q0 53 -48 58q-79 8 -79 43t54 62q120 60 225 60zM257 1392h10l5 -1q59 0 120 -78q148 -190 148 -233
v-14q0 -25 -35 -25h-4q-33 0 -177 128t-144 157v4q0 21 27 41.5t50 20.5z" />
    <glyph glyph-name="iacute" unicode="&#xed;" horiz-adv-x="584" 
d="M216 -6h-28q-35 0 -59.5 24.5t-24.5 65.5v12q0 33 69.5 294t69.5 305q0 58 -63 58t-63 42t67 69q133 54 212 54h11q68 0 68 -91q0 -61 -71 -313.5t-71 -324.5q0 -36 44 -36q6 0 42 12t57 12t21 -23q0 -45 -106.5 -102.5t-174.5 -57.5zM627 1387h22q65 0 65 -58l-1 -5
q0 -37 -120 -121q-233 -163 -248 -163h-11q-34 0 -34 23v5l1 5q0 66 197 241q82 73 129 73z" />
    <glyph glyph-name="icircumflex" unicode="&#xee;" horiz-adv-x="584" 
d="M476 811q0 -56 -71 -300.5t-71 -302t36 -57.5q16 0 50 12t56.5 12t22.5 -22q0 -43 -105.5 -102t-189.5 -59h-14q-37 0 -60.5 24.5t-23.5 65.5v13q0 29 69.5 298t69.5 300q0 58 -48 58q-79 0 -79 43q0 35 54 62q122 61 225 61h12q37 0 52 -25t15 -81zM463 1379h24
q33 0 59 -37q132 -191 132 -266q0 -29 -52 -29q-34 0 -101 87t-83 87q-5 0 -120 -88.5t-145 -88.5q-49 0 -49 16.5t30 49.5q190 208 227 238.5t78 30.5z" />
    <glyph glyph-name="idieresis" unicode="&#xef;" horiz-adv-x="588" 
d="M402 917h22q57 0 57 -91q0 -61 -71 -313.5t-71 -324.5q0 -36 36 -36q9 0 49 12t59.5 12t19.5 -23q0 -45 -106.5 -102.5t-188.5 -57.5h-14q-36 0 -60 25t-24 65v12q0 25 69.5 294t69.5 313.5t-47 49.5q-79 8 -79 43q0 41 67 68q133 54 212 54zM259 1304h22q30 0 56 -21
t26 -46q2 -6 2 -10l2 -17v-7q0 -50 -33.5 -83.5t-84.5 -33.5l-3 1h-11q-16 3 -17 3q-25 0 -45.5 25.5t-20.5 60.5v11l5 31q0 24 31 55t71 31zM514 1195l2 17q0 29 31.5 60.5t75.5 31.5h15q12 -3 27 -3t38.5 -23.5t23.5 -57.5v-25q-3 -12 -3 -28.5t-31.5 -48t-68.5 -31.5h-29
q-33 0 -57.5 24.5t-24.5 58.5v21z" />
    <glyph glyph-name="eth" unicode="&#xf0;" horiz-adv-x="1003" 
d="M288 224q0 -67 37 -111t92 -44h9q104 0 194 153q52 88 80.5 202.5t28.5 180.5v51q0 75 -36.5 118.5t-94.5 43.5h-19q-47 0 -101 -42.5t-91 -112.5q-101 -191 -101 -379v-31q2 -20 2 -29zM423 1114q0 12 58.5 58.5t58.5 77.5t-51.5 84.5t-51.5 75.5q0 28 43 28t152 -60.5
t134 -60.5t76.5 14t81.5 14t30 -20t-56 -76t-56 -83.5t27 -90t51.5 -146.5t24.5 -232q0 -300 -146 -501q-70 -96 -171.5 -153.5t-209.5 -57.5h-26q-151 0 -231.5 88.5t-80.5 234.5v27q0 99 44 205q93 222 283 313q79 38 170 38l24 -2q24 -2 44 -2q63 0 63 92q0 51 -35 84.5
t-107 33.5l-101 -8q-42 0 -42 25z" />
    <glyph glyph-name="ntilde" unicode="&#xf1;" horiz-adv-x="1126" 
d="M769 9q-105 0 -105 141q0 44 53.5 244.5t53.5 286.5t-56 86q-104 0 -218 -160q-73 -103 -107.5 -200.5t-57.5 -190t-34 -115.5q-40 -81 -134 -81q-62 0 -62 83q0 115 57 275t57 253q0 47 -38.5 67t-38.5 62t63 85t125 43t86 -64q15 -40 15 -145q0 -7 5 -7q16 0 78 60
q178 170 322 170q66 0 114 -45t48 -114t-50.5 -267.5t-50.5 -268t38 -69.5q9 0 37 11l31 12q14 0 14 -12q0 -27 -53 -63q-114 -77 -192 -77zM397 1106q0 71 63 134t124.5 63t144.5 -41.5t121.5 -41.5t82.5 44t52 44q35 0 35 -24q0 -77 -81 -151q-50 -46 -109.5 -46
t-142.5 41.5t-122 41.5t-78.5 -43.5t-46.5 -43.5h-7q-36 0 -36 16v7z" />
    <glyph glyph-name="ograve" unicode="&#xf2;" horiz-adv-x="993" 
d="M286 313v-61q0 -73 33.5 -123.5t89.5 -50.5h19q101 0 195 158q48 82 75.5 197t27.5 178v51q0 73 -33 122.5t-88 49.5h-19q-50 0 -102 -40.5t-89 -106.5q-109 -194 -109 -374zM613 926h29q131 0 212.5 -86.5t81.5 -216.5v-44q0 -100 -45 -211q-93 -229 -284 -328
q-102 -53 -207 -53h-31q-134 0 -214 89.5t-80 229.5v15q0 110 47 226q95 235 299 332q98 47 192 47zM413 1319v14q0 15 24.5 36t57.5 21l5 -1h5q58 0 116 -74q152 -195 152 -242v-9q0 -25 -30 -25h-10q-11 0 -165.5 120t-154.5 160z" />
    <glyph glyph-name="oacute" unicode="&#xf3;" horiz-adv-x="993" 
d="M285 303v-40q0 -77 32 -130.5t91 -53.5h19q43 0 92.5 33t93.5 108q110 187 110 362l2 20l1 31v10q0 101 -35 146.5t-87 45.5h-19q-104 0 -202 -167t-98 -365zM612 927h29q136 0 215.5 -89t79.5 -229v-15l-1 -14q0 -102 -48 -219q-47 -117 -127 -201q-163 -172 -361 -172
h-30q-135 0 -214.5 88.5t-79.5 215.5v45q0 98 48 215q47 117 125 199q166 176 364 176zM930 1334v-10q0 -37 -120 -121q-234 -164 -254 -164l-5 1h-6q-29 0 -29 23v4q0 70 190 239q91 81 143 81h11q70 0 70 -53z" />
    <glyph glyph-name="ocircumflex" unicode="&#xf4;" horiz-adv-x="993" 
d="M287 302v-50q0 -71 33 -122.5t90 -51.5h19q103 0 190 149q51 87 79.5 200.5t28.5 173.5v60q0 72 -32.5 122.5t-88.5 50.5h-19q-50 0 -104 -42.5t-96 -121.5q-100 -189 -100 -368zM401 -13h-30q-131 0 -213 87t-82 232l1 15v15q0 98 48 216q49 118 133 206
q160 168 370 168h15q135 0 214.5 -89t79.5 -214v-44q0 -100 -45 -211q-93 -229 -284 -328q-102 -53 -207 -53zM910 1083v-13q0 -23 -52 -23q-28 0 -102 87.5t-82 87.5q-16 0 -120.5 -88.5t-145.5 -88.5h-7q-42 0 -42 19q0 27 247 274q42 42 97 42h8q39 0 61.5 -30t80 -145.5
t57.5 -121.5z" />
    <glyph glyph-name="otilde" unicode="&#xf5;" horiz-adv-x="993" 
d="M288 312v-61q0 -85 37.5 -129.5t94.5 -44.5h9q51 0 104 41.5t97 125.5q98 185 98 367v50q0 72 -32.5 122t-89.5 50h-18q-50 0 -102 -40.5t-89 -106.5q-109 -194 -109 -374zM615 925h29q131 0 212.5 -86.5t81.5 -215.5v-45q0 -100 -46.5 -214.5t-127.5 -203.5
q-158 -174 -362 -174q-15 0 -31 1q-135 0 -214.5 89t-79.5 229v15q0 110 47 226q90 223 286 326q102 53 205 53zM392 1082h-14q-28 0 -28 23q0 70 63 133t138 63q41 0 134.5 -41t125 -41t75 43.5t45.5 43.5h7q35 0 35 -16v-8q0 -76 -66 -136.5t-122 -60.5t-146 42t-123.5 42
t-77 -43.5t-46.5 -43.5z" />
    <glyph glyph-name="odieresis" unicode="&#xf6;" horiz-adv-x="993" 
d="M288 291v-20q0 -91 33.5 -143t99.5 -52l9 1h9q39 0 92 38.5t95 118.5q103 195 103 375v40q0 83 -32.5 133t-88.5 50h-28q-32 0 -87 -35.5t-95 -110.5q-110 -208 -110 -395zM616 924h29q135 0 214.5 -89t79.5 -228v-30q0 -98 -48.5 -217.5t-132.5 -207.5
q-159 -167 -370 -167q-141 0 -225.5 84.5t-84.5 220.5v29l1 15q0 99 47.5 216t123.5 197q168 177 366 177zM371 1176v11l5 31q0 24 30 54t55 30l8 2l26 1q38 0 64.5 -21t26.5 -50l3 -20v-15l-4 -25q0 -27 -30 -57t-60 -30q-8 -2 -11 -2l-14 -1h-4l-4 1q-35 0 -63 22.5
t-28 68.5zM954 1195l-3 -22q0 -26 -31.5 -57.5t-80.5 -31.5h-8q-43 0 -68.5 25.5t-25.5 70.5v4l1 3v7l2 14q0 27 28 60.5t59 33.5l19 3h26q8 -2 21 -2t37.5 -24.5t24.5 -58.5v-22z" />
    <glyph glyph-name="divide" unicode="&#xf7;" horiz-adv-x="1127" 
d="M689 233v-26q0 -42 -32 -74t-70 -32h-15q-42 0 -72 30t-30 71v18q0 45 31 76t57 31l18 3h15q31 0 62.5 -25t31.5 -55q4 -14 4 -17zM865 621q184 0 184 -34v-31q0 -65 -28.5 -70t-384.5 -5h-290q-188 0 -202 4.5t-14 39.5l1 10v21q2 20 2 31q0 33 477 33l129 1h126z
M708 904v-25q0 -42 -32.5 -74.5t-80.5 -32.5l-4 1h-7l-14 2q-24 0 -50.5 26.5t-26.5 49.5l-4 25v19q3 12 3 28t31 47t68 31h22q12 -3 25.5 -3t41.5 -28t28 -66z" />
    <glyph glyph-name="oslash" unicode="&#xf8;" horiz-adv-x="1002" 
d="M736 609v37q0 20 -7 20q-2 0 -82 -96l-20 -24l-63 -79q-240 -288 -240 -320v-13q0 -15 24.5 -37t62.5 -22h15q106 0 202 155q52 84 80 196.5t28 182.5zM285 309v-45q0 -26 6.5 -26t59.5 66.5t66 82t17.5 22t23.5 29.5q238 286 238 321v7q0 20 -24 41.5t-57 21.5h-23
q-49 0 -106 -42.5t-97 -117.5q-104 -193 -104 -360zM357 -16l-124 11q-33 0 -75.5 -39t-58.5 -39q-36 0 -36 41q0 7 32.5 57.5t32.5 73t-14 52.5q-35 75 -35 193q0 112 53 226q113 246 320 327q84 33 207 33l137 -8q20 0 62 37t57 37q35 0 35 -44q0 -9 -28 -58t-28 -69.5
t14 -48.5q32 -66 32 -179.5t-51 -233t-135 -207t-176 -125t-221 -37.5z" />
    <glyph glyph-name="ugrave" unicode="&#xf9;" horiz-adv-x="1111" 
d="M366 902q80 0 80 -121q0 -61 -53.5 -268t-53.5 -291.5t56 -84.5h1q99 0 230 183q72 102 113 247q69 245 84 266q36 52 110 52q48 0 48 -100q0 -63 -47.5 -241t-47.5 -239.5t12.5 -75.5t49.5 -18.5t37 -36.5v-15q0 -49 -44 -82q-69 -52 -137 -52t-99 48q-20 31 -20 101.5
t-7 70.5q-17 0 -94.5 -74t-122.5 -103q-95 -61 -167.5 -61t-123 42.5t-50.5 122t57.5 295t57.5 264.5q0 34 -59.5 40t-59.5 32q0 14 44 36q126 63 206 63zM437 1321v14q0 15 24.5 36t57.5 21l5 -1h5q58 0 116 -74q152 -195 152 -237v-14q0 -25 -30 -25h-10l-5 1
q-29 0 -172 127t-143 152z" />
    <glyph glyph-name="uacute" unicode="&#xfa;" horiz-adv-x="1111" 
d="M367 903q80 0 80 -122q0 -50 -53.5 -268t-53.5 -282q0 -93 56 -93q100 0 229 181q69 97 115 249q77 257 84 266q36 52 110 52q48 0 48 -100q0 -64 -47.5 -242t-47.5 -251.5t45 -79.5q54 -7 54 -54t-55.5 -90t-117.5 -43t-96 34t-34 99l2 53q0 34 -6 34q-17 0 -99.5 -78.5
t-151 -119t-146 -40.5t-119.5 51.5t-42 122t57.5 286t57.5 239.5q0 59 -58 65q-61 6 -61 32q0 14 44 36q126 63 206 63zM983 1335v-15q0 -33 -115 -113q-239 -167 -259 -167l-5 1h-5q-30 0 -30 23l1 5v4q0 22 31 57q164 184 175 193q84 65 126 65h11l6 -1q64 0 64 -52z" />
    <glyph glyph-name="ucircumflex" unicode="&#xfb;" horiz-adv-x="1111" 
d="M809 25q-126 0 -126 133l2 53q0 34 -7 34q-16 0 -87.5 -70t-145.5 -119t-157 -49t-125 50t-42 121.5t57 289t57 262.5q0 33 -59 41t-59 31q0 15 43 36q129 63 208 63t79 -121q0 -57 -54 -266t-54 -293t56 -84h1q99 0 226 177q70 98 133.5 305.5t67.5 213.5q35 51 111 51
q48 0 48 -81.5t-47.5 -256.5t-47.5 -255t57 -80q42 0 42 -50.5t-45 -84.5q-68 -51 -132 -51zM900 1049q-28 0 -101.5 87t-81.5 87t-123 -88.5t-145 -88.5h-7q-42 0 -42 19v6q0 9 29 41q188 205 227.5 238t88.5 33h8q41 0 67 -38q133 -192 133 -267q0 -29 -53 -29z" />
    <glyph glyph-name="udieresis" unicode="&#xfc;" horiz-adv-x="1111" 
d="M368 902q79 0 79 -121q0 -61 -53.5 -268t-53.5 -291.5t55 -84.5q99 0 218 165q78 107 126 265q77 257 84 266q36 52 111 52q48 0 48 -77.5t-47.5 -261.5t-47.5 -256t45 -78q54 -7 54 -54.5t-44 -80.5q-69 -52 -129.5 -52t-95 33.5t-34.5 100.5l2 52q0 34 -7 34
q-16 0 -93.5 -74t-123.5 -103q-97 -61 -176 -61t-121.5 50.5t-42.5 122t57 285t57 266.5q0 34 -59 40t-59 32q0 15 44 36q134 63 207 63zM513 1308h22q37 0 60.5 -23.5t23.5 -47.5l3 -21v-14l-4 -26q0 -18 -27 -51.5t-56 -33.5q-6 -2 -10 -2l-15 -2h-18q-37 0 -62.5 25.5
t-25.5 65.5v11l5 31q0 17 28.5 52.5t75.5 35.5zM833 1090q-9 0 -36 22t-27 71l1 3v4q0 52 33 85t75 33h19q12 -3 24 -3t37.5 -20.5t25.5 -48.5l3 -17v-18l-4 -25q0 -20 -27.5 -52.5t-56.5 -32.5l-25 -4h-14l-4 1h-7q-8 2 -17 2z" />
    <glyph glyph-name="yacute" unicode="&#xfd;" horiz-adv-x="975" 
d="M855 907q95 0 95 -90.5t-131 -376.5t-251.5 -456t-261.5 -290.5t-232.5 -120.5t-91.5 55q0 33 103.5 59t182.5 99q120 112 120 211.5t-150 615.5q-17 58 -62.5 96.5t-45.5 47.5q0 25 61.5 73t123.5 48q133 0 167 -438q17 -218 46 -218q14 0 38 28q59 68 121 210t62 276
l-8 91q0 26 31 53t83 27zM930 1337v-10q0 -38 -115 -118q-239 -167 -259 -167h-5q-35 0 -35 24v4q0 70 190 239q91 81 143 81h11q70 0 70 -53z" />
    <glyph glyph-name="thorn" unicode="&#xfe;" horiz-adv-x="1058" 
d="M795 606v37q0 69 -26.5 110.5t-69.5 41.5h-24q-63 0 -129 -66q-36 -36 -84.5 -118.5t-84.5 -205t-36 -200.5v-18q0 -45 37 -73.5t91 -28.5l8 1q55 0 111 44q55 44 91 104q116 197 116 372zM479 1352q71 0 71 -105t-27.5 -244t-27.5 -156t21 -17q11 0 91 40q90 37 171 37
t152.5 -69.5t71.5 -194.5t-51 -245.5t-130 -209.5q-170 -192 -388 -192q-106 0 -153 -47t-47 -182q0 -29 23.5 -82.5t23.5 -62.5q0 -44 -57 -67t-136 -23h-59q-46 0 -75.5 22.5t-29.5 42.5t30.5 65t57 104t63.5 203q150 590 201 915q7 42 20 102t13 103.5t-20 96.5t-20 74
t39 44q81 48 152 48h20z" />
    <glyph glyph-name="ydieresis" unicode="&#xff;" horiz-adv-x="975" 
d="M854 907q95 0 95 -93t-133.5 -379.5t-249.5 -449.5t-257 -287.5t-234.5 -124.5t-93.5 55q0 35 106 60t181 98q119 116 119 219q0 67 -53 230l-17 54q-44 139 -62.5 235.5t-29.5 126t-53.5 61.5t-42.5 51.5t60.5 67t124.5 47.5q135 0 168 -437q17 -219 45 -219q14 0 38 28
q60 70 121.5 212.5t61.5 273.5l-8 92q0 26 30.5 52.5t83.5 26.5zM459 1311h23q36 0 61 -25t25 -60v-25q-3 -12 -3 -26.5t-27.5 -47.5t-56.5 -33q-6 -2 -10 -2l-15 -2h-18q-37 0 -62 25t-25 59v25q0 45 33.5 78.5t74.5 33.5zM720 1228q0 19 32 51t73 32h19q12 -3 27 -3
t38 -23t23 -49l2 -7v-29q0 -43 -31.5 -74.5t-55.5 -31.5l-25 -4h-15l-4 1h-7q-6 2 -21.5 2t-36.5 26.5t-21 55.5v25q3 9 3 28z" />
    <glyph glyph-name="dotlessi" unicode="&#x131;" horiz-adv-x="584" 
d="M474 819q0 -67 -72 -313q-71 -243 -71 -302t35 -59h1q16 0 50 12q35 12 57 12t22 -22q0 -47 -109 -104t-186 -57h-14q-36 0 -60 25t-24 65v13v1q0 28 69 293q70 269 70 304q0 58 -47 58q-80 1 -80 41t68 70q124 55 211 55h12q68 0 68 -92z" />
    <glyph glyph-name="Lslash" unicode="&#x141;" horiz-adv-x="1155" 
d="M243 505q0 19 -20 19q-13 0 -50 -10.5t-60 -10.5q-18 0 -18 32q0 45 91.5 97t115.5 107q17 38 55 215.5t38 257.5q0 32 -53 62t-53 61.5t98 31.5l34 -1h144q239 0 239 -33q0 -13 -64.5 -65.5t-90.5 -105.5q-62 -126 -62 -255q0 -54 14 -54q27 0 107.5 39t105.5 39
q32 0 32 -32q0 -46 -142 -121.5t-176 -137.5q-17 -31 -59 -215t-42 -228t26.5 -68.5t146 -24.5t200 33.5t162.5 125t120 91.5q15 0 15 -33t-40 -157t-68.5 -143.5t-349.5 -19.5h-452q-142 0 -142 33q0 23 56.5 68.5t83.5 116.5q58 150 58 286z" />
    <glyph glyph-name="lslash" unicode="&#x142;" horiz-adv-x="644" 
d="M502 123q0 -30 -99.5 -78.5t-181.5 -48.5h-21q-25 0 -55.5 26t-30.5 78t49 213t49 211t-48 50q-68 0 -68 33q0 19 75.5 87t107.5 145q87 206 87 388q0 51 -37 76q-63 42 -63 52q0 21 29 36q80 41 256 41q66 0 66 -61q0 -6 -43.5 -199.5t-43.5 -230t31 -36.5l77 13
q30 0 30 -23q0 -51 -88.5 -111.5t-112 -106.5t-59.5 -205.5t-36 -248.5t57 -89l61 9q12 0 12 -20z" />
    <glyph glyph-name="OE" unicode="&#x152;" horiz-adv-x="1960" 
d="M351 511v-32l1 -17q0 -175 84 -272.5t217 -97.5h16q94 0 153 42t100.5 131.5t115.5 385.5t74 410v44q0 161 -203 161h-17q-102 0 -198 -56q-190 -109 -289 -396q-54 -157 -54 -303zM117 547q0 156 68 314.5t181 275t245.5 169t257 52.5t238 -22.5t128 -22.5t64.5 10
l72 16l41 6q98 13 224 13h95q113 0 158.5 -30t45.5 -126.5t-34 -96.5q-3 0 -53 38q-114 86 -236 86t-176 -70q-24 -31 -63.5 -136t-39.5 -146.5t31 -60.5t118 -19q38 0 92 42.5t78 42.5q38 0 38 -108q0 -63 -25.5 -144.5t-40.5 -97.5l-27 -17q-32 0 -75.5 58.5t-112.5 58.5
q-113 0 -148 -42q-55 -65 -55 -331q0 -101 28 -119q25 -17 130 -17h12q186 0 325 94q82 57 86 57q20 0 20 -42t-43 -111t-90.5 -92t-255.5 -23t-294 17l-33 8q-52 14 -61.5 14t-151.5 -27.5t-196 -27.5h-47q-121 0 -217 40q-181 75 -256 246q-45 103 -45 224v47z" />
    <glyph glyph-name="oe" unicode="&#x153;" horiz-adv-x="1513" 
d="M427 90h19q51 0 106 43t99 127q95 179 95 357v29q0 93 -37.5 140.5t-98.5 47.5l-9 -1h-9q-34 0 -89.5 -37t-93.5 -105q-110 -196 -110 -361v-50q0 -86 37 -138t91 -52zM1203 832q-71 0 -144 -84q-104 -119 -104 -208v-14q0 -20 17 -20h11l6 1l36 4q110 0 228 79
q61 41 61 111v32q0 40 -24.5 68.5t-54.5 28.5l-10 2h-22zM914 793h1q18 0 69 35q143 96 258 97h27q109 0 173 -57t64 -155q0 -63 -33 -117.5t-92 -90t-142 -52.5t-171.5 -30t-111.5 -25q-41 -22 -41 -94t44 -123t119.5 -51t188.5 53t124 53q24 0 24 -34q0 -59 -169 -143
q-122 -61 -220.5 -61t-145.5 25.5t-75 52.5l-17 18q-28 30 -33 30q-23 0 -69 -32q-131 -94 -257 -94h-27q-149 0 -234 96t-85 230q0 258 180 442q153 157 379 157q79 0 148 -41q15 -9 60.5 -49t63.5 -40z" />
    <glyph glyph-name="Scaron" unicode="&#x160;" horiz-adv-x="1057" 
d="M128 388q23 0 59 -92t83 -135q84 -78 207 -78t189 72t66 187q0 68 -61 136q-27 31 -175 134.5t-204 182t-56 179.5q0 191 145 306q124 100 313 100q51 0 127 -19t126 -19l26 2l26 1q45 0 45 -49v-28q0 -141 -36 -222q-15 -33 -30 -33q-32 0 -65 84.5t-88.5 131.5
t-153.5 47t-164 -62t-66 -153.5t62 -154.5q34 -34 179 -128.5t204 -176t59 -184.5q0 -194 -135 -316q-134 -123 -335 -123q-83 0 -171.5 24.5t-147.5 24.5l-53 -4q-54 0 -54 67q0 160 35 254q16 44 44 44zM479 1749v13q0 26 40 26t125 -78t94 -78t131 78.5t152 78.5h14
q36 0 36 -23q0 -2 -143 -145t-208 -143h-8q-45 0 -80 39q-153 168 -153 232z" />
    <glyph glyph-name="scaron" unicode="&#x161;" horiz-adv-x="786" 
d="M27 114q0 144 77 144q18 0 52.5 -58.5t71 -87.5t104 -29t110.5 33.5t43 90t-32 91t-122.5 99t-131 118.5t-40.5 134q0 117 103 196t236 79h23q116 0 186 -31q41 -18 41 -76v-20q0 -62 -20.5 -91.5t-46 -29.5t-60.5 52t-69.5 74.5t-84.5 22.5t-88.5 -31t-38.5 -85.5
t52 -103.5q20 -19 106 -75.5t129 -111.5t43 -161t-107.5 -189t-255.5 -83h-24q-124 0 -209 37q-47 21 -47 92zM357 1383q24 0 104.5 -88t90 -88t114 88.5t145.5 88.5h7q43 0 43 -24q0 -42 -255 -276q-39 -36 -90 -36l-9 1q-42 0 -73 45q-131 189 -131 260q0 29 54 29z" />
    <glyph glyph-name="Ydieresis" unicode="&#x178;" horiz-adv-x="1236" 
d="M199 1296q0 56 358 56q81 0 81 -27q0 -7 -24.5 -39t-24.5 -76q0 -81 116 -435q14 -44 22 -44q38 0 182.5 226.5t144.5 294.5q0 13 -15 35l-18 26q0 46 109 46h32q224 0 224 -44q0 -32 -81.5 -76t-128.5 -100q-206 -245 -357 -503q-58 -100 -85 -217.5t-27 -194.5t35 -112
q3 -3 38 -27t35 -45q0 -40 -110 -40h-68l-34 1l-204 -1h-63q-73 0 -73 37q0 20 86 61q49 23 76 75q91 172 91 356t-156 571q-36 90 -83 120q-78 50 -78 76zM703 1721q37 0 60 -23t23 -66v-11l-4 -29q0 -25 -29 -59.5t-75 -34.5h-26q-20 5 -28 5q-59 0 -59 88l1 3v8l4 28
q0 22 27.5 55t60.5 33l19 3h26zM1089 1721q34 0 60 -21t26 -61v-26q0 -50 -32.5 -82.5t-74.5 -32.5h-26q-83 0 -83 64q-2 6 -2 10l-2 18v8l4 28q0 32 30 62t58 30l19 3h23z" />
    <glyph glyph-name="Zcaron" unicode="&#x17d;" horiz-adv-x="1227" 
d="M944 1237q0 14 -167 14t-250 -33.5t-164.5 -113t-99.5 -79.5q-25 0 -25 37.5t48 199.5q20 67 50 84.5t416 17.5l238 1l39 1h79q147 0 147 -40q0 -58 -100 -189l-25 -32q-13 -16 -183 -219l-207 -246q-404 -483 -404 -496q0 -27 203.5 -27t316.5 51q71 32 149 110t96 78
q25 0 25 -27.5t-32 -138.5t-48 -138q-33 -55 -181 -55h-37l-38 1l-283 3l-43 1l-207 1q-234 0 -234 35q0 54 98.5 182t460.5 552.5t362 464.5zM815 1480h-25q-38 0 -73 38q-154 168 -154 232v7q0 30 36.5 30t121.5 -65q28 -21 60.5 -56.5t44 -35.5t125.5 79t165 79h7
q38 0 38 -18.5t-148 -154t-198 -135.5z" />
    <glyph glyph-name="zcaron" unicode="&#x17e;" horiz-adv-x="938" 
d="M895 862.5q0 -48.5 -70 -133.5t-292 -296t-222 -251q0 -13 18 -18q128 -37 209 -37t110.5 15.5t78 69t78 53.5t29.5 -53q0 -114 -69 -187q-41 -44 -141 -44h-27q-89 0 -208.5 26t-163.5 26t-83 -8l-24 -6q-43 -11 -45 -11q-44 0 -44 51t82 142t304.5 302.5t222.5 246.5
q0 15 -131 15t-170 -16t-90.5 -64t-71.5 -48q-29 0 -29 54q0 118 69 191q33 35 119 35h28q48 0 166 -14.5t195 -14.5l138 23q34 0 34 -48.5zM594 1054h-25q-45 0 -80 50q-129 186 -129 253q0 26 57 26q29 0 109 -87l21 -26q48 -62 60 -62t116 88t152 88h8q45 0 45 -19.5
t-145.5 -165t-188.5 -145.5z" />
    <glyph glyph-name="florin" unicode="&#x192;" horiz-adv-x="1059" 
d="M-118 -256q0 20 23 47.5t49 27.5t70.5 -20.5t74.5 -20.5t72 30t84.5 148t97 368.5t54.5 282.5t-50 78.5t-50 84.5q0 23 59.5 48t86.5 61q27 37 51 95q169 411 448 411h1q81 0 131.5 -28.5t50.5 -71.5t-25.5 -64.5t-53.5 -21.5t-74 28.5t-83 28.5q-74 0 -124 -91
q-70 -127 -70 -241q0 -52 38 -78q12 -8 77 -26.5t65 -38.5q0 -45 -102.5 -71.5t-139.5 -86.5q-17 -27 -100 -345.5t-174 -446.5q-61 -87 -146.5 -135.5t-159.5 -48.5h-26q-52 0 -103.5 28t-51.5 69z" />
    <glyph glyph-name="circumflex" unicode="&#x2c6;" horiz-adv-x="821" 
d="M566 1403h33q35 0 66 -42q131 -175 131 -253v-6q0 -27 -56 -27q-40 0 -138 125q-38 49 -48 49q-3 0 -117.5 -88t-150.5 -88h-8q-43 0 -43 18v5q0 4 139 155.5t192 151.5z" />
    <glyph glyph-name="caron" unicode="&#x2c7;" horiz-adv-x="821" 
d="M800 1403h22q37 0 37 -16v-5q0 -57 -239 -259q-59 -50 -111 -50l-8 1q-46 0 -80 49q-128 185 -128 247v6q0 26 57 26q28 0 108 -87l31 -39q41 -49 51 -49t114 88t146 88z" />
    <glyph glyph-name="uni02C9" unicode="&#x2c9;" horiz-adv-x="832" 
d="M812 1238q27 0 27 -13v-11q0 -98 -54 -98h-477q-27 0 -27 12v11q0 83 31 94q11 4 269 4l112 1h119z" />
    <glyph glyph-name="breve" unicode="&#x2d8;" horiz-adv-x="828" 
d="M278 1279v33q0 38 35 38h7q24 0 55.5 -50.5t62.5 -76t108.5 -25.5t166.5 74.5t108 74.5t19 -13v-7q0 -21 -32 -84.5t-86 -104.5q-93 -70 -195 -70h-18q-94 0 -162.5 62t-68.5 149z" />
    <glyph glyph-name="dotaccent" unicode="&#x2d9;" horiz-adv-x="787" 
d="M639 1264v-11l-4 -30q0 -25 -28.5 -60.5t-66.5 -35.5l-23 -3h-8l-4 1q-42 0 -67.5 20.5t-25.5 50.5q-2 8 -2 11l-1 15v4l4 30q0 26 28.5 60.5t63.5 34.5l19 3h27l23 -4q65 0 65 -86z" />
    <glyph glyph-name="ring" unicode="&#x2da;" horiz-adv-x="808" 
d="M430 1233.5q0 -14.5 24.5 -39t53.5 -24.5h20q12 3 24.5 3t45.5 33t33 78v23q0 29 -22 56.5t-45 27.5l-21 3h-10q-36 0 -69 -33t-33 -60q-2 -6 -2 -11l-2 -14v-19q3 -9 3 -23.5zM327 1249v25q0 70 62.5 132.5t143.5 62.5h33q61 0 113 -46t52 -115v-12q0 -83 -67 -142.5
t-146 -59.5h-19q-68 0 -120 46t-52 109z" />
    <glyph glyph-name="ogonek" unicode="&#x2db;" horiz-adv-x="790" 
d="M436 26h13q27 0 27 -8q0 -6 -30 -36q-28 -30 -64 -74t-36 -98t35 -78q17 -12 81 -12t64 -25v-12q0 -17 -39.5 -46.5t-112.5 -29.5h-31q-68 0 -113 41t-45 103v7q0 77 87 172.5t164 95.5z" />
    <glyph glyph-name="tilde" unicode="&#x2dc;" horiz-adv-x="826" 
d="M224 1131v16q0 68 67 129.5t125 61.5t143 -42.5t122 -42.5t80.5 43.5t51.5 43.5h15q29 0 29 -15v-8q0 -70 -64.5 -134.5t-128 -64.5t-143 42.5t-117.5 42.5t-85.5 -43.5t-51.5 -43.5h-14q-29 0 -29 15z" />
    <glyph glyph-name="hungarumlaut" unicode="&#x2dd;" horiz-adv-x="838" 
d="M276 1100h-15q-35 0 -35 25v4q0 42 182 250q56 64 111 64h15q68 0 68 -43v-9l-1 -5q0 -42 -120 -135q-194 -151 -205 -151zM925 1400v-14q0 -26 -147.5 -157.5t-186.5 -131.5h-5l-5 1q-38 0 -38 23v4q0 39 177 241q65 74 124 74h16q65 0 65 -40z" />
    <glyph glyph-name="uni03A9" unicode="&#x3a9;" horiz-adv-x="1494" 
d="M1036 196q0 -31 68.5 -31t135.5 27l35 16q59 31 64 31q30 0 30 -27q0 -32 -31.5 -86t-86.5 -88t-197.5 -34t-191.5 26q-24 13 -24 39q0 63 120.5 216.5t178 291t57.5 317t-85.5 276t-232.5 96.5q-81 0 -165 -42t-152 -133.5t-106.5 -213.5t-38.5 -240.5t56 -304
t56 -240.5t-57.5 -72t-165.5 -17h-91q-155 0 -155 146v39q0 59 28 59q19 0 74.5 -42t155.5 -42q62 0 62 32.5t-60 113.5t-93 168.5t-33 220.5t60 262q121 259 380 363q123 50 251 50q259 0 399.5 -129.5t140.5 -334.5q0 -313 -228 -550l-64 -61l-34 -29q-60 -55 -60 -73z
" />
    <glyph glyph-name="uni03BC" unicode="&#x3bc;" horiz-adv-x="1153" 
d="M1011 788q0 -57 -39 -244.5t-39 -249.5t30 -84q48 -35 48 -73t-55.5 -81t-104 -43t-75 23.5t-43 82.5t-40 59t-100.5 -61.5t-117 -79.5t-121 -34t-104 -41.5t-44.5 -162.5t-43.5 -174q-37 -62 -107 -62q-50 0 -50 82.5t98.5 513.5t98.5 516q0 15 -6 48t-6 74t45 75.5
t113 34.5h28q61 0 61 -100q0 -58 -43.5 -282t-43.5 -275.5t26.5 -79.5t65.5 -28t88 31q156 99 236 375q16 57 39.5 155.5t28.5 110.5q40 89 130 89q46 0 46 -115z" />
    <glyph glyph-name="pi" unicode="&#x3c0;" horiz-adv-x="1178" 
d="M135 757q0 51 74 103q42 29 116 47.5t462 18.5h185q62 0 91 2l77 9q42 0 42 -33q0 -79 -83 -117q-106 -48 -130 -105.5t-52 -212.5t-28 -224.5t31 -100.5q12 -12 51 -12t39 -22q0 -16 -26 -36q-73 -56 -147 -56t-109 59.5t-35 159.5t39 267.5t39 212.5q0 57 -112 57
t-140 -41l-100 -315q-100 -312 -177 -373q-40 -31 -93.5 -31t-53.5 32q0 19 59.5 109t123.5 256.5t64 264.5q0 60 -81 60l-82 -9q-44 0 -44 30z" />
    <glyph glyph-name="endash" unicode="&#x2013;" horiz-adv-x="1075" 
d="M1005 581q48 0 48 -28q0 -77 -23 -95t-129 -18h-777q-72 0 -72 27q0 100 55 109q25 4 468 4l295 1h135z" />
    <glyph glyph-name="emdash" unicode="&#x2014;" horiz-adv-x="1952" 
d="M1851 583q64 0 64 -32q0 -95 -70 -105q-43 -6 -890 -6h-689l-116 -2q-80 0 -80 32q0 63 19.5 82.5t57 23.5t891.5 4l774 3h39z" />
    <glyph glyph-name="quoteleft" unicode="&#x2018;" horiz-adv-x="525" 
d="M257 1019v30q0 108 91 229q49 65 111.5 103.5t91.5 38.5h6q25 0 25 -32q0 -13 -40 -49t-50 -48q-59 -65 -59 -125q0 -20 34 -68.5t34 -94t-38 -76.5t-88 -31h-8q-51 0 -80.5 33t-29.5 90z" />
    <glyph glyph-name="quoteright" unicode="&#x2019;" horiz-adv-x="523" 
d="M458 1419q105 0 105 -109v-38q0 -99 -74 -197.5t-140.5 -139.5t-93.5 -41h-5q-22 0 -22 25v10q0 13 34 41.5t76.5 75t42.5 111.5q0 23 -31.5 62.5t-31.5 85t38 80t95 34.5h7z" />
    <glyph glyph-name="quotesinglbase" unicode="&#x201a;" horiz-adv-x="539" 
d="M348 138v-37q0 -102 -89 -221q-52 -69 -119 -113.5t-93 -44.5h-5q-24 0 -24 34q0 16 34 44q118 97 118 182q0 20 -31.5 65t-31.5 88.5t38 75t82 31.5h30q40 0 65.5 -28t25.5 -76z" />
    <glyph glyph-name="quotedblleft" unicode="&#x201c;" horiz-adv-x="873" 
d="M235 1025v30q0 106 90 226q59 78 121.5 109.5t79.5 31.5h6q24 0 24 -27v-5q0 -12 -40 -48q-107 -96 -107 -166q0 -32 34.5 -75t34.5 -88t-36 -77t-83 -32h-22q-47 0 -74.5 33.5t-27.5 87.5zM618 1097q0 24 33 95.5t77 115.5q115 115 182 115q27 0 27 -31v-5
q0 -13 -38 -45q-110 -93 -110 -169q0 -29 35 -73t35 -86t-34.5 -76.5t-95.5 -34.5h-7q-51 0 -78.5 34t-27.5 92v30q2 14 2 38z" />
    <glyph glyph-name="quotedblright" unicode="&#x201d;" horiz-adv-x="872" 
d="M219 932v10q-1 6 35 36q118 98 119 178q0 27 -32 67t-32 87.5t39.5 79.5t89.5 32h15q46 0 72.5 -29.5t26.5 -83.5v-15l-1 -8q0 -107 -100 -240q-46 -61 -113.5 -102.5t-93 -41.5t-25.5 30zM835 1422q98 0 98 -122v-8l-1 -7q0 -106 -87 -222q-58 -77 -125 -118.5
t-87 -41.5h-11q-22 0 -22 29v5q0 9 41.5 47t52.5 50q60 66 60 123q0 26 -32 67t-32 87.5t39 78.5t84 32h22z" />
    <glyph glyph-name="quotedblbase" unicode="&#x201e;" horiz-adv-x="886" 
d="M333 131v-22q0 -106 -90 -226q-49 -66 -116 -110.5t-94 -44.5h-5q-22 0 -22 30v5q0 10 44 50.5t48 44.5q59 65 59 124q0 23 -31.5 68t-31.5 81.5t30.5 73.5t83.5 37l14 2h8l7 -1q45 0 70.5 -28.5t25.5 -83.5zM608 244q103 0 103 -113v-22q0 -106 -90 -226
q-56 -74 -121.5 -114.5t-88.5 -40.5h-5q-22 0 -22 30v10q0 6 44.5 46.5t51.5 49.5q55 73 55 107t-31.5 79t-31.5 85t34.5 74.5t93.5 34.5h8z" />
    <glyph glyph-name="dagger" unicode="&#x2020;" horiz-adv-x="1042" 
d="M734 925l196 20q80 0 80 -71q0 -83 -141 -83l-119 5q-66 0 -91 -71q-3 -7 -28.5 -131.5t-56.5 -240t-82.5 -324.5t-58.5 -230q-31 -94 -87 -94q-42 0 -42 32q0 42 25 165t65 366.5t63.5 355.5t23.5 114q0 64 -90 64l-115 -4q-84 0 -84 56v17q0 74 141 74l148 -18
q60 0 72 62q4 22 15 162t26 167q32 59 129 59q67 0 67 -66q0 -49 -50.5 -173t-50.5 -172q0 -41 45 -41z" />
    <glyph glyph-name="daggerdbl" unicode="&#x2021;" horiz-adv-x="1041" 
d="M351 -286q-71 0 -71 69q0 19 46.5 143t46.5 172t-91 48l-27 -1q-37 -2 -81 -2t-65.5 24.5t-21.5 45t15 36.5q34 36 88 36l28 -2q43 -3 58 -3q99 0 132 72q21 46 29.5 115t37.5 154t29 153q0 61 -107 61l-61 -4q-31 -2 -59 -2q-58 0 -58 63q0 82 148 82l124 -10
q58 0 77 60q7 23 12.5 142.5t19.5 147.5q31 61 139 61q54 0 54 -76q0 -20 -46.5 -139t-46.5 -172q0 -31 59 -31l159 16q99 0 99 -58q0 -43 -34 -66.5t-88 -23.5l-123 10q-88 0 -110 -56q-22 -57 -28.5 -132.5t-8.5 -85.5l-8 -30l-19 -59q-19 -67 -19 -112t26 -63.5t93 -18.5
l29 2q38 2 55 2q68 0 68 -65q0 -19 -19 -37q-40 -39 -136 -39l-121 5q-56 0 -75 -65q-9 -32 -14.5 -156.5t-34 -167.5t-99.5 -43z" />
    <glyph glyph-name="bullet" unicode="&#x2022;" horiz-adv-x="824" 
d="M709 670v-36q0 -119 -83 -195.5t-194 -76.5l-9 1q-101 0 -172.5 65.5t-71.5 177.5v18q0 112 77 195.5t174 83.5l18 2h18l9 -1q105 0 169.5 -70.5t64.5 -163.5z" />
    <glyph glyph-name="ellipsis" unicode="&#x2026;" horiz-adv-x="1773" 
d="M156 123l2 21q0 48 39.5 81.5t88.5 33.5h19q45 0 76.5 -26t31.5 -62l3 -25v-12q0 -56 -35 -97t-79 -41l-9 -2h-35q-40 0 -70 25t-30 60l-3 22v17zM1002 95q0 -21 -33 -59.5t-70 -38.5q-8 -2 -13 -2l-17 -2h-14q-47 0 -78.5 26.5t-31.5 77.5v26q3 15 3 21q0 49 40 82
t93 33h9l5 -1h9q14 -3 27.5 -3t42 -24t28.5 -57l3 -20v-26q-3 -12 -3 -33zM1595 138q0 -60 -35.5 -102.5t-100.5 -42.5h-13l-5 1h-8l-18 3q-22 0 -50 23.5t-28 57.5l-3 26v18q3 12 3 21q0 36 33 74.5t77 38.5q8 2 13 2h18l28 -2q28 0 56.5 -24t28.5 -57q2 -8 2 -12l2 -21v-4
z" />
    <glyph glyph-name="perthousand" unicode="&#x2030;" horiz-adv-x="2196" 
d="M1163 598h-12q-71 0 -138.5 -125t-67.5 -266v-19q3 -21 3 -46t24 -52t52 -27h12l6 1q66 0 131.5 122t65.5 236l2 14l1 25v13q0 62 -24 93t-55 31zM1871 598h-12q-72 0 -137.5 -121.5t-65.5 -229.5l-3 -33v-33q0 -60 25.5 -89t52.5 -29h19q65 0 132 125t67 260v32
q0 57 -24 87.5t-54 30.5zM524 1297q-73 0 -126 -91q-82 -141 -82 -254l-3 -20l-1 -26v-26q0 -51 23.5 -85t61.5 -34h6q66 0 134.5 117.5t68.5 242.5q2 14 2 20l1 25l-1 7q0 60 -22.5 92t-61.5 32zM1158 683h32q87 0 147 -65t60 -163v-32q0 -158 -106 -297
q-46 -61 -117.5 -104.5t-144.5 -43.5h-32q-82 0 -144.5 62.5t-62.5 165.5v32q0 69 30 155t85.5 153.5t125 102t127.5 34.5zM1498 196v53q0 58 30 145q64 182 212 255q68 34 136 34h11q93 0 155 -62t62 -156v-53q0 -59 -30 -145t-85 -153t-124.5 -101.5t-128.5 -34.5h-32
q-82 0 -144 62t-62 156zM1360 1337q0 -29 -929 -1200q-101 -127 -157 -127t-56 16.5t39 70.5q396 547 937 1182q62 73 114 73t52 -15zM526 1381h33q85 0 145 -64.5t60 -164.5v-31q0 -66 -30.5 -153.5t-85.5 -154.5t-125 -102t-139 -35l-11 1q-101 0 -158.5 67t-57.5 162v32
q0 157 106 296q43 56 113 101.5t150 45.5z" />
    <glyph glyph-name="guilsinglleft" unicode="&#x2039;" horiz-adv-x="602" 
d="M549 815v-7q0 -5 -68 -95t-91 -117q-22 -26 -58 -74t-36 -56t62 -148t62 -175t-37 -35h-8q-29 0 -106 112q-156 227 -156 247v8q1 25 185 197t210 172h8q33 0 33 -29z" />
    <glyph glyph-name="guilsinglright" unicode="&#x203a;" horiz-adv-x="603" 
d="M72 140q0 16 126 174q127 159 127 168q0 12 -61 149q-62 138 -62 171q0 41 42 41q35 0 107 -111q157 -243 157 -255q0 -39 -192 -205t-207 -166q-37 0 -37 34z" />
    <glyph glyph-name="fraction" unicode="&#x2044;" horiz-adv-x="418" 
d="M759 1359v-14q0 -31 -633 -935q-312 -446 -340 -446q-54 0 -54 19l644 966q287 430 328 430q55 0 55 -20z" />
    <glyph glyph-name="Euro" unicode="&#x20ac;" horiz-adv-x="1122" 
d="M427 645q0 -50 140.5 -50t194.5 -29q19 -10 19 -21q0 -28 -94 -52l-33 -7l-34 -5q-157 -32 -157 -122q0 -106 92 -164q60 -38 179 -38q31 0 109.5 16.5t104 16.5t25.5 -29q0 -63 -101 -118.5t-234.5 -55.5t-210 34t-131 93t-121.5 271q-23 73 -30.5 84t-34 37.5
t-26.5 42.5t52 49t52 61.5t-28 65.5t-28 54.5t77.5 84.5t126.5 142q210 327 568 327q112 0 207 -41q56 -24 56 -79v-29q0 -118 -49 -118q-7 0 -62.5 43t-98 61t-121.5 18t-184 -88.5t-105 -174.5q0 -37 58 -57q23 -8 150.5 -23t127.5 -46.5t-43.5 -41t-189.5 -19t-155 -11.5
q-68 -18 -68 -82z" />
    <glyph glyph-name="trademark" unicode="&#x2122;" horiz-adv-x="1650" 
d="M513 707h-94l-16 1q-120 0 -120 23q0 16 33.5 34.5t41.5 44.5q17 55 17 192l6 96q4 64 4 96q0 94 -52 94q-38 0 -82 -40l-67 -60q-15 0 -15 34q0 117 30.5 127t276.5 10l232 3q34 0 34 -86v-32q0 -50 -19 -50q-6 0 -54 48t-90 48t-52 -45q-24 -112 -24 -386
q0 -51 13 -67.5t36 -33t23 -34t-62 -17.5zM904 1186q0 49 -9 68.5t-33 46.5t-24 28q0 30 71 30h29q106 0 143 -49q21 -27 82.5 -208.5t71 -181.5t91 176t101.5 202q48 61 110 61h28q97 0 97 -26l-11 -17l-15 -16l-15 -18q-47 -73 -47 -421q0 -39 9 -55.5t25.5 -38.5
t16.5 -31q0 -26 -80 -26h-26q-123 0 -123 26q0 13 12.5 36.5t18.5 39.5t19.5 141t13.5 182.5t-5 57.5q-11 0 -124.5 -235.5t-134.5 -235.5q-38 0 -117 234t-96.5 234t-17.5 -296q0 -54 6 -79l7 -20q16 -41 16 -52q0 -33 -91.5 -33t-91.5 37q0 1 28 26t37 62q28 110 28 351z
" />
    <glyph glyph-name="Omega" unicode="&#x2126;" horiz-adv-x="1501" 
d="M1128 165q80 0 168 49q47 26 69 26q19 0 19 -20q0 -33 -26 -86.5t-82 -92t-196.5 -38.5t-199.5 26q-33 15 -33 58.5t109.5 179t158.5 241.5q80 174 80 365t-87.5 293.5t-228.5 102.5q-196 0 -330 -177.5t-134 -482.5q0 -116 62 -287.5t62 -244.5q0 -42 -55.5 -58
t-157.5 -16h-91q-114 0 -145 44.5t-31 123t45 78.5l85 -64q44 -22 121 -22t77 46q0 10 -59 87q-138 179 -138 385q0 292 200 492q94 94 223 147.5t267 53.5q243 0 384 -119q160 -134 160 -405.5t-244 -515.5l-134 -134q0 -35 82 -35z" />
    <glyph glyph-name="partialdiff" unicode="&#x2202;" horiz-adv-x="1081" 
d="M803 583v38q0 52 -50.5 102.5t-123.5 50.5h-19l-9 -1q-45 0 -106.5 -34.5t-114.5 -111.5q-106 -154 -106 -326v-42q0 -86 43 -137t97 -51h27h2q37 0 94 33q129 73 231 349q35 95 35 130zM816 788q51 0 51 197q0 143 -74 231.5t-189 88.5q-48 0 -138 -21t-109 -21
q-51 0 -51 50q0 42 94.5 86t199.5 44q204 0 323 -145q118 -145 118 -391v-56q-1 -157 -59 -332q-118 -352 -348 -482q-106 -60 -220 -60h-27q-142 0 -228 91.5t-86 232.5v27q0 99 45 204q46 106 120 180q150 150 368 150q79 0 163 -54q32 -20 47 -20z" />
    <glyph glyph-name="Delta" unicode="&#x2206;" horiz-adv-x="1293" 
d="M291 127h481q114 0 131.5 10.5t17.5 39.5q0 93 -184 890q-8 33 -17.5 33t-261.5 -468.5t-252 -486.5t85 -18zM928 -1h-816q-99 0 -99 20q0 33 31 93q282 548 609 1099q83 139 143 139q79 0 102 -72q9 -29 132.5 -605t123.5 -599q0 -58 -40 -68q-27 -7 -186 -7z" />
    <glyph glyph-name="product" unicode="&#x220f;" horiz-adv-x="1513" 
d="M480 -167q0 -73 -194 -73q-94 0 -150 49l-18 26q0 17 68 83q35 34 52.5 129.5t52 503.5t34.5 502.5t-10 134t-33 71.5l-21 26q-35 40 -35 48q0 44 372 44h726q176 0 176 -40q0 -7 -43 -45t-69.5 -103.5t-44.5 -159.5t-60 -536.5t-42 -460.5q0 -77 28 -110q54 -63 54 -89
l-22 -23q-77 -56 -184 -56q-174 0 -174 72q0 3 26 47t35.5 76.5t31.5 182.5q97 665 97 1043q0 66 -60 81q-33 8 -234 8t-231 -17t-45 -66t-64 -513t-49 -581.5t10 -164.5l9 -32q11 -40 11 -57z" />
    <glyph glyph-name="summation" unicode="&#x2211;" horiz-adv-x="1259" 
d="M1203 1215.5q0 -83.5 -51 -83.5q-3 0 -74.5 48.5t-144 64.5t-261.5 16t-189 -42q0 -23 165.5 -302.5t165.5 -315.5q0 -25 -244 -319.5t-244 -329t247 -34.5t323 16t143 50.5t87 34.5t20 -51.5t-50.5 -124t-88 -85.5t-359.5 -13h-458q-85 0 -124 34l-14 18
q0 43 275.5 370.5t275.5 388.5q0 40 -198 370t-198 366.5t19 50.5q38 29 136 29h289l42 -1l166 -1l202 -2q92 0 117 -34.5t25 -118z" />
    <glyph glyph-name="minus" unicode="&#x2212;" horiz-adv-x="1165" 
d="M1006 614q63 0 63 -44v-32q0 -47 -13.5 -56.5t-75.5 -9.5h-809q-42 0 -42 43v22l1 10q0 57 37 63q19 3 452 3l345 1h42z" />
    <glyph glyph-name="uni2219" unicode="&#x2219;" horiz-adv-x="577" 
d="M343 704q38 0 74.5 -30.5t36.5 -79.5v-30q0 -48 -38 -86t-73 -38l-9 -2h-31q-52 0 -82 36t-30 81v18q3 12 3 30t33.5 58.5t74.5 40.5l9 2h32z" />
    <glyph glyph-name="radical" unicode="&#x221a;" horiz-adv-x="1190" 
d="M306 751q-16 0 -58 -14.5t-46 -14.5q-52 0 -52 20v19q0 21 27 39q100 68 212 68q53 0 88 -65q18 -34 110 -320t112 -286q27 0 220 643t236.5 759t97.5 116q46 0 46 -31.5t-535 -1692.5q-37 -115 -82 -115q-50 0 -80.5 66t-148.5 437.5t-147 371.5z" />
    <glyph glyph-name="infinity" unicode="&#x221e;" horiz-adv-x="1544" 
d="M399 354h21q58 0 138 58q130 95 130 145t-116 154q-64 58 -134 58h-34q-67 0 -123.5 -62.5t-56.5 -152.5v-8q0 -85 53.5 -138.5t121.5 -53.5zM1116 349h33q67 0 125 64.5t58 157.5l-1 8q0 81 -49.5 141.5t-126.5 60.5h-20q-67 0 -132 -53q-141 -115 -141 -162v-6
q0 -43 119 -150q68 -61 135 -61zM1132 237h-18q-147 0 -285 154q-50 55 -56.5 55t-76 -67t-137.5 -102t-177 -35t-195 89.5t-86 217.5v20q0 123 91.5 218.5t237.5 95.5t266 -126q68 -71 91 -71q3 0 37 35t68 66.5t102 66.5t155 35h20q118 0 203.5 -88.5t85.5 -226
t-93 -237.5t-233 -100z" />
    <glyph glyph-name="integral" unicode="&#x222b;" horiz-adv-x="765" 
d="M-32 -268q0 55 30 83t57.5 28t65 -16t59.5 -16q70 0 102 195q22 137 50.5 621t80.5 659.5t121 252.5q92 101 209 101q72 0 104 -26.5t32 -40.5q0 -55 -29.5 -82.5t-55.5 -27.5q-26 1 -64 15t-60 14q-68 0 -93.5 -158.5t-54.5 -657.5t-96 -707q-99 -309 -323 -309
q-73 0 -104 29.5t-31 42.5z" />
    <glyph glyph-name="approxequal" unicode="&#x2248;" horiz-adv-x="1155" 
d="M811 244h-23q-77 0 -211 67t-196.5 67t-122.5 -43q-30 -25 -53.5 -46.5t-35.5 -21.5q-55 0 -55 59t93.5 123t175.5 64h12l13 -1q72 0 205 -66.5t195.5 -66.5t115.5 41l89 69q56 0 56 -59.5t-117 -139.5q-67 -46 -141 -46zM825 608h-34q-70 0 -204 67t-196 67t-120 -42
q-11 -8 -43.5 -38.5t-44.5 -30.5q-56 0 -56 64.5t125 139.5q70 42 142 42h12q83 0 217 -67t196.5 -67t115.5 41q6 5 43.5 37.5t49 32.5t32.5 -24.5t21 -40.5q0 -55 -91.5 -118t-164.5 -63z" />
    <glyph glyph-name="notequal" unicode="&#x2260;" horiz-adv-x="1143" 
d="M158 710.5q0 49.5 26 61.5q11 5 217.5 5t250.5 27q15 10 63.5 115t83.5 105q71 0 71 -56q0 -12 -24 -63.5t-24 -66.5q0 -47 125 -52q52 -2 74 -15.5t22 -57t-35 -53.5t-157 -10t-149 -30q-88 -99 -88 -184q0 -18 192.5 -18t213 -10t20.5 -57t-15.5 -56.5t-223 -9.5
t-251.5 -24q-24 -13 -66.5 -101.5t-45.5 -92.5q-20 -24 -60 -24q-52 0 -52 48q0 15 23.5 69.5t23.5 61.5q0 32 -33 44q-16 6 -82.5 10t-77.5 11q-27 16 -27 76q0 31 37 42q23 7 148 7t155 32q11 11 47.5 84.5t36.5 97.5q0 17 -179.5 17t-199.5 6q-40 12 -40 61.5z" />
    <glyph glyph-name="lessequal" unicode="&#x2264;" horiz-adv-x="1157" 
d="M175 -4q-31 0 -31 27v31l1 11q0 61 31 61h487q385 0 385 -27v-20l-2 -30q0 -50 -29 -50h-166l-10 -1h-216l-33 -1h-187l-42 -1h-188zM995 239q-27 0 -656 324q-157 81 -157 110v18q0 66 49.5 93.5t686.5 336.5l49 24q30 15 31 15q29 0 29 -55t-46 -85.5t-334 -170
t-288 -147.5q0 -2 293.5 -153t314.5 -165q49 -32 49 -88.5t-21 -56.5z" />
    <glyph glyph-name="greaterequal" unicode="&#x2265;" horiz-adv-x="1158" 
d="M1021 126q32 0 32 -29v-19l-1 -10v-11q0 -54 -24 -58q-11 -2 -434 -2h-152l-42 -1h-220q-30 0 -30 29v21l1 10v10q0 54 24 58q6 1 429 1l191 1h226zM218 241q-26 0 -26 56.5t62 94t334 169.5t272 142q0 5 -128 69t-156.5 79t-40.5 21l-69 35q-22 10 -52 26l-68 34
q-65 32 -81 43q-58 38 -58 95t24 57t639 -317q169 -87 169 -121v-18q0 -57 -30 -77q-74 -49 -364.5 -185.5t-354 -169.5t-72.5 -33z" />
    <glyph glyph-name="lozenge" unicode="&#x25ca;" horiz-adv-x="1132" 
d="M898 689q0 1 -20 51l-15 38l-11 25q-19 49 -24 61t-33 82t-38 92.5t-50.5 124t-60.5 101.5h-7q-2 0 -175.5 -284.5t-173.5 -294t200 -509.5q33 -82 51 -82q9 0 183 286.5t174 296.5v12zM1044 691q0 -36 -412 -687q-44 -69 -107 -69h-16q-54 0 -91 80q-272 580 -272 654
t410 689q46 69 107 69h16q53 0 90 -81q275 -605 275 -655z" />
    </font>
</defs>
</svg>
