<?xml version="1.0" standalone="no"?>
<!DOCTYPE svg PUBLIC "-//W3C//DTD SVG 1.1//EN" "http://www.w3.org/Graphics/SVG/1.1/DTD/svg11.dtd" >
<svg xmlns="http://www.w3.org/2000/svg" xmlns:xlink="http://www.w3.org/1999/xlink" version="1.1">
<metadata>
Created by FontForge 20170731 at Wed Nov  2 23:22:32 2011
 By Aleksey,,,
2011, Dan Sayers (i@iotic.com)
</metadata>
<defs>
<font id="AveriaSerif-Bold" horiz-adv-x="1062" >
  <font-face 
    font-family="Averia Serif"
    font-weight="700"
    font-stretch="normal"
    units-per-em="2048"
    panose-1="2 0 6 3 0 0 0 0 0 4"
    ascent="1594"
    descent="-454"
    x-height="939"
    cap-height="1375"
    bbox="-212 -487 2082 1822"
    underline-thickness="98"
    underline-position="-338"
    unicode-range="U+0020-25CA"
  />
<missing-glyph horiz-adv-x="1152" 
d="M814 65q109 0 109 10q0 21 -248 382q-8 12 -54 83t-50 71l-49 -75l-5 -9l-38 -58q-4 -7 -11 -17q-247 -359 -247 -382q0 -1 18 -1l10 -1l9 -1l69 -2h487zM150 725v-368q0 -196 5 -196t110 161l61 90q22 34 35 52.5t34.5 51.5t68.5 100t47 73v10q0 8 -132 201t-139 204
l-86 127q-4 0 -4 -506zM993 635v119q0 478 -5 478t-54 -75t-175.5 -256t-126.5 -198t76.5 -126.5t175 -260.5t104 -151t5.5 470zM677 1331h-31l-10 -1h-61q-356 0 -356 -8.5t52 -84t79.5 -118t49.5 -73.5t96 -145.5t79 -114.5t63 89.5t67 103.5t23 34l123 186q80 114 80 123
t-254 9zM53 40v200l1 25v451q0 692 2 697q7 18 83 18h845q99 0 103 -16.5t4 -402.5v-424l1 -100v-475q0 -35 -31.5 -38.5t-276.5 -3.5h-449q-261 0 -271.5 6t-10.5 63z" />
    <glyph glyph-name=".notdef" horiz-adv-x="1152" 
d="M814 65q109 0 109 10q0 21 -248 382q-8 12 -54 83t-50 71l-49 -75l-5 -9l-38 -58q-4 -7 -11 -17q-247 -359 -247 -382q0 -1 18 -1l10 -1l9 -1l69 -2h487zM150 725v-368q0 -196 5 -196t110 161l61 90q22 34 35 52.5t34.5 51.5t68.5 100t47 73v10q0 8 -132 201t-139 204
l-86 127q-4 0 -4 -506zM993 635v119q0 478 -5 478t-54 -75t-175.5 -256t-126.5 -198t76.5 -126.5t175 -260.5t104 -151t5.5 470zM677 1331h-31l-10 -1h-61q-356 0 -356 -8.5t52 -84t79.5 -118t49.5 -73.5t96 -145.5t79 -114.5t63 89.5t67 103.5t23 34l123 186q80 114 80 123
t-254 9zM53 40v200l1 25v451q0 692 2 697q7 18 83 18h845q99 0 103 -16.5t4 -402.5v-424l1 -100v-475q0 -35 -31.5 -38.5t-276.5 -3.5h-449q-261 0 -271.5 6t-10.5 63z" />
    <glyph glyph-name=".notdef" horiz-adv-x="1152" 
d="M814 65q109 0 109 10q0 21 -248 382q-8 12 -54 83t-50 71l-49 -75l-5 -9l-38 -58q-4 -7 -11 -17q-247 -359 -247 -382q0 -1 18 -1l10 -1l9 -1l69 -2h487zM150 725v-368q0 -196 5 -196t110 161l61 90q22 34 35 52.5t34.5 51.5t68.5 100t47 73v10q0 8 -132 201t-139 204
l-86 127q-4 0 -4 -506zM993 635v119q0 478 -5 478t-54 -75t-175.5 -256t-126.5 -198t76.5 -126.5t175 -260.5t104 -151t5.5 470zM677 1331h-31l-10 -1h-61q-356 0 -356 -8.5t52 -84t79.5 -118t49.5 -73.5t96 -145.5t79 -114.5t63 89.5t67 103.5t23 34l123 186q80 114 80 123
t-254 9zM53 40v200l1 25v451q0 692 2 697q7 18 83 18h845q99 0 103 -16.5t4 -402.5v-424l1 -100v-475q0 -35 -31.5 -38.5t-276.5 -3.5h-449q-261 0 -271.5 6t-10.5 63z" />
    <glyph glyph-name="glyph1" horiz-adv-x="0" 
 />
    <glyph glyph-name="glyph2" horiz-adv-x="682" 
 />
    <glyph glyph-name="space" unicode=" " horiz-adv-x="554" 
 />
    <glyph glyph-name="exclam" unicode="!" horiz-adv-x="672" 
d="M352 -17h-16q-60 0 -106 39.5t-46 111.5v5q0 57 35.5 98t99.5 41h26q55 0 99 -38t44 -88l3 -30v-5q0 -63 -41.5 -98.5t-97.5 -35.5zM486 1276v-41l-1 -11q0 -305 -81 -730q-15 -81 -73 -81q-52 0 -63 84q-77 565 -77 757v28q0 49 44.5 77.5t109.5 28.5h37q104 0 104 -112
z" />
    <glyph glyph-name="quotedbl" unicode="&#x22;" horiz-adv-x="909" 
d="M373 1308q-6 -42 -6 -64l-12 -90q-8 -44 -10 -60l-20 -150q0 -100 -76 -100h-8q-45 0 -45 86l-3 23q-9 68 -9 84l-10 75l-3 14l-2 15l-3 14l-2 15l-3 14l-4 30q-9 68 -9 76l-2 27v20q0 97 125 97h8q94 0 94 -86v-40zM527 1343q0 91 124 91l8 -1h7q46 0 67 -21t21 -71v-26
l-1 -7l-2 -27l-4 -44q0 -181 -52 -350q-13 -43 -65 -43h-7q-47 0 -47 93q-4 32 -4 38l-8 69l-8 60l-1 7l-3 15l-1 7l-3 15q0 9 -5 29l-13 100l-2 14l-1 20v32z" />
    <glyph glyph-name="numbersign" unicode="#" horiz-adv-x="1150" 
d="M699 827q0 16 -84 16h-29l-34 -3l-5 -1l-30 -3q-23 0 -35 -24q-53 -106 -53 -250v-9q0 -9 12 -9l7 -2h4l111 12l15 2l5 1l19 1q29 0 40 18q30 48 30 124q4 20 4 29l23 93v5zM563 83l45 282q0 30 -90.5 30t-109.5 -35q-9 -17 -35.5 -150.5t-43.5 -161t-72 -27.5t-55 38
q0 25 23 142t23 150.5t-44 45.5l-28 5l-30 3q-38 5 -48.5 16t-10.5 56t35 64q13 7 80 16t83 31q41 57 41 183q0 32 -83 49t-83 73q0 47 32 61q4 2 69.5 19t88 40t52 154t35.5 141q23 36 104 36q35 0 35 -51q0 -18 -18 -126l-11 -66q-11 -61 -11 -65q0 -41 115 -41
q61 0 75.5 19.5t37 138t31.5 139.5q21 48 80 48t59 -41l-36 -253q0 -43 75 -61.5t75 -69t-31 -66.5q-12 -6 -83 -15t-85 -30q-35 -51 -35 -189q0 -37 50 -43q95 -11 107 -23.5t12 -59t-35 -60.5l-28 -5l-61 -6q-52 -7 -70 -32t-47 -161.5t-37 -150.5q-21 -39 -102 -39
q-40 0 -40 48z" />
    <glyph glyph-name="dollar" unicode="$" horiz-adv-x="1127" 
d="M788 328q0 62 -44 113q-72 84 -123 84h-7q-7 -1 -7 -109v-121l-1 -15v-32l-1 -15v-16l-1 -21v-59q0 -17 14 -17h9q53 0 106 53t53 112l2 11v32zM332 1061v-33q0 -48 53 -109.5t104 -61.5h4q8 0 8 90v94l1 14v43l1 14v14l1 18v54q0 18 -14 18h-9q-8 -2 -13 -2
q-47 0 -91.5 -52t-44.5 -101zM539 -163q-38 0 -62 60t-59 87.5t-132.5 57.5t-118.5 47q-64 53 -64 153t57 100q32 0 85.5 -71t99 -104.5t86.5 -33.5t53.5 42t12.5 188.5t-43 200.5q-7 9 -108.5 72.5t-146.5 116.5q-76 90 -76 219t100 231q62 64 159 98l32 10q61 17 63 18
q21 12 39.5 71t53.5 59q18 0 68.5 -52.5t149 -99t118.5 -67.5q42 -46 42 -140q0 -62 -40 -62q-24 0 -104 82t-133 82q-32 0 -46.5 -44t-14.5 -216q0 -81 27 -113q4 -5 137.5 -86.5t185 -159t51.5 -197.5t-82 -220.5t-235 -143.5q-68 -19 -83 -35t-24.5 -83t-47.5 -67z" />
    <glyph glyph-name="percent" unicode="%" horiz-adv-x="1737" 
d="M1433 369l-2 38q0 70 -31.5 132.5t-76.5 62.5h-12l-5 -1q-43 0 -72 -58.5t-29 -123.5q-2 -16 -2 -22l-2 -38v-46l1 -8l1 -23l2 -29q0 -62 31.5 -124.5t76.5 -62.5h11l6 1q32 0 65 47t33 113l4 28l2 45v62zM319 1049v-69l1 -8l1 -22l3 -37q0 -72 35.5 -122.5t76.5 -50.5h5
q48 0 77.5 59t29.5 123q2 16 2 22l2 38v47l-1 7l-1 23l-2 30q0 91 -37.5 139.5t-75.5 48.5l-6 -1q-47 0 -78.5 -62.5t-31.5 -164.5zM1012 309v35q0 145 78 247q38 50 97 79.5t120 29.5h23l11 -1q115 0 198.5 -96.5t83.5 -243.5v-36q0 -149 -84 -252.5t-210 -103.5h-23
q-124 0 -209 98t-85 244zM1333 1334q0 -14 -30 -74q-153 -306 -670 -1139q-91 -147 -151.5 -147t-60.5 29q0 80 728 1253q66 106 114 106h16q54 0 54 -28zM414 1374h45q114 0 198 -97t84 -244v-35q0 -156 -87 -256.5t-219 -100.5l-11 1q-131 0 -212.5 100.5t-81.5 240.5v47
q0 140 83 242t201 102z" />
    <glyph glyph-name="ampersand" unicode="&#x26;" horiz-adv-x="1612" 
d="M619 138h40q73 0 121.5 39.5t48.5 60.5v6q0 27 -163 219.5t-193 192.5q-44 0 -83 -67.5t-39 -126.5v-33q0 -117 87 -204t181 -87zM785 1097q0 79 -42 127t-91 48h-9q-46 0 -79 -39t-33 -96v-21q0 -56 50.5 -147t88.5 -91q14 0 63 49t49 120l1 5l1 6l1 22v17zM286 1068
q0 114 93.5 199t234 85t228 -72.5t87.5 -164t-63 -213t-63 -167.5t74 -118t157 -72q47 0 77 55q7 13 18 42l8 24q9 29 11.5 36t10 40t25 48t105.5 15t138 -35q9 -6 9 -23t-54 -60t-113 -143t-59 -172.5t78 -137.5q44 -36 109 -52t65 -49v-17q0 -11 -21 -24q-69 -43 -226 -43
q-67 0 -172 32.5t-129 32.5t-154.5 -53.5t-241.5 -53.5t-175.5 23.5t-125.5 76.5q-119 103 -119 262.5t164 305.5q98 86 98 132q0 13 -37 101t-37 160z" />
    <glyph glyph-name="quotesingle" unicode="'" horiz-adv-x="529" 
d="M151 1332q0 46 20 64q38 34 96 34h16l7 -1q46 0 68 -20t22 -83l-1 -7l-2 -34l-2 -28q0 -122 -51 -360q-12 -57 -61 -57h-21q-42 0 -42 99l-3 23q-11 82 -11 98q0 18 -14 90q-18 88 -18 128l-3 34v20z" />
    <glyph glyph-name="parenleft" unicode="(" horiz-adv-x="775" 
d="M389 542.5q0 -229.5 60 -414.5q34 -104 137.5 -266.5t103.5 -170.5q0 -35 -48 -35q-68 0 -179 111q-213 213 -279 467q-41 157 -41 288v46v7q0 136 37 273q71 264 259 458q136 141 196 141h17q35 0 35 -28q0 -13 -7 -31q-8 -21 -55 -87.5t-68 -99.5q-78 -123 -123 -276
t-45 -382.5z" />
    <glyph glyph-name="parenright" unicode=")" horiz-adv-x="776" 
d="M387 570q0 259 -75 454q-34 87 -128.5 229.5t-94.5 150.5q0 42 37 42q61 0 171.5 -96t186.5 -227q149 -257 149 -531v-69q0 -123 -37 -265q-71 -273 -268 -470q-134 -134 -196 -134q-42 0 -42 39q0 15 97.5 163.5t132.5 253.5q67 201 67 460z" />
    <glyph glyph-name="asterisk" unicode="*" horiz-adv-x="953" 
d="M298 841q-83 0 -83 42q0 52 50 96q27 24 27 50q0 2 -68 46.5t-68 102t68 57.5q24 0 110 -48q60 -34 79 -34q7 0 7 6l-16 136q0 91 91 91h19q57 0 57 -66l-29 -147q0 -32 25 -32q1 0 65.5 35t97.5 35q68 0 68 -39q0 -92 -82 -123q-61 -23 -61 -47q0 -12 30.5 -45t30.5 -86
q0 -48 -69 -48l-74 7q-22 -12 -27 -12l-19 -5h-7l-64 11q-33 -7 -38 -7l-21 3l-9 3q-4 0 -17 10t-35.5 9t-37.5 -1z" />
    <glyph glyph-name="plus" unicode="+" horiz-adv-x="1174" 
d="M1037 518q0 -39 -218 -39q-133 0 -140.5 -5.5t-7.5 -188.5t-10 -198.5t-77.5 -15.5t-74.5 19.5t-7 193t-7.5 184.5t-161 11t-168.5 3q-30 6 -30 43v57q0 51 14.5 57.5t179 6.5t170.5 12q2 4 2 181t11 192t81 15h37q36 0 41 -36q2 -13 2 -181.5t7 -174.5t163 -6t176 -5
t20 -49v-19q-2 -38 -2 -57z" />
    <glyph glyph-name="comma" unicode="," horiz-adv-x="600" 
d="M188 -313h-12q-27 0 -27 37v7q0 16 61.5 88.5t61.5 141.5q0 1 -61 68t-61 127.5t35.5 99.5t97.5 39h9l8 -1q75 0 119 -53t44 -138v-8l-1 -9q0 -119 -88 -251q-41 -61 -101.5 -104.5t-84.5 -43.5z" />
    <glyph glyph-name="hyphen" unicode="-" horiz-adv-x="746" 
d="M609 608q49 0 49 -41v-29l-1 -7q0 -56 -12 -82t-50 -26l-14 -2l-46 -3h-15l-30 -2h-16l-32 -2h-15l-16 -1h-15l-15 -1h-31l-7 -1h-15l-16 -1h-30l-15 -1h-15l-23 -1h-95q-49 0 -49 42v21l1 7l1 30l2 29q0 43 39 56t265 13l99 2h117z" />
    <glyph glyph-name="period" unicode="." horiz-adv-x="599" 
d="M290 -18q-67 0 -107.5 47.5t-40.5 101.5v21q0 60 40.5 100.5t109.5 40.5h6q69 0 113 -44t44 -106v-27q0 -55 -38 -93t-80 -38l-26 -3h-21z" />
    <glyph glyph-name="slash" unicode="/" horiz-adv-x="860" 
d="M124 -128h-35q-58 0 -58 33q0 24 44 134q370 925 550 1321q32 71 99 71h18q76 0 76 -31.5t-43 -132.5q-256 -603 -269 -635l-28 -68q-28 -63 -37 -86l-50 -121q-13 -29 -82 -201.5t-87 -212.5t-37 -55.5t-61 -15.5z" />
    <glyph glyph-name="zero" unicode="0" horiz-adv-x="1149" 
d="M373 611l2 -75q0 -191 54 -311t126 -120h22q72 0 123.5 114.5t51.5 314.5l2 31l1 46v63q0 406 -117 507q-32 28 -65 28h-22q-71 0 -123 -115t-52 -300q-2 -30 -2 -45l-2 -76v-46zM572 -26h-37q-89 0 -177 52q-175 103 -236 355q-28 115 -28 244v22l1 22q0 125 30 251
q63 264 247 369q90 51 187 51h18q211 0 338 -187q61 -90 90.5 -214.5t29.5 -248.5v-44q0 -136 -33 -260q-66 -250 -232 -354q-93 -58 -198 -58z" />
    <glyph glyph-name="one" unicode="1" horiz-adv-x="1098" 
d="M433 681q0 328 -25 371.5t-113.5 53.5t-88.5 46t53 60q13 6 107 32.5t171.5 54t112 27.5t47.5 -39.5t13 -202.5l-2 -66l-1 -22l-2 -114v-93l-1 -46v-70q0 -368 19.5 -435t77.5 -106q90 -61 90 -96.5t-80 -35.5h-127l-21 1h-144l-84 -1h-84q-121 0 -121 44q0 36 72.5 77
t101.5 97.5t29 198.5v264z" />
    <glyph glyph-name="two" unicode="2" horiz-adv-x="1130" 
d="M117 85q0 50 93 172q33 43 185.5 209.5t219.5 274t67 196t-49 150t-141 61.5t-179.5 -101t-132.5 -101t-45 83q0 52 27.5 109t86.5 101q124 92 308 92t299 -101.5t115 -268.5q0 -131 -92 -255q-65 -87 -257 -250t-192 -197q0 -44 142 -44q216 0 324 54q55 28 87 28
t32 -91.5t-36.5 -146t-137.5 -54.5l-63 2h-97l-353 13q-2 0 -61 -2l-57 -2q-93 0 -93 69z" />
    <glyph glyph-name="three" unicode="3" horiz-adv-x="1127" 
d="M101 162q0 85 83 85q26 0 124 -73t198 -73t156.5 76.5t56.5 180t-65 166.5q-41 40 -83.5 52.5t-96 20t-71.5 16.5q-40 20 -40 55.5t101.5 82.5t146 103t44.5 129.5t-38 119t-128 45.5t-179.5 -70t-115.5 -70q-40 0 -40 53.5t23.5 107.5t71.5 83q130 77 309.5 77
t279 -73.5t99.5 -196.5q0 -139 -131 -261q-66 -62 -66 -83q0 -5 43 -24.5t78 -39.5t74 -69q71 -90 71 -195q0 -205 -157.5 -326.5t-380.5 -121.5q-176 0 -282 65q-85 52 -85 158z" />
    <glyph glyph-name="four" unicode="4" horiz-adv-x="1160" 
d="M308 491h131q143 0 153 23q10 22 11 152v160l1 16v46l1 30v46q0 53 -5 53h-3q-6 0 -182 -254.5t-176 -263t69 -8.5zM619 -47q-138 0 -138 100q0 28 40 72t40 99t-41.5 75.5t-183 20.5t-206.5 26.5t-65 84.5v19q0 56 70 162q175 266 461 626q67 84 156 84t108.5 -32.5
t19.5 -130.5l-4 -196q0 -301 22 -371q11 -34 59 -66t62.5 -52.5t14.5 -75.5q0 -13 -40.5 -46.5t-43.5 -43.5q-11 -33 -11 -116q0 -15 17 -48t17 -81q0 -61 -89 -89q-67 -21 -218 -21h-47z" />
    <glyph glyph-name="five" unicode="5" horiz-adv-x="1129" 
d="M183 14q-80 51 -80 134.5t80 83.5q39 0 138 -69.5t193.5 -69.5t166.5 98q50 68 50 183q0 58 -32.5 116.5t-93.5 99t-211.5 50t-171.5 18.5q-49 22 -49 110t44 336q18 100 50.5 148t248.5 48q81 0 193 7l96 8q88 7 92 7q75 0 75 -46q0 -117 -50 -153t-241 -36q-1 0 -65 2
l-63 2q-118 0 -159 -42q-56 -58 -56 -160q0 -38 9.5 -51t62.5 -13l61 2q256 0 396.5 -111.5t140.5 -312.5q0 -97 -44 -185q-42 -88 -118 -152q-147 -123 -379 -124q-172 0 -284 72z" />
    <glyph glyph-name="six" unicode="6" horiz-adv-x="1140" 
d="M572 708h-23q-69 0 -115.5 -62t-46.5 -177v-55q0 -122 55 -216.5t138 -94.5h7q62 0 111 65.5t49 161.5l2 18l1 28v37q0 112 -49.5 203.5t-128.5 91.5zM946 1232q0 -74 -241 -74q-119 0 -202.5 -89t-83.5 -197q0 -55 51 -55l19 2l39 8q21 3 86.5 3t149.5 -33
q162 -64 227 -230q31 -79 31 -172q0 -173 -105 -285q-56 -60 -134 -95t-158 -35h-50q-87 0 -181 44q-186 87 -263 306q-43 121 -43 238v55q0 287 188 497q86 97 208.5 155.5t256.5 58.5h23q80 0 131 -30.5t51 -71.5z" />
    <glyph glyph-name="seven" unicode="7" horiz-adv-x="1124" 
d="M350 1315q19 0 64 3.5t174 3.5l156 -6q78 -3 164.5 -3t102.5 -9.5t16 -45.5v-20q0 -79 -68 -230q-14 -32 -95.5 -202t-130.5 -279t-109 -297.5t-62 -192.5q-40 -80 -151 -80q-67 0 -86 16.5t-19 74.5q0 106 230.5 513.5t230.5 486.5q0 11 -19 25q-39 29 -156.5 29
t-198 -22.5t-154 -66.5t-104 -44t-30.5 56v23q0 125 42 227q22 53 70 53l22 -2l45 -6q47 -5 66 -5z" />
    <glyph glyph-name="eight" unicode="8" horiz-adv-x="1142" 
d="M345 390v-41q0 -95 62.5 -171.5t154.5 -76.5h15q78 0 129.5 57.5t51.5 148.5v23q0 94 -82 184q-34 38 -100.5 71t-89.5 33q-46 0 -93.5 -74.5t-47.5 -153.5zM737 1012v29q0 93 -55.5 155t-124.5 62h-20q-12 -2 -18 -2q-44 0 -87 -48.5t-43 -106.5l-2 -13v-33q2 -14 2 -20
q0 -67 78.5 -145.5t149.5 -78.5h5q45 0 80 70.5t35 130.5zM557 -25h-24q-186 0 -310 96q-59 45 -91.5 110.5t-32.5 135.5v23q0 157 145 277q88 72 88 73q0 16 -60 62q-134 103 -134 256.5t120 258.5q64 56 145.5 85t157.5 29h25q169 0 278.5 -88t109.5 -233.5t-122 -247.5
q-76 -63 -76 -64q0 -12 77.5 -68t122.5 -120t45 -160q0 -183 -139 -309q-60 -54 -151 -85t-174 -31z" />
    <glyph glyph-name="nine" unicode="9" horiz-adv-x="1139" 
d="M547 586h22q69 0 114.5 61t45.5 167v63q0 133 -56 224t-134 91l-8 -1q-61 0 -110 -65.5t-49 -163.5l-2 -18l-1 -27v-37q0 -109 50 -201.5t128 -92.5zM98 880v26q0 164 112 284q56 60 135.5 93t158.5 33h25q99 0 192 -43q188 -87 267 -323q38 -114 38 -238v-54
q0 -131 -51 -266q-108 -285 -377 -389q-115 -45 -233 -45h-23q-81 0 -131 30.5t-50 71.5q0 20 30 37q57 33 193 33t228 86t92 208q0 51 -75 51l-103 -6q-191 0 -313 124q-56 58 -85.5 136t-29.5 151z" />
    <glyph glyph-name="colon" unicode=":" horiz-adv-x="623" 
d="M331 5h-27q-59 0 -102.5 37.5t-43.5 88.5l-2 10v30q2 10 2 15q0 43 43.5 80.5t98.5 37.5h33q48 0 94 -34.5t46 -86.5l3 -25v-16q-3 -15 -3 -24q0 -40 -43 -76.5t-99 -36.5zM285 626q-50 0 -89 44.5t-39 96.5v26q0 58 43.5 95t97.5 37h28q63 0 106 -43t43 -106v-16
q0 -52 -35 -93t-91 -41l-10 -2h-38q-10 2 -16 2z" />
    <glyph glyph-name="semicolon" unicode=";" horiz-adv-x="623" 
d="M166 -246v13q0 7 61.5 85.5t61.5 134.5q0 15 -61 76t-61 119t32 101t103 43h16q76 0 119 -56t43 -144l-1 -9q0 -116 -85 -243q-40 -61 -104 -106.5t-94 -45.5t-30 32zM333 630h-27q-57 0 -101 38.5t-44 104.5v16q0 51 37.5 94.5t94.5 43.5l5 1l6 1l22 1l5 -1
q68 0 109 -41t41 -97v-31q0 -53 -44.5 -91.5t-103.5 -38.5z" />
    <glyph glyph-name="less" unicode="&#x3c;" horiz-adv-x="1164" 
d="M1000 50q-18 0 -100 42q-670 344 -737 384q-38 22 -38 83t46 90l341 178q144 76 189 98.5t159.5 83t128.5 60.5h14q24 0 24 -70.5t-72 -117.5q-35 -23 -123.5 -67t-178.5 -92l-144 -73q-157 -83 -157 -84q0 -7 301 -166t306 -162q68 -43 68 -99v-18q0 -70 -27 -70z" />
    <glyph glyph-name="equal" unicode="=" horiz-adv-x="1168" 
d="M1066 424v-41q0 -59 -29 -59h-106l-22 1h-33l-55 2h-333l-23 -1h-80l-22 -1h-23l-55 -2h-22l-21 -1h-22l-43 -1h-41q-25 0 -25 41v52q0 60 39 60h63l11 -1l764 1h42q36 0 36 -50zM385 668q-203 0 -248 10q-26 6 -26 44v65q0 49 28 53q70 11 479 11l34 1h126l12 -1l241 -8
q35 0 35 -45v-66q0 -56 -59 -56l-22 -2h-21l-177 -6h-402z" />
    <glyph glyph-name="greater" unicode="&#x3e;" horiz-adv-x="1164" 
d="M167 50h-14q-21 0 -21 70t49 104.5t338 179t289 152.5q0 13 -265 145.5t-337.5 179t-72.5 103.5q0 85 30 85q23 0 121 -52t130 -67.5t146 -75.5t140.5 -73t147 -76.5t131.5 -70.5q55 -31 55 -89v-19q0 -48 -47 -75.5t-387.5 -202t-379.5 -196.5t-53 -22z" />
    <glyph glyph-name="question" unicode="?" horiz-adv-x="998" 
d="M451 -14h-17q-68 0 -110 42t-42 97v20q0 48 34 88t86 40l25 3h22q56 0 99.5 -37t43.5 -82l3 -15v-34q-2 -10 -2 -15q0 -37 -40.5 -72t-101.5 -35zM440 417q-93 0 -93 154q0 90 119 230t119 246q0 62 -35 97t-84 35t-128.5 -67.5t-124.5 -67.5t-68 33t-23 84q0 100 92 160
t226 60h39q76 0 156 -29t142 -86q104 -96 104 -242q0 -100 -45.5 -168t-156.5 -156t-137 -116.5t-35 -97.5t-53 -69h-14z" />
    <glyph glyph-name="at" unicode="@" horiz-adv-x="1566" 
d="M888 872h-24q-79 0 -143 -110q-81 -139 -81 -254v-46q2 -14 2 -20q0 -73 62 -73l5 1q84 0 152 117q90 154 90 296v19q0 70 -63 70zM886.5 385q-7.5 0 -84 -37t-120.5 -37q-101 0 -148 56.5t-47 130.5q0 151 78 269q92 141 222 141l84 -2q39 0 74 5l80 11q47 0 61 -11
q29 -23 29 -94l-6 -45l-10 -47l-9 -49q-18 -99 -18 -149t16 -80.5t45 -30.5q69 0 135 98t66 221t-37 201q-118 249 -426 250q-251 0 -421 -185q-66 -72 -114 -184q-48 -111 -48 -239q0 -248 143 -395t368 -147q139 0 287 51q94 33 129 33q19 0 19 -11l-9 -21
q-45 -50 -193.5 -101t-286 -51t-260.5 50t-203 137q-172 185 -172 459q0 324 232 550q207 202 538 202q145 0 258 -52q333 -153 333 -513q0 -79 -29 -172.5t-96 -169.5q-114 -129 -261 -129q-77 0 -134 43.5t-64.5 43.5z" />
    <glyph glyph-name="A" unicode="A" horiz-adv-x="1449" 
d="M537 566h6l6 1l106 2q151 0 151 10.5t-18.5 58t-31.5 94.5t-44 155t-39.5 146.5t-13.5 38.5t-57.5 -185t-56.5 -194q-43 -100 -43 -109v-5q0 -13 35 -13zM658 460q-163 0 -195 -20q-58 -37 -58 -190q0 -63 13.5 -95t28.5 -58t15 -39q0 -38 -159 -38t-210.5 11t-51.5 45
v20q0 18 39 44t65 58q67 81 262 609q47 129 87 263q40 136 68 194q52 109 168 109h2q84 0 146 -121t152.5 -408.5t213.5 -557.5q37 -82 72 -118q8 -10 46 -34t38 -54q0 -62 -126 -63h-180q-175 0 -204 8q-42 11 -42 49q0 9 19 31.5t21 25.5q25 39 25 107q0 147 -59 195
q-33 27 -196 27z" />
    <glyph glyph-name="B" unicode="B" horiz-adv-x="1370" 
d="M539 418q0 -216 18 -244q31 -49 133 -49l9 1q117 0 179.5 68.5t62.5 174.5v28q0 114 -80 187.5t-209 73.5h-50q-44 0 -54 -17t-10 -63v-126l1 -8v-26zM628 1253q-60 0 -74 -28t-14 -145v-189q0 -108 52 -108l14 -2l21 -1h15q115 0 180.5 65.5t65.5 167.5v17
q0 91 -58.5 156t-142.5 65l-14 2h-45zM250 992q0 124 -15 172.5t-66.5 88t-51.5 64.5q0 42 62.5 50.5t329.5 8.5l155 2q255 0 366 -77q136 -95 136 -265q0 -146 -159 -250q-72 -48 -72 -50q1 -4 43 -20q115 -45 172 -106q85 -93 85 -208v-26q0 -176 -145.5 -276t-395.5 -100
h-157l-26 1h-151l-100 -1h-24q-126 0 -126 47q0 38 55.5 71t74 83.5t18.5 294.5l-1 80l-2 54q-1 27 -1 53l-2 53q-1 27 -1 52l-1 53v151z" />
    <glyph glyph-name="C" unicode="C" horiz-adv-x="1394" 
d="M773 -17h-37q-122 0 -243 48q-238 94 -340 337q-56 134 -56 269v72q0 130 56 264q112 268 369 370q118 47 239.5 47t233 -25.5t123.5 -25.5l75 6q52 0 72 -51q28 -72 28 -206q0 -87 -45 -87q-21 0 -118 80.5t-132 98.5q-102 54 -192 54q-188 0 -299 -158
q-99 -140 -99 -394q0 -120 34 -224q69 -211 243 -281q63 -25 167.5 -25t326.5 129q66 39 84 39q46 0 46 -53q0 -32 -48 -100.5t-96 -94t-172.5 -57.5t-219.5 -32z" />
    <glyph glyph-name="D" unicode="D" horiz-adv-x="1550" 
d="M1113 669v36q0 121 -33 227q-65 210 -225 285q-67 32 -146 32h-14q-123 0 -137 -59q-1 -4 -1 -262v-280l-1 -46v-108l-1 -47v-46l-1 -46v-30l-1 -31q0 -107 32.5 -137.5t121.5 -30.5q276 0 372 304q34 106 34 239zM276 677.5q0 381.5 -17.5 461.5t-58.5 105
q-86 53 -86 74q0 40 49.5 48.5t327.5 8.5l126 2h77q517 0 677 -402q49 -124 49 -274q0 -149 -50 -283q-101 -270 -377 -372q-130 -48 -294 -48h-126l-25 1h-100q-246 0 -292.5 8t-46.5 42.5t62 65.5t79 90q26 91 26 472.5z" />
    <glyph glyph-name="E" unicode="E" horiz-adv-x="1312" 
d="M114 76q0 29 56 65t74.5 112t18.5 435.5t-21 434t-49 100.5q-80 77 -80 79q0 39 63 49q142 23 557 23h46q279 0 323 -29q67 -44 67 -233q0 -40 -34 -40q-3 0 -71.5 53t-141.5 76t-214 23q-68 0 -105 -70q-52 -99 -52 -278q0 -60 92 -60q64 0 92 14t65 59.5t47 45.5
q57 0 76 -46.5t19 -288.5q0 -118 -45.5 -118t-105 63.5t-133.5 63.5t-93 -27.5t-19 -101.5t25 -165t42 -116q34 -49 123 -49q143 0 221 28.5t152 91t91 62.5q26 0 26 -73.5t-43 -169.5q-15 -34 -40 -51q-52 -36 -313 -36h-133q-432 0 -524 20q-59 13 -59 54z" />
    <glyph glyph-name="F" unicode="F" horiz-adv-x="1243" 
d="M868 475q-26 0 -59.5 41t-67 56.5t-94 15.5t-82 -19t-21.5 -140q0 -228 86 -316q62 -64 62 -71q0 -35 -89 -35h-34q-264 0 -392 21q-73 12 -73 51q0 25 66 67t75 58q19 36 19 424.5t-19 477.5t-57 126q-64 62 -64 64q0 48 60 57q140 21 584 21h76l36 -1q36 -1 72 -1
q151 0 181 -38q44 -56 44 -222v-29q0 -31 -34 -31q-17 0 -79.5 56t-104.5 74q-94 41 -229 41q-88 0 -118 -55q-61 -112 -61 -293q0 -29 26 -52.5t89.5 -23.5t103.5 37q90 83 103 83q45 0 58.5 -44t13.5 -174t-8 -168q-12 -58 -69 -58z" />
    <glyph glyph-name="G" unicode="G" horiz-adv-x="1528" 
d="M939 587q0 34 62.5 42t258.5 8t196 -58q0 -22 -26 -45q-60 -52 -72 -79t-24 -187.5t-51 -190t-130 -43.5q-332 -53 -355 -53h-43q-121 0 -245.5 48t-223.5 149q-190 194 -190 493t184 500q93 102 226.5 160.5t272.5 58.5h43q101 0 214.5 -27.5t132.5 -27.5l31 3l27 4
q97 0 97 -251q0 -78 -49 -78q-14 0 -101 72.5t-122 92.5q-112 64 -208 64t-172 -28q-76 -30 -140 -104q-123 -144 -123 -384q0 -248 102 -406q54 -83 133.5 -134.5t169 -51.5t142 44t52.5 154t-48 206q-21 43 -21 49z" />
    <glyph glyph-name="H" unicode="H" horiz-adv-x="1634" 
d="M532 857q0 -71 54 -87q30 -9 225.5 -9t231 28t35.5 110q0 252 -59.5 326.5t-59.5 78.5q0 35 76 44q34 4 265 4t231 -40q0 -46 -55 -83t-70.5 -94t-15.5 -252t-1 -227l-2 -48q-3 -72 -3 -96q0 -240 32 -325q14 -37 47 -59q89 -60 89 -66q0 -38 -34 -52q-19 -8 -84 -8h-48
q-221 0 -337 16q-61 8 -61 47q0 7 36.5 54t49.5 90q32 101 32 324q0 114 -61 130q-19 5 -204 5t-222 -13q-61 -21 -61 -141t21 -223t57 -158.5t36 -64.5q0 -34 -70 -42q-18 -2 -233 -2t-243 14q-27 14 -27 58q0 21 58 51.5t74 83t16 380.5l2 49l4 146q0 251 -34 369
q-14 49 -70.5 83t-56.5 77q0 35 100 35q421 0 456 -32q7 -7 7 -17q-1 -23 -35 -63q-50 -58 -63 -123q-25 -129 -25 -278z" />
    <glyph glyph-name="I" unicode="I" horiz-adv-x="816" 
d="M266 680q0 379 -17.5 457.5t-60.5 109.5q-80 58 -80 80q0 48 57 48h128l22 -1l267 1h63q61 0 61 -38.5t-56 -78t-68 -71.5q-29 -80 -29 -239l-3 -69v-233q0 -369 21.5 -432.5t80.5 -102t59 -61.5q0 -39 -36 -47q-9 -2 -279 -2l-66 -1h-43l-66 -1q-109 0 -109 39.5t58 79
t71 88.5q25 95 25 474z" />
    <glyph glyph-name="J" unicode="J" horiz-adv-x="998" 
d="M489 798q0 295 -20 351t-80.5 98.5t-60.5 74t33.5 42.5t137.5 11h159q177 0 200 -6q39 -10 39 -38q0 -21 -49 -85t-63 -141t-14 -397t-17.5 -436t-79.5 -218q-126 -207 -403 -207h-3q-124 0 -190.5 47.5t-66.5 123.5q0 48 29.5 87t83.5 39t98 -28t88 -28q90 0 148 269
q31 146 31 441z" />
    <glyph glyph-name="K" unicode="K" horiz-adv-x="1508" 
d="M134 1300q0 58 55 68q34 6 268 6l134 1q88 0 88 -27t-39 -70.5t-53 -89.5q-39 -127 -39 -349q0 -60 38 -60q57 0 246 220q119 139 119 203q0 42 -13 65l-27 47q0 43 59 55q24 5 211.5 5t187.5 -45q0 -11 -154 -131q-59 -46 -230 -228q-110 -117 -110 -172.5t314 -479.5
q74 -100 164 -174.5t90 -104.5q0 -40 -122 -40l-44 1h-45q-239 0 -280 40q-20 20 -29 102.5t-51 156.5q-165 291 -231 291q-43 0 -59 -32q-30 -61 -30 -175t22.5 -171t53 -107t30.5 -71q0 -33 -292 -33q-141 0 -173 7q-53 12 -53 61q0 14 47.5 60.5t57.5 64.5q26 48 26 162
l-19 745q0 80 -28 115l-24 20l-25 18q-41 32 -41 46z" />
    <glyph glyph-name="L" unicode="L" horiz-adv-x="1268" 
d="M94 1329q0 45 64 45h204l29 -1q242 0 267 -5q42 -8 42 -39.5t-61.5 -82.5t-75.5 -112q-25 -110 -25 -477v-153l2 -147q0 -137 38 -180t150.5 -43t207.5 52q44 24 127 116.5t131 92.5q33 0 33 -50q0 -208 -49 -295q-21 -37 -130 -37q-216 -8 -260 -8l-379 -4h-184
q-103 0 -103 55q0 3 71 92q33 42 48 145t15 367v326l-2 120q0 62 -20 92.5t-80 63.5t-60 67z" />
    <glyph glyph-name="M" unicode="M" horiz-adv-x="1888" 
d="M241 911q0 148 -23 220q-7 23 -45.5 83t-38.5 107t125.5 47t211 -15.5t125.5 -73.5t147 -326t130 -326l45 -112l22 -36q21 0 181 385.5t196 431.5q58 74 182 74h58q114 0 156 -16t42 -52q0 -11 -47 -89.5t-58 -120t-11 -373.5t28 -453q13 -57 37 -97l27 -36l30 -26
l22 -28v-26l-22 -21q-45 -25 -195 -25q-277 0 -277 61l10 30l37 66q13 31 28 174.5t15 370.5t-10 301l-8 34q-29 0 -265 -598q-96 -243 -113 -280q-50 -108 -99 -108t-71.5 31t-196 481t-207.5 450q-21 0 -21 -166l4 -118q1 -40 1 -234q1 -194 35 -292q34 -99 34 -132
l-12 -24q-46 -44 -219 -44q-97 0 -128 32l-9 23q0 16 58 87t69 140q20 128 20 619z" />
    <glyph glyph-name="N" unicode="N" horiz-adv-x="1582" 
d="M391 719q0 -392 64 -538q18 -41 38.5 -77.5t20.5 -50.5l-9 -19q-34 -32 -281 -32q-89 0 -119 18t-30 51q0 3 87 64q51 36 63 83.5t12 436.5t-17 453t-71.5 122.5t-54.5 100.5q0 34 151 34t207 -18.5t97 -59.5t331.5 -438.5t311 -397.5t20.5 283q0 422 -85 520l-22 23
q-35 34 -35 43q0 54 149 54h48q119 0 172.5 -10t53.5 -45q0 -21 -51.5 -89.5t-60.5 -134.5q-17 -130 -17 -544.5t-6 -450.5q-12 -74 -55 -74q-105 0 -212 109q-49 49 -359 464.5t-331 415.5q-12 0 -12 -104l2 -95v-97z" />
    <glyph glyph-name="O" unicode="O" horiz-adv-x="1576" 
d="M788 108h29q71 0 130.5 40.5t98.5 105.5q94 154 94 367v89q0 102 -30 216q-55 212 -185 302q-57 39 -127 39h-28q-140 0 -233 -153.5t-93 -394.5v-18q0 -270 103 -435q47 -75 110.5 -116.5t130.5 -41.5zM788 -23h-68q-114 1 -232 53q-227 101 -320 353q-42 115 -42 248
v24q0 154 54 292q107 275 359 390q130 60 277 60q284 0 460 -176q86 -86 132.5 -212.5t46.5 -265.5v-24q0 -141 -51 -284q-104 -291 -380 -408q-118 -50 -236 -50z" />
    <glyph glyph-name="P" unicode="P" horiz-adv-x="1297" 
d="M631 685h24q109 0 176 73.5t67 184.5v39q0 108 -66.5 181.5t-147.5 73.5l-16 2h-41q-60 0 -73 -30.5t-13 -167.5v-232q0 -86 15 -105t75 -19zM124 1314q0 40 57 46.5t309 6.5l178 3h25q350 0 466 -228q37 -72 37 -152v-27q0 -159 -125.5 -276.5t-350.5 -138.5
q-161 -15 -169 -22q-32 -26 -32 -155t24 -173t89.5 -88.5t65.5 -71.5q0 -42 -124 -42l-25 1h-102l-52 1q-231 0 -257 5q-47 9 -47 54q0 21 74 83q35 30 60 133.5t25 440.5l3 79l-1 77l-3 155q0 101 -15 142.5t-62.5 78t-47.5 68.5z" />
    <glyph glyph-name="Q" unicode="Q" horiz-adv-x="1558" 
d="M440 755v-75q0 -224 90 -385q38 -69 93 -115t122 -46l11 1h11q153 0 259 160q90 135 90 368v19q0 259 -96 430q-44 79 -107 119t-132 40h-14q-147 0 -237 -144t-90 -372zM146 716v32q0 130 47 251q99 254 324 350q109 47 223 47h61q127 0 237 -56q360 -184 360 -650
q0 -276 -198 -574q-82 -122 -82 -135q0 -41 116 -92q73 -32 165 -47.5t118 -26.5q60 -26 60 -65t-57 -63t-136 -24h-30q-150 0 -359 96q-346 159 -520 309t-251.5 302t-77.5 346z" />
    <glyph glyph-name="R" unicode="R" horiz-adv-x="1449" 
d="M611 1246q-48 0 -57 -39t-9 -149v-142l-1 -25q0 -123 10.5 -146t83.5 -23q122 0 196 67.5t74 188.5v19q0 107 -65 179t-166 72h-42q-16 -2 -24 -2zM264 852q0 241 -32 335q-13 39 -63.5 77.5t-50.5 73t350 34.5l67 1h134q386 0 492 -230q30 -65 30 -163q0 -166 -161 -280
q-68 -48 -68 -67q0 -13 18.5 -40t99 -162t125 -192.5t93.5 -90.5q102 -68 102 -85q0 -37 -34 -50t-98 -13h-36q-168 0 -233 65t-151.5 243.5t-107.5 207.5q-57 77 -149 77q-45 0 -45 -142t31 -240q13 -41 61.5 -98t48.5 -70q0 -42 -224.5 -42t-278.5 8q-68 10 -68 66
q0 24 50 50t67.5 59.5t17.5 182.5l1 34l2 33q1 22 1 69l2 69q7 242 7 280z" />
    <glyph glyph-name="S" unicode="S" horiz-adv-x="1160" 
d="M94 300v34q0 62 35 62q46 0 132.5 -103.5t156 -140.5t167.5 -37t161 55.5t63 147t-102 162.5q-44 31 -223.5 112t-258.5 161q-104 106 -104 261q1 155 121 266q120 112 333 112q61 0 151 -18.5t128 -18.5l28 2l27 1q59 0 79 -61t20 -189q0 -82 -44 -82q-25 0 -105 82
t-138 117.5t-149 35.5t-148.5 -55t-57.5 -121q0 -91 93 -156q38 -27 227.5 -110t258.5 -149t94.5 -133.5t25.5 -116.5v-38q0 -67 -31 -143t-102 -140q-131 -118 -359 -118q-61 0 -174 22t-135 22l-56 -4q-61 0 -87.5 65.5t-26.5 213.5z" />
    <glyph glyph-name="T" unicode="T" horiz-adv-x="1366" 
d="M539 692q0 366 -18 447t-70 81q-85 0 -153 -48q-32 -22 -97 -97t-77 -75q-40 0 -40 62q0 144 32 259q15 53 72 53h59l31 -1h124l301 -2q521 0 532 -6q44 -23 44 -256v-33q0 -80 -42 -80q-34 0 -96.5 83.5t-108 113.5t-118.5 30q-62 0 -80 -110q-12 -73 -12 -418t28 -463
q17 -70 78 -119t61 -79q0 -35 -126 -35h-33l-33 1l-133 1q-247 0 -257 2q-35 7 -35 43t62.5 76.5t77.5 99.5q27 104 27 470z" />
    <glyph glyph-name="U" unicode="U" horiz-adv-x="1508" 
d="M718 -23q-146 0 -258 62t-165.5 154.5t-64 201.5t-10.5 421t-13.5 359.5t-70.5 72t-57 54.5q0 46 39 59t135 13h271q95 0 95 -39q0 -19 -37 -75.5t-53 -133t-16 -283.5l-3 -119q-3 -119 -3 -163q0 -357 198 -420q44 -14 121.5 -14t141.5 39.5t102 105.5q61 107 61 416.5
t-28 451.5q-11 55 -48 119t-37 70q0 45 200 45h77q149 0 149 -35q0 -46 -33 -75q-86 -77 -88 -83q-20 -56 -20 -379.5t-14 -425.5q-33 -241 -246 -345q-111 -54 -236 -54h-89z" />
    <glyph glyph-name="V" unicode="V" horiz-adv-x="1436" 
d="M26 1318q0 31 47 43t183 12l36 -1q192 0 229 -10q53 -14 53 -47q0 -9 -30 -51.5t-30 -77.5q0 -95 225 -731q32 -91 49 -91q10 0 94 214t132 403t48 220.5t-37.5 77t-37.5 46.5q0 31 40 39t213.5 8t173.5 -34v-20q0 -31 -69.5 -87t-85.5 -88t-90.5 -225.5t-115 -295
t-114 -290.5t-94.5 -236q-45 -100 -96 -100q-104 0 -147 76t-180 448q-138 372 -164 451q-65 192 -122 237q-110 86 -110 110z" />
    <glyph glyph-name="W" unicode="W" horiz-adv-x="1985" 
d="M1778 1335q117 0 117 -53q0 -20 -41 -89.5t-66.5 -174.5t-39 -157.5t-42 -132t-85 -258.5t-93.5 -263t-71 -107t-78 -23q-67 0 -119 91q-77 136 -131.5 325.5t-107.5 312.5l-19 37q-36 0 -117.5 -270t-143.5 -389t-134 -119q-42 0 -79 28.5t-71 117.5q-75 194 -286 928
q-17 60 -39.5 107.5t-22.5 76.5t81 29q207 0 295 -44q53 -27 53 -116l-3 -39l-9 -83q0 -121 134 -509q16 -45 33 -45q35 0 128 433q33 154 33 228q0 124 168 124q78 0 131.5 -37t74.5 -87q5 -13 25 -121.5t93.5 -308t78.5 -199.5q13 0 25.5 29.5t72 239t59.5 310.5l-3 35
l-1 34q0 139 200 139z" />
    <glyph glyph-name="X" unicode="X" horiz-adv-x="1473" 
d="M906 776q0 -63 126.5 -249t182.5 -253.5t120.5 -121.5t64.5 -99q0 -52 -202 -52l-46 1l-90 -1q-230 0 -230 43q0 29 22 64t22 63q0 54 -122 248q-60 95 -90 95t-109 -128t-79 -189t26.5 -101.5t26.5 -60.5q0 -33 -231.5 -33t-231.5 39q0 48 93.5 98t153.5 122
q265 318 265 389q0 40 -232 366q-91 128 -131 170q-124 131 -124 144q0 42 266 42q45 0 89 1l86 2h42q97 0 97 -48q0 -11 -27.5 -45t-27.5 -50q0 -70 107 -246q49 -81 71 -81q46 0 140 171q38 69 38 137q0 22 -24.5 61t-24.5 44q0 37 50 48q35 8 192.5 8t175.5 -9.5
t18 -41.5t-90 -88t-157 -139q-206 -257 -206 -320z" />
    <glyph glyph-name="Y" unicode="Y" horiz-adv-x="1392" 
d="M554 467q0 97 -262 554q-67 117 -111 163q-115 121 -115 142l12 16q35 30 332 30l65 1q133 0 133 -45q0 -8 -24 -38t-24 -66q0 -95 150 -390q46 -91 61 -91q41 0 145 241q65 150 65 228q0 29 -24.5 67.5t-24.5 48.5q0 45 125 45h66q130 0 181 -15q33 -10 33 -43
t-75.5 -83.5t-109 -98t-203.5 -352.5q-106 -190 -106 -351.5t39 -247.5q17 -37 68 -72.5t51 -72.5t-334 -37l-163 -1q-109 0 -109 39q0 24 55 64.5t70 83.5q34 98 34 281z" />
    <glyph glyph-name="Z" unicode="Z" horiz-adv-x="1326" 
d="M475 168q0 -31 174.5 -31t303.5 54q67 28 153 114t113 86q40 0 40 -52.5t-27 -166.5t-47 -133q-33 -32 -193 -32l-38 -1q-38 -1 -78 -1l-205 -2h-329q-168 0 -191 6q-54 14 -54 58q0 65 68 171t361.5 518.5t293.5 463.5q0 21 -149.5 21t-266.5 -52q-48 -21 -133 -99
t-108 -78q-39 0 -39 58q0 153 34 243q12 32 36 45q25 13 459 13l162 1h157q148 0 184 -12.5t36 -72t-358.5 -574t-358.5 -545.5z" />
    <glyph glyph-name="bracketleft" unicode="[" horiz-adv-x="774" 
d="M431 535q0 -585 30 -666q18 -48 118.5 -75t100.5 -60v-17q0 -33 -39 -33h-92l-24 1q-25 1 -50 1l-25 1h-50q-154 0 -176 29.5t-22 189.5v1349q0 143 27 162.5t213 19.5l74 1l47 2h69q45 0 45 -40t-88 -68t-105.5 -45.5t-29.5 -69.5q-23 -97 -23 -682z" />
    <glyph glyph-name="backslash" unicode="\" horiz-adv-x="869" 
d="M759 -110h-35q-53 0 -98 95q-28 61 -67 166t-122 302t-127.5 305t-59.5 143l-28 68q-7 17 -37 87l-36 85q-31 72 -62.5 142t-31.5 106.5t84 36.5h18q54 0 84 -63q11 -23 49 -130t159.5 -391.5t179.5 -425.5l28 -68q9 -20 24 -56t79 -182t65 -181v-14q0 -25 -66 -25z" />
    <glyph glyph-name="bracketright" unicode="]" horiz-adv-x="774" 
d="M342 559.5q0 578.5 -25 669.5q-19 69 -121 99.5t-102 76.5q0 35 57 35h69l24 -1q48 -2 49 -2h100q137 0 156.5 -24t19.5 -143l2 -48v-775q0 -671 -15 -710t-73 -47q-23 -3 -222 -3l-94 -3h-24q-49 0 -49 39q0 45 102 71.5t118 84.5q28 102 28 680.5z" />
    <glyph glyph-name="asciicircum" unicode="^" horiz-adv-x="1136" 
d="M1010 667q0 -21 -81 -21h-15q-51 0 -105.5 81.5t-142 256t-101.5 174.5q-4 0 -51 -90.5t-119 -216.5t-75 -130q-53 -73 -124 -73t-71 24q0 12 47 97l48 87q13 27 23 45l16 29q8 15 20 36.5t25.5 48t17.5 33.5l32 58q85 165 118.5 216t84.5 51h16q63 0 106 -71
q71 -116 201 -368t130 -257v-10z" />
    <glyph glyph-name="underscore" unicode="_" horiz-adv-x="1042" 
d="M-2 -224v44q0 35 200 35h209l12 -1h104q466 0 487 -2q34 -3 34 -47v-32q0 -35 -72 -35h-556q-351 0 -373 2q-45 4 -45 36z" />
    <glyph glyph-name="grave" unicode="`" horiz-adv-x="785" 
d="M222 1432h23q67 0 151 -94q157 -177 157 -234v-5q0 -27 -43 -27h-22q-40 0 -234 155q-121 97 -121 135v15q0 10 29.5 32.5t59.5 22.5z" />
    <glyph glyph-name="a" unicode="a" 
d="M601 405q0 36 -24 36h-12q-88 0 -158.5 -60.5t-70.5 -121.5v-31q0 -37 25 -66t53 -29l9 -2h23q75 0 127 73q27 38 27 138l1 10v53zM210 628q-92 0 -92 79.5t126 151t285 71.5t243.5 -81.5t84.5 -246.5l-1 -23q-1 -23 -1 -47l-1 -23q-1 -30 -2.5 -62t-1.5 -55
q0 -155 19.5 -189.5t69 -52.5t49.5 -42q0 -45 -74 -81t-132.5 -36t-110.5 37.5t-70.5 37.5t-64 -24.5t-84.5 -41t-128.5 -16.5t-164 67.5t-74.5 172.5t87 179t281 127q67 19 108 43t41 86.5t-35 98.5t-96 36t-132 -83t-129 -83z" />
    <glyph glyph-name="b" unicode="b" horiz-adv-x="1170" 
d="M442 319q0 -91 42.5 -152.5t111.5 -61.5h25q74 0 128.5 89t54.5 223v54q0 135 -56 226t-128 91h-23q-69 0 -111 -54.5t-42 -147.5q-3 -27 -3 -28l-3 -66v-19l-1 -30v-10l1 -10v-20l3 -66q1 -10 1 -18zM163 860v147q0 123 -17 179.5t-59.5 90t-42.5 56.5q0 46 59 67
q100 36 226 36h19q58 0 69 -66q1 -6 1 -250.5t44 -244.5q17 0 89 23.5t147 23.5t147.5 -38t122.5 -102q103 -131 103 -316v-26q0 -188 -117.5 -318.5t-272.5 -130.5h-23q-47 0 -156.5 24t-111.5 24l-111 -16q-74 0 -93 44t-19 206l7 229l-2 49q-2 49 -2 72l-2 47
q-1 24 -1 48l-2 48z" />
    <glyph glyph-name="c" unicode="c" horiz-adv-x="1004" 
d="M557 -18h-48q-85 0 -167 36q-167 73 -234 241q-34 84 -34 160v50q0 85 37 177q71 174 239 255q91 43 171 43h45q211 0 283.5 -44t72.5 -143q0 -36 -24 -63.5t-55 -27.5t-123 74t-179 74t-151 -104q-48 -79 -48 -228.5t93 -252.5q68 -75 180 -75q59 0 148 29t126 29
t37 -26q0 -67 -117.5 -135.5t-251.5 -68.5z" />
    <glyph glyph-name="d" unicode="d" horiz-adv-x="1216" 
d="M767 526l-2 48q0 125 -51.5 190.5t-133.5 65.5h-16q-77 0 -124 -68q-64 -92 -64 -253v-56q0 -150 62 -246q48 -75 138 -75h8q96 0 140 73.5t44 241.5v70zM1023.5 542q-1.5 -38 -1.5 -188t41.5 -207.5t41.5 -68.5q0 -38 -63 -53q-115 -28 -211 -28q-49 0 -76.5 36.5
t-33.5 36.5t-48.5 -23t-90.5 -41.5t-140 -18.5q-220 0 -302 248q-30 90 -30 165v28q0 224 136 377q70 79 144 110t164 31l97 -6q72 0 72 201q0 72 -52 136t-52 75.5t17 23.5q62 43 263 43h23q79 0 93 -75q18 -95 18 -263v-193l-3 -152l-1 -26q-1 -26 -1 -51l-2 -51
q-1 -28 -2.5 -66z" />
    <glyph glyph-name="e" unicode="e" horiz-adv-x="1016" 
d="M673 641v28q-2 10 -2 14q0 42 -40 88.5t-94 46.5h-31q-10 -2 -15 -2q-53 0 -98.5 -64t-45.5 -109l-2 -10v-5l1 -4q0 -41 60 -41h44l5 1l156 8l19 2q43 0 43 47zM558 935h42q136 0 231 -99t95 -231q0 -78 -56 -102q-22 -9 -239 -30.5t-223 -22.5q-68 -17 -68 -82
q0 -91 69 -157.5t171 -66.5q48 0 175 43.5t130 43.5q37 0 37 -33q0 -76 -127.5 -145.5t-262.5 -69.5h-23q-83 0 -166 32q-163 63 -233 219q-42 94 -42 188v46q0 92 40 180q82 180 265 252q89 35 185 35z" />
    <glyph glyph-name="f" unicode="f" horiz-adv-x="783" 
d="M565 1261q-91 0 -91 -191q0 -65 38 -112q16 -19 82 -65.5t66 -77.5q0 -14 -60.5 -40t-78.5 -59q-28 -52 -28 -245.5t14.5 -251t52 -105t37.5 -69t-23.5 -32t-120.5 -10.5l-23 -1q-23 -1 -48 -1l-130 -2h-52q-106 0 -106 49q0 17 43.5 62.5t59 113.5t15.5 270t-15 240.5
t-54 64.5t-39 58t38.5 73.5t53.5 97.5q45 172 115 246q136 144 320 144q102 0 165 -40t63 -89t-22.5 -72.5t-56 -23.5t-101.5 34t-114 34z" />
    <glyph glyph-name="g" unicode="g" horiz-adv-x="1069" 
d="M244 -203v-19q0 -51 67 -93.5t168 -42.5h57q103 0 179.5 44.5t76.5 105.5v6q0 45 -46 77t-133 32l-16 2l-70 3h-107q-81 0 -128.5 -33.5t-47.5 -81.5zM357 538q0 -62 37.5 -118t90.5 -56h11q47 0 81.5 52t34.5 117l2 14l1 22v54q-3 21 -3 35q0 62 -36.5 116.5t-89.5 54.5
h-5q-53 0 -90 -56t-37 -145v-53q3 -24 3 -37zM484 -487h-3q-249 0 -361 145q-40 51 -40 104q0 54 56 132t56 84.5t-45.5 60.5t-45.5 119q0 35 59.5 96t59.5 73.5t-30 47.5t-39 50q-34 55 -34 131t36.5 147.5t92.5 118t154.5 78.5t164.5 32h61q229 0 344 -45q25 -10 25 -23
q0 -47 -69 -61.5t-69 -64.5l4 -21q6 -34 6 -50q0 -79 -33 -157q-86 -203 -351 -230q-99 -10 -116 -20q-48 -26 -48 -64t77 -54q22 -4 199 -18t241 -48q130 -68 130 -215t-108 -237q-134 -111 -343 -111h-31z" />
    <glyph glyph-name="h" unicode="h" horiz-adv-x="1246" 
d="M103 1323q0 32 46 45q74 21 220 21q66 0 82 -44q7 -19 23.5 -239.5t41 -220.5t96.5 31.5t145.5 31.5t139.5 -38t108.5 -98.5t42.5 -296t17.5 -295.5t50 -98.5t32.5 -54.5q0 -38 -39 -51.5t-163.5 -13.5t-167.5 13t-43 48q0 6 12.5 36t29.5 155t17 271.5t-33.5 188.5
t-113.5 42q-41 0 -88.5 -30.5t-71.5 -82t-24 -221t12 -223t44.5 -98t32.5 -45.5q0 -56 -157 -56h-179q-113 0 -113 43q0 23 34 71q67 94 67 337l2 73l-1 73q0 140 -9.5 218.5t-9.5 128.5l5 156q0 96 -24 132l-31 34q-33 36 -33 57z" />
    <glyph glyph-name="i" unicode="i" horiz-adv-x="655" 
d="M148 2q-74 0 -74 45v11q0 22 50 57t67 89t17 260t-17.5 246t-66 74t-48.5 67t45 45q130 35 284 35q49 0 57 -45q1 -5 1 -299t22 -389q9 -39 53.5 -83.5t44.5 -62.5v-12q0 -38 -64 -38h-101l-15 1h-89l-61 -1h-105zM341 1383q59 0 98 -33.5t39 -83.5v-24q-3 -15 -3 -33.5
t-35.5 -54t-79.5 -35.5q-20 -4 -25 -4h-30q-15 3 -24 3q-40 0 -74.5 34.5t-34.5 84.5v19q0 50 36.5 86.5t81.5 36.5l35 4h16z" />
    <glyph glyph-name="j" unicode="j" horiz-adv-x="647" 
d="M102 -426h-34q-53 0 -81.5 23.5t-28.5 59.5t48.5 63t119.5 27t100 100q15 53 15 239v247l-2 78q-1 20 -1 39q0 145 -22.5 208t-63 115.5t-40.5 72.5q0 37 51 53q102 33 240 33h18q51 0 61 -25q15 -39 15 -141v-20l-1 -21v-304q0 -346 -7.5 -447.5t-51.5 -192t-135 -149
t-200 -58.5zM197 1232l2 47q0 44 45 76t98 32h31q53 0 92 -33.5t39 -91.5v-9q0 -52 -35 -93t-96 -41l-10 -2h-35q-15 3 -24 3q-38 0 -71.5 33.5t-33.5 69.5z" />
    <glyph glyph-name="k" unicode="k" horiz-adv-x="1209" 
d="M444 1050q0 -466 65 -466q60 0 108 77q76 122 76 173t53 68q34 11 185 11t151 -43q0 -9 -156.5 -124.5t-156.5 -170.5q0 -71 206 -325q45 -55 104 -91q103 -62 103 -110.5t-108 -48.5q-260 0 -309 43q-25 22 -44.5 96t-85.5 170t-115 96q-42 0 -42 -111q0 -50 29.5 -118
t29.5 -92q0 -33 -59 -43.5t-253 -10.5q-114 0 -114 46q0 17 16 41q38 56 50 161.5t12 440t-14.5 422t-33.5 113.5q-2 3 -33 29.5t-31 40.5v23l14 19q53 47 276 47q44 0 63.5 -10t19.5 -48t-2 -85l-3 -72l-1 -73v-75z" />
    <glyph glyph-name="l" unicode="l" horiz-adv-x="688" 
d="M375 1419h33q47 0 52 -53q1 -11 1 -416.5t26 -567t40 -192.5t49.5 -72t35.5 -71.5t-27 -40.5t-124 -10h-41l-20 1l-100 2q-156 0 -175.5 9t-19.5 46q0 10 30 49.5t37 82.5q32 205 32 549.5t-13.5 413t-61 121t-47.5 61.5v13q0 33 53 46q116 29 240 29z" />
    <glyph glyph-name="m" unicode="m" horiz-adv-x="1775" 
d="M191 426q0 287 -38 365q-23 47 -23 60q0 20 47 41t135.5 21t105 -11t34.5 -53t36 -42q2 0 87.5 36.5t164 36.5t121.5 -14t88 -41.5t58.5 -27.5t117.5 63.5t164 63.5h40q53 0 115 -33t106 -109t44 -290.5t13 -250t51.5 -71.5t38.5 -75t-75.5 -62.5t-184.5 -23.5t-109 52
q0 6 5.5 36t5.5 95t-1 91l-4 84l2 44l6 88q0 113 -35.5 174.5t-121 61.5t-110.5 -70t-25 -368q0 -71 32.5 -124t32.5 -80.5t-43 -45t-200 -17.5t-179 11t-22 49l27 56q15 31 24 74.5t9 213.5t-33 258q-23 62 -97 62t-128 -86q-32 -52 -32 -174q0 -244 16 -339t16 -99
q0 -52 -118 -52h-38q-169 0 -214 45l-16 27q0 45 43.5 86.5t52 86t8.5 177.5z" />
    <glyph glyph-name="n" unicode="n" horiz-adv-x="1250" 
d="M448 454q0 -201 15 -252.5t37 -92.5t22 -49q0 -50 -278 -50h-57l-26 1q-89 0 -89 47t49 84.5t61 75.5t12 235l2 61q0 195 -47 251t-47 66q0 45 52 61q92 29 187 29t108.5 -12t27.5 -55.5t29 -43.5t61.5 25t103.5 47t142 22q132 0 196 -93q45 -65 45 -266t37 -301
q10 -28 53.5 -61.5t43.5 -59.5q0 -47 -51 -62q-101 -30 -299 -30q-73 0 -73 36q0 2 20 42t20 257.5t-34.5 292t-80.5 96.5q-29 14 -86 14q-98 0 -136 -75q-20 -39 -20 -240z" />
    <glyph glyph-name="o" unicode="o" horiz-adv-x="1152" 
d="M572 103h27q81 0 125 82q59 111 59 263v11l-1 12q0 164 -57 270.5t-148 106.5h-9q-91 0 -143 -98t-52 -249v-23q0 -158 58 -266.5t141 -108.5zM1069 522v-33q0 -216 -158 -366q-138 -131 -350 -131t-333 115q-142 136 -142 321v33q0 99 40 194q77 186 272 266
q89 37 186 37h32q197 0 329 -132q58 -58 91 -141.5t33 -162.5z" />
    <glyph glyph-name="p" unicode="p" horiz-adv-x="1193" 
d="M825 525q0 95 -53 181t-125 86h-23q-71 0 -124 -63q-33 -39 -33 -128l-3 -27l-4 -92v-75l1 -9l1 -28v-19q2 -18 2 -27q0 -78 29 -120q48 -70 123 -70h32q72 0 124.5 85t52.5 191l2 20v64q-2 22 -2 31zM67 -382q0 28 40 66.5t52 77.5q32 101 32 263l3 77q2 53 2 79l2 52
q1 26 1 53l1 26q1 27 1 67v92q0 183 -16.5 233t-54.5 84t-38 62.5t42 45.5q110 44 261 44q28 0 39 -31q21 -57 25 -57q17 0 60 24q122 70 224 70q141 0 234 -105q57 -64 87.5 -147.5t30.5 -161.5v-29q0 -213 -136 -362q-61 -66 -144 -103t-159 -37t-117 13t-56 13
q-43 0 -43 -188q0 -63 24 -103t77 -74t53 -67t-86 -33h-25l-25 1l-80 1q-194 0 -252.5 7.5t-58.5 46.5z" />
    <glyph glyph-name="q" unicode="q" horiz-adv-x="1199" 
d="M591 836h-17q-78 0 -137 -91.5t-59 -225.5v-44q0 -133 60.5 -234t139.5 -101h22q76 0 121.5 65.5t45.5 201.5q3 27 3 36l2 60l-1 10q0 166 -42 244.5t-138 78.5zM1171 -369q0 -40 -41 -52t-101 -12t-109 -2l-73 -3h-70q-111 0 -111 47q0 19 38.5 56t54 72.5t15.5 112.5
q0 195 -54 195q-10 0 -42 -11l-47 -16q-61 -17 -131 -17t-144 37q-150 75 -213 236q-32 84 -32 152v54q0 203 117 340q48 56 132 97t163 41h24q47 0 141 -23t107 -23t64.5 12.5t100.5 12.5q84 0 84 -192q0 -25 -6 -119t-6 -218l8 -274l9 -239q0 -92 15.5 -129t61 -78
t45.5 -57z" />
    <glyph glyph-name="r" unicode="r" horiz-adv-x="901" 
d="M77 46q0 30 44.5 61.5t60.5 79t16 250t-15.5 244.5t-57 83.5t-41.5 65.5q0 30 53 51q105 41 221 41h18q50 0 73 -63t43 -63q9 0 45 34q99 92 168 92h16q49 0 89 -37t40 -89t-34 -87.5t-84 -35.5q-15 0 -60.5 22t-71.5 22q-71 0 -115 -86q-31 -60 -31 -205t29 -214
q10 -24 62.5 -78.5t52.5 -85.5q0 -47 -296 -47l-122 -2h-19q-84 0 -84 47z" />
    <glyph glyph-name="s" unicode="s" horiz-adv-x="917" 
d="M188 9q-65 0 -85.5 43.5t-20.5 159.5v24q0 54 40 54q33 0 106 -73t116.5 -98t107.5 -25t110 27.5t46 85t-49.5 90.5t-184.5 85.5t-191 106.5q-82 80 -82 196.5t98 194.5t225 78h28q43 0 102.5 -11t129 -11t90.5 -32.5t21 -178.5q0 -43 -32 -43t-129 81t-162 81
t-109.5 -24.5t-44.5 -79.5t71 -95q6 -3 156 -64t208 -115q82 -77 82 -182v-27q0 -112 -102 -193.5t-247 -81.5h-28q-31 0 -116.5 14.5t-90.5 14.5l-22 -1q-21 -1 -41 -1z" />
    <glyph glyph-name="t" unicode="t" horiz-adv-x="816" 
d="M697 182q53 0 53 -35v-17q0 -52 -140 -109q-84 -34 -164 -34q-154 0 -205 125q-32 79 -32 322t-19 292t-75.5 74.5t-56.5 61.5q0 20 54.5 47t64.5 39.5t39 82.5t74 115t91 45h16q38 0 62 -73q38 -116 45 -125q26 -30 84 -45l113 -30q26 -16 26 -63q0 -53 -103 -65.5
t-131.5 -61t-28.5 -241.5t38 -261q27 -49 133 -49q38 5 62 5z" />
    <glyph glyph-name="u" unicode="u" horiz-adv-x="1224" 
d="M1144 117q0 -48 -45 -67q-116 -49 -237 -49q-56 0 -80 42t-48 42l-47 -30q-102 -61 -181 -61h-27q-168 0 -251 135q-54 89 -54 311.5t-23 308.5q-10 38 -50 67t-40 59.5t37 43.5t217 13q73 0 92 -30t19 -148l5 -205q0 -244 33 -325t117 -81q58 0 107.5 26.5t72.5 77.5
t23 225.5t-18.5 224.5t-42.5 98t-24 55q0 47 70 63q111 26 227 26q36 0 46 -34t10 -147l-13 -331q0 -127 16 -173t52.5 -82.5t36.5 -54.5z" />
    <glyph glyph-name="v" unicode="v" horiz-adv-x="1098" 
d="M19 888q0 51 119 51h171q97 0 134.5 -14t37.5 -50q0 -11 -20.5 -50.5t-20.5 -73.5q0 -85 133 -410q21 -51 27 -51q35 0 101.5 203.5t66.5 291.5q0 28 -17.5 63t-17.5 54q0 37 141 37h74q133 0 133 -43q0 -36 -60 -84.5t-87 -99.5q-6 -10 -25.5 -58.5t-34.5 -83
t-109 -255.5t-116 -257q-39 -64 -105.5 -64t-104.5 55q-4 6 -79.5 185.5t-123.5 305.5t-76 178.5t-84.5 95t-56.5 74.5z" />
    <glyph glyph-name="w" unicode="w" horiz-adv-x="1595" 
d="M43 889q0 53 153 53h115q149 0 149 -105l-4 -28l-5 -28q-4 -29 -4 -58q0 -113 64 -285q28 -76 59.5 -76t72.5 172q11 47 23 172t18 137q35 69 139 69q73 0 109 -18q73 -36 93 -156q2 -14 8 -57t14 -78q53 -229 89.5 -229t80.5 124t44 226q0 31 -8 61l-15 52q0 57 40 80
t182 23q88 0 88 -40v-22q0 -35 -28 -75q-94 -134 -162 -326q-108 -306 -140 -369q-47 -93 -113.5 -93t-123.5 96q-5 9 -89 228t-93 219q-23 0 -90 -188.5t-99 -244.5q-66 -115 -111 -115q-82 0 -124 84q-31 62 -104 284.5t-106 299t-77.5 127t-44.5 84.5z" />
    <glyph glyph-name="x" unicode="x" horiz-adv-x="1132" 
d="M1053 902q0 -28 -84.5 -87.5t-168.5 -156t-84 -142t179 -259.5q57 -68 117.5 -117t60.5 -85t-33.5 -45t-119.5 -9h-65l-33 1h-33q-141 0 -167.5 11.5t-26.5 44.5q0 6 16 32.5t16 40.5q0 47 -53 121t-69 74t-70.5 -70t-54.5 -108t16.5 -69t16.5 -54t-155.5 -23t-182.5 7.5
t-27 43t82.5 79t146.5 115.5q139 155 139 192.5t-172 253.5q-56 71 -114.5 119t-58.5 80.5t37 40t189 7.5l65 1l30 1h60q90 0 90 -44q0 -3 -13.5 -28t-13.5 -47q0 -55 65 -146q24 -34 35 -34q27 0 56 35q63 76 63 136l-16 39q-10 24 -10 47t25.5 31.5t172.5 8.5t147 -38z
" />
    <glyph glyph-name="y" unicode="y" horiz-adv-x="1105" 
d="M335.5 941q166.5 0 166.5 -61q0 -6 -19.5 -45t-19.5 -66q0 -96 116 -370q24 -56 34 -56q18 0 35 39q111 256 111 396q0 35 -14 68l-26 62q0 33 74 33h60l31 -1q170 0 170 -46q0 -30 -79 -116q-38 -42 -96.5 -168t-201.5 -486.5t-179 -423.5t-81.5 -92t-111.5 -29t-126 36
t-60 83q0 53 100 71t137 56q76 78 76 190t-171 502q-62 141 -89 186l-60 88q-48 70 -48 81q0 44 63 59q42 10 208.5 10z" />
    <glyph glyph-name="z" unicode="z" horiz-adv-x="1019" 
d="M423 154q0 -29 101.5 -29t159.5 21.5t128 87.5t103.5 66t33.5 -35v-25q0 -57 -34 -175q-12 -40 -32.5 -51.5t-370.5 -11.5h-56l-112 -1h-141q-81 0 -101 13t-20 63.5t248.5 370t248.5 340.5q0 31 -104 31t-150.5 -25t-104.5 -83t-91.5 -58t-33.5 74.5t26 162.5
q15 52 56 52h24l25 -1q25 -1 51 -1l252 -1q310 0 333 -6q39 -10 39 -68t-57 -142t-239 -316.5t-182 -252.5z" />
    <glyph glyph-name="braceleft" unicode="{" horiz-adv-x="791" 
d="M288 794l-18 313q0 247 174 312q86 32 165 32h24q39 0 39 -24t-61 -74t-88.5 -103.5t-27.5 -201.5q0 -1 3 -49l2 -48q2 -48 2 -95q0 -116 -35.5 -176t-105.5 -94q-25 -12 -25 -18t27 -19t58 -36t56 -78t25 -185l-2 -48q-6 -144 -6 -208t29 -119t88.5 -103.5t59.5 -70.5
q0 -28 -32 -28h-24q-170 0 -261 85q-83 78 -83 242q0 74 8.5 156t8.5 167t-25.5 123t-82.5 70t-57 47q0 26 60 59t82.5 68.5t22.5 103.5z" />
    <glyph glyph-name="bar" unicode="|" horiz-adv-x="795" 
d="M356 1509h58q59 0 64 -30.5t5 -575.5v-1061l1 -83v-41q0 -78 -12 -90t-52 -12h-20q-70 0 -79 19.5t-9 119.5v1693q0 61 44 61z" />
    <glyph glyph-name="braceright" unicode="}" horiz-adv-x="791" 
d="M455 562q0 2 -55 39t-82.5 92t-27.5 202l2 47q2 41 2 48l4 96q0 107 -28 163.5t-88 103.5t-60 80q0 18 69.5 18t143.5 -25.5t116 -69.5q71 -76 71 -261q0 -51 -9 -137.5t-9 -161t27 -111.5t83 -66.5t56 -49.5q0 -25 -59.5 -55.5t-83 -70.5t-23.5 -154q0 -10 8.5 -114.5
t8.5 -176.5q0 -236 -191 -299q-78 -26 -142 -26h-23q-45 0 -45 20q0 31 60 78t90 105.5t30 168.5l-8 217q0 127 25.5 176.5t50 69.5t56 36t31.5 18z" />
    <glyph glyph-name="asciitilde" unicode="~" horiz-adv-x="1174" 
d="M367 749h23q62 0 221 -70t204 -70t112.5 67.5t72.5 67.5q67 0 67 -71t-81.5 -152.5t-165.5 -81.5h-36q-68 0 -213 69.5t-201 69.5t-106 -53q-79 -84 -88 -84q-66 0 -66 72.5t81.5 154t175.5 81.5z" />
    <glyph glyph-name="uni00A0" unicode="&#xa0;" horiz-adv-x="554" 
 />
    <glyph glyph-name="exclamdown" unicode="&#xa1;" horiz-adv-x="714" 
d="M224 -248v21l1 10q0 291 85 737q14 74 66 74t65 -98q78 -598 78 -749l1 -9q0 -59 -45.5 -88.5t-118.5 -29.5l-12 1h-12q-108 0 -108 131zM364 726q-56 0 -100 44t-44 100v26q0 54 43.5 91.5t86.5 37.5h31q49 0 95.5 -40t46.5 -89l2 -10v-30q0 -45 -35.5 -86.5
t-85.5 -41.5l-9 -2h-31z" />
    <glyph glyph-name="cent" unicode="&#xa2;" 
d="M541 910h-5q-57 0 -107 -85.5t-50 -174.5l-2 -16l-1 -33v-16l1 -9q0 -109 37.5 -191.5t67.5 -82.5l4 1h4q19 0 19 42l6 70l2 28l1 6l1 7l3 42q4 28 6 52q2 26 4 40t6 56q8 79 8 91l15 102l1 27q0 44 -21 44zM593 387q0 -125 107 -125q47 0 95 23t60 23q27 0 27 -32
q0 -49 -116 -117.5t-143 -107.5q-81 -119 -100 -119h-8q-17 0 -28 24q-40 88 -113 153q-171 152 -184 171q-70 102 -70 227v25q0 180 105 315q57 74 140 112q6 3 79.5 31t99 44t61 75.5t58.5 59.5h13q6 0 111.5 -132t105.5 -175q0 -79 -72 -79q-24 0 -68 20t-60 20
q-44 0 -58 -64q-42 -196 -42 -372z" />
    <glyph glyph-name="sterling" unicode="&#xa3;" horiz-adv-x="1183" 
d="M488 246q0 -82 228 -83q120 0 188 48q99 70 140 70q51 0 51 -93t-65 -156.5t-214 -63.5h-67q-47 0 -210 22t-218 22l-217 -15q-27 0 -27 46t72 104.5t108.5 128t36.5 156t-16.5 101.5t-79 29.5t-73 23.5t-10.5 42t37 49q76 32 87.5 52.5t37.5 152t48 190.5t84 130
t154.5 110t209 39t186.5 -36t70 -135t-63 -99q-42 0 -114 48t-111 48q-64 0 -117 -88.5t-53 -229.5q0 -77 25.5 -112t120 -58t94.5 -61.5t-76 -62.5q-147 -47 -165.5 -67.5t-50 -115t-31.5 -136.5z" />
    <glyph glyph-name="currency" unicode="&#xa4;" horiz-adv-x="1154" 
d="M329 686v-20q0 -120 69.5 -202t167.5 -82h26q95 0 161 86t66 196v20q0 127 -84 219q-61 66 -161 66l-9 -1q-91 0 -163.5 -79.5t-72.5 -202.5zM135 677.5q0 81.5 32.5 151.5t32.5 87.5t-52.5 68.5t-52.5 62q0 27 36 59t51.5 32t67.5 -45.5t84 -45.5t94 21t135 21
t157 -21.5t100 -21.5t71.5 46.5t62.5 46.5h17q12 0 48 -36t36 -44q0 -25 -51 -73t-51 -77l39 -109q20 -56 20 -126.5t-33.5 -155.5t-33.5 -86q0 -17 53.5 -69t53.5 -71.5t-35 -51t-51 -31.5t-70 47t-105 47q-14 0 -47 -11q-90 -30 -175 -30t-145 21t-87 21t-86 -48t-75 -48
t-51 36t-35 44v15q0 8 54 62t54 67.5t-31.5 88.5t-31.5 156.5z" />
    <glyph glyph-name="yen" unicode="&#xa5;" horiz-adv-x="1192" 
d="M527 1276q0 -9 -13.5 -36t-13.5 -74q0 -113 134 -385q24 -49 35 -49q18 0 54 75q111 231 111 339q0 32 -14 67.5t-14 65.5q0 49 191 49q125 0 125 -50q0 -20 -62.5 -94t-119 -183.5t-56.5 -191.5q0 -24 32 -63l15 -15q24 -23 24 -30q0 -37 -73.5 -74.5t-73.5 -79
t61 -63.5q94 -33 94 -43q0 -36 -65 -57q-114 -36 -118 -39q-31 -24 -31 -80t24 -92t60 -70.5t36 -57.5q0 -34 -73 -42q-29 -3 -254 -3l-118 -1q-97 0 -97 39q0 6 62.5 79t62.5 159q0 62 -104.5 86t-104.5 68q0 14 71.5 45t71.5 55q0 52 -50 74q-73 32 -73 74q0 18 19.5 43.5
t19.5 49.5q0 94 -30.5 166.5t-108 186.5t-77.5 116q0 59 52 74.5t195 15.5h84q110 0 110 -54z" />
    <glyph glyph-name="brokenbar" unicode="&#xa6;" horiz-adv-x="800" 
d="M418 -287h-58q-43 0 -54 9t-11 61v584q0 50 39 50h75q55 0 55 -26l1 -17v-436l1 -27v-147q0 -51 -48 -51zM412 737h-74q-44 0 -44 55v601q0 47 52 47h58q49 0 55 -16t6 -197v-418q0 -72 -53 -72z" />
    <glyph glyph-name="section" unicode="&#xa7;" horiz-adv-x="1115" 
d="M379 824q-11 0 -34.5 -31.5t-23.5 -82.5v-15l1 -8q0 -70 78 -155q46 -50 194 -161t159 -111t32.5 29.5t21.5 67.5l2 15v8l-1 8q0 78 -78 163q-7 7 -83.5 72t-127 100t-90 68t-50.5 33zM825 1128q-56 0 -103 70t-120 70t-117.5 -38.5t-44.5 -98.5t63 -121q3 -3 156 -115.5
t208 -180.5q89 -109 89 -229q0 -84 -30 -148l-14 -26q-55 -94 -55 -106.5t21 -77.5t21 -124q0 -125 -95 -216q-44 -43 -115.5 -73t-153.5 -30h-34q-123 0 -214 50.5t-91 135.5q0 40 28.5 64t68.5 24t70 -40l25 -42q17 -26 47.5 -49.5t96.5 -23.5t110.5 41.5t44.5 103
t-45 111t-190 154t-211.5 190.5t-66.5 188v32q0 69 53 157t53 98.5t-22 71t-22 116.5q0 206 202 291q72 30 152 30h34q133 0 207 -51t74 -120q0 -41 -28 -64.5t-52 -23.5z" />
    <glyph glyph-name="dieresis" unicode="&#xa8;" horiz-adv-x="839" 
d="M98 1229q0 34 39.5 67t75.5 33h29q40 0 71.5 -31.5t31.5 -60.5l3 -21v-25q-2 -8 -2 -13q0 -30 -35 -65t-68 -35l-21 -3h-16q-39 0 -75 30t-36 78v26q3 12 3 20zM611 1076q-51 0 -81 36.5t-30 75.5v17q0 49 37.5 86.5t85.5 37.5h21q38 0 74.5 -30.5t36.5 -77.5v-26
q0 -44 -36 -80t-71 -36l-20 -3h-17z" />
    <glyph glyph-name="copyright" unicode="&#xa9;" horiz-adv-x="1567" 
d="M232 688v-40q0 -112 40.5 -218t108 -185t166.5 -127t197 -48h36q91 0 186.5 43t167.5 125q156 178 157 429l-1 20q0 113 -40 219q-79 207 -259 303q-105 56 -230 56l-18 -1q-99 0 -191 -44q-184 -89 -271 -295q-49 -116 -49 -237zM776 1071h20q16 0 85.5 -11t111.5 -11
t56 -30.5t14 -126.5q0 -36 -24 -36q-5 0 -87 63t-171 63t-143 -91t-54 -234.5t68.5 -221t163.5 -77.5t183 66q38 27 56 27t18 -16v-13q0 -69 -87.5 -111.5t-216.5 -42.5h-21q-179 0 -290 127q-89 100 -89 270.5t113.5 288t293.5 117.5zM1443 652q-1 -108 -55 -228
q-114 -249 -378 -348q-136 -51 -274 -51q-273 0 -460 163q-207 179 -207 451v22q0 248 198 446q88 88 222.5 145t268.5 57h46q132 0 253.5 -51t204 -128t132.5 -193t50 -242l-1 -22v-21z" />
    <glyph glyph-name="ordfeminine" unicode="&#xaa;" horiz-adv-x="747" 
d="M305 818h10q58 0 79.5 36t21.5 104v7l1 14v27q0 30 -13 30h-8l-3 -1h-7l-31 -6q-36 0 -71.5 -35.5t-35.5 -63.5q-2 -8 -2 -10l-2 -13v-25q0 -64 61 -64zM359 1337h35q108 0 170 -76q37 -46 37 -164l-2 -47l-1 -15v-31l1 -28q0 -82 10.5 -107t41 -36t30.5 -32t-22 -35
q-63 -40 -111.5 -40t-88.5 26.5t-46 26.5t-38.5 -17t-59 -29t-87 -12t-112.5 45t-52 102v14q0 124 232 192q108 32 109 78q0 37 -24 64t-63.5 27t-84 -47.5t-97.5 -47.5t-53 41q0 54 94.5 101t181.5 47z" />
    <glyph glyph-name="guillemotleft" unicode="&#xab;" horiz-adv-x="1031" 
d="M495 104q-38 0 -208 181.5t-170 210t177 205.5t208 177h7q41 0 41 -44q0 -28 -108.5 -178.5t-108.5 -163.5t107.5 -161.5t107.5 -187.5t-44 -39h-9zM879 112q-38 0 -203 177t-165 206.5t173 202.5t201 173h8q41 0 41 -35v-8q0 -29 -104.5 -177t-104.5 -161l111 -167
q96 -144 96 -173q0 -38 -45 -38h-8z" />
    <glyph glyph-name="logicalnot" unicode="&#xac;" horiz-adv-x="1163" 
d="M531 746h419q71 0 86 -10t15 -71v-445q0 -22 -49 -22h-57q-41 0 -52 35.5t-11 178.5t-32 159q-16 8 -354 8t-365.5 10t-27.5 90l1 15q0 42 12 47q13 5 415 5z" />
    <glyph glyph-name="uni00AD" unicode="&#xad;" horiz-adv-x="793" 
d="M106 431v42l1 8q0 52 11 74t58 22l30 2l339 13h95q48 0 48 -35v-42l-1 -7q0 -61 -15 -80t-66 -19l-77 -5h-15l-32 -2h-16l-16 -1h-15l-16 -1h-30l-16 -1h-15l-8 -1h-15l-23 -1h-23l-30 -1h-97q-56 0 -56 35z" />
    <glyph glyph-name="registered" unicode="&#xae;" horiz-adv-x="1314" 
d="M1132 776v48q0 87 -39 174q-75 168 -229 232q-87 37 -170 37h-16l-15 -1q-78 0 -161.5 -34t-150 -100.5t-103.5 -157.5t-37 -186v-17v-5q0 -90 33 -170q70 -171 222 -241q93 -43 191 -43q198 0 328 130q67 67 107 157t40 177zM778 924q0 56 -27.5 90t-60.5 34l-21 3h-49
q-29 0 -29 -109v-57l-1 -11v-4l1 -4l4 -29q1 -4 1 -7q0 -28 17 -28h10l4 1l23 2l40 6q37 0 61 30t24 46l3 24v13zM107 743v55q0 103 47.5 211t129.5 183q159 146 389 146l19 -1h19q91 -1 196 -45q198 -84 286 -302q42 -103 42 -191v-55q0 -101 -45.5 -195t-130.5 -163
q-169 -137 -413 -137h-19q-209 0 -364.5 149.5t-155.5 344.5zM678 1117q239 0 239 -170q0 -50 -36 -92q-2 -3 -33 -29t-31 -34t17.5 -30t56.5 -90t71 -102t32 -38v-11q0 -27 -115 -27q-66 0 -122 101q-75 135 -117 135q-35 0 -35 -111q0 -59 36 -95q10 -10 10 -22t-39 -12
h-29l-15 1h-16q-165 0 -165 41q0 10 24.5 24.5t31 49.5t6.5 164v206q0 61 -23.5 86.5t-23.5 28.5q0 25 185 25l30 1h61z" />
    <glyph glyph-name="macron" unicode="&#xaf;" horiz-adv-x="824" 
d="M613 1291q128 0 128 -44v-38q0 -42 -18 -51.5t-131 -9.5h-70l-9 1h-111l-32 -1h-120q-118 0 -143 5.5t-25 38.5v45q0 48 35 48l8 1l7 1l315 4h166z" />
    <glyph glyph-name="degree" unicode="&#xb0;" horiz-adv-x="825" 
d="M249 1115v-24q0 -72 43 -121.5t99 -49.5h16q53 0 95 48t42 120v30q-2 12 -2 17q0 60 -43 103t-81 43l-10 2h-21q-52 0 -95 -49t-43 -119zM103 1085v18q0 108 84 192t209 84h9q121 0 202.5 -75t81.5 -177v-28q0 -114 -87 -194.5t-214.5 -80.5t-206 78.5t-78.5 182.5z" />
    <glyph glyph-name="plusminus" unicode="&#xb1;" horiz-adv-x="1181" 
d="M1080 129v-53q0 -55 -21.5 -61t-468.5 -6l-34 -1h-247q-158 0 -174.5 7t-16.5 41v53q0 58 28.5 62t461.5 4l80 1h79l12 -1l266 -3q35 0 35 -43zM604 308h-53q-38 0 -38 145.5t-28 157.5q-14 6 -175 6t-176.5 9t-15.5 75t24 73t181.5 7t173.5 11t16 143t9 144.5t75 12.5
h53q38 0 38 -147.5t24 -157.5q9 -4 169.5 -4t180 -8t19.5 -51v-33q0 -53 -22 -63.5t-182 -10.5t-175 -17t-15 -141t-8 -137.5t-75 -13.5z" />
    <glyph glyph-name="uni00B2" unicode="&#xb2;" horiz-adv-x="795" 
d="M94 712q0 56 129.5 185.5t171.5 187t42 114.5q0 111 -118 111q-30 0 -85 -58t-94.5 -58t-39.5 46q0 84 78.5 136t198 52t190 -60t70.5 -146.5t-63 -159.5q-36 -42 -150.5 -132t-114.5 -106q0 -21 84.5 -21t114.5 5.5t67 21.5t63 16t26 -67.5t-46 -95.5q-20 -12 -139 -12
h-59l-173 7l-91 -3q-62 0 -62 37z" />
    <glyph glyph-name="uni00B3" unicode="&#xb3;" horiz-adv-x="794" 
d="M115 1266q0 160 258 160q118 0 182.5 -40t64.5 -108.5t-48 -120.5q-17 -18 -47.5 -43t-30.5 -30.5t47 -26.5q119 -53 119 -161v-19q0 -97 -94 -167.5t-230 -70.5h-22q-107 0 -169.5 34t-62.5 90v15q0 50 62 50q40 0 93 -44t105 -44t85.5 38.5t33.5 98.5t-36 85.5
t-107.5 39t-71.5 52.5q0 18 54.5 41.5t74.5 41.5q40 37 40 97q0 72 -75 72q-40 0 -106 -36.5t-92.5 -36.5t-26.5 33z" />
    <glyph glyph-name="acute" unicode="&#xb4;" horiz-adv-x="788" 
d="M655 1354v-15q0 -28 -148 -159.5t-209 -131.5h-11l-5 1q-45 0 -45 20v9q0 56 171 248q73 82 136 82h23q31 0 59.5 -19t28.5 -35z" />
    <glyph glyph-name="mu" unicode="&#xb5;" horiz-adv-x="1180" 
d="M1092 115v-18q0 -22 -40 -50t-115.5 -28t-134 37t-86.5 37t-100.5 -26t-130 -26t-80 -29t-22.5 -123l2 -65q1 -33 1 -108t-41.5 -105t-108.5 -30t-86 44q-11 26 -11 86.5t8.5 170t8.5 424t-33 430.5q-13 45 -13 70q0 53 43 69t175 16q71 0 85 -70q6 -29 6 -285t11.5 -299
t42.5 -72t73 -29q102 0 153 70q30 41 30 173l-2 65q-1 33 -1 118.5t-8 152t-8 103.5q0 36 46 64q48 28 116 28q132 0 132 -201l-2 -67v-97l-2 -155q0 -101 29 -165q0 -1 31.5 -47t31.5 -63z" />
    <glyph glyph-name="paragraph" unicode="&#xb6;" horiz-adv-x="1224" 
d="M698 59.5q0 -151.5 -27 -208.5t-75 -57q-40 0 -53 58q-9 41 -33.5 292t-47 298.5t-115 109t-147 136.5t-54.5 186v39q0 92 48 184.5t140 147.5q121 72 436 72h151q168 0 168 -29q0 -11 -59.5 -88.5t-66.5 -146.5q-13 -124 -13 -533t4.5 -492t4.5 -176q0 -65 -44 -65h-22
q-37 0 -47 86q-99 842 -99 1016q0 42 -47.5 42t-47.5 -44l12 -96q3 -31 8 -125l1 -31q3 -91 14 -257.5t11 -318z" />
    <glyph glyph-name="periodcentered" unicode="&#xb7;" horiz-adv-x="592" 
d="M157 621q0 39 40 79t95 40h15q61 0 105.5 -44.5t44.5 -102.5v-31q0 -52 -40 -92t-92 -40h-25q-57 0 -101 44t-44 102v31q2 10 2 14z" />
    <glyph glyph-name="cedilla" unicode="&#xb8;" horiz-adv-x="789" 
d="M345 -443h-58q-90 0 -90 39v7q0 48 85 48q57 0 93.5 22.5t36.5 60t-57.5 68t-57.5 57.5q0 57 69 139q19 23 70 23h9q30 0 30 -28l-16 -58q0 -17 68.5 -66t68.5 -114v-18q0 -74 -74.5 -127t-176.5 -53z" />
    <glyph glyph-name="uni00B9" unicode="&#xb9;" horiz-adv-x="781" 
d="M248 667q-92 0 -92 28t45 52t64.5 55.5t19.5 92.5l2 26l1 39v188q-2 24 -2 52.5t-15 48.5t-69.5 32.5t-54.5 45.5q0 20 32 33q164 67 259 67q32 0 38 -33q1 -5 1 -270t13.5 -307.5t58.5 -69t45 -53.5t-77 -27h-25l-13 1h-129l-51 -1h-51z" />
    <glyph glyph-name="ordmasculine" unicode="&#xba;" horiz-adv-x="780" 
d="M277 953q0 -57 29 -109t81 -52h11q103 0 103 205v37q0 104 -28.5 168t-75.5 64h-27q-39 0 -66.5 -44t-27.5 -110q-2 -14 -2 -21l-2 -36v-38l1 -8l3 -43q1 -7 1 -13zM395 743h-46q-129 0 -214 78.5t-85 194.5v10q0 119 92 204.5t237 85.5h33q126 0 218 -72.5t92 -181.5
v-40q0 -110 -91 -194.5t-236 -84.5z" />
    <glyph glyph-name="guillemotright" unicode="&#xbb;" horiz-adv-x="1030" 
d="M191 871q30 0 201 -171t171 -206.5t-173 -208.5t-206 -173q-44 0 -44 39v8q0 32 104 176t104 151t-103.5 162.5t-103.5 180.5q0 42 41 42h9zM577 879q38 0 208.5 -182t170.5 -210t-177 -205t-208 -177h-8q-41 0 -41 42q0 31 109 182t109 163t-107 160t-107 193
q0 34 42 34h9z" />
    <glyph glyph-name="onequarter" unicode="&#xbc;" horiz-adv-x="1621" 
d="M1211 543q0 9 -3 9h-2q-6 0 -55 -68t-57 -78l-38 -52l-3 -3l-5 -7l-3 -3l-7 -10l-6 -7l-7 -10l-3 -3q-20 -28 -20 -29v-3q0 -5 14 -5h95q83 0 91 8t8 84v95l1 16v66zM1052 168q-163 0 -163 64q0 91 307 452q47 55 108 55h13q57 0 67 -30q1 -3 1 -180.5t5 -192.5
q1 -2 57 -50q30 -26 30 -66q0 -5 -17 -22t-24.5 -29.5t-7.5 -61.5q0 -3 9 -17t9 -49t-58 -61q-32 -14 -137 -14h-27q-89 0 -89 68q0 24 24 44t24 45.5t-23 35t-108 9.5zM1226 1321q67 0 67 -24.5t-289 -474.5l-72 -112q-135 -202 -235 -365q-220 -354 -259 -354h-15
q-67 0 -67 25q0 51 755 1203q67 102 115 102zM200 601q-58 0 -58 29.5t54 54t66.5 60t12.5 223.5t-10 212t-70.5 30t-60.5 42q0 24 31 37q170 74 271 74q30 0 30 -294t10.5 -326t60.5 -60t50 -48v-10q0 -24 -63 -24h-324z" />
    <glyph glyph-name="onehalf" unicode="&#xbd;" horiz-adv-x="1636" 
d="M951 19q0 48 126.5 174.5t171 192t44.5 124.5t-32 87t-73.5 28t-92 -56t-83.5 -56q-40 0 -40 62.5t74.5 116.5t180.5 54h21q112 0 176.5 -59.5t64.5 -148t-68 -167.5q-30 -35 -138.5 -126t-108.5 -111t101 -20t144 19.5t66.5 19.5t23.5 -36v-15q0 -77 -46 -108
q-23 -15 -154 -15h-75l-152 5l-70 -3q-61 0 -61 38zM1179 1321h16q68 0 68 -22.5t-38 -87.5q-354 -603 -631 -1012q-144 -212 -182 -212q-68 0 -68 25q0 12 275.5 456t320.5 520q195 333 239 333zM204 592q-72 0 -72 30t52 52t66 59t14 225t-10 215t-69.5 38.5t-59.5 40.5v9
q0 13 26 26q140 70 265 70q31 0 31 -291t10 -325.5t58.5 -68t48.5 -46.5v-9q0 -25 -59 -25h-114l-13 1h-50l-49 -1h-75z" />
    <glyph glyph-name="threequarters" unicode="&#xbe;" horiz-adv-x="1624" 
d="M1209 542q0 9 -2 9h-3q-5 0 -74 -96l-15 -20q-16 -23 -17 -24l-23 -31l-3 -3l-42 -54q-30 -36 -30 -43v-2q0 -5 11 -5h115q68 0 75 7t7 86v89l1 13v74zM1296 738h25q54 0 63 -35q1 -4 1 -80l-1 -43v-29l-1 -29q0 -179 6 -194q1 -2 58 -48q31 -25 31 -63l-36 -39
q-17 -18 -17 -48q-1 -30 9 -44t10 -48q0 -72 -176 -72l-40 -1q-94 0 -94 73q0 23 22.5 39.5t22.5 36.5q0 50 -66 50l-28 2l-42 1q-155 0 -155 70q0 86 302 441q51 60 106 60zM1232 1320q66 0 66 -27q0 -7 -180.5 -298t-257.5 -406.5t-149 -231.5q-228 -368 -268 -368h-16
q-65 0 -65 27q0 15 31 69q245 429 733 1148q59 87 106 87zM161 770q44 0 95 -44.5t97.5 -44.5t80 35t33.5 96t-37.5 90t-107 38.5t-69.5 48.5q0 25 58 48.5t87.5 52t29.5 77.5q0 81 -88 81q-32 0 -90.5 -42t-82.5 -42q-35 0 -35 59.5t64 100.5t182.5 41t184 -44.5
t65.5 -130.5q0 -63 -84 -131q-39 -31 -39 -36t48.5 -27.5t80.5 -63t32 -93.5v-19q0 -101 -93 -168.5t-221 -67.5q-247 0 -247 115v1v15q0 55 56 55z" />
    <glyph glyph-name="questiondown" unicode="&#xbf;" horiz-adv-x="1014" 
d="M880 -136v-33q0 -84 -103.5 -137.5t-222.5 -53.5h-39q-74 0 -151.5 33t-123.5 78q-106 102 -106 240v18q0 87 57 170q32 47 146.5 137.5t138.5 116.5t28.5 72.5t17.5 70.5t53.5 24t64.5 -43t24 -119q0 -103 -119 -232.5t-119 -248.5q0 -52 30.5 -86.5t82.5 -34.5t123 67
t136 67q26 0 54 -28t28 -78zM729 881v-10q0 -56 -40 -96t-101 -40h-16q-58 0 -107 42t-49 109v10q0 52 36 94t99 42h27q60 0 105.5 -45.5t45.5 -105.5z" />
    <glyph glyph-name="Agrave" unicode="&#xc0;" horiz-adv-x="1436" 
d="M777 563q12 0 12 11l-1 5v5q0 12 -70 239t-73.5 227t-76.5 -219.5t-73 -257.5q0 -11 25 -11l6 -1l5 -1l43 -2h145l6 1l41 3q6 1 11 1zM731 1344q84 0 138 -105q89 -174 177 -477q40 -137 189 -471q43 -95 68.5 -123.5t60 -52t34.5 -47.5q0 -60 -101 -60h-57l-59 2
q-59 2 -152.5 2t-141.5 12.5t-48 47.5q0 6 30.5 50t30.5 112q0 147 -52 198q-37 36 -205.5 36t-200.5 -38q-45 -53 -45 -199q0 -49 28.5 -103.5t28.5 -66.5q0 -32 -44 -40t-171.5 -8t-168 10.5t-40.5 52.5q0 17 40.5 49t79.5 88.5t86.5 161.5t174 459t156.5 408t66 78t98 24
zM437 1721v26q0 15 28.5 40t59.5 25h11q71 0 161 -90q183 -183 183 -215v-15q0 -21 -38 -21h-11q-55 0 -288 148q-106 67 -106 102z" />
    <glyph glyph-name="Aacute" unicode="&#xc1;" horiz-adv-x="1436" 
d="M777 563q12 0 12 11l-1 5v5q0 12 -70 239t-73.5 227t-76.5 -219.5t-73 -257.5q0 -11 25 -11l6 -1l5 -1l43 -2h145l6 1l41 3q6 1 11 1zM839 72q0 6 30.5 50t30.5 112q0 147 -52 198q-37 36 -205.5 36t-200.5 -38q-45 -53 -45 -199q0 -53 28.5 -106t28.5 -64q0 -32 -44 -40
t-171.5 -8t-168 10.5t-40.5 51.5q0 18 40.5 50t79.5 88.5t91 171.5t170.5 451.5t151.5 398t69.5 85.5t98.5 24q84 0 138 -105q89 -174 177 -477q40 -137 189 -471q43 -95 68.5 -123.5t60 -52t34.5 -47.5q0 -60 -101 -60h-57l-59 2q-59 2 -90 2l-119 3q-133 0 -133 57z
M1011 1736v-11q0 -30 -160 -142t-230 -112h-17q-37 0 -37 21v15q0 51 180 211q105 93 170 93h6q31 0 59.5 -25t28.5 -50z" />
    <glyph glyph-name="Acircumflex" unicode="&#xc2;" horiz-adv-x="1436" 
d="M567.5 817q-72.5 -236 -72.5 -245t36 -9l62 -3h114q82 0 82 16l-1 5v6q0 12 -70 239t-74 227t-76.5 -236zM731 1346q86 0 138 -104q91 -181 177 -478q45 -153 189 -471q42 -92 68.5 -122.5t60.5 -53.5t34 -47q0 -60 -129 -60h-29l-59 2q-59 2 -152.5 2t-141.5 12.5
t-48 47.5q0 7 30.5 51t30.5 112q0 147 -52 198q-36 35 -206 35t-200 -37q-45 -55 -45 -199q0 -53 28.5 -105.5t28.5 -65.5q0 -48 -244 -48q-99 0 -139.5 10.5t-40.5 52.5q0 18 39.5 48.5t76.5 84t92 172t174 457.5t152 398.5t69 83.5t98 24zM715 1800h16q60 0 116 -56
q195 -195 195 -236q0 -32 -40 -32h-24q-37 0 -201 121q-47 35 -51.5 35t-113.5 -78t-152 -78h-16q-37 0 -37 28v7q0 52 212 246q47 43 96 43z" />
    <glyph glyph-name="Atilde" unicode="&#xc3;" horiz-adv-x="1436" 
d="M713 557q76 0 76 16l-1 5v5q0 13 -70 240t-74 227t-76.5 -236t-72.5 -244t19 -8l12 -2l61 -3h126zM731 1343q86 0 138 -104q91 -181 177 -478q45 -153 189 -471q42 -92 68.5 -122.5t60.5 -53.5t34 -47q0 -60 -101 -60h-57l-59 2q-59 2 -152.5 2t-141.5 12.5t-48 47.5
q0 7 30.5 51t30.5 112q0 146 -52 197q-37 36 -206.5 36t-199.5 -37q-45 -55 -45 -199q0 -53 28.5 -105.5t28.5 -65.5q0 -48 -244 -48q-99 0 -139.5 10.5t-40.5 52.5q0 16 40 49.5t74.5 80.5t86.5 158.5t179 467.5t157 410t66 78t98 24zM387 1522v17q0 79 86 152
q52 44 115 44t157.5 -42t131.5 -42t77 43.5t62 43.5h8q40 0 40 -25v-9q0 -81 -67.5 -143.5t-130.5 -62.5t-165 42t-129.5 42t-78 -43t-58.5 -43h-8q-40 0 -40 26z" />
    <glyph glyph-name="Adieresis" unicode="&#xc4;" horiz-adv-x="1436" 
d="M791 577q0 50 -127 431q-15 45 -18 45t-76 -219.5t-73 -258.5q0 -14 60 -14h170l46 4q18 0 18 12zM742 1347q71 0 116 -81q82 -149 160 -405.5t219 -566.5q44 -97 71 -126.5t59.5 -51.5t32.5 -46q0 -60 -129 -60l-59 2q-59 2 -89 2l-60 2q-30 1 -60 1q-163 0 -163 58
l35 55q27 42 27 107q0 147 -53 198q-36 35 -205.5 35t-200.5 -37q-44 -52 -44 -199q0 -53 28.5 -106t28.5 -64q0 -31 -42.5 -39.5t-183.5 -8.5t-169.5 14t-28.5 48q0 18 48 55q68 51 162 252q52 113 171 452.5t153 401t69.5 85t106.5 23.5zM522 1492h-21q-44 0 -77 33
t-33 84v5q0 48 34.5 89t86.5 41h29q8 -2 21.5 -2t48.5 -29.5t35 -77.5v-25q-2 -10 -2 -13q0 -32 -36.5 -68.5t-85.5 -36.5zM807 1623l2 20q0 35 40 68t78 33h30q8 -2 12 -2q28 0 60.5 -32.5t32.5 -79.5v-12q0 -44 -33 -83.5t-76 -39.5l-25 -3h-5l-4 1q-48 0 -78.5 30.5
t-30.5 57.5l-4 29v9z" />
    <glyph glyph-name="Aring" unicode="&#xc5;" horiz-adv-x="1388" 
d="M790 570q0 25 -70.5 253.5t-73.5 228.5t-76 -219.5t-73 -258.5v-4q0 -11 18 -11l12 -2l48 -3h145l47 4q23 0 23 12zM732 1747h-23q-30 0 -57 -33.5t-27 -66.5v-26q0 -39 29.5 -68.5t55.5 -29.5h23q9 3 21.5 3t37.5 31.5t25 68.5v15l-4 29q0 15 -24.5 46t-56.5 31z
M701 1336h27q74 0 118 -87q60 -118 168 -454.5t170 -467.5t111 -180l82 -82q0 -56 -104 -56h-56l-29 1q-112 4 -194.5 4t-119 13t-36.5 51q0 8 18 28l26 29q23 36 23 107q0 146 -64 198q-33 27 -203.5 27t-197.5 -38q-45 -64 -45 -204q0 -41 21 -83l40 -80q0 -46 -215 -46
q-137 0 -166.5 7.5t-29.5 36.5t23 48q69 55 70 57q56 67 116 205t81 200l36 112q19 56 37.5 105t76.5 226t97.5 250t118.5 73zM508 1640q0 70 63 126t153 56h7l7 -1q78 0 136.5 -52t58.5 -127v-7q0 -76 -62.5 -131.5t-152.5 -55.5l-7 1h-7q-79 0 -136.5 51.5t-57.5 107.5
l-2 13v19z" />
    <glyph glyph-name="AE" unicode="&#xc6;" horiz-adv-x="1928" 
d="M884 1169q0 47 -11.5 47t-73.5 -115q-206 -383 -206 -418q0 -10 57 -10h109l7 1l21 1l7 1l14 1q56 0 64 21q8 20 8 146v133l1 14v37l1 15v23l2 45v58zM1204 859q0 -96 86 -96t170 96q33 37 56.5 37t47.5 -46t24 -177t-12 -160.5t-48 -29.5l-29 19l-64 57q-64 53 -104 53
q-76 0 -99 -38t-23 -164t33.5 -174t156.5 -48t246 82.5t139 82.5q37 0 37 -54v-37q0 -152 -120 -187q-87 -26 -703 -26q-122 0 -153 9q-62 18 -62 55q0 8 31.5 44t48 82.5t16.5 152t-42 135.5t-145.5 30t-137 -15.5t-69.5 -68.5q-115 -173 -115 -309q0 -42 7 -73l12 -54
q0 -38 -86 -38h-50q-168 0 -212 37l-13 20q0 41 90 143t163 239l53 99q61 109 82 149.5t98.5 182t95 194t32 124t15.5 74.5q26 58 178 58h275q498 0 584 -32t86 -172q0 -85 -30 -85t-72 51q-80 98 -274 98q-125 0 -157 -54q-43 -73 -43 -266z" />
    <glyph glyph-name="Ccedilla" unicode="&#xc7;" horiz-adv-x="1398" 
d="M1258 956q0 -59 -30 -59t-100 108t-139 154q-101 67 -258 67q-78 0 -161.5 -46t-142.5 -135q-98 -148 -98 -392q0 -129 38 -235q76 -212 259 -289q79 -33 202.5 -33t228.5 56q69 38 148.5 104t86.5 69q36 15 36 -27v-30q0 -14 -36 -59q-78 -98 -216 -173t-317 -75h-10
l-19 -57q0 -6 51 -23q122 -41 122 -136v-18q0 -70 -64 -120.5t-145 -50.5l-8 -1l-9 -1l-26 -1h-26q-123 0 -123 35q0 52 81.5 52t116 20t34.5 63t-63.5 61.5t-63.5 39.5q0 55 53 139q-118 9 -218 57q-236 112 -332 347q-49 119 -49 267v36q0 148 61 274q118 244 352 340
q128 53 266 53h33q86 0 211 -30.5t126 -30.5l31 2l31 4q86 0 86 -326z" />
    <glyph glyph-name="Egrave" unicode="&#xc8;" horiz-adv-x="1311" 
d="M96 73q0 23 56 62t76.5 123.5t20.5 427t-17 415t-73.5 126.5t-56.5 69q0 35 71 42q233 23 557 23h45q274 0 326 -37.5t52 -237.5q0 -34 -18 -34q-24 0 -86.5 53.5t-103.5 71.5q-93 42 -209 42t-155 -84.5t-39 -244.5q0 -63 32 -79q14 -7 69 -7t84.5 19t56 66t56.5 47
q52 0 67.5 -52.5t15.5 -235t-51 -182.5q-35 0 -97.5 68t-149.5 68q-39 0 -67 -17.5t-28 -96.5t25.5 -181.5t42.5 -125.5q31 -40 159.5 -40t198 29.5t139 99t99.5 69.5q20 0 20 -34v-30q0 -84 -44 -189q-15 -36 -42 -52q-59 -36 -357 -36h-90q-413 0 -527 20q-58 10 -58 55z
M373 1721v21q0 19 29 44.5t60 25.5h6q63 0 161 -87q188 -167 188 -219v-5l-1 -5q0 -25 -38 -25h-11q-77 0 -298 155q-96 67 -96 95z" />
    <glyph glyph-name="Eacute" unicode="&#xc9;" horiz-adv-x="1311" 
d="M96 72q0 24 56 63t76.5 123.5t20.5 427t-17 414.5t-73.5 126t-56.5 70q0 35 71 42q233 23 557 23h45q274 0 326 -37.5t52 -238.5q0 -34 -18 -34q-25 0 -85 53q-60 54 -128 84t-171 30t-127 -20q-82 -72 -82 -308q0 -63 32 -79q14 -7 69 -7t84.5 19t56 65.5t56.5 46.5
q53 0 68 -52t15 -234.5t-51 -182.5q-35 0 -97 67.5t-150 67.5q-41 0 -68 -17t-27 -96t25.5 -182.5t42.5 -125.5q30 -39 159 -39t198.5 29.5t138.5 98.5t100 69q20 0 20 -33v-30q0 -83 -44 -189q-15 -36 -42 -52q-63 -37 -463 -37t-511 21q-58 11 -58 54zM945 1740v-16
q0 -32 -103 -104q-214 -150 -287 -150h-17q-37 0 -37 21v15q0 51 180 211q105 93 170 93h6q31 0 59.5 -25t28.5 -45z" />
    <glyph glyph-name="Ecircumflex" unicode="&#xca;" horiz-adv-x="1311" 
d="M96 74q0 23 55.5 61.5t76.5 123t21 428t-17 415.5t-73.5 126t-56.5 69q0 35 71 43q204 23 540.5 23t388 -38t51.5 -238q0 -34 -18 -34q-26 0 -93 58.5t-138 83.5t-177.5 25t-145.5 -84.5t-39 -244.5q0 -61 32 -78q15 -8 69.5 -8t84 18.5t56.5 66t56 47.5q52 0 67.5 -51.5
t15.5 -235t-51 -183.5q-32 0 -96 68t-138.5 68t-91 -28t-16.5 -69q0 -175 53 -297q29 -67 146 -67q157 0 225.5 29t138.5 99t101 70q20 0 20 -34v-29q0 -83 -44 -189q-15 -37 -42 -53q-59 -36 -357 -36h-90l-45 1q-60 2 -220 2t-262 18q-58 10 -58 54zM922 1476h-15
q-34 0 -143.5 78.5t-113.5 78.5t-63 -42l-28 -20q-24 -19 -87.5 -57t-101 -38t-37.5 32v7q0 32 208 240q46 46 104 46h8l8 -1q51 0 102 -47q204 -188 204 -241v-7q0 -29 -45 -29z" />
    <glyph glyph-name="Edieresis" unicode="&#xcb;" horiz-adv-x="1311" 
d="M92 74q0 21 56 61t77 121t21 425t-17.5 419t-59.5 115q-71 68 -71 82q0 35 72 43q207 23 541.5 23t386.5 -38.5t52 -237.5q0 -34 -21 -34t-84 53.5t-103 71.5q-95 42 -203.5 42t-142.5 -51q-57 -85 -57 -278q0 -61 32 -78q15 -8 70 -8q93 0 133 73q33 59 63 59
q53 0 67.5 -51.5t14.5 -235t-50 -183.5q-34 0 -96.5 68t-151.5 68q-40 0 -67 -17.5t-27 -96.5t25.5 -182t42.5 -125q32 -40 173 -40t233 52q8 4 86.5 75t103.5 71q20 0 20 -34q0 -109 -45 -218q-16 -38 -41 -53q-60 -36 -358 -36h-89q-409 0 -527 21q-59 11 -59 54z
M313 1627q0 50 41 84t79 34h29q10 -2 12 -2q34 0 63.5 -35.5t29.5 -67.5v-30q0 -50 -40 -83.5t-80 -33.5h-25q-37 0 -72 29.5t-35 66.5l-2 9v29zM728 1598v30q0 43 37 80t83 37h30q8 -2 12 -2q34 0 63.5 -35.5t29.5 -71.5v-21q0 -46 -36.5 -82.5t-72.5 -36.5l-25 -3h-4l-4 1
q-42 0 -77.5 29.5t-35.5 74.5z" />
    <glyph glyph-name="Igrave" unicode="&#xcc;" horiz-adv-x="817" 
d="M105 47q0 26 58 63t71 87q27 105 27 466t-23 479q-12 63 -56 93q-76 52 -76 79q0 49 76 49h41l21 -1l197 -1q266 0 266 -36v-16q0 -23 -55.5 -58.5t-69.5 -72.5q-31 -82 -31 -260l-2 -45v-208q0 -340 22 -450q12 -60 56 -92q78 -56 78 -76q0 -40 -33 -48q-8 -2 -297 -2
l-22 -1h-43l-87 -1q-118 0 -118 36v16zM122 1721v21q0 22 31 46t58 24h11q58 0 200.5 -127t142.5 -179v-10q0 -25 -38 -25h-11q-57 0 -225.5 107.5t-168.5 142.5z" />
    <glyph glyph-name="Iacute" unicode="&#xcd;" horiz-adv-x="818" 
d="M107 47q0 26 58 63t71 87q27 105 27 483t-28 482q-13 48 -70 86.5t-57 65.5q0 49 96 49l21 -1l196 -1q288 0 288 -36v-16q0 -19 -59 -60t-72 -90q-27 -103 -27 -468.5t22 -475.5q12 -62 56 -92q78 -54 78 -76q0 -40 -33 -48q-12 -3 -297 -3h-43l-87 -1h-43q-97 0 -97 36
v16zM697 1745v-26q0 -28 -102 -99q-214 -150 -288 -150h-16q-37 0 -37 21v15q0 32 175 207q97 97 175 97h5q32 0 60 -24.5t28 -40.5z" />
    <glyph glyph-name="Icircumflex" unicode="&#xce;" horiz-adv-x="817" 
d="M105 49q0 25 58.5 62t71.5 87q27 103 27 482t-28 483q-13 50 -70 86.5t-57 65.5q0 49 56 49h103l22 -1l307 1h21q92 0 92 -37v-17q0 -22 -59 -60.5t-72 -88.5q-28 -109 -28 -469t23 -475q13 -63 56 -93q78 -54 78 -76q0 -51 -90 -51l-20 1h-242l-64 -1h-108q-77 0 -77 52
zM404 1801h16q93 0 281 -244q25 -33 25 -45v-7q0 -29 -45 -29h-15q-34 0 -143.5 78.5t-116.5 78.5t-51.5 -35t-72.5 -53q-104 -69 -142 -69h-8q-40 0 -40 32v7q0 12 74 100.5t131 137t107 48.5z" />
    <glyph glyph-name="Idieresis" unicode="&#xcf;" horiz-adv-x="818" 
d="M106 1315q0 49 76 49h84l21 -1l307 1q83 0 98.5 -10t15.5 -38.5t-61.5 -67t-74.5 -107.5q-23 -118 -23 -481t27 -463q13 -48 71.5 -85.5t58.5 -70.5t-33 -41q-8 -2 -298 -2l-64 -1h-44l-43 -1q-86 0 -102.5 10t-16.5 39.5t54.5 64t68.5 70.5q30 75 30 234l3 69v349
l-3 139q0 155 -38 227q-11 21 -62.5 55.5t-51.5 61.5zM74 1622q0 40 34.5 81t85.5 41h26q43 0 76 -33t33 -80v-13l-1 -4v-9q-2 -8 -2 -12q0 -35 -39.5 -68t-78.5 -33h-25q-43 0 -74.5 31.5t-31.5 60.5l-3 21v17zM743 1635v-25q0 -50 -41 -84t-84 -34h-17q-47 0 -80 33
t-33 76v25q2 10 2 13q0 33 36 69t82 36h30q8 -2 12 -2q29 0 61 -32t32 -75z" />
    <glyph glyph-name="Eth" unicode="&#xd0;" horiz-adv-x="1565" 
d="M561 1174v-34l1 -18l1 -35q0 -241 30 -278q17 -21 113.5 -29.5t120 -19t23.5 -50t-25.5 -56t-116.5 -28t-111 -43.5q-36 -59 -36 -330v-17q0 -72 27 -93.5t108 -21.5q82 0 166 41q159 77 222 292q38 129 38 220v42q0 89 -38 199q-36 110 -100 185q-124 147 -308 147h-35
q-80 0 -80 -73zM120 33q0 32 57 68.5t74 80.5q38 100 38 371q0 46 -17.5 59t-67 22t-51.5 10q-33 16 -33 53v24q0 42 74 50.5t84 24t10 96.5q0 204 -32 290q-15 39 -74 73t-59 58q0 43 59 51q38 5 309 5l106 2h108q330 0 513 -174q99 -94 149 -215.5t50 -249.5v-60
q0 -299 -193 -488q-193 -188 -519 -188h-132l-27 1h-182l-106 -1h-26q-112 0 -112 37z" />
    <glyph glyph-name="Ntilde" unicode="&#xd1;" horiz-adv-x="1554" 
d="M210 -3q-144 0 -144 65q0 1 82 64q47 36 60.5 81.5t13.5 411.5t-15 444t-69.5 140t-54.5 114q0 33 133 33t196.5 -10.5t123.5 -64.5q29 -26 318 -426.5t307 -400.5q23 0 23 272q0 423 -84 514l-23 23q-41 38 -41 44q0 32 27.5 45.5t121.5 13.5h47q114 0 170.5 -9.5
t56.5 -45.5q0 -12 -47.5 -72.5t-56.5 -109.5q-24 -128 -24 -559.5t-6 -467.5q-12 -75 -58 -75q-57 0 -111 29t-120 104t-346 461.5t-308 386.5q-14 0 -14 -54l2 -92l1 -95q0 -426 58.5 -566.5t58.5 -142.5l-11 -21q-34 -34 -221 -34h-46zM664 1735q43 0 137.5 -42t132 -42
t77 43.5t74.5 43.5t35 -25v-9q0 -81 -67.5 -143.5t-152.5 -62.5q-45 0 -139.5 42t-132 42t-77 -43t-60.5 -43l-8 1h-8q-32 0 -32 34q0 80 80 154q54 50 141 50z" />
    <glyph glyph-name="Ograve" unicode="&#xd2;" horiz-adv-x="1550" 
d="M768 98h27q139 0 221.5 151.5t82.5 360.5v89q0 107 -27 223q-49 211 -168 297q-57 41 -129 41q-147 0 -229 -135q-96 -158 -96 -394v-73q0 -231 91 -399q39 -72 101.5 -116.5t125.5 -44.5zM1419 762v-47q0 -163 -58.5 -307t-148.5 -238q-191 -197 -465 -197h-45
q-121 1 -232 53q-212 100 -297 325q-47 125 -47 243v72q0 146 60 286q118 276 362 379q124 52 250 52h23q266 0 440 -186q67 -72 112.5 -190.5t45.5 -244.5zM500 1723v21q0 21 31.5 45.5t57.5 24.5h5q64 0 157 -83q192 -171 192 -217v-20q0 -21 -38 -21h-16q-51 0 -288 151
q-101 64 -101 99z" />
    <glyph glyph-name="Oacute" unicode="&#xd3;" horiz-adv-x="1550" 
d="M768 98h27q130 0 217 143.5t87 368.5v89q0 243 -93 401t-223 159h-28q-66 0 -124.5 -42t-98.5 -116q-82 -151 -82 -370v-73q0 -231 91 -399q39 -72 101.5 -116.5t125.5 -44.5zM1419 762v-47q0 -163 -58.5 -307t-148.5 -238q-191 -197 -465 -197h-45q-112 1 -224 49
q-216 94 -305 329q-47 125 -47 243v72q0 146 60 286q123 288 381 386q117 45 253 45q267 0 441 -186q67 -72 112.5 -190.5t45.5 -244.5zM1065 1748v-26q0 -24 -162 -137t-239 -113l-5 1q-38 0 -38 26l1 5v5q0 51 189 219q96 85 166 85q32 0 60 -24.5t28 -40.5z" />
    <glyph glyph-name="Ocircumflex" unicode="&#xd4;" horiz-adv-x="1550" 
d="M450 733v-73q0 -231 91 -399q39 -72 101.5 -116.5t139.5 -44.5h13q129 0 216.5 143.5t87.5 368.5v89q-1 103 -27 220q-48 213 -168 300q-57 41 -135 41q-153 0 -236 -154.5t-83 -374.5zM1419 764v-47q0 -145 -50.5 -285.5t-143 -243t-216 -158t-262.5 -55.5h-45
q-121 1 -232 53q-212 100 -297 325q-47 125 -47 243v72q0 146 60 286q122 288 381 387q114 44 231 44h45q124 0 234 -52q209 -99 290 -308q52 -135 52 -261zM776 1803h17q46 0 99 -45t182 -199q25 -30 25 -45v-7q0 -29 -45 -29h-16q-34 0 -143.5 78.5t-113.5 78.5t-63 -42
l-63 -45q-109 -70 -150 -70t-41 33q0 55 215 252q44 40 97 40z" />
    <glyph glyph-name="Otilde" unicode="&#xd5;" horiz-adv-x="1550" 
d="M450 729v-72q0 -126 30 -241q57 -216 177 -285q59 -35 125 -35q142 0 229.5 143.5t87.5 369.5v88q0 225 -84 387q-44 85 -106 129.5t-126 44.5h-28q-58 0 -117 -38t-106 -120q-82 -145 -82 -371zM1419 760v-47q0 -145 -50.5 -285.5t-143 -243t-216 -158t-262.5 -55.5h-22
q-125 1 -237 45q-222 88 -315 333q-47 122 -47 243v73q0 143 58 283q119 289 383 389q114 44 231 44h45q127 0 235 -51q211 -100 289 -309q52 -139 52 -261zM445 1524v16q0 75 67 136.5t152 61.5q43 0 137.5 -42t131 -42t79.5 43t60 43h8q41 0 41 -23v-17q0 -82 -90 -158
q-48 -41 -109 -41t-163 42t-129 42t-78 -43t-57 -43h-8q-42 0 -42 25z" />
    <glyph glyph-name="Odieresis" unicode="&#xd6;" horiz-adv-x="1550" 
d="M770 100h27q68 0 125 40.5t94 106.5q85 150 85 383v71q0 231 -89.5 396t-232.5 165q-217 0 -299 -302q-28 -106 -29 -245v-18l1 -19q0 -243 84 -405q40 -76 103.5 -124.5t130.5 -48.5zM1420 693q0 -145 -59 -287q-119 -288 -378 -388q-112 -43 -234 -43h-45h-4
q-108 0 -218 47q-236 100 -321 371q-34 107 -34 227v24q0 146 52 288q53 142 149 246q192 207 491 207h3q261 0 427 -172q80 -83 126 -205.5t46 -267.5l-1 -23v-24zM449 1600v25q0 46 37.5 83.5t88.5 37.5h17q38 0 73.5 -29.5t35.5 -65.5l3 -25v-4l-1 -5q0 -50 -37 -87
t-93 -37h-8q-50 0 -83 33t-33 74zM998 1494h-25q-44 0 -76.5 32.5t-32.5 72.5v29q0 50 41 84t83 34h18q40 0 76.5 -30.5t36.5 -79.5v-21q0 -47 -35 -82t-66 -35q-16 -4 -20 -4z" />
    <glyph glyph-name="multiply" unicode="&#xd7;" horiz-adv-x="1190" 
d="M907 973h16h1q18 0 58 -43q41 -44 41 -56q0 -29 -145 -178q-146 -150 -146 -158t144 -152t145 -162q-1 -16 -39 -54t-52 -39q-14 0 -160 152q-146 151 -173 152q-14 0 -157 -153q-144 -154 -174 -154q-15 0 -59 42t-44 54q0 31 133 173q14 15 88 84q73 68 73 79t-143 158
q-144 148 -144 161q0 11 40 51t50 40q25 0 160 -149t156 -149t167 150t164 151z" />
    <glyph glyph-name="Oslash" unicode="&#xd8;" horiz-adv-x="1571" 
d="M1149 726l-2 61q0 105 -34 183q-4 10 -8 10t-270 -361t-266 -377v-10q0 -47 66 -89.5t138 -42.5h11q64 0 129 31q135 64 197 266q37 122 37 224l2 26l1 53v13zM431 696v-66q0 -159 35 -234q5 -10 9 -10q20 0 181 236q5 8 181 246.5t176 263.5q0 50 -64.5 91.5
t-122.5 41.5h-34q-67 0 -138 -41t-117 -116q-106 -173 -106 -412zM126 654q0 140 61.5 283t168 247t236.5 149t242.5 45t218.5 -26.5t124.5 -26.5t77.5 47.5t84 47.5q45 0 45 -68q0 -12 -29 -67.5t-29 -86t31 -86.5q94 -170 94 -330v-56q-1 -147 -59 -290
q-120 -293 -390 -400q-126 -50 -287 -50q-71 0 -186.5 26.5t-117.5 26.5q-33 0 -93.5 -52t-88.5 -52q-45 0 -45 68q0 17 35.5 75.5t35.5 87t-33 86.5q-96 169 -96 347v55z" />
    <glyph glyph-name="Ugrave" unicode="&#xd9;" horiz-adv-x="1492" 
d="M611 1315q0 -13 -37.5 -67.5t-52.5 -140.5t-15 -323l-2 -39l-2 -78q-2 -80 -2 -122q0 -236 83 -335q46 -56 102 -73.5t132.5 -17.5t140.5 41.5t99 107.5q58 109 58 382.5t-25 448.5q-9 65 -49 137t-40 82q0 43 213.5 43t213.5 -38.5t-62 -86t-69 -74.5
q-15 -56 -15 -366.5t-12 -418.5q-28 -250 -253 -355q-106 -50 -237 -50h-45q-163 0 -273 54t-167.5 141.5t-71.5 192.5t-14 437.5t-15 374t-71 66.5t-56 62.5t41 48.5t272 11t231 -45zM887 1467h-11q-56 0 -273 138q-122 78 -122 123l1 5q0 25 28.5 50t59.5 25h6
q64 0 166 -91q183 -163 183 -214v-11q0 -25 -38 -25z" />
    <glyph glyph-name="Uacute" unicode="&#xda;" horiz-adv-x="1492" 
d="M611 1315q0 -13 -37.5 -68t-52.5 -140t-15 -323l-2 -39l-2 -78q-2 -79 -2 -122q0 -236 83 -335q46 -56 102 -73.5t132.5 -17.5t140.5 41.5t99 107.5q58 109 58 382.5t-25 448.5q-9 65 -49 137t-40 82q0 43 209 43h38q180 0 180 -38.5t-62 -86t-69 -74.5
q-15 -56 -15 -366.5t-12 -418.5q-28 -250 -253 -355q-106 -50 -237 -50h-45q-163 0 -273 54t-167.5 141.5t-71.5 192.5t-14 437.5t-15 374t-71 66.5t-56 62.5t41 48.5t272 11t231 -45zM1063 1743v-27q0 -33 -102 -98q-237 -151 -293 -151h-6l-5 1q-38 0 -38 26l1 5v5
q0 51 184 215q100 89 171 89q31 0 59.5 -25t28.5 -40z" />
    <glyph glyph-name="Ucircumflex" unicode="&#xdb;" horiz-adv-x="1492" 
d="M611 1316q0 -13 -37.5 -68t-52.5 -140t-15 -322l-2 -39l-2 -79q-2 -80 -2 -121q0 -236 83 -335q75 -91 223 -91q88 0 152 41.5t99 106.5q58 109 58 381.5t-25 449.5q-9 64 -49 138t-40 82q0 41 171 41l76 2q180 0 180 -39.5t-61.5 -85.5t-69.5 -75q-15 -56 -15 -366
q0 -309 -12 -417q-26 -231 -220 -340q-121 -67 -287 -67q-340 0 -469 198q-56 86 -70.5 190.5t-14.5 438t-15 374.5t-71 66t-56 63t42.5 48.5t272 10.5t229.5 -46zM454 1500v13q0 16 26 44q175 191 205 216.5t88 25.5t110 -48q204 -187 204 -241v-7q0 -29 -44 -29h-16
q-43 0 -142.5 78.5t-115.5 78.5q-2 0 -112 -78.5t-156 -78.5h-8q-39 0 -39 26z" />
    <glyph glyph-name="Udieresis" unicode="&#xdc;" horiz-adv-x="1492" 
d="M610 1315q0 -12 -37.5 -66.5t-52.5 -140.5t-15 -323l-2 -39l-2 -79q-2 -80 -2 -121q0 -234 83 -335q45 -55 101.5 -73t133.5 -18t140.5 41.5t98.5 107.5q58 109 58 382q0 451 -57 555.5t-57 112.5q0 41 171 41l75 2q181 0 181 -39.5t-61.5 -85.5t-69.5 -75
q-15 -56 -15 -365.5t-12 -417.5q-28 -251 -253 -356q-106 -50 -237 -50h-45q-308 0 -441 197q-58 86 -71.5 194.5t-13.5 439t-15.5 371t-71 65t-55.5 62t41 48.5t272 11t231 -46zM432 1601v17q0 42 34.5 83t87.5 41h22q44 0 76 -32t32 -63l3 -25v-5l-1 -4q0 -56 -41 -90
t-85 -34h-13q-42 0 -78.5 30.5t-36.5 81.5zM1102 1636v-29q0 -43 -37 -80t-84 -37h-25q-12 3 -29 3t-48.5 31.5t-31.5 74.5v21q0 59 44 90.5t81 31.5h21q42 0 75.5 -33.5t33.5 -72.5z" />
    <glyph glyph-name="Yacute" unicode="&#xdd;" horiz-adv-x="1397" 
d="M609 1316q0 -12 -21.5 -42t-21.5 -59q0 -126 154 -419q34 -65 45 -65q34 0 121 186t87 280q0 29 -24 67.5t-24 47.5q0 47 90 47h95q217 0 217 -58q0 -13 -125 -110q-37 -29 -165.5 -252.5t-163.5 -311t-35 -174.5q0 -191 42 -282q17 -36 66.5 -69t49.5 -70t-338 -37
l-160 -1h-32q-84 0 -84 35q0 26 54.5 67t67.5 77q39 111 39 278q0 106 -276 585q-58 100 -91 136l-22 20l-46 35q-44 36 -44 61v22l12 16q39 33 332 33h95q106 0 106 -43zM1027 1734v-10q0 -40 -119 -116q-223 -142 -281 -142h-5l-6 1q-38 0 -38 26l1 5v5q0 53 181 214
q106 94 172 94h6q27 0 58 -24t31 -53z" />
    <glyph glyph-name="Thorn" unicode="&#xde;" horiz-adv-x="1328" 
d="M647 446h31q112 0 173.5 75.5t61.5 178.5v27q-2 18 -2 27q0 81 -63.5 151t-150.5 70l-15 2h-33q-85 0 -85 -61q-3 -22 -3 -26v-11l-1 -15v-47l-1 -24v-16l1 -8v-74l-1 -32v-41l1 -8v-86l2 -22q1 -7 1 -14q0 -46 84 -46zM631 1367q75 0 75 -51q0 -26 -74 -59.5t-74 -97.5
q0 -36 18 -42.5t136 -12.5t194 -21.5t148 -64t113 -121t41 -152.5v-29q0 -80 -39 -160q-79 -164 -286 -218q-77 -21 -181 -26.5t-125 -10.5q-36 -9 -36 -56t24 -76.5t90 -58.5t66 -71.5t-73 -42.5h-54l-28 1l-146 2l-56 2q-28 1 -55 1l-27 2l-26 1q-26 1 -52 1q-90 0 -90 44
q0 29 63.5 70.5t73.5 99.5q28 156 28 508t-23 416t-81.5 102t-58.5 67.5t22 38t126 8.5l284 6l57 1h26z" />
    <glyph glyph-name="germandbls" unicode="&#xdf;" horiz-adv-x="1253" 
d="M765 8q-139 0 -139 85q0 43 14.5 54t80.5 14t113 42t47 125.5t-107.5 209t-107.5 209.5q0 50 46 170t46 195.5t-38.5 109t-82.5 33.5t-88.5 -39t-66.5 -115q-44 -151 -44 -623q0 -83 -1 -124l-1 -40l1 -77q0 -34 4 -73l5 -32l4 -30q0 -55 -38.5 -75.5t-169.5 -20.5
t-153.5 12t-22.5 45q0 14 38.5 35t50.5 42q37 66 37 186q0 214 -9 268t-37.5 111.5t-28.5 89.5t16.5 64t71 188t79.5 188q60 78 161 129t200 51h42q132 0 230.5 -80t98.5 -195q0 -67 -15.5 -108.5t-75.5 -112t-60 -113t17 -65t106.5 -100.5t132 -146t42.5 -151
q0 -166 -104 -251t-294 -85z" />
    <glyph glyph-name="agrave" unicode="&#xe0;" 
d="M599 406q0 36 -24 36h-12q-73 0 -149.5 -54.5t-76.5 -126.5v-31q0 -40 28 -68t58 -28h23q49 0 97.5 42t48.5 95l3 19v9l2 20v10l2 30v47zM207 630q-90 0 -90 83q0 76 123.5 146t259.5 70h26q160 0 245.5 -82.5t85.5 -245.5l-1 -23q-1 -23 -1 -47l-1 -23q-1 -30 -2.5 -62
t-1.5 -122t20 -121.5t69 -49.5t49 -51.5t-72 -70.5t-133.5 -37t-110 37t-65.5 37t-101.5 -41t-153.5 -41h-21q-99 0 -173 69t-74 152v22q0 104 92 182q67 57 181 95l94 26q64 18 107 43t43 86t-36 97t-96 36t-130.5 -82t-131.5 -82zM252 1334v15q0 10 28.5 31.5t65.5 21.5
h17q63 0 135 -81q166 -187 166 -252q0 -26 -43 -26h-22q-51 0 -199 131.5t-148 159.5z" />
    <glyph glyph-name="aacute" unicode="&#xe1;" 
d="M599 407q0 36 -31 36l-5 -1q-87 0 -156.5 -59.5t-69.5 -120.5v-32q0 -39 28.5 -67.5t57.5 -28.5h23q8 2 14 2q52 0 92 46.5t40 88.5l3 19v10l2 19v10l2 30v48zM988 107q0 -42 -75.5 -77.5t-133.5 -35.5t-106.5 37t-68 37t-129.5 -55q-64 -27 -152.5 -27t-163.5 68
t-75 153v22q0 212 367 304q66 17 99 37q51 31 51 91.5t-36.5 97t-94.5 36.5q-58 -1 -132 -83t-124 -82q-97 0 -97 82q0 29 39 77t128.5 94t215.5 46h51q68 0 134.5 -28t106.5 -74q65 -74 65 -225l-1 -23q-1 -24 -1 -47l-5 -164q0 -134 19.5 -165t69 -49t49.5 -47zM793 1351
v-10q0 -36 -98 -123q-198 -176 -256 -176h-11q-50 0 -50 26v5q0 33 164 244q67 86 140 86h23q35 0 61.5 -20t26.5 -32z" />
    <glyph glyph-name="acircumflex" unicode="&#xe2;" 
d="M599 408q0 36 -27 36h-9q-73 0 -149.5 -54.5t-76.5 -126.5v-31q0 -40 28 -68t58 -28h23q49 0 97.5 42t48.5 95l3 19v9l2 20v10l2 30v47zM207 632q-90 0 -90 83q0 76 123.5 146t259.5 70h26q160 0 245.5 -82.5t85.5 -245.5l-1 -23q-1 -23 -1 -47l-1 -23q-1 -30 -2.5 -62
t-1.5 -122t20 -121.5t69 -49.5t49 -51.5t-72 -70.5t-133.5 -37t-110 37t-65.5 37t-101.5 -41t-153.5 -41h-21q-99 0 -173 69t-74 152v22q0 198 319 291l48 12q67 19 99 37q51 30 51 91.5t-36 97.5t-96 36t-130.5 -82t-131.5 -82zM509 1393h17q56 0 104 -57
q187 -221 187 -259v-7q0 -25 -51 -25h-8q-34 0 -137 88.5t-107 88.5t-106.5 -87.5t-149 -87.5t-46.5 28v6q0 52 196 264q44 48 101 48z" />
    <glyph glyph-name="atilde" unicode="&#xe3;" 
d="M599 406q0 36 -24 36h-11q-87 0 -157 -60t-70 -121v-31q0 -40 28 -68t58 -28h23q57 0 101 44t44 83l2 10l4 43v10l2 30v52zM988 99.5q0 -31.5 -72 -68.5t-134 -37t-109.5 37t-65 37t-102 -41t-152.5 -41h-22q-99 0 -173 69t-74 152v22q0 104 92 182q67 57 224.5 109.5
t165.5 58.5q35 26 35 84t-35.5 94.5t-94.5 36.5t-132 -82t-124.5 -82t-74.5 22t-23 50.5t30 75t101 85.5q119 66 252 66h26q161 0 252 -88q45 -44 61.5 -98.5t16.5 -164.5l-6 -187q0 -139 15.5 -176.5t69 -60.5t53.5 -54.5zM184 1105v16q0 76 66 136.5t148 60.5
q43 0 134.5 -43t127 -43t79.5 44t58 44h8q40 0 40 -24v-8q0 -72 -62 -139.5t-152 -67.5q-47 0 -138.5 43t-125 43t-77 -43.5t-59.5 -43.5h-8q-39 0 -39 25z" />
    <glyph glyph-name="adieresis" unicode="&#xe4;" 
d="M338 264v-31q0 -40 28.5 -68.5t62.5 -28.5h13q54 0 101.5 41.5t47.5 81.5q2 10 2 14l4 29v9l1 10v10l2 30v48q0 36 -27 36h-4l-23 -3q-58 0 -133 -53.5t-75 -124.5zM854 291q0 -55 18 -85.5t67 -51t49 -52.5t-74 -69t-133.5 -37t-108 37t-64 37t-101 -40.5t-154.5 -40.5
h-21q-108 0 -178 72q-70 73 -70 175q0 206 368 299q66 17 108 40.5t42 86t-36.5 99t-95 36.5t-131.5 -82t-123 -82t-74 21t-24 45q0 83 117 157.5t267 74.5h50q67 0 134 -28t107 -74q64 -73 64 -248l-5 -187l1 -24q1 -24 1 -79zM338 1324q40 0 72.5 -32.5t32.5 -75.5v-17
q0 -55 -40 -88t-83 -33h-17q-44 0 -76.5 32.5t-32.5 71.5v25q0 45 34.5 79.5t67.5 34.5l21 3h21zM696 1078q-44 0 -76 32t-32 73v24q3 12 3 29.5t35.5 53t89.5 35.5h4l4 -1h8l15 -2q32 0 59.5 -33t27.5 -58l3 -24v-4l-1 -4q0 -48 -35 -83t-68 -35l-24 -3h-13z" />
    <glyph glyph-name="aring" unicode="&#xe5;" 
d="M600 405q0 36 -31 36l-5 -1q-87 0 -168 -69q-59 -51 -59 -127l1 -5q0 -50 28.5 -78.5t57.5 -28.5h23q8 2 14 2q52 0 92 46.5t40 88.5l3 19v10l2 19v10l2 30v48zM515 1120h7q40 0 65 31.5t25 52.5l3 21v19l-1 4v7q-2 6 -2 10q0 30 -31.5 55t-59.5 25h-7l-3 -1h-6
q-8 -2 -10 -2q-23 0 -48.5 -32.5t-25.5 -62.5l-1 -15v-4l4 -28q0 -24 28 -52t63 -28zM989 105q0 -42 -75.5 -77.5t-133.5 -35.5t-106.5 37t-68 37t-129.5 -55q-64 -27 -152.5 -27t-163.5 68t-75 153v22q0 212 367 304q66 17 99 37q51 31 51 91.5t-36.5 97t-95 36.5
t-131.5 -82.5t-123 -82.5q-98 0 -98 84q0 27 39 75t128.5 94t215.5 46h51q68 0 134.5 -28t106.5 -74q65 -74 65 -225l-1 -24q-1 -24 -1 -46l-5 -164q0 -134 19.5 -165t69 -49t49.5 -47zM301 1222v13q0 74 63 130t138 56h35q77 0 136.5 -53t59.5 -119v-32q0 -57 -57 -114
t-129 -57l-14 -2h-35q-78 0 -137.5 53.5t-59.5 124.5z" />
    <glyph glyph-name="ae" unicode="&#xe6;" horiz-adv-x="1526" 
d="M432 128h18q61 0 109 48t48 99v122q0 43 -34 43h-4l-5 -1q-85 0 -153.5 -58.5t-68.5 -135.5v-5q0 -45 24 -78.5t66 -33.5zM1176 667l-2 23q0 38 -35 80t-85 42h-14q-58 0 -108 -58t-50 -136v-24q0 -25 34 -25h59l5 1l128 9l5 1l9 1q55 0 55 58v24zM225 620q-95 0 -95 78
q0 17 26 58t124 92t220.5 51t188 -33.5t86.5 -33.5t102 34t164 34h34q142 0 245 -84q60 -49 92.5 -115t32.5 -114q0 -87 -59 -115q-42 -20 -230 -31.5t-206 -14.5q-65 -12 -65 -63q0 -78 53 -141.5t136 -63.5t196.5 43t126.5 43q34 0 34 -42q0 -66 -112.5 -128.5
t-245.5 -62.5h-34q-140 0 -276 84q-60 37 -67 37t-136 -60t-237 -60t-181.5 65.5t-73.5 167t102.5 181t285.5 116.5q58 12 90 27q54 26 54 83t-36 93t-97.5 36t-117.5 -67q-78 -94 -124 -94z" />
    <glyph glyph-name="ccedilla" unicode="&#xe7;" horiz-adv-x="956" 
d="M854 196q28 0 28 -37q0 -56 -154 -127q-102 -47 -208 -47h-10q-2 -7 -6 -15q-14 -36 -13.5 -38.5t51.5 -19.5q121 -40 121 -144l-1 -9q0 -66 -61 -118t-169 -52h-51q-18 2 -26 2q-85 0 -85 33q0 49 86 49q142 0 142 81q0 43 -63 61.5t-63 37.5q0 31 55 137
q-129 19 -231 114q-65 60 -97.5 140t-32.5 153v23q0 192 139 324q59 57 138 87.5t151 30.5h44q206 0 276 -49q46 -32 46 -214q0 -64 -34 -64t-145 111t-195 111t-139 -81.5t-55 -221.5t89 -229t234 -89q49 0 136.5 30t102.5 30z" />
    <glyph glyph-name="egrave" unicode="&#xe8;" horiz-adv-x="1008" 
d="M347 615q0 -40 77 -40h5l4 1l65 2q155 0 155 46l3 27v5l-1 5q0 59 -36.5 103t-76.5 44l-29 3l-5 -1q-63 0 -112.5 -58t-49.5 -128l1 -5v-4zM549 923h42q133 0 226.5 -93.5t93.5 -226.5q0 -81 -49 -100t-242.5 -33.5t-236.5 -29t-43 -94.5t70.5 -143t168.5 -63
q45 0 166 42.5t133 42.5q32 0 32 -37q0 -66 -119.5 -135t-246.5 -69h-45q-85 0 -165 32q-170 67 -235 233q-34 86 -34 168v45q0 89 39 174q82 178 262 251q89 36 183 36zM254 1332v14q0 11 28.5 32.5t65.5 21.5h17q63 0 135 -81q166 -187 166 -252q0 -26 -43 -26h-22
q-6 0 -227 155q-120 84 -120 136z" />
    <glyph glyph-name="eacute" unicode="&#xe9;" horiz-adv-x="1008" 
d="M655 661l-2 23q0 53 -43 90t-88 37h-15q-63 0 -112 -59t-49 -128v-4l1 -5q0 -39 44 -39h57l5 1l142 8l18 2q40 0 40 38q2 8 2 13l1 18zM570 924q145 0 236 -84q105 -96 105 -246q0 -70 -49.5 -90t-227 -33t-236 -26t-58.5 -95.5t70.5 -145.5t168.5 -63q55 0 166 42
t132 42q33 0 33 -37q0 -74 -126.5 -139t-240.5 -65h-45q-84 0 -164 32q-161 64 -228 215q-41 95 -41 186v45q0 86 38 174t111 156q142 132 356 132zM785 1351v-15q0 -32 -148.5 -164t-202.5 -132h-16q-47 0 -47 24v5q0 62 162 244q78 88 144 88h18q37 0 63.5 -20t26.5 -30z
" />
    <glyph glyph-name="ecircumflex" unicode="&#xea;" horiz-adv-x="1008" 
d="M523 813h-15q-62 0 -111.5 -58t-49.5 -119v-23q0 -35 45 -35h56l5 1l142 8l18 2q40 0 40 38l3 22v9l-1 5q0 61 -38 105.5t-94 44.5zM586 926q130 0 221 -84q47 -44 75.5 -110t28.5 -136.5t-49.5 -90t-226 -32.5t-236 -25.5t-59.5 -95.5t70.5 -146t168.5 -63q55 0 166 42
t133 42q32 0 32 -37q0 -66 -119.5 -135t-246.5 -69h-45q-85 0 -165 32q-170 67 -235 233q-34 86 -34 168v45q0 92 42 180.5t107 149.5q143 132 372 132zM512 1392h16q52 0 99 -51q193 -211 193 -266q0 -31 -52 -31h-8q-34 0 -138.5 88.5t-107.5 88.5l-117 -99
q-90 -76 -136.5 -76t-46.5 28v6q0 32 196 264q41 48 102 48z" />
    <glyph glyph-name="edieresis" unicode="&#xeb;" horiz-adv-x="1008" 
d="M656 642v23q0 58 -38.5 103t-91.5 45h-20q-60 0 -109.5 -58t-49.5 -121v-19q0 -37 51 -37h48l5 1l141 8l19 2q45 0 45 53zM567 926h21q203 0 292 -188q31 -66 31 -130v-20q0 -64 -49.5 -83t-247.5 -33.5t-228 -26.5q-45 -17 -45 -95.5t69.5 -143t165.5 -64.5
q56 0 168.5 42.5t132.5 42.5q32 0 32 -35q0 -68 -120 -137t-265 -69h-23q-199 0 -329 144q-107 118 -107 321t146 339t356 136zM197 1221q0 37 39 69.5t86 32.5h4l4 -1h8l16 -2q21 0 54 -27.5t33 -62.5l3 -24v-8q0 -49 -36 -85t-83 -36h-24q-42 0 -74 32t-32 71v29q2 8 2 12
zM838 1198q0 -42 -33 -81.5t-86 -39.5h-25q-12 3 -28 3t-46.5 30.5t-30.5 69.5v25q0 52 40 85t82 33h17q38 0 72.5 -29t34.5 -63l3 -25v-8z" />
    <glyph glyph-name="igrave" unicode="&#xec;" horiz-adv-x="657" 
d="M159 0q-84 0 -84 46q0 25 50 64.5t60 69.5q23 69 23 270t-16.5 247t-66.5 81t-50 59t18 36q69 45 304 45h26q38 0 44 -60v-119l-1 -32v-64l-1 -16v-32q0 -275 22 -394q9 -50 53 -91.5t44 -66.5q0 -43 -99 -43h-29l-14 1h-195l-45 -1h-43zM60 1330v15q0 11 28.5 32.5
t70.5 21.5h6q79 0 149 -90q158 -203 158 -243q0 -27 -58.5 -27t-206 131.5t-147.5 159.5z" />
    <glyph glyph-name="iacute" unicode="&#xed;" horiz-adv-x="657" 
d="M161 0q-83 0 -83 35v11q0 25 51 65t66.5 96t15.5 250t-14.5 235t-66.5 84.5t-52 56.5v12q0 17 17 28q71 45 305 45h26q45 0 45 -74v-74l-2 -63v-32l-1 -32v-169t15 -237.5t59.5 -126.5t44.5 -67q0 -43 -99 -43h-29l-15 1h-194l-60 -1h-29zM596 1348v-15
q0 -45 -160.5 -170t-192.5 -125h-10l-6 1q-45 0 -45 20v14q0 20 25 56q110 157 149 196q74 74 127 74h23q38 0 64 -20t26 -31z" />
    <glyph glyph-name="icircumflex" unicode="&#xee;" horiz-adv-x="657" 
d="M160 0q-84 0 -84 47q0 26 51 64.5t66.5 93.5t15.5 250.5t-16.5 241.5t-66 80.5t-49.5 60t17 35.5q77 46 318 46q45 0 54 -47v-277q0 -275 22 -394q9 -50 53 -91.5t44 -66.5q0 -43 -113 -43h-15l-14 1h-74l-30 1h-30l-30 -1h-31l-59 -1h-29zM320 1383h16q51 0 97 -50
q190 -207 190 -262q0 -31 -51 -31h-7q-38 0 -133 87.5t-109 87.5q-1 0 -103.5 -86.5t-147 -86.5t-44.5 27v7q0 49 198 265q39 42 94 42z" />
    <glyph glyph-name="idieresis" unicode="&#xef;" horiz-adv-x="660" 
d="M150 2q-71 0 -71 46q0 24 49 63t61 70q24 64 24 269t-16.5 249t-66.5 79t-50 61t17 36q75 45 304 45h14q45 0 54 -47q1 -5 1 -294t24 -389q11 -44 53 -81.5t42 -63.5q0 -43 -72 -43h-100l-15 1h-105l-60 -1h-87zM10 1202l3 23q0 24 33.5 57.5t69.5 33.5l8 2h28l23 -4
q22 0 51.5 -29.5t29.5 -70.5v-28q0 -46 -38 -77.5t-64 -31.5l-20 -3h-17q-38 0 -73 29.5t-35 78.5v16zM508 1074q-44 0 -76 32t-32 72v24q3 12 3 29t35 52t77 35h28q12 -3 27.5 -3t44.5 -29t29 -56l3 -20v-20q0 -43 -34.5 -77.5t-64.5 -34.5l-28 -4h-12z" />
    <glyph glyph-name="eth" unicode="&#xf0;" horiz-adv-x="1147" 
d="M394 483v-54q0 -134 48 -236.5t133 -102.5h16q66 0 115 79.5t49 202.5l2 21l1 33v55q0 169 -51.5 243.5t-131.5 74.5l-8 -1q-74 0 -123.5 -87t-49.5 -228zM625 902q60 0 60 56t-37 91.5t-72 35.5t-83.5 -11t-72.5 -11q-57 0 -57 43q0 16 37 52t37 63.5t-62 84t-62 86.5
t58.5 30t154 -44t127 -44t95 22.5t73.5 22.5q66 0 66 -40q0 -17 -34.5 -60.5t-34.5 -69.5q0 -6 72.5 -129t110 -235t37.5 -260q0 -429 -292 -565q-92 -42 -196 -42h-28q-171 0 -288 113t-117 307q0 234 154 380q79 75 159 99.5t195 24.5z" />
    <glyph glyph-name="ntilde" unicode="&#xf1;" horiz-adv-x="1214" 
d="M53 46q0 48 49 76t59 60q18 58 18 318q0 123 -27 193q-9 24 -44 58t-35 62.5t45 46.5q130 52 249 52q40 0 55 -27q2 -3 13 -37.5t22 -34.5q17 0 65 32q111 73 186 73h28q74 0 136.5 -33t100.5 -92q56 -86 56 -287l-4 -120q0 -158 13.5 -194.5t63 -74t49.5 -51.5v-21
q0 -40 -101 -40h-59q-151 0 -218 12t-67 45q0 7 15.5 41t30 121.5t14.5 237t-22 210.5q-32 88 -119 88q-53 0 -100 -31t-64 -65q-17 -32 -17 -140v-137l-3 -89q0 -98 51 -185q15 -26 15 -49q0 -33 -83.5 -44t-299.5 -11q-71 0 -71 37zM483 1317q46 0 136.5 -42.5t126 -42.5
t79.5 44t58 44h8q40 0 40 -24v-9q0 -83 -84 -160q-50 -46 -114 -46t-155.5 43t-125 43t-77.5 -44t-59 -44h-7q-40 0 -40 25v8q0 78 63.5 141.5t150.5 63.5z" />
    <glyph glyph-name="ograve" unicode="&#xf2;" horiz-adv-x="1107" 
d="M725 395v79l-1 11l-1 22q-1 11 -1 22q0 129 -66 224q-44 64 -109 64h-8q-79 0 -124 -90t-45 -246v-11l1 -12q0 -164 50 -263.5t130 -99.5h17q71 0 114 86.5t43 213.5zM80 392v48q0 92 37 186q71 182 263 260q88 36 192 36h15q179 0 303 -117q59 -56 92 -137t33 -165v-32
q0 -210 -143 -346q-143 -135 -348 -135h-16q-178 0 -297 108q-61 55 -96 138t-35 156zM658 1041h-22q-53 0 -200.5 131t-147.5 165v4q0 16 29 37.5t71 21.5h12q54 0 128 -74t123 -155.5t49 -98.5v-10q0 -21 -42 -21z" />
    <glyph glyph-name="oacute" unicode="&#xf3;" horiz-adv-x="1107" 
d="M370 492v-33q0 -164 50 -264t131 -100h16q71 0 114.5 87t43.5 225v67q0 146 -49.5 244.5t-120.5 98.5h-17l-8 -1q-70 0 -115 -89.5t-45 -234.5zM572 922h15q186 0 307 -121t121 -314v-16q0 -91 -36 -183q-74 -187 -262 -263q-86 -35 -193 -35h-16q-201 0 -315 125.5
t-114 308.5l1 16q0 91 38 188q71 181 262 258q88 36 192 36zM706 1401h23q38 0 64.5 -20.5t26.5 -35.5l-1 -5v-5q0 -31 -148.5 -163t-198.5 -132h-16q-51 0 -51 25v5q0 61 155 235q85 96 146 96z" />
    <glyph glyph-name="ocircumflex" unicode="&#xf4;" horiz-adv-x="1107" 
d="M371 449l2 -55q0 -129 54.5 -213.5t123.5 -84.5h8q76 0 120 82t44 197l2 22v78q0 140 -47.5 241.5t-122.5 101.5h-25q-73 0 -116.5 -93t-43.5 -243v-22zM80 394v64q0 94 44 184q84 174 243 240q101 41 189 41h31l16 -1q83 0 165 -35q159 -67 219 -233q28 -76 28 -149v-33
q0 -194 -132 -333q-67 -71 -157.5 -109t-185.5 -38h-48q-80 0 -160 32q-155 63 -217 212q-35 83 -35 158zM802 1045h-15q-33 0 -127.5 87t-108.5 87q-3 0 -51 -41q-153 -132 -199 -132t-46 27v7q0 46 205 270q33 36 94.5 36t101.5 -44q197 -215 197 -267q0 -30 -51 -30z" />
    <glyph glyph-name="otilde" unicode="&#xf5;" horiz-adv-x="1107" 
d="M371 447l2 -54q0 -129 54.5 -213.5t123.5 -84.5h16q71 0 113.5 85t42.5 193l2 22v79q0 146 -49.5 244.5t-128.5 98.5h-8q-79 0 -124 -90t-45 -246v-22zM80 392v65q0 95 44 185q83 173 256 244q88 36 192 36h15q186 0 312 -126q55 -55 85.5 -137t30.5 -156v-32
q0 -100 -41 -195q-77 -178 -257 -251q-86 -35 -193 -35h-16q-179 0 -297 108q-62 56 -96.5 138t-34.5 156zM224 1103v17q0 75 66 135.5t148 60.5q46 0 136.5 -42.5t127 -42.5t76.5 43.5t59 43.5h16q32 0 32 -23v-9q0 -90 -83 -160q-54 -46 -116 -46t-153.5 43t-125 43
t-77.5 -44t-59 -44h-8q-39 0 -39 25z" />
    <glyph glyph-name="odieresis" unicode="&#xf6;" horiz-adv-x="1107" 
d="M371 494v-44q0 -153 50 -252.5t122 -99.5h25q71 0 114.5 87t43.5 224v67q0 139 -47.5 241t-122.5 102h-25q-74 0 -117 -92.5t-43 -232.5zM541 -7h-48q-84 0 -164 34q-165 70 -223 237q-26 75 -26 163l1 16q0 195 135 336q66 69 159 107t182 38h47q80 0 160 -34
q154 -65 219 -221q33 -81 33 -180l-1 -16q0 -195 -131 -333q-67 -71 -157.5 -109t-185.5 -38zM234 1182v25q0 45 36 81t82 36h25q41 0 72 -31t31 -61l3 -24v-9q0 -54 -40 -87.5t-83 -33.5h-16q-38 0 -74 30t-36 74zM629 1207l2 20q0 28 33.5 61.5t69.5 33.5l9 2h28
q46 0 76 -36t30 -72v-21q-3 -12 -3 -26t-32 -52.5t-92 -38.5h-8q-43 0 -78.5 29.5t-35.5 78.5v17z" />
    <glyph glyph-name="divide" unicode="&#xf7;" horiz-adv-x="1179" 
d="M603 356q50 0 85.5 -43t35.5 -86v-17q0 -44 -34 -78t-70 -34h-20q-51 0 -86.5 42.5t-35.5 94.5t33 85t60 33l20 3h12zM932 668q108 0 128.5 -6t20.5 -47v-43q0 -62 -25 -67t-369 -5h-325q-197 0 -219 6t-22 59v21l1 11q0 67 35 67l470 4h305zM479 943l2 20
q0 30 38.5 68.5t79.5 38.5h20q33 0 69.5 -30.5t36.5 -77.5v-26q0 -51 -42.5 -86.5t-81.5 -35.5h-16q-40 0 -73.5 33.5t-33.5 78.5v13z" />
    <glyph glyph-name="oslash" unicode="&#xf8;" horiz-adv-x="1144" 
d="M467 180v-17q0 -18 31 -42.5t64 -24.5h33q73 0 127 85t54 182l3 31l3 46v51l-1 7l-1 27l-4 41q0 48 -17 48q-11 0 -67.5 -88.5t-91 -136.5t-84 -125.5t-49.5 -83.5zM384 359q0 -52 15 -52q8 0 37 46t60 88q199 274 199 304v6q0 22 -31 46t-73 24h-13q-77 0 -136.5 -85
t-59.5 -212l-2 -16l-1 -30v-58l1 -7l3 -40q1 -7 1 -14zM112 387v40q0 103 44 202.5t117 165t162 98.5t222 33l119 -15q56 0 91 29q68 57 94 57q42 0 42 -70q0 -6 -24 -46t-24 -64t26 -69.5t33 -62.5q35 -86 35 -191q0 -218 -149 -361t-380 -143q-36 0 -87.5 9t-78.5 9
t-84.5 -45.5t-74.5 -45.5q-47 0 -47 52q0 18 29.5 64.5t29.5 69.5q0 21 -25 63q-70 117 -70 221z" />
    <glyph glyph-name="ugrave" unicode="&#xf9;" horiz-adv-x="1188" 
d="M421 413q0 -134 32 -202t117 -68q51 0 93.5 29.5t59 64t16.5 218t-14 225.5t-45 90t-31 63.5t21 29.5q67 45 287 45q44 0 51 -16t7 -77l-3 -77q-1 -35 -5.5 -156.5t-4.5 -209.5t14.5 -141t57 -81.5t42.5 -55.5q0 -33 -60 -54q-106 -37 -233 -37q-41 0 -58 26l-16 40
q-11 23 -23 23q-10 0 -48 -26q-117 -79 -226 -79q-63 0 -124 27q-71 31 -119 108.5t-48 313t-14.5 279.5t-62.5 70.5t-48 59.5t47 45.5t214 12.5q77 0 98 -37.5t21 -224.5l2 -56q1 -29 1 -86l1 -28q1 -29 1 -58zM312 1336v10q0 12 31 32.5t64 20.5h17q61 0 142 -91
q158 -178 158 -243q0 -24 -38 -24l-11 -2h-11q-58 0 -247 168q-105 93 -105 129z" />
    <glyph glyph-name="uacute" unicode="&#xfa;" horiz-adv-x="1188" 
d="M421 412q0 -134 28 -193q36 -76 121 -76q51 0 93.5 29.5t59 64t16.5 218t-14 225.5t-45 90t-31 63.5t21 29.5q67 45 287 45q44 0 51 -16t7 -77l-3 -77q-10 -260 -10 -357.5t15 -150.5t57 -80t42 -58t-60 -52q-106 -37 -233 -37q-42 0 -58 25l-16 41q-11 23 -23 23
t-46.5 -24t-89 -52t-130.5 -28q-168 0 -247 128q-52 84 -52 319.5t-14.5 279t-62.5 70t-48 60t47 46t214 12.5q77 0 98 -38.5t21 -223.5l2 -56q1 -29 1 -86l1 -29q1 -29 1 -58zM497 1038h-5l-6 1q-46 0 -46 23l1 5v5q0 58 169 248q71 80 148 80q42 0 74 -24q22 -17 22 -32
v-5l-1 -5q0 -33 -148 -164.5t-208 -131.5z" />
    <glyph glyph-name="ucircumflex" unicode="&#xfb;" horiz-adv-x="1188" 
d="M421 413q0 -134 28 -193q36 -76 121 -76q51 0 93.5 29.5t59 64t16.5 218t-13.5 224.5t-45 89.5t-31.5 64.5t21 30q65 44 287 44h23q35 0 35 -92l-3 -78q-1 -39 -5.5 -158t-4.5 -220.5t18.5 -144t57 -67t38.5 -53.5q0 -35 -60 -55q-113 -37 -233 -37q-41 0 -58 26l-16 41
q-11 23 -23 23t-46.5 -24t-89 -52t-129.5 -28h-27q-78 0 -140 44t-97.5 113.5t-35.5 297.5t-14.5 271.5t-62.5 70t-48 60t47 46t214 12.5q77 0 98 -38.5t21 -223.5l2 -56q1 -29 1 -86l1 -29q1 -29 1 -58zM828 1045h-8q-33 0 -136 87.5t-106.5 87.5t-106.5 -87t-148 -87
t-45 28v7q0 49 195 260q44 48 108 48t112 -57q185 -219 185 -256v-7q0 -24 -50 -24z" />
    <glyph glyph-name="udieresis" unicode="&#xfc;" horiz-adv-x="1188" 
d="M36 836q0 46 55.5 56.5t173 10.5t136 -48.5t18.5 -299.5t26 -323q31 -87 112 -87q55 0 103.5 29t63.5 70t15 211.5t-14.5 227.5t-45 95t-30.5 51q0 34 53 50q102 31 242 31h25q46 0 46 -80q0 -39 -7 -169.5t-7 -258.5t15.5 -175t42.5 -68q53 -41 53 -54v-19
q0 -32 -68 -50q-118 -32 -235 -32q-35 0 -50 36q-23 55 -42 55q-1 1 -41 -27q-113 -76 -203 -77h-26q-69 0 -135.5 34t-109 109.5t-42.5 310t-22 290.5q-10 25 -56 53t-46 48zM256 1234.5q0 17.5 35.5 53t92.5 35.5l4 -1h9l15 -2q27 0 58.5 -31.5t31.5 -74.5v-20
q-3 -15 -3 -21q0 -32 -39 -64.5t-89 -32.5l-4 1h-8l-15 2q-29 0 -60 31t-31 74v21q3 12 3 29.5zM753 1077q-41 0 -72 31t-31 60l-3 25v4l1 4q0 43 33 82.5t89 39.5h17q44 0 76.5 -32.5t32.5 -71.5v-29q-2 -8 -2 -12q0 -37 -37.5 -68t-67.5 -31l-8 -2h-28z" />
    <glyph glyph-name="yacute" unicode="&#xfd;" horiz-adv-x="1090" 
d="M72 -316q0 49 111 65.5t152 52.5q85 75 85 182t-169 501q-76 178 -97 210q-92 143 -92 162q0 50 141 50l56 2q57 2 88 2h29q82 0 109 -29q13 -14 13 -28.5t-19.5 -48t-19.5 -56.5t60 -230t81 -207q31 0 108 242q28 88 28 158t-6.5 88t-19.5 42t-13 35q0 33 132 33
q194 0 194 -49q0 -32 -50 -83t-66 -83t-186.5 -447.5t-224.5 -504.5q-118 -194 -244 -194h-26q-53 0 -103.5 38.5t-50.5 96.5zM425 1063v10q0 60 166 247q76 86 148 86h6l5 -1q44 0 68.5 -21.5t24.5 -38.5l-1 -5q0 -36 -109 -133q-189 -168 -249 -168h-11q-48 0 -48 24z" />
    <glyph glyph-name="thorn" unicode="&#xfe;" horiz-adv-x="1213" 
d="M484 279q0 -72 44 -120t116 -48l8 1q80 0 128.5 90t48.5 216v65q-2 20 -2 31q0 115 -53.5 192t-125.5 77h-8q-70 0 -112.5 -50.5t-42.5 -132.5q-2 -18 -2 -27l-4 -92v-103l1 -10l3 -71q1 -9 1 -18zM82 1268v22q0 18 28 32q108 55 292 55q41 0 55 -27.5t14 -124.5l-2 -118
l-1 -30l-3 -58q-1 -29 -1 -79.5t24 -50.5t102 26t151 26t141.5 -36t117.5 -96q100 -121 100 -336.5t-131 -357t-319 -141.5q-32 0 -61 5l-29 6l-51 13q-34 0 -43.5 -22t-9.5 -113t28.5 -134.5t84.5 -78t56 -57.5q0 -41 -66 -41h-60q-20 0 -72 2.5t-84 3.5l-59 3q-59 3 -89 3
q-100 0 -100 39q0 22 22 51l42 47q20 31 42 184t22 608v64l-1 32v63l-4 189q0 210 -36 314q-11 32 -55.5 66.5t-44.5 46.5z" />
    <glyph glyph-name="ydieresis" unicode="&#xff;" horiz-adv-x="1108" 
d="M247 -404q-50 0 -99.5 37.5t-49.5 92t103 62.5t143 43q84 74 84 187q0 78 -159 475q-68 171 -92 206q-91 135 -91 159q0 32 53 47q33 9 158 9l56 2h28q126 0 126 -54q0 -8 -20 -41t-20 -56t47.5 -185.5t65.5 -200.5t34 -38q7 0 22 32q101 220 101 378q0 55 -16.5 88
t-16.5 40q0 35 118 35q188 0 188 -48q0 -30 -47.5 -83t-67.5 -93t-171 -416.5t-209 -476.5q-117 -201 -243 -201h-25zM272 1172v25q0 51 40 84t82 33h13q12 -3 31.5 -3t50.5 -31t31 -75v-20q-3 -12 -3 -29.5t-35 -52.5t-89 -35h-8l-4 1h-8q-8 2 -11 2q-33 0 -61.5 34.5
t-28.5 66.5zM919 1165q0 -33 -38.5 -65t-85.5 -32h-4l-4 1h-8l-15 2q-28 0 -59 31t-31 70v29q2 6 2 11q0 31 35.5 66.5t80.5 35.5h20q39 0 74.5 -30t35.5 -78v-21q-3 -12 -3 -20z" />
    <glyph glyph-name="dotlessi" unicode="&#x131;" horiz-adv-x="700" 
d="M98 46q0 23 49 60t67 85t18 253.5t-16.5 251t-66 83t-49.5 61t16 33.5q78 47 304 47h13q44 0 53 -48v-276q0 -282 24 -407q9 -44 52 -82.5t43 -63.5q0 -44 -111 -44l-14 1h-74l-15 1h-59l-45 -1h-31l-59 -1h-15q-84 0 -84 47z" />
    <glyph glyph-name="Lslash" unicode="&#x141;" horiz-adv-x="1300" 
d="M172 475q-48 0 -48 83q0 15 58.5 66.5t66.5 73.5q24 67 24 268.5t-25 239.5q-7 11 -68.5 47.5t-61.5 74.5t125 38h102l34 -1h33q170 0 197 -4q78 -12 78 -50q0 -26 -44 -70t-57 -98t-13 -189q0 -67 23 -67q4 0 78 33t118 33q28 0 28 -49t-107.5 -125.5t-132.5 -123
t-25 -230.5t45 -250q33 -48 148 -48t209 49q57 30 131.5 120.5t133.5 90.5q33 0 33 -60t-41 -221q-13 -53 -38 -71q-40 -30 -351 -30l-74 -2l-411 -2q-112 0 -136 6q-47 12 -47 55q0 12 38.5 55.5t50 94t11.5 212.5q0 59 -29 59q-48 -8 -56 -8z" />
    <glyph glyph-name="lslash" unicode="&#x142;" horiz-adv-x="754" 
d="M660 907q0 -45 -67.5 -106.5t-80 -94t-12.5 -127.5q0 -206 51 -382q14 -49 52.5 -87.5t38.5 -58.5q0 -40 -45 -47.5t-182 -7.5h-25l-24 1q-165 0 -190.5 8.5t-25.5 32.5t28 72t32 60q20 55 20 205l2 21q2 29 2 41q0 95 -42 95q-24 -3 -48 -3q-57 0 -57 50.5t64 101.5
t77.5 87.5t13.5 204.5t-15.5 210.5t-66 91t-50.5 74.5q0 32 57 44q133 29 262 29q48 0 60.5 -50t12.5 -299q0 -136 47 -136l81 15q30 0 30 -45z" />
    <glyph glyph-name="OE" unicode="&#x152;" horiz-adv-x="2039" 
d="M753 1254q-154 0 -253.5 -147t-99.5 -404l1 -18q0 -260 104 -412.5t270 -152.5q125 0 171.5 85t46.5 283q2 30 2 46l2 78v126q0 297 -40 397q-48 119 -175 119h-29zM1530 1365q342 0 342 -198q0 -49 -28 -49l-53 25q-63 30 -82 36q-97 33 -222 33q-76 0 -112 -60
q-54 -89 -54 -254q0 -80 71 -80q62 0 90.5 14.5t56 57.5t59.5 43q44 0 60 -66.5t16 -219t-37 -152.5q-45 0 -109.5 58t-150.5 58q-35 0 -52.5 -26.5t-17.5 -164t43.5 -200.5t153 -63t176 24.5t133 68.5t93.5 44q19 0 19 -49.5t-28 -107.5t-94 -85q-101 -42 -435 -42
q-91 0 -133 3l-123 10q-64 0 -176.5 -15t-213 -15t-222.5 42t-214 132q-194 190 -194 509q0 322 190 512q189 189 498 189h3q97 0 196 -13t120 -13l38 6q39 5 82 5l44 -1l46 -2l86 4q57 2 135 2z" />
    <glyph glyph-name="oe" unicode="&#x153;" horiz-adv-x="1655" 
d="M359 518v-65q0 -147 51 -248.5t132 -101.5h8q78 0 118.5 87t40.5 240v44q0 158 -45 254.5t-121 96.5h-25q-62 0 -110.5 -84.5t-48.5 -222.5zM1052 578h42l5 1l152 9l5 1l9 1q48 0 48 51v19q0 57 -37 109t-99 52h-20q-56 0 -105 -57.5t-49 -113.5l-3 -15v-14l1 -4
q0 -39 51 -39zM566 915h3q120 0 235 -73q38 -24 64 -24l1 -1q25 0 59 21t97.5 47.5t164.5 26.5q172 0 279 -101t107 -232q0 -75 -48.5 -97t-211.5 -31l-112 -4q-107 -4 -135 -9q-66 -12 -66 -69q0 -94 66 -151.5t145 -57.5t189 45t129 45q31 0 31 -34q0 -22 -40 -67
t-131 -88.5t-204 -43.5t-169.5 23t-95.5 46t-57.5 23t-63 -23t-75.5 -36q-91 -37 -195 -37h-30q-94 0 -180 40q-176 81 -239 251q-25 68 -25 157q0 191 135.5 322.5t344.5 131.5h28z" />
    <glyph glyph-name="Scaron" unicode="&#x160;" horiz-adv-x="1167" 
d="M133 395q30 0 114 -101t127 -130q83 -56 186.5 -56t170.5 51.5t67 145t-98 162.5q-42 30 -225.5 112.5t-257.5 156.5q-107 107 -107 262t121 268t324 113q75 0 165 -17.5t166 -17.5t97 -59t21 -169t-39 -110q-33 0 -117 88t-109 105q-76 51 -167 51t-151 -50.5
t-60 -114.5q0 -95 84 -159q31 -23 237.5 -115t277.5 -167q100 -106 100 -258q0 -90 -40 -169q-80 -159 -258 -214q-87 -27 -184 -27h-38q-58 0 -155 22.5t-174 22.5t-100 51q-31 67 -31 217v34q0 72 53 72zM264 1764v14q0 27 47 27h8q39 0 150 -79t116 -79q5 1 50 33l74 53
q9 7 14 10q102 61 142 61t40 -28v-7q0 -39 -199 -238q-55 -55 -110 -55h-25q-48 0 -103 51q-204 188 -204 237z" />
    <glyph glyph-name="scaron" unicode="&#x161;" horiz-adv-x="904" 
d="M111 281q35 0 110 -72.5t112 -93t99.5 -20.5t106.5 26t44 81t-61 93q-36 22 -169 73.5t-198.5 115t-65.5 172.5t91.5 190.5t251.5 81.5h27q34 0 94 -11.5t119 -11.5t80.5 -33.5t21.5 -169.5q0 -45 -47 -45q-27 0 -114 79t-151.5 79t-108.5 -24t-44 -75.5t69 -90.5
q9 -5 147 -59t192 -98q96 -78 96 -196t-94 -204t-246 -86h-27q-52 0 -138 15t-132 17t-60 10q-47 27 -47 182q0 75 42 75zM146 1357v13q0 26 59 26q35 0 140.5 -89t112.5 -89t103 89t146.5 89t50.5 -23v-13q0 -35 -192 -262q-46 -54 -107 -54h-17q-53 0 -101 52
q-195 211 -195 261z" />
    <glyph glyph-name="Ydieresis" unicode="&#x178;" horiz-adv-x="1389" 
d="M407 1369q195 0 195 -46q0 -8 -22 -37.5t-22 -65.5q0 -93 146 -390q45 -91 60 -91q44 0 144 241q62 149 62 228q0 28 -24 67t-24 50q0 45 125 45l33 -1h33q120 0 181 -15q35 -9 35 -42q0 -18 -122 -113q-43 -33 -110 -148q-184 -314 -222.5 -409.5t-38.5 -178.5
q0 -191 41 -282q16 -36 66.5 -70.5t50.5 -74.5q0 -35 -335 -35l-97 -1h-97q-78 0 -78 37q0 24 54.5 67t67.5 81q36 102 36 229.5t-109 329.5t-172 307t-113 149q-90 78 -90 123l13 15q37 31 333 31zM498 1496q-43 0 -77.5 28.5t-34.5 78.5v25q3 12 3 20q0 38 37.5 69.5
t88.5 31.5h5l4 -1q47 0 81.5 -28.5t34.5 -77.5v-26q0 -50 -33.5 -83.5t-70.5 -33.5l-25 -3h-13zM942 1497h-29q-42 0 -76 28.5t-34 80.5v21q0 57 39 89.5t89 32.5h9q54 0 86 -32t32 -78v-21q0 -45 -32 -83t-84 -38z" />
    <glyph glyph-name="Zcaron" unicode="&#x17d;" horiz-adv-x="1325" 
d="M608 137q214 0 335 47q72 28 135 95q107 114 132 114q44 0 44 -49q0 -91 -42 -243q-14 -51 -51 -75t-564 -24l-365 -1h-39q-47 0 -73 15.5t-26 73t361.5 568.5t361.5 551q0 25 -150 25t-264 -46q-57 -23 -136.5 -106t-102.5 -83q-45 0 -45 104t22 167t45.5 79t487.5 16
l240 1h78q114 0 147 -8q47 -12 47 -68.5t-49 -138t-160 -235t-309 -437.5t-198 -308q0 -34 138 -34zM677 1481h-17q-48 0 -103 51q-208 192 -208 244q0 33 50 33h7q60 0 212 -121q46 -37 55.5 -37t53 34t105.5 78.5t113 44.5t51 -32q0 -18 -29 -50q-182 -198 -209.5 -221.5
t-80.5 -23.5z" />
    <glyph glyph-name="zcaron" unicode="&#x17e;" horiz-adv-x="1017" 
d="M417 162q0 -29 99 -29t156 21t127 85t109 64q32 0 32 -37q0 -81 -35 -199q-12 -40 -31 -50t-398 -10h-167l-84 -1h-58q-52 0 -73 14.5t-21 54.5q0 61 247.5 370.5t247.5 339.5t-93.5 30t-142 -19.5t-113 -82t-99.5 -62.5t-35 62q0 125 34 197q15 31 47 31l24 -1
q32 -1 53.5 -2t105.5 -1l195 -1q277 0 303 -5q47 -9 47 -59.5t-49 -133.5q-6 -10 -217 -287.5t-211 -288.5zM514 1072h-17q-53 0 -95 45q-204 221 -204 267v6q0 31 61 31q33 0 131 -77q7 -5 58 -52.5t56 -47.5q11 0 107 88t151 88t55 -32q0 -49 -208 -274q-39 -42 -95 -42z
" />
    <glyph glyph-name="florin" unicode="&#x192;" horiz-adv-x="1113" 
d="M178 -355h-27q-71 0 -122 30.5t-51 67t29.5 65t53 28.5t61.5 -19.5t72 -19.5q73 0 114 157q69 259 69 604q0 84 -45 129t-45 82t55.5 72t73.5 64t42 91.5t36 91.5q87 201 248 274q72 32 144.5 32t137 -35t64.5 -92q0 -37 -24 -64t-53 -27t-76 37.5t-84 37.5
q-63 0 -102 -83t-39 -206q0 -70 72 -106q94 -47 94 -80t-90.5 -71t-110.5 -82q-9 -22 -43 -227q-34 -204 -70 -338q-68 -247 -203 -346q-92 -67 -181 -67z" />
    <glyph glyph-name="circumflex" unicode="&#x2c6;" horiz-adv-x="831" 
d="M410 1415h17q59 0 106 -55q191 -226 191 -259v-6q0 -24 -52 -24h-8q-44 0 -146 87q-100 87 -106 87q-6 -1 -53 -43q-142 -130 -198 -130q-55 0 -55 25v7q0 45 202 264q43 47 102 47z" />
    <glyph glyph-name="caron" unicode="&#x2c7;" horiz-adv-x="871" 
d="M450 1084h-25q-57 0 -104 51q-202 219 -202 262v7q0 28 55 28h8q43 0 145 -87.5t108.5 -87.5t108.5 87.5t150 87.5l8 -1h8q42 0 42 -25v-6q0 -44 -201 -262q-50 -54 -101 -54z" />
    <glyph glyph-name="uni02C9" unicode="&#x2c9;" horiz-adv-x="860" 
d="M736 1267v-53q0 -53 -15.5 -57t-296.5 -4h-92l-23 -1h-136q-48 0 -48 37v54q0 49 9 55t57 6h503q42 0 42 -37z" />
    <glyph glyph-name="breve" unicode="&#x2d8;" horiz-adv-x="879" 
d="M451 1079h-29q-109 0 -186 65q-110 93 -110 192v16q0 28 39 28h16q22 0 66 -52t87.5 -75t105.5 -23q120 0 191 92q42 55 82 55t40 -27v-8q0 -102 -108 -193q-83 -70 -194 -70z" />
    <glyph glyph-name="dotaccent" unicode="&#x2d9;" horiz-adv-x="817" 
d="M400 1382h14q55 0 93.5 -32t38.5 -89v-5q0 -65 -42 -95t-92 -30h-9q-56 0 -94 31.5t-38 81.5v21q0 52 39 84.5t90 32.5z" />
    <glyph glyph-name="ring" unicode="&#x2da;" horiz-adv-x="827" 
d="M336 1307v-18q0 -44 28.5 -72.5t47.5 -28.5l16 -3h17q34 0 59.5 31.5t25.5 51.5l3 21v22q-3 9 -3 25t-28 44t-67 28l-3 -1h-7l-13 -2q-18 0 -47 -29t-29 -69zM476 1486q72 0 124.5 -59t52.5 -127l-1 -7q0 -76 -63.5 -132.5t-152.5 -56.5h-7q-85 0 -149 51t-64 124v27
q0 67 63.5 124.5t146.5 57.5h29q14 -2 21 -2z" />
    <glyph glyph-name="ogonek" unicode="&#x2db;" horiz-adv-x="837" 
d="M505 22h23q28 0 28 -12q0 -3 -31 -40t-56.5 -73.5t-25.5 -88t30 -78.5t81 -27l48 4l35 2q36 0 36 -31v-13q0 -19 -27 -37q-65 -43 -133 -43l-17 -2h-36q-86 0 -138 52t-52 109v32q0 71 80.5 158.5t154.5 87.5z" />
    <glyph glyph-name="tilde" unicode="&#x2dc;" horiz-adv-x="869" 
d="M99 1154v17q0 70 63 133t135 63h9l9 -1q45 0 136.5 -43t132 -43t80 43t72.5 43t33 -23v-8q0 -67 -58.5 -136.5t-131.5 -69.5h-26q-52 0 -139 43.5t-126.5 43.5t-82.5 -43t-74.5 -43t-31.5 24z" />
    <glyph glyph-name="hungarumlaut" unicode="&#x2dd;" horiz-adv-x="896" 
d="M203 1097h-21q-36 0 -36 23v5q0 52 164 263q67 86 128 86h16q79 0 79 -51v-5q0 -28 -146.5 -174.5t-183.5 -146.5zM560 1095h-17q-46 0 -46 31l1 6v5q0 56 165 268q54 70 129 70h11q37 0 64.5 -21.5t27.5 -41.5l-1 -5v-5q0 -28 -184 -212q-95 -95 -150 -95z" />
    <glyph glyph-name="uni03A9" unicode="&#x3a9;" horiz-adv-x="1557" 
d="M89 188q0 91 44 91l32 -19l64 -46q49 -24 127.5 -24t78.5 39q0 4 -93.5 104t-146 207.5t-52.5 243.5q0 264 173 428q187 177 483 177q141 0 258 -45t197 -121q164 -156 164 -409t-187 -456q-126 -136 -126 -140q0 -28 94.5 -28t174.5 50l31 22l24 14q36 0 36 -74
t-74 -159q-32 -37 -108 -37h-47l-46 1h-47q-152 0 -192 21.5t-40 72.5t83 195.5t117 249t34 220.5q0 340 -187 452q-77 46 -168 46q-183 0 -278.5 -138t-95.5 -379q0 -121 34.5 -222.5t113 -232t78.5 -190.5t-47 -78t-214 -18h-46q-118 0 -155 20t-64 67t-27 95z" />
    <glyph glyph-name="uni03BC" unicode="&#x3bc;" horiz-adv-x="1236" 
d="M293.5 925q98.5 0 121.5 -30.5t23 -166.5l-1 -32q-1 -33 -1 -67l-2 -132q0 -212 24 -266q41 -92 139 -92q44 0 93.5 32t65 85.5t15.5 241.5t-8 265.5t-8 79.5q0 43 50.5 63.5t122.5 20.5t106 -80q13 -31 13 -271t11.5 -297t48 -112.5t36.5 -84.5t-44.5 -55t-106.5 -26
t-123.5 26.5t-130.5 26.5q-4 0 -73.5 -25.5t-145.5 -25.5t-98 -29t-22 -123l2 -62l1 -63q0 -93 -36.5 -126.5t-106.5 -33.5t-86.5 29t-16.5 171l10 235l1 69v68l2 134q0 249 -2.5 285t-16.5 129l-22 142q0 60 33.5 78.5t132 18.5z" />
    <glyph glyph-name="pi" unicode="&#x3c0;" horiz-adv-x="1234" 
d="M83 737q0 37 26 66q60 65 157 92t368 27l148 5q89 3 120.5 3t87.5 3l53 3l25 2h22q52 0 52 -58t-46 -107q-14 -15 -62.5 -41t-65 -59.5t-16.5 -217.5t27 -240.5t60 -65.5q65 -18 65 -39q0 -29 -37 -54q-78 -53 -150 -53q-189 0 -189 364l14 293q0 52 -25.5 72t-112 20
t-107.5 -42q-7 -12 -17 -118q-29 -287 -84 -454q-19 -58 -39 -79q-40 -43 -101 -43q-92 0 -92 47q0 19 44 109q102 210 102 429q0 60 -17 85t-69 25l-112 -11q-29 0 -29 37z" />
    <glyph glyph-name="endash" unicode="&#x2013;" horiz-adv-x="1061" 
d="M1015 556v-44q0 -53 -17 -64t-89 -11h-785q-80 0 -80 57v22q0 65 18.5 75.5t112.5 10.5h772q68 0 68 -46z" />
    <glyph glyph-name="emdash" unicode="&#x2014;" horiz-adv-x="1935" 
d="M1887 548v-37q0 -37 -11 -54.5t-54 -21t-885 -3.5h-607l-61 -1h-40l-78 -1h-18q-86 0 -86 51v38q0 48 24 62.5t81 14.5l1571 3h76q88 0 88 -51z" />
    <glyph glyph-name="quoteleft" unicode="&#x2018;" horiz-adv-x="574" 
d="M130 1024v51q0 117 93.5 238.5t170.5 121.5h6q28 0 28 -45q0 -13 -58 -81.5t-58 -125.5q0 -12 60.5 -78.5t60.5 -124.5l-1 -9q0 -57 -36 -90t-87 -33h-24q-60 0 -107.5 51.5t-47.5 124.5z" />
    <glyph glyph-name="quoteright" unicode="&#x2019;" horiz-adv-x="574" 
d="M447 1248v-25q0 -106 -80 -230q-38 -60 -101.5 -105t-87.5 -45h-6q-29 0 -29 39q0 16 59.5 86t59.5 134q0 15 -58 73t-58 120.5t33.5 99t89.5 36.5h25q59 0 106 -47t47 -136z" />
    <glyph glyph-name="quotesinglbase" unicode="&#x201a;" horiz-adv-x="589" 
d="M149 -267v12q0 9 58.5 83.5t58.5 138.5q0 5 -55.5 72.5t-55.5 124t33 92.5t90 36h24q72 0 111.5 -53t39.5 -131l-1 -9v-8q0 -113 -80 -237q-41 -63 -104.5 -108.5t-91 -45.5t-27.5 33z" />
    <glyph glyph-name="quotedblleft" unicode="&#x201c;" horiz-adv-x="973" 
d="M112 1102q0 101 92 220.5t168 119.5h6q27 0 27 -39q0 -18 -57 -85.5t-57 -132.5q0 -4 59.5 -69.5t59.5 -115.5v-17l-1 -8q0 -49 -36 -82t-93 -33l-9 1q-63 0 -112 49t-49 142v25q2 16 2 25zM540 1052v25q0 124 93 244.5t169 120.5h6q28 0 28 -39q0 -18 -57.5 -86
t-57.5 -132q0 -11 59.5 -70.5t59.5 -114.5v-17q0 -50 -33 -86t-81 -36h-33q-68 0 -110.5 57t-42.5 134z" />
    <glyph glyph-name="quotedblright" unicode="&#x201d;" horiz-adv-x="973" 
d="M251 1439h25q58 0 104.5 -46.5t46.5 -126.5v-41q0 -129 -101 -248.5t-166 -119.5h-11q-22 0 -22 32v6q0 17 58.5 86t58.5 132q0 25 -30 49q-84 68 -84 136.5t33 104.5t88 36zM858 1257v-17l-1 -8q0 -106 -58.5 -197t-139.5 -147q-45 -31 -69 -31h-6q-26 0 -26 33v6
q0 18 58.5 87t58.5 130q0 24 -30.5 48.5t-39.5 35.5q-44 54 -44 114t34.5 94.5t95.5 34.5h8q68 0 113.5 -50t45.5 -133z" />
    <glyph glyph-name="quotedblbase" unicode="&#x201e;" horiz-adv-x="974" 
d="M133 -262v12q0 7 57.5 82t57.5 137q0 2 -55 69t-55 122t33 91t87 36h25q71 0 109 -54.5t38 -126.5v-17l-1 -8q0 -103 -79 -226q-40 -62 -100.5 -105.5t-84.5 -43.5h-11q-21 0 -21 32zM591 -294h-11q-21 0 -21 32v6q0 26 58 89.5t58 128.5q0 16 -55 76.5t-55 117.5t30 94
t89 37h17l8 -1q65 0 106 -49.5t41 -122.5v-25l-1 -8q0 -115 -84 -233q-51 -72 -105.5 -107t-74.5 -35z" />
    <glyph glyph-name="dagger" unicode="&#x2020;" horiz-adv-x="1135" 
d="M478 -10l-14 465l9 195q0 83 -18.5 109.5t-70.5 26.5l-115 -6q-62 0 -91 26t-29 69q0 97 107 97q15 0 78.5 -14.5t106.5 -14.5t43 48.5t-19.5 146t-19.5 141.5t40 77t90 33h25q36 0 61.5 -29t25.5 -76.5t-21.5 -145.5t-21.5 -146.5t46 -48.5q30 0 108.5 15t109 15
t53.5 -23t23 -73t-27 -74t-92 -24l-140 11q-39 0 -52.5 -32.5t-13.5 -97.5l8 -204l-18 -452q0 -172 -19 -225.5t-68 -53.5q-54 0 -69 71.5t-15 193.5z" />
    <glyph glyph-name="daggerdbl" unicode="&#x2021;" horiz-adv-x="1134" 
d="M726 841h-2q-72 0 -72 -95q0 -38 9 -77l8 -29q13 -44 13 -57l-3 -28l-4 -29q-2 -19 -2 -58.5t25 -78t72 -38.5l95 8q74 0 74 -77q0 -69 -71 -96q-16 -6 -162 -6q-64 0 -64 -91q0 -32 15.5 -110.5t15.5 -126t-27.5 -83.5t-84.5 -36q-107 0 -107 90q0 42 18.5 136t18.5 144
t-41 63q-26 8 -107 8q-145 0 -145 122q0 61 67 61l89 -7q45 0 62 19q35 40 35 124l-1 29l-4 56l6 29l17 59q10 42 10 86q0 88 -99 88l-141 -11q-23 0 -49 24.5t-26 67t32.5 65.5t75.5 23l149 -20q58 0 58 98q0 22 -14.5 92.5t-14.5 106.5t37 71t86 35h32q31 0 54.5 -25.5
t23.5 -65.5t-18 -123.5t-18 -120.5q0 -72 60 -72q22 0 84 13t91 13t61 -21t32 -62t-28.5 -72t-72.5 -31q-10 0 -57 8t-91 8z" />
    <glyph glyph-name="bullet" unicode="&#x2022;" horiz-adv-x="976" 
d="M486 363h-27q-106 0 -172.5 78.5t-66.5 183.5v19q0 123 84 207t185 84h27q98 0 168.5 -76.5t70.5 -186.5v-19q0 -116 -80.5 -203t-188.5 -87z" />
    <glyph glyph-name="ellipsis" unicode="&#x2026;" horiz-adv-x="1867" 
d="M287 44q-52 0 -92 45.5t-40 104.5v16q0 58 39.5 97.5t98.5 39.5h22q57 0 104 -40.5t47 -107.5v-26q0 -54 -37.5 -91.5t-84.5 -37.5l-11 -2h-31q-10 2 -15 2zM946 42h-21q-15 3 -26 3q-43 0 -83.5 40.5t-40.5 87.5l-2 10v21q0 63 39 102t94 39h32q60 0 103.5 -43.5
t43.5 -107.5v-16q0 -58 -39 -97t-100 -39zM1569 42h-32q-60 0 -103.5 43.5t-43.5 108.5v15q0 64 42.5 100.5t95.5 36.5h22q57 0 103 -39.5t46 -92.5l3 -26v-10q0 -53 -35.5 -94.5t-97.5 -41.5z" />
    <glyph glyph-name="perthousand" unicode="&#x2030;" horiz-adv-x="2200" 
d="M983 280l2 -35q0 -56 28 -112t71 -56h15q39 0 68 58.5t29 119.5l2 14l3 58v60q0 88 -28 150t-74 62h-11q-40 0 -71 -56t-31 -131q-2 -14 -2 -21l-2 -37v-66zM1806 599h-10q-44 0 -73.5 -59.5t-29.5 -127.5q-2 -14 -2 -22l-2 -22v-51q0 -129 30.5 -184.5t75.5 -55.5l6 1
q50 0 78.5 71.5t28.5 185.5v30l-1 8l-3 58q-1 7 -1 14q0 60 -31 107t-66 47zM442 1035v23q0 113 -30.5 173.5t-77.5 60.5h-6q-41 0 -71.5 -55t-30.5 -117q-4 -28 -4 -35l-2 -44v-52q0 -97 30.5 -158t77.5 -61l6 1q44 0 76 64t32 200zM807 302v46q0 146 80.5 246.5
t196.5 100.5h32q111 0 185.5 -93.5t74.5 -251.5l-1 -11q0 -158 -80.5 -259t-207.5 -101h-10q-119 0 -194.5 94.5t-75.5 228.5zM1782 695h42q110 0 184 -92.5t74 -218.5v-57q0 -147 -81 -247t-196 -100h-22q-126 0 -197.5 97.5t-71.5 236.5v23q0 148 75 250q38 52 94 80
t99 28zM1181 1358q0 -15 -31 -75q-189 -366 -683 -1162q-85 -137 -145 -137t-60 27q0 42 136 251q15 23 30.5 50t92.5 152t277.5 470.5t215.5 368.5q54 82 110.5 82t56.5 -27zM46 995v46q0 146 80.5 246.5t196.5 100.5h22l10 -1q111 0 186 -93.5t75 -227.5v-34
q0 -158 -80.5 -258.5t-197.5 -100.5h-32q-104 0 -182 90t-78 232z" />
    <glyph glyph-name="guilsinglleft" unicode="&#x2039;" horiz-adv-x="663" 
d="M533 144q0 -39 -44 -39t-214.5 182t-170.5 210t172 211.5t207 183.5h8q42 0 42 -41v-9q0 -32 -108 -182.5t-108 -157t108 -164.5t108 -186v-8z" />
    <glyph glyph-name="guilsinglright" unicode="&#x203a;" horiz-adv-x="663" 
d="M129 851q0 42 45 42h8q37 0 206 -181q170 -182 171 -207v-9q0 -25 -171 -207q-172 -183 -214 -183q-43 0 -43 47q0 36 107 183q108 149 108 161t-108 162t-109 192z" />
    <glyph glyph-name="fraction" unicode="&#x2044;" horiz-adv-x="466" 
d="M605 1359h16q62 0 62 -27q0 -51 -756 -1296q-38 -63 -78 -63q-61 0 -61 28q0 13 585 1011q203 347 232 347z" />
    <glyph glyph-name="Euro" unicode="&#x20ac;" horiz-adv-x="1210" 
d="M1098 1123v-22q0 -35 -27 -35q-17 0 -48 22q-105 72 -212 72t-171 -61t-64 -116t36 -74q7 -4 115 -33t108 -63.5t-47.5 -45.5t-154 -21.5t-135 -25.5t-28.5 -59q0 -38 154 -60.5t154 -65.5q0 -30 -68 -56q-113 -44 -120 -50q-38 -32 -38 -69q0 -71 79.5 -127t193.5 -56
q42 0 132.5 25t115.5 25t25 -21v-12q0 -29 -34 -80q-80 -121 -352 -121q-182 0 -325 118q-58 48 -189 306q-20 40 -63.5 80t-43.5 44q0 32 38 68t38 62t-44 58.5t-44 49t79 87.5q18 16 100 155t155 199q141 116 314 116h40q198 0 264.5 -44.5t66.5 -168.5z" />
    <glyph glyph-name="trademark" unicode="&#x2122;" horiz-adv-x="1711" 
d="M650 1280v-51q0 -37 -22 -37q-14 0 -65 46t-86.5 46t-45.5 -61q-4 -24 -4 -192.5t10 -206.5t39.5 -64.5t29.5 -34.5q0 -30 -45 -30h-184q-79 0 -79 28q0 13 34 37t42.5 58.5t8.5 212.5t-6 202q-12 47 -53 47q-24 0 -77 -43t-64 -43q-18 0 -18 31v16q0 136 54 136h28
l15 -1l197 -1q256 0 266 -4q25 -10 25 -91zM1173 968q11 0 85.5 165.5t97.5 191.5q40 47 135 47t95 -33q0 -8 -20.5 -48t-28 -79.5t-7.5 -184.5t7.5 -170t29.5 -73l9 -20l12 -21q0 -37 -92 -37h-28q-126 0 -126 43l5 16l15 35q10 27 17.5 162t7.5 169t-12 34t-107.5 -220.5
t-126.5 -220.5t-126.5 220t-110.5 220q-9 0 -9 -78q0 -200 33 -292q10 -28 10 -37q0 -46 -110 -46q-73 0 -73 37q0 9 23.5 43t30.5 74t7 184.5t-5 161t-31 69.5l-28 54q0 39 106 39t151 -53q6 -7 59 -122.5t77.5 -172.5t27.5 -57z" />
    <glyph glyph-name="Omega" unicode="&#x2126;" horiz-adv-x="1565" 
d="M146 797q0 247 164 413q76 77 194.5 130.5t259.5 53.5h51q117 0 231 -42q228 -85 322 -293q52 -116 52 -261q0 -272 -232 -491q-74 -69 -74 -80q0 -37 87 -37t135 23l33 21l31 25q25 17 56 17q11 0 11 -64q0 -110 -66 -171q-38 -35 -110 -35h-184q-115 0 -153.5 19.5
t-38.5 78.5t73 173t116 227t43 258q0 240 -96 374q-99 135 -267 135q-242 0 -329 -257q-36 -107 -36 -240t32 -228.5t116 -247.5t84 -199.5t-43 -70t-152 -22.5h-139q-114 0 -153 36q-66 61 -66 175q0 56 16.5 56t81.5 -41t158.5 -41t93.5 37q0 6 -44 44t-88.5 84.5
t-85.5 120.5q-84 151 -84 320z" />
    <glyph glyph-name="partialdiff" unicode="&#x2202;" horiz-adv-x="1146" 
d="M788 590v26q0 58 -42 104t-107 46h-9l-8 -1q-99 0 -186.5 -131.5t-87.5 -306.5v-29q0 -94 37.5 -148t95.5 -54h15q28 0 77 28t103 118t83 200.5t29 147.5zM463 -13h-27q-137 0 -229 87q-51 48 -77 118.5t-26 124.5v53q0 96 46 194q86 184 255 259q87 38 158 38t103.5 -10
t72.5 -26.5t46 -16.5q31 0 46 27t15 107q0 158 -81.5 261.5t-213.5 103.5q-48 0 -121.5 -23t-106 -23t-55 21t-22.5 51q0 46 95 86t200 40h28q86 0 180.5 -43t162 -133.5t101.5 -205t34 -226.5v-51q-1 -161 -53 -318q-105 -314 -312 -434q-105 -61 -219 -61z" />
    <glyph glyph-name="Delta" unicode="&#x2206;" horiz-adv-x="1337" 
d="M438 140h361q145 0 145 29q0 37 -158 476t-161 439t-49 -115q-282 -705 -282 -799q0 -30 144 -30zM1239 43q0 -46 -157 -46h-757q-217 0 -217 44q0 56 40 158q144 369 243.5 641.5t169.5 433.5q48 111 136 111q59 0 116 -140q30 -72 391 -1060q35 -96 35 -142z" />
    <glyph glyph-name="product" unicode="&#x220f;" horiz-adv-x="1567" 
d="M1172 -248q-161 0 -161 73q0 21 23 104.5t28 150.5q5 66 5 262v245l1 99q0 33 2 98l4 98q0 312 -43 360q-30 34 -319 34q-106 0 -140 -12.5t-48 -51.5q-27 -78 -27 -374l1 -49l2 -49q2 -65 2 -143v-201q0 -350 12.5 -400t30 -95.5t17.5 -72.5t-34 -44q-57 -28 -155 -28
t-179 38q-41 19 -41 46t43.5 69t58 99t14.5 184t-2 192l-3 98q-1 49 -1 240.5t-59 455.5q-12 52 -24 78l-19 30l-23 26l-19 25q0 38 73 53t320 15h546q239 0 314 -15t75 -49l-16 -25l-22 -28q-21 -29 -34 -75.5t-41 -185.5t-28 -351.5t-1 -245.5l-2 -49q-3 -74 -3 -201.5
t15 -173t60 -93.5t45 -72l-19 -28q-68 -61 -229 -61z" />
    <glyph glyph-name="summation" unicode="&#x2211;" horiz-adv-x="1292" 
d="M111 1330q0 68 133 68h84l42 -1h126q167 0 209 -1l207 -6l41 1l77 3q56 0 78 -30q42 -57 42 -145t-50 -88q-13 0 -82.5 54t-133 70t-251 16t-187.5 -32q0 -39 181 -304.5t181 -306.5t-219.5 -329.5t-219.5 -325t265.5 -36.5t317 16.5t120.5 61.5t90 45q40 0 40 -55v-35
q0 -86 -77 -183q-40 -50 -115 -50l-78 2q-40 1 -81 1l-81 -2q-82 -2 -124 -2h-422q-80 0 -109 19t-29 44q0 60 247 386t247 380q0 20 -234.5 369.5t-234.5 395.5z" />
    <glyph glyph-name="minus" unicode="&#x2212;" horiz-adv-x="1181" 
d="M1074 574v-45q0 -54 -23 -59q-9 -2 -472 -2h-303l-34 -1h-67q-68 0 -68 47v56q0 53 22 58q9 2 471 2l45 1h395q34 0 34 -57z" />
    <glyph glyph-name="uni2219" unicode="&#x2219;" horiz-adv-x="630" 
d="M326 429h-22q-65 0 -111.5 40t-46.5 112v22q0 60 40.5 106.5t110.5 46.5h34q66 0 108.5 -42.5t42.5 -103.5v-34q0 -66 -46.5 -106.5t-109.5 -40.5z" />
    <glyph glyph-name="radical" unicode="&#x221a;" horiz-adv-x="1214" 
d="M1159 1708q36 0 36 -41t-62.5 -205.5t-214 -825t-160.5 -691.5q-20 -72 -52 -72q-61 0 -107.5 84.5t-156.5 355t-146.5 345t-72.5 74.5q-7 0 -39 -9t-58 -9q-46 0 -46 51q0 21 54 50q128 69 189 69t97 -56q36 -58 143 -330q98 -251 130 -251q3 0 5 2q8 6 129.5 534.5
t123.5 536.5q77 260 107.5 324t74.5 64h26z" />
    <glyph glyph-name="infinity" unicode="&#x221e;" horiz-adv-x="1519" 
d="M242 548q0 -54 53 -101t108 -47h31q53 0 124 50q116 81 116 130.5t-88.5 118t-149.5 68.5h-26q-60 0 -114 -48t-54 -113l-2 -13v-26q2 -12 2 -19zM1262 566v35q0 68 -47 128.5t-121 60.5h-12q-53 0 -119 -51q-112 -87 -112 -146v-6q0 -50 115 -152q60 -53 116 -53h30
q48 0 99 51t51 133zM760.5 721q9.5 0 39.5 31q148 156 306 156h20q129 0 219 -90t90 -215v-20q0 -132 -92.5 -228t-221.5 -96h-18q-164 0 -303 155q-38 42 -41.5 42t-72.5 -64t-133.5 -95.5t-181 -31.5t-202.5 93.5t-86 207.5v20q0 138 94 228t235.5 90t256.5 -107
q82 -76 91.5 -76z" />
    <glyph glyph-name="integral" unicode="&#x222b;" horiz-adv-x="843" 
d="M664 1626q76 0 118.5 -28t42.5 -52q0 -54 -30 -86t-57.5 -32t-71 19t-62.5 19q-47 0 -60.5 -74t-13.5 -389l4 -191l1 -26l3 -160v-52q0 -530 -63 -704q-41 -114 -114 -172t-157 -58h-23q-70 0 -112 30.5t-42 54.5q0 53 30.5 85.5t60 32.5t73 -20.5t57.5 -20.5
q56 0 73 112q9 61 9 399l-5 246l-1 27l-1 53l-2 134q0 297 13 405q38 316 180 403q74 45 150 45z" />
    <glyph glyph-name="approxequal" unicode="&#x2248;" horiz-adv-x="1171" 
d="M393 520q85 0 220 -67.5t207 -67.5h2q72 0 153 91q29 32 47.5 32.5t42 -23t23.5 -43.5q0 -61 -92 -125.5t-177 -64.5l-12 1q-77 0 -225.5 68t-216.5 68t-152 -93q-29 -33 -48 -33t-42 25t-23 43q0 62 114 140q73 50 155 50l12 -1h12zM388 926q90 0 227 -68.5t207 -68.5h2
q69 0 150 81q28 28 46 28.5t43 -24.5t25 -45q0 -64 -114 -154q-75 -59 -163 -59h-12q-66 0 -222.5 69t-212.5 69t-107 -40q-14 -11 -44.5 -41.5t-47 -30.5t-41.5 25t-25 45v11q0 58 97 130.5t180 72.5h12z" />
    <glyph glyph-name="notequal" unicode="&#x2260;" horiz-adv-x="1164" 
d="M129 760q0 40 29 50.5t236 10.5t251 33q20 15 65 115.5t87 100.5q82 0 82 -50q0 -14 -21 -60t-21 -67q0 -29 54 -47q16 -5 55.5 -7.5t54.5 -11.5q36 -22 36 -75v-23q0 -38 -60 -52q-29 -7 -141.5 -7t-145.5 -33q-90 -90 -90 -160q0 -21 195.5 -21t217.5 -13t22 -72
t-26 -69.5t-235 -10.5t-254 -30q-20 -14 -63 -103.5t-56 -101t-58 -11.5q-59 0 -59 59q0 10 16.5 48.5t16.5 64t-43 47.5q-5 2 -55.5 8.5t-72 30t-21.5 70.5t55 62q26 7 140 7t148 32q88 83 88 158q0 23 -194 23t-213.5 14.5t-19.5 90.5z" />
    <glyph glyph-name="lessequal" unicode="&#x2264;" horiz-adv-x="1158" 
d="M146 14q-21 0 -21 32v60q0 49 22 54q4 1 454 1l379 4h41q31 0 31 -32v-69q0 -45 -38 -45h-492l-22 -1h-68l-22 -1h-45l-22 -1h-43l-22 -1h-42l-31 -1h-59zM999 1224q22 0 22 -66.5t-66 -111.5q-13 -9 -292 -156l-108 -56q-2 -1 -45 -23.5t-99.5 -49.5t-56.5 -30.5
t122 -55.5t224 -99t245 -133q76 -46 76 -116.5t-32 -70.5q-4 0 -172 91.5t-391 187t-252 115.5t-29 84t49 94q192 116 679 339q125 57 126 57z" />
    <glyph glyph-name="greaterequal" unicode="&#x2265;" horiz-adv-x="1158" 
d="M1016 165q37 0 37 -27v-69q0 -51 -24 -51h-124l-11 1h-332l-23 -1h-99l-22 -1h-77l-21 -1h-53l-11 -1h-42l-40 -1q-46 0 -46 27v70q0 50 33 50l813 4h42zM199 264q-32 0 -32 65t63.5 104t245.5 132.5t267 130t85 38.5t-129.5 63t-194 96t-127 66t-138.5 76.5t-76 97.5v17
q0 78 22 78h14q7 0 50 -23.5t67 -34.5q443 -203 687 -357q35 -22 35 -81t-39 -80q-730 -388 -800 -388z" />
    <glyph glyph-name="lozenge" unicode="&#x25ca;" horiz-adv-x="1153" 
d="M570 1270q-2 0 -67 -124q-217 -416 -217 -459.5t228 -480.5q57 -109 58.5 -109t143.5 272t142 312t-229 479q-57 110 -59 110zM1022 686.5q0 -4.5 -136 -285t-221 -426.5q-32 -55 -94.5 -55t-93.5 53q-11 19 -77 147l-58 116q-20 41 -33 66t-67 137t-86.5 175t-32.5 70
q0 64 354 710q30 55 93 55t95 -55q59 -102 152 -294t149 -300.5t56 -113z" />
    </font>
</defs>
</svg>
