<?xml version="1.0" standalone="no"?>
<!DOCTYPE svg PUBLIC "-//W3C//DTD SVG 1.1//EN" "http://www.w3.org/Graphics/SVG/1.1/DTD/svg11.dtd" >
<svg xmlns="http://www.w3.org/2000/svg" xmlns:xlink="http://www.w3.org/1999/xlink" version="1.1">
<metadata>
Created by FontForge 20170731 at Thu Nov  3 01:27:05 2011
 By Aleksey,,,
2011, Dan Sayers (i@iotic.com)
</metadata>
<defs>
<font id="AveriaSerif-Light" horiz-adv-x="1452" >
  <font-face 
    font-family="Averia Serif"
    font-weight="400"
    font-stretch="normal"
    units-per-em="2048"
    panose-1="2 0 6 3 0 0 0 0 0 4"
    ascent="1594"
    descent="-454"
    x-height="940"
    cap-height="1385"
    bbox="-211 -453 2090 1807"
    underline-thickness="98"
    underline-position="-338"
    unicode-range="U+0020-25CA"
  />
<missing-glyph horiz-adv-x="1152" 
d="M814 65q109 0 109 10q0 21 -248 382q-8 12 -54 83t-50 71l-49 -75l-5 -9l-38 -58q-4 -7 -11 -17q-247 -359 -247 -382q0 -1 18 -1l10 -1l9 -1l69 -2h487zM150 725v-368q0 -196 5 -196t110 161l61 90q22 34 35 52.5t34.5 51.5t68.5 100t47 73v10q0 8 -132 201t-139 204
l-86 127q-4 0 -4 -506zM993 635v119q0 478 -5 478t-54 -75t-175.5 -256t-126.5 -198t76.5 -126.5t175 -260.5t104 -151t5.5 470zM677 1331h-31l-10 -1h-61q-356 0 -356 -8.5t52 -84t79.5 -118t49.5 -73.5t96 -145.5t79 -114.5t63 89.5t67 103.5t23 34l123 186q80 114 80 123
t-254 9zM53 40v200l1 25v451q0 692 2 697q7 18 83 18h845q99 0 103 -16.5t4 -402.5v-424l1 -100v-475q0 -35 -31.5 -38.5t-276.5 -3.5h-449q-261 0 -271.5 6t-10.5 63z" />
    <glyph glyph-name=".notdef" horiz-adv-x="1152" 
d="M814 65q109 0 109 10q0 21 -248 382q-8 12 -54 83t-50 71l-49 -75l-5 -9l-38 -58q-4 -7 -11 -17q-247 -359 -247 -382q0 -1 18 -1l10 -1l9 -1l69 -2h487zM150 725v-368q0 -196 5 -196t110 161l61 90q22 34 35 52.5t34.5 51.5t68.5 100t47 73v10q0 8 -132 201t-139 204
l-86 127q-4 0 -4 -506zM993 635v119q0 478 -5 478t-54 -75t-175.5 -256t-126.5 -198t76.5 -126.5t175 -260.5t104 -151t5.5 470zM677 1331h-31l-10 -1h-61q-356 0 -356 -8.5t52 -84t79.5 -118t49.5 -73.5t96 -145.5t79 -114.5t63 89.5t67 103.5t23 34l123 186q80 114 80 123
t-254 9zM53 40v200l1 25v451q0 692 2 697q7 18 83 18h845q99 0 103 -16.5t4 -402.5v-424l1 -100v-475q0 -35 -31.5 -38.5t-276.5 -3.5h-449q-261 0 -271.5 6t-10.5 63z" />
    <glyph glyph-name=".notdef" horiz-adv-x="1152" 
d="M814 65q109 0 109 10q0 21 -248 382q-8 12 -54 83t-50 71l-49 -75l-5 -9l-38 -58q-4 -7 -11 -17q-247 -359 -247 -382q0 -1 18 -1l10 -1l9 -1l69 -2h487zM150 725v-368q0 -196 5 -196t110 161l61 90q22 34 35 52.5t34.5 51.5t68.5 100t47 73v10q0 8 -132 201t-139 204
l-86 127q-4 0 -4 -506zM993 635v119q0 478 -5 478t-54 -75t-175.5 -256t-126.5 -198t76.5 -126.5t175 -260.5t104 -151t5.5 470zM677 1331h-31l-10 -1h-61q-356 0 -356 -8.5t52 -84t79.5 -118t49.5 -73.5t96 -145.5t79 -114.5t63 89.5t67 103.5t23 34l123 186q80 114 80 123
t-254 9zM53 40v200l1 25v451q0 692 2 697q7 18 83 18h845q99 0 103 -16.5t4 -402.5v-424l1 -100v-475q0 -35 -31.5 -38.5t-276.5 -3.5h-449q-261 0 -271.5 6t-10.5 63z" />
    <glyph glyph-name="glyph1" horiz-adv-x="0" 
 />
    <glyph glyph-name="glyph2" horiz-adv-x="2048" 
 />
    <glyph glyph-name="space" unicode=" " horiz-adv-x="554" 
 />
    <glyph glyph-name="exclam" unicode="!" horiz-adv-x="612" 
d="M427 95q0 -49 -28.5 -77.5t-53.5 -28.5l-30 -5h-15q-42 0 -71 29t-29 62l-3 19v20l1 4v7q2 8 2 22t28 42t59 28l23 3h8l27 -4q23 0 50.5 -27.5t27.5 -58.5q2 -6 2 -11l2 -16v-8zM333 1405q84 0 84 -111v-11l-1 -10l-2 -42q-3 -33 -3 -55l-2 -23q-1 -12 -1 -23l-3 -34
q-2 -23 -2 -35l-25 -307q-7 -84 -7 -95l-3 -36q-3 -36 -3 -47l-3 -47l-2 -23l-1 -23q0 -102 -44 -102h-10q-43 0 -43 115l-2 46q-2 24 -2 35l-2 23q-1 12 -1 23l-2 23q-2 23 -2 35l-3 35q-3 36 -3 46l-19 250l-4 48q-4 48 -4 58l-5 67l-2 22q-5 55 -5 63v31q0 47 28.5 75.5
t75.5 28.5h23z" />
    <glyph glyph-name="quotedbl" unicode="&#x22;" horiz-adv-x="770" 
d="M219 1446h26q67 0 67 -61v-34l-1 -5l-4 -54q-1 -6 -1 -12l-3 -26q-4 -26 -4 -33l-12 -84l-8 -51q-7 -46 -7 -52l-4 -32q0 -77 -52 -77h-12q-37 0 -37 127l-6 72l-1 6l-4 46q-3 18 -3 25l-3 26q-6 36 -6 55l-5 77v23q0 64 80 64zM463 1387q0 60 86.5 60t86.5 -67v-23
l-1 -5l-4 -61q-3 -18 -4.5 -34t-4 -34.5t-2.5 -26.5l-25 -168q-3 -20 -3 -25q0 -78 -52 -78h-12q-32 0 -32 49q-2 12 -2 18v13l-11 143q-5 35 -5 45l-3 26q-7 42 -7 62l-4 42v12l-1 17v35z" />
    <glyph glyph-name="numbersign" unicode="#" horiz-adv-x="1200" 
d="M441 541h60l6 1l61 1q133 0 143 14q0 1 32 128t32 150.5t-14 23.5h-72l-6 -1h-49q-137 0 -147 -20.5t-21.5 -89.5t-25 -123t-13.5 -69t14 -15zM670 977q99 0 116 16.5t41 147.5t46 179t63 48t41 -28q0 -36 -21.5 -137.5t-21.5 -167.5q0 -46 86.5 -58.5t86.5 -40.5v-27
q0 -36 -96 -44.5t-119 -38.5q-51 -66 -51 -232q0 -45 84 -51q125 -9 125 -51t-45 -57q-2 -1 -77 -8.5t-106.5 -38.5t-56 -167.5t-32.5 -154.5q-18 -42 -69 -42q-40 0 -40 54q0 25 25.5 152.5t25.5 155.5q0 37 -121.5 37t-139 -20.5t-41 -146.5t-45.5 -181t-64 -55t-42 25
t23 142t23 158t-11 55t-86.5 25t-75.5 52t46 55l32 4q58 6 67 8q57 11 76 40q42 62 42 231q0 37 -105.5 46.5t-105.5 52.5q0 34 21 45t110 17.5t109.5 28.5t48 160.5t28.5 143.5q18 59 67.5 59t49.5 -39l-53 -310q0 -30 21.5 -36t120.5 -6z" />
    <glyph glyph-name="dollar" unicode="$" horiz-adv-x="1098" 
d="M801 306v47q0 72 -72.5 153.5t-136.5 81.5h-4q-14 0 -14 -42v-37l1 -7v-70l1 -13v-194l-1 -13v-45l-1 -19v-25q0 -36 14 -36h17q72 0 134 70t62 149zM294 1033q0 -57 68.5 -135.5t122.5 -78.5h5q9 0 9 16v32l-1 6v120l-1 12v12l-1 11v24q0 225 -16 225l-6 -1h-5
q-69 0 -123 -62t-54 -127v-36q2 -12 2 -18zM545 -149q-33 0 -55 63.5t-44 79.5t-125.5 50t-125.5 55q-62 60 -62 178q0 79 43 79q34 0 70.5 -81.5t64.5 -106.5q60 -53 127 -53q49 0 60 61q6 33 6 213t-18.5 214t-120.5 96t-156.5 133t-54.5 187t70 197.5t162.5 115.5
t102 42.5t26.5 77.5q10 39 47 39q19 0 36.5 -47t38.5 -62q1 0 101 -43.5t121 -65.5q42 -43 42 -150q0 -58 -43 -58q-26 1 -51 61q-55 132 -158 132q-36 0 -47.5 -38t-11.5 -206.5t17.5 -197.5t120 -86.5t153.5 -114.5q82 -92 82 -219q0 -214 -182 -321q-31 -18 -88 -39.5
t-78 -41.5t-35 -81.5t-35 -61.5z" />
    <glyph glyph-name="percent" unicode="%" horiz-adv-x="1619" 
d="M1222 624h-20q-48 0 -91 -61.5t-43 -146.5q-3 -24 -3 -25l-1 -34v-43q0 -116 42.5 -182.5t94.5 -66.5h19q48 0 90 60t42 147q2 18 2 25l2 35v35q0 101 -35.5 179t-98.5 78zM429 1320h-20q-57 0 -98 -75.5t-41 -187.5v-62q0 -93 35 -170t97 -77h20q70 0 106 87t36 204v9
l-1 9q0 121 -39 192t-95 71zM1193 721h42q47 0 100 -28t86 -76q70 -102 70 -241l-1 -12q0 -154 -85.5 -260.5t-221.5 -106.5l-10 1q-115 0 -191 95.5t-76 248.5l1 12q0 152 86 259.5t200 107.5zM1197 1392h16q40 0 40 -11q0 -46 -736 -1258q-75 -123 -119 -123h-16
q-40 0 -40 12v11q0 60 754 1275q58 94 101 94zM384 1410h32q116 0 196.5 -101t80.5 -244v-23q0 -153 -86.5 -253t-208.5 -100h-11q-119 0 -202 95.5t-83 237.5v35q0 154 86 253.5t196 99.5z" />
    <glyph glyph-name="ampersand" unicode="&#x26;" horiz-adv-x="1493" 
d="M552 97h36q68 0 142 47.5t74 85.5v6q0 34 -165.5 244.5t-183.5 210.5q-55 0 -120 -84.5t-65 -159.5l-2 -18v-27q0 -118 86.5 -211.5t197.5 -93.5zM769 1145q0 51 -46 103.5t-96 52.5h-30q-56 0 -99.5 -49t-43.5 -125v-34q0 -70 70 -180q36 -57 59 -57h11q49 0 113.5 83
t64.5 145v30l-1 7v6q-2 12 -2 18zM1313 158q26 0 26 -14t-45.5 -50.5t-102.5 -36.5t-173.5 22t-186.5 22h-2q-16 0 -62 -19q-165 -65 -277 -66q-166 0 -275 100t-109 264q0 99 57 188q31 48 123 134.5t92 125.5q0 22 -35 107.5t-35 176.5t76 172t192.5 81t196 -62t79.5 -179
q0 -59 -68 -198t-68 -168q0 -71 81.5 -162.5t137 -91.5t92.5 66q16 28 34 89t20 84.5t12.5 36t63.5 12.5q152 0 152 -28q0 -6 -55 -70t-72 -95q-89 -165 -89 -239.5t77 -138t143 -63.5z" />
    <glyph glyph-name="quotesingle" unicode="'" horiz-adv-x="462" 
d="M317 1369v-34l-1 -6v-11l-5 -56q-5 -30 -5 -46l-22 -150q-11 -48 -11 -71q0 -88 -51 -88h-18q-34 0 -34 136l-7 92q-2 12 -2 19l-10 77q-8 48 -8 61l-2 11v12l-2 29v18q0 68 84 68h26q68 0 68 -61z" />
    <glyph glyph-name="parenleft" unicode="(" horiz-adv-x="708" 
d="M601 -314q-45 0 -152 107q-204 204 -277 501q-33 135 -33 237v90q0 117 38 257q75 279 273 476q107 107 156 107q22 0 22 -33q0 -8 -127 -179q-188 -253 -188 -701q0 -244 79 -444q49 -123 113 -210q125 -168 125 -179q0 -29 -29 -29z" />
    <glyph glyph-name="parenright" unicode=")" horiz-adv-x="708" 
d="M105 -314q-23 0 -23 33q0 11 124 178q190 257 190 701q0 255 -84 462q-45 111 -105 192q-128 173 -128 179q0 30 27 30q48 0 155 -107q107 -108 179 -244q131 -248 131 -537l-1 -23q0 -412 -294 -740q-112 -124 -171 -124z" />
    <glyph glyph-name="asterisk" unicode="*" horiz-adv-x="929" 
d="M467.5 1402q63.5 0 63.5 -61q0 -21 -11.5 -88.5t-11.5 -105.5q0 -17 29 -17q5 0 72.5 46.5t97.5 46.5q47 0 47 -39v-13q0 -61 -108 -109q-36 -16 -36 -26t41 -78.5t41 -80.5q0 -36 -27 -36q-3 0 -42 12.5t-75 12.5q-19 0 -25.5 -43t-35.5 -43l-29 4l-29 -1
q-30 0 -30 43.5t-29 43.5q-10 0 -45 -8l-43 -10q-42 -8 -44 -8q-15 0 -15 29.5t50 90.5t50 74q-1 6 -35 22q-119 54 -119 129q0 45 51 45q33 0 105 -52t86 -52t14 12l-21 186q0 74 63.5 74z" />
    <glyph glyph-name="plus" unicode="+" horiz-adv-x="1172" 
d="M107 581v19q0 42 30 49q5 1 187 1t190 5.5t8 186t3 189.5q9 27 51 27h20q43 0 48 -28q1 -5 1 -187t9.5 -187.5t190 -5.5t188.5 -2q28 -7 28 -49v-19q0 -39 -33 -45q-11 -2 -188 -2t-186 -7t-9 -187.5t-3 -190.5q-8 -27 -50 -27h-19q-43 0 -49 28q-2 9 -2 189t-10.5 187.5
t-186.5 7.5h-96l-37 -2q-85 0 -85 50z" />
    <glyph glyph-name="comma" unicode="," horiz-adv-x="554" 
d="M401 81v-30q0 -89 -65 -195q-87 -142 -156 -142h-6q-20 0 -20 21v10q0 4 54 78.5t54 120.5t-54 82t-54 91v15q0 38 30.5 68.5t73.5 30.5h22q58 0 89.5 -43.5t31.5 -106.5z" />
    <glyph glyph-name="hyphen" unicode="-" horiz-adv-x="715" 
d="M626 567v-26l-1 -7q0 -55 -35 -65q-22 -6 -248 -6h-62l-14 -1h-33l-20 -1h-21l-33 -2h-33q-41 0 -41 40v26q0 59 24 68.5t260 9.5l196 5h7q54 0 54 -41z" />
    <glyph glyph-name="period" unicode="." horiz-adv-x="553" 
d="M267 229h8q55 0 84.5 -35.5t29.5 -84.5v-12q0 -46 -26.5 -78t-59.5 -32l-27 -4h-12l-4 1h-8q-8 2 -11 2q-27 0 -55 28t-28 59l-3 20v28q2 8 2 12q0 35 30.5 65.5t79.5 30.5z" />
    <glyph glyph-name="slash" unicode="/" horiz-adv-x="837" 
d="M120 -138h-34q-37 0 -37 15q0 21 31 96l14 34q33 83 55 135l14 34q13 34 20 51l34 86q42 102 74.5 187t60.5 153t56 141.5t79 200.5l14 34q13 34 20 51l34 86q9 23 31.5 84t32.5 85q48 114 103.5 114t55.5 -15q0 -23 -48 -136t-121.5 -305.5t-110 -279t-83.5 -208.5
l-68 -170q-28 -70 -75.5 -194t-57.5 -148q-56 -131 -94 -131z" />
    <glyph glyph-name="zero" unicode="0" horiz-adv-x="1126" 
d="M820 613v88q0 408 -154 523q-47 35 -105 35h-13q-114 0 -183 -150.5t-69 -403.5v-70q0 -262 77 -423q31 -65 80.5 -99.5t104.5 -34.5h14q46 0 94.5 34t78.5 96q75 157 75 405zM556 1358h37q76 0 158.5 -42.5t146.5 -135t95.5 -219.5t31.5 -237v-86q-1 -146 -37 -268
q-76 -253 -228 -339q-92 -52 -184 -52h-37q-85 0 -167 47q-171 97 -235 365q-27 111 -27 243v43q0 301 127 495q59 91 143.5 138.5t175.5 47.5z" />
    <glyph glyph-name="one" unicode="1" horiz-adv-x="1037" 
d="M814 29q0 -28 -314 -28l-82 -1h-41q-121 0 -121 33q0 26 67 61.5t94 97t27 212.5l1 22q1 22 1 50v211q0 320 -23.5 397.5t-139.5 77.5q-53 0 -53 22t36 41q200 103 297 103h16q34 0 46.5 -38t12.5 -144l-2 -42q-6 -126 -6 -160v-54l-1 -66v-131q0 -390 15 -458.5
t69 -111.5q101 -81 101 -84v-10z" />
    <glyph glyph-name="two" unicode="2" horiz-adv-x="1089" 
d="M142 64q0 119 308 447q155 165 216 259.5t61 196.5t-62 169t-161 67t-174 -65q-33 -28 -63 -98.5t-66 -70.5q-47 0 -47 81q0 48 31.5 106.5t94.5 104.5q106 77 244 77h33q161 0 264 -101t103 -245t-93 -272q-45 -62 -200 -204.5t-213.5 -206t-58.5 -112.5l9 -11
q40 -32 184 -32t206.5 18t115 52t55.5 34q32 0 32 -61q0 -129 -59 -169q-36 -24 -205 -24h-33l-394 14q-128 0 -128 46z" />
    <glyph glyph-name="three" unicode="3" horiz-adv-x="1080" 
d="M954 388v-33q0 -75 -40 -153q-76 -150 -233 -211q-95 -38 -195 -38h-33q-138 0 -233 61.5t-95 152.5q0 50 45 50q32 0 79 -52t102 -76.5t140 -24.5q130 0 200.5 88t70.5 210t-73.5 188.5t-192 87.5t-118.5 48q0 33 96 74q222 95 222 275q0 73 -56.5 126.5t-144.5 53.5
t-138.5 -27.5t-93.5 -81t-56 -53.5q-34 0 -34 56q0 93 96.5 160t268 67t255.5 -70.5t84 -170.5t-52 -189q-24 -40 -80.5 -98t-56.5 -66q0 -15 73.5 -52.5t119.5 -93.5q73 -90 73 -208z" />
    <glyph glyph-name="four" unicode="4" horiz-adv-x="1120" 
d="M646 1063q0 37 -4 37h-3q-3 0 -219 -314.5t-216 -315.5q0 -11 53 -11h154l9 1l138 6q9 1 18 1q44 0 51 35q12 64 12 310l3 76v28l1 9v19l3 93v26zM862 189q0 -18 23 -58t23 -78.5t-69 -71.5q-39 -19 -112 -19h-42q-58 0 -93.5 27t-35.5 52.5t27.5 66t27.5 65.5
q0 110 -77 148q-44 22 -188.5 22t-195.5 27t-51 62v18q0 84 525 798q61 83 129 83q40 0 56.5 -38t16.5 -165l-2 -47q-2 -48 -2 -73l-2 -142q0 -248 19 -301t83 -83t64 -58q0 -17 -31 -43.5t-42 -51.5q-51 -122 -51 -140z" />
    <glyph glyph-name="five" unicode="5" horiz-adv-x="1085" 
d="M287 703q-99 1 -99 91q0 44 39 317q14 96 40.5 140t75 55.5t184 11.5t178.5 2l122 9h28q58 0 58 -49q0 -69 -66 -103q-39 -20 -169 -20l-96 3q-32 1 -104.5 1t-106.5 -50q-55 -81 -55 -192q0 -52 15.5 -69.5t61.5 -17.5l120 5q101 0 185 -34q166 -67 227 -217
q32 -79 32 -174q0 -96 -39 -186q-73 -168 -245 -235q-94 -37 -215 -37t-226.5 61t-105.5 131t44 70t74 -36q57 -68 84 -84q66 -38 143 -38q137 0 218 89t81 237.5t-91.5 238t-251.5 89.5q-30 0 -59 -2l-28 -3q-44 -4 -53 -4z" />
    <glyph glyph-name="six" unicode="6" horiz-adv-x="1104" 
d="M813 381v66q0 133 -70.5 223t-166.5 90h-29q-92 0 -164.5 -78.5t-72.5 -193.5v-55q0 -155 78.5 -255t181.5 -100l9 1q97 0 165.5 87t68.5 215zM588 -11h-27q-96 1 -187 49q-171 91 -234 309q-35 123 -35 245v29q1 147 45 277q93 273 304 386q116 62 230 62h23
q69 0 132 -28t63 -66q0 -31 -58 -31q-21 0 -61 13t-88.5 13t-121 -31t-129 -93.5t-86.5 -142.5t-30 -140t46 -60q5 0 86.5 26.5t154.5 26.5q73 -1 143 -31q149 -64 209 -227q29 -80 29 -152v-26q0 -171 -118 -289t-290 -119z" />
    <glyph glyph-name="seven" unicode="7" horiz-adv-x="1078" 
d="M568 1328q229 0 342 -22q55 -11 55 -47q0 -78 -241 -606q-114 -252 -169 -461l-6 -25q-2 -9 -11 -40.5t-16.5 -63.5t-8.5 -36q-25 -71 -94 -71q-42 0 -63 15t-21 68q0 122 222.5 567t222.5 489.5t-38 61.5t-173 17q-246 0 -349 -83q-15 -12 -38 -36t-37 -24q-28 0 -28 46
q0 105 29 178t81 73l111 -5l127 5h103z" />
    <glyph glyph-name="eight" unicode="8" horiz-adv-x="1099" 
d="M824 316v28q0 109 -77 180t-163.5 104.5t-97.5 33.5h-9q-71 0 -150 -103q-55 -72 -55 -164v-29q0 -112 77.5 -196.5t201.5 -84.5h29q100 0 172 66t72 165zM788 1047v33q0 75 -51 137q-69 84 -169 84h-42q-88 0 -146.5 -58.5t-58.5 -140.5v-15q0 -90 77 -159
q118 -106 199 -106h15q67 0 121.5 75t54.5 150zM953 228q-67 -153 -234 -214q-84 -30 -175 -30q-183 0 -298 93q-60 48 -93 116t-33 137v21q0 172 144 292q88 75 88 77q0 19 -58 68q-126 105 -126 259q0 69 31 139t89 120q110 96 281.5 96t269 -91t97.5 -246
q0 -123 -122 -233q-73 -66 -73 -75.5t68.5 -56t122.5 -123t54 -175t-33 -174.5z" />
    <glyph glyph-name="nine" unicode="9" horiz-adv-x="1104" 
d="M792 863v32q0 144 -66 254q-34 56 -84.5 86.5t-96.5 30.5h-29q-86 0 -155 -87.5t-69 -224.5v-55q0 -132 71 -222.5t164 -90.5h29q107 0 171.5 82t64.5 195zM996 773v-56q0 -147 -44 -277q-93 -272 -305 -381q-119 -61 -231 -61h-22q-76 0 -136.5 28.5t-60.5 64.5
q0 30 63 30q22 0 57.5 -11.5t89 -11.5t127.5 32.5t130.5 94.5t84.5 137.5t28 139.5t-60 64q-9 0 -44 -15t-72 -27.5t-111 -12.5q-151 0 -267 119q-115 119 -115 294v26q0 74 30 152q60 153 211 219q79 35 146 35h52q99 0 187 -50q170 -97 231 -315q31 -111 31 -218z" />
    <glyph glyph-name="colon" unicode=":" horiz-adv-x="571" 
d="M410 135v-28q-3 -12 -3 -29.5t-29 -46.5t-72 -29h-20l-4 1h-8q-8 2 -11 2q-32 0 -59 32.5t-27 73.5v25q3 12 3 19q0 36 33 63.5t68 27.5h24q48 0 76.5 -34.5t28.5 -76.5zM411 822v-12q0 -49 -29.5 -84t-79.5 -35h-16q-40 0 -73 27.5t-33 67.5l-3 24v12q0 45 27 77.5
t59 32.5q8 2 11 2l16 2h12q12 -3 31 -3t48.5 -29.5t29.5 -81.5z" />
    <glyph glyph-name="semicolon" unicode=";" horiz-adv-x="572" 
d="M420 100v-15l-1 -7q0 -93 -63 -195q-87 -141 -154 -141h-5q-19 0 -19 20v4q0 14 29.5 50.5t36.5 46.5q44 66 44 120q0 26 -54 68t-54 95t31.5 81t67.5 28h28q54 0 83.5 -46t29.5 -109zM410 804l-3 -23q0 -27 -29 -56t-73 -29h-20q-50 0 -78.5 34.5t-28.5 81.5v12
q0 54 31 85t80 31h16q38 0 70.5 -27t32.5 -65l3 -19v-21z" />
    <glyph glyph-name="less" unicode="&#x3c;" horiz-adv-x="1138" 
d="M1010 1059v-17q0 -50 -60 -90t-362 -198q-302 -160 -303 -168q1 0 295 -156t360 -200t67 -109q0 -35 -19 -35q-54 0 -815 425q-58 32 -58 87q0 36 56 68q742 424 817 424q22 0 22 -31z" />
    <glyph glyph-name="equal" unicode="=" horiz-adv-x="1160" 
d="M1047 429v-20l-1 -11q0 -45 -51 -45h-785l-41 -2q-63 0 -63 34v30q0 57 62 57h10l11 -1l794 1q64 0 64 -43zM1047 804v-41q0 -46 -52 -46h-20l-31 1h-733l-41 -2q-64 0 -64 43v21l1 10q0 45 41 45l836 2q63 0 63 -33z" />
    <glyph glyph-name="greater" unicode="&#x3e;" horiz-adv-x="1138" 
d="M1019 588.5q0 -46.5 -71 -85.5q-768 -417 -802 -417q-20 0 -20 50t61.5 90.5t361 198.5t299.5 167q0 4 -236.5 123t-385.5 208q-104 63 -104 114.5t21 51.5q81 0 800 -411q76 -43 76 -89.5z" />
    <glyph glyph-name="question" unicode="?" horiz-adv-x="919" 
d="M444 215q15 0 44.5 -29.5t29.5 -85.5v-4l-1 -4v-8l-2 -14q0 -28 -28.5 -56.5t-70.5 -28.5h-23q-40 0 -68 28t-28 55q-4 12 -4 18v27q0 49 33.5 77t67.5 28h23q12 -3 27 -3zM424 1389h38q146 0 248 -98t102 -234v-19q0 -108 -74 -206q-35 -46 -136 -130t-121.5 -121.5
t-25 -119.5t-38.5 -82h-12q-52 0 -52 121.5t128.5 285t128.5 276.5q0 77 -53 127.5t-141.5 50.5t-129.5 -64q-56 -87 -97 -87q-55 0 -55 76v16q0 79 91.5 143.5t198.5 64.5z" />
    <glyph glyph-name="at" unicode="@" horiz-adv-x="1595" 
d="M708 338h13q89 0 169 115q35 51 69.5 154t34.5 181v15q0 44 -25 72t-67 28h-20q-92 0 -168 -119q-99 -154 -99 -275v-45q0 -51 24 -88.5t69 -37.5zM1014 508q0 -106 83 -106q35 0 85 36q88 62 135 210q24 77 24 160q0 201 -137.5 326t-348.5 125q-240 0 -412 -198
q-69 -80 -116 -199q-47 -120 -47 -250q0 -292 173 -463q163 -161 407 -161q120 0 264 54q135 50 144 50h1q0 -46 -169 -114q-168 -67 -308 -67h-4q-296 0 -471.5 190t-175.5 457q0 181 58 323q112 274 364 391q142 66 270 66h59q113 0 222 -42q224 -86 309 -297
q40 -100 40 -219q0 -212 -113.5 -356.5t-255.5 -144.5q-47 0 -85 25l-29 27l-19 29l-18 18l-27 -7l-36 -23l-39 -20q-59 -26 -127.5 -26t-118.5 60t-50 181q0 63 30.5 141.5t73.5 133.5q87 110 184 110l39 -4l32 -12l29 -6l28 7q54 17 65 17q50 0 50 -50q0 -14 -31 -160
t-31 -212z" />
    <glyph glyph-name="A" unicode="A" horiz-adv-x="1399" 
d="M793 572q66 0 66 19.5t-92 295t-94.5 275.5t-26.5 -65q-170 -453 -170 -501v-6q0 -14 32 -14l14 -2l241 -2h30zM349 177q0 -44 36.5 -90t36.5 -47q0 -22 -42 -22q-184 0 -252.5 13.5t-68.5 43.5q0 19 38.5 48t51.5 43q64 66 131 258q27 78 84.5 232t82.5 231t43 127
q18 52 42 130q72 241 169 241h1q21 0 46 -19q51 -39 99 -153t181.5 -502t170.5 -460t74 -102q75 -60 75 -73q0 -33 -57 -46.5t-233 -13.5h-27q-116 0 -116 36q0 11 36.5 37.5t36.5 58t-35.5 153.5t-66 152.5t-201.5 30.5l-119 -2q-113 0 -147 -47q-70 -96 -70 -258z" />
    <glyph glyph-name="B" unicode="B" horiz-adv-x="1295" 
d="M981 365v32q0 63 -28 123q-77 166 -342 166h-72q-62 0 -76.5 -16t-14.5 -85v-116l1 -10v-29q0 -225 19 -263q25 -50 135 -50l22 -2h54q141 0 221.5 68t80.5 182zM915 1037v29q0 108 -76.5 165.5t-194.5 57.5h-38q-115 0 -136 -32.5t-21 -247.5l-1 -9v-69l-1 -35l1 -8v-16
l3 -32q0 -55 83 -55h52q149 0 239 62.5t90 189.5zM266 850v51l1 78q0 225 -21 271q-13 28 -67.5 56t-54.5 48q0 35 101 35h147l24 -1h48q386 0 495 -57q73 -38 117 -110.5t44 -162.5q0 -169 -160 -267l-21 -12q-36 -21 -36 -24.5t80.5 -43t128.5 -93.5q83 -93 83 -206v-26
q0 -183 -160 -295q-120 -84 -362 -84h-26l-26 1l-75 1h-49l-224 -2h-47q-86 0 -86 28.5t57.5 54t77 77t19.5 321.5v52l-5 207l-2 51q-1 26 -1 52z" />
    <glyph glyph-name="C" unicode="C" horiz-adv-x="1346" 
d="M755 -18h-36q-117 0 -236 50t-208.5 149.5t-134.5 226.5t-45 249v37v6q0 145 51 272q108 272 355 377q106 45 207.5 45t192 -17.5t181.5 -17.5t119.5 -62.5t28.5 -172t-32 -109.5q-25 0 -77.5 79.5t-123.5 124.5q-112 71 -230 71q-217 0 -337 -165t-120 -435
q0 -271 147 -445q122 -142 345 -142q96 0 190 48q41 21 125 89.5t114 68.5q19 0 19 -34.5t-45.5 -102.5t-93.5 -97t-155.5 -61t-200.5 -32z" />
    <glyph glyph-name="D" unicode="D" horiz-adv-x="1478" 
d="M639 102h51q203 0 328.5 159.5t125.5 419.5v20l-1 19q0 247 -133 413q-62 78 -150.5 117t-184.5 39h-33q-103 0 -149 -23q-31 -16 -31 -83v-165l1 -17l1 -50v-33l1 -17v-205q0 -495 12 -530q22 -64 162 -64zM125 1338v12q0 36 345 36l101 2h103q469 0 636 -384
q56 -128 56 -295v-28q0 -149 -54 -281q-165 -398 -642 -398h-2h-126l-25 1h-49q-235 0 -302 12q-39 7 -39 43q0 9 78 48q42 21 56 75t14 324v410l-1 52l-3 102q0 130 -31 184q-16 29 -65.5 48t-49.5 37z" />
    <glyph glyph-name="E" unicode="E" horiz-adv-x="1250" 
d="M1154 275q0 -91 -31.5 -162t-74 -91t-279.5 -20h-89l-44 1q-44 1 -193.5 1t-235 13t-85.5 53l16 19l55 30q39 29 53 84t14 478t-9.5 480.5t-46.5 92.5l-25 21l-24 16q-24 20 -24 32q0 35 106 44.5t377 9.5l87 2h86q189 0 236 -26q68 -38 68 -187q0 -54 -22 -54
q-11 0 -51 49.5t-117.5 79t-255.5 29.5q-115 0 -148 -73q-42 -94 -42 -287q0 -59 42 -83t127.5 -24t134.5 39l24 23l21 25q22 24 44 24l22 -12q32 -32 32 -207t-41 -175q-23 0 -47 27q-59 67 -65 71q-48 28 -143.5 28t-127.5 -35.5t-32 -107.5q0 -218 42 -308
q23 -48 64.5 -66t157.5 -18q222 0 319.5 95.5t102.5 95.5q22 0 22 -27z" />
    <glyph glyph-name="F" unicode="F" horiz-adv-x="1168" 
d="M1073 1091q-12 0 -58 61t-126.5 91t-248.5 30q-105 0 -149 -75.5t-44 -265.5q0 -85 38 -115t123.5 -30t118.5 19.5t65.5 57.5t42.5 38q33 0 46 -46t13 -157q0 -181 -53 -181q-13 0 -31 16l-16 16q-25 26 -37 35q-56 40 -151.5 40t-128.5 -51q-21 -33 -21 -197.5
t30 -240.5q12 -29 51.5 -59t39.5 -41q0 -25 -86 -25q-190 0 -281 12t-91 45q0 17 57 49t70.5 74t13.5 470t-15 498.5t-51 104.5q-66 62 -66 69l13 12q53 38 586 38q291 0 332 -39t41 -177v-31q0 -45 -27 -45z" />
    <glyph glyph-name="G" unicode="G" horiz-adv-x="1464" 
d="M1351 582q0 -5 -34.5 -53t-45 -87.5t-14 -180t-34.5 -168t-101 -39.5t-165.5 -41.5t-190.5 -29.5h-42q-119 0 -236 53q-250 113 -347 370q-46 122 -46 252v45q0 290 192.5 493t474.5 203q79 0 183.5 -24.5t128.5 -24.5l32 1l32 2q53 0 74 -33q40 -64 40 -199
q0 -87 -41 -87q-9 0 -74 78q-145 176 -360 176t-340 -159.5t-125 -425.5t136 -433.5t333 -167.5q124 0 201.5 55.5t77.5 158.5t-24 153t-64.5 88t-40.5 47q0 21 210 21t210 -43z" />
    <glyph glyph-name="H" unicode="H" horiz-adv-x="1546" 
d="M1175 18q-208 0 -208 45q0 1 41.5 36.5t60 113t18.5 313.5q0 122 -52 142q-39 15 -270.5 15t-274.5 -24t-43 -150q0 -265 15 -316.5t37 -77.5l24 -23q34 -33 34 -43q0 -46 -293 -46h-46q-119 0 -119 46q0 15 59.5 42t76 81.5t16.5 503t-15 499.5t-41 74l-30 19
q-52 33 -52 44q0 39 64 46.5t290 7.5q117 0 117 -40q0 -3 -38.5 -30.5t-50.5 -54.5q-32 -70 -32 -316q0 -124 45.5 -144t293 -20t278.5 44q18 25 18 207.5t-24 232.5q-10 20 -47.5 51.5t-37.5 36.5q0 43 296 43q158 0 158 -23v-26q0 -11 -53 -43t-73.5 -93t-20.5 -421l1 -97
l1 -50l1 -148q0 -243 12.5 -287t41.5 -65q83 -60 83 -61q0 -29 -35 -39q-18 -5 -226 -5z" />
    <glyph glyph-name="I" unicode="I" horiz-adv-x="734" 
d="M565 0h-85l-22 1h-109l-86 -1h-85q-70 0 -70 32q0 24 65 54.5t80.5 95.5t15.5 510.5t-14.5 507.5t-56.5 87q-90 53 -90 64q0 34 63 34h86l22 -1l216 1h63q68 0 68 -33q0 -24 -64.5 -54.5t-81 -101t-16.5 -508.5t15 -502.5t57 -87.5q90 -50 90 -64q0 -34 -61 -34z" />
    <glyph glyph-name="J" unicode="J" horiz-adv-x="922" 
d="M342 1345q0 39 150 39h254q83 0 83 -29v-14q0 -13 -55.5 -51t-71 -93t-15.5 -401t-10.5 -456.5t-57 -218.5t-142.5 -171.5t-205 -63.5h-21q-83 0 -154.5 45t-71.5 121q0 87 82 87q29 0 67 -48.5t65 -48.5q59 0 118.5 72.5t97 207.5t37.5 490v81l-2 105q0 156 -22 204
t-74 85.5t-52 57.5z" />
    <glyph glyph-name="K" unicode="K" horiz-adv-x="1413" 
d="M1335 44q0 -37 -168 -37t-209.5 26t-41.5 117t-146.5 285t-203.5 194q-40 0 -66 -46q-40 -72 -40 -218.5t16.5 -192.5t56.5 -80.5t40 -61t-220 -26.5h-89q-131 0 -131 38q0 17 54 53.5t65 123.5q4 31 4 484t-11 499t-66 82t-55 55q0 44 344 44q101 0 101 -36
q0 -2 -43 -47t-59 -120t-16 -295q0 -112 35 -112q83 0 335 305q93 113 93 196l-8 24q-11 32 -11 45q0 41 130 41q222 0 222 -37q0 -9 -116 -107t-250.5 -248t-134.5 -210t376 -540q61 -78 137 -135.5t76 -62.5z" />
    <glyph glyph-name="L" unicode="L" horiz-adv-x="1201" 
d="M254 857q0 312 -13 358t-54 68q-92 50 -92 62q0 39 96 39h86l29 -1h29q265 0 265 -39q0 -25 -56.5 -59.5t-69.5 -77.5q-24 -77 -24 -285l-2 -60v-269q0 -358 33 -421q20 -38 62 -51t171.5 -13t229.5 63q46 29 102.5 112t80 83t23.5 -62.5t-33 -206.5q-10 -44 -27 -58
q-37 -31 -346 -31l-59 -2q-30 -1 -59 -1l-60 -2l-121 -1h-177q-136 0 -136 43q0 11 47 56.5t59 98t12 234.5l3 211l1 91v121z" />
    <glyph glyph-name="M" unicode="M" horiz-adv-x="1778" 
d="M122 1324q0 40 136.5 40t178 -24t80 -87t181.5 -420l23 -59q32 -84 45 -116l93 -230l23 -35q20 0 187 404t211.5 474.5t73.5 84.5q30 14 118.5 14t138.5 -17q30 -10 30 -45l-25 -29l-34 -27q-31 -33 -44.5 -94t-13.5 -231l3 -254q0 -345 12 -421.5t36 -112.5l31 -33
l37 -23l26 -25q0 -49 -193 -49h-59q-155 0 -155 43q0 24 31 64.5t41 109t10 412.5l2 245q0 213 -28 213q-18 0 -191.5 -438t-188.5 -470q-51 -108 -96 -108q-30 0 -63 64l-46 111q-54 138 -191.5 486.5t-159.5 348.5t-22 -415v-123l1 -61q1 -61 1 -164t14 -146t42 -78.5
t28 -62t-119 -26.5q-227 0 -227 36q0 22 42 54q71 53 85.5 117t14.5 307l1 62q1 62 1 125l4 247q0 176 -16 228.5t-63 89t-47 44.5z" />
    <glyph glyph-name="N" unicode="N" horiz-adv-x="1519" 
d="M489 47q0 -41 -267 -41q-130 0 -130 36q0 4 83 62q43 30 58.5 94t15.5 487.5t-13 484.5t-73 101t-60 64q0 36 127 36h46q125 0 219 -109q51 -60 348 -478.5t315 -418.5t18 392.5t-23 471.5q-11 37 -34 58l-27 18q-41 26 -41 31q0 33 111 33q186 0 237 -28l16 -17
q0 -32 -49 -80t-62.5 -117t-13.5 -349l-2 -194l-2 -97q-1 -48 -1 -145l2 -190q0 -136 -44 -136q-67 0 -193 161q-51 65 -347 490t-317.5 425t-21.5 -374l5 -386q0 -107 29 -165q11 -23 51 -63.5t40 -56.5z" />
    <glyph glyph-name="O" unicode="O" horiz-adv-x="1505" 
d="M1171 650v60q-1 120 -31 231q-68 247 -233 336q-71 38 -150 38h-17q-73 0 -152.5 -41.5t-136.5 -128.5q-115 -176 -115 -423v-39q0 -241 111 -418q56 -89 136.5 -138.5t170.5 -49.5h17q77 0 151 41q153 85 214 298q35 124 35 234zM129 672v48q0 144 52 274.5t135 222.5
t192 145t232 53h45q120 0 234.5 -52.5t198.5 -150.5q178 -205 178 -491v-24q0 -151 -49.5 -286.5t-140.5 -236.5q-179 -198 -452 -198q-8 -2 -18 -2q-101 0 -437 212q-80 92 -125 224t-45 262z" />
    <glyph glyph-name="P" unicode="P" horiz-adv-x="1221" 
d="M570 683h29q151 0 237.5 79.5t86.5 225.5t-70 222t-181 76l-9 1l-10 1l-39 1l-10 -1q-85 0 -113 -18.5t-28 -84.5q-3 -27 -3 -28l-1 -29v-59l-1 -30v-59l-1 -9v-50l-1 -19v-20l-1 -29v-20l-1 -28q0 -83 14 -102.5t102 -19.5zM1137 996q-1 -102 -47 -183
q-88 -154 -271 -199q-60 -15 -181 -24t-136 -22q-46 -41 -46 -313q0 -67 22 -99.5t79.5 -61t57.5 -45.5q0 -42 -212 -42h-155q-143 0 -143 48q0 11 75 59q45 29 63.5 88t18.5 364l3 128l1 25l2 129v51q0 253 -12.5 306.5t-45.5 80.5q-75 61 -75 62q0 37 348 37l128 2h26
q242 0 355 -85q145 -108 145 -306z" />
    <glyph glyph-name="Q" unicode="Q" horiz-adv-x="1536" 
d="M324 762v-80q0 -100 34 -215q64 -216 213 -311q84 -53 156 -53h28q88 0 157.5 49.5t141.5 136.5q143 173 143 394v57q0 107 -32.5 217.5t-91 186.5t-133 118.5t-151.5 42.5h-52q-75 0 -155 -43q-158 -84 -226 -297q-32 -99 -32 -203zM121 698q0 308 191.5 509.5
t456.5 201.5h29q258 0 438 -210q153 -177 153 -480q0 -187 -78.5 -355.5t-216.5 -275.5q-46 -37 -46 -65q0 -46 126 -122q71 -43 162 -71.5t91 -45t-30.5 -35.5t-110.5 -19h-28q-144 0 -400.5 105.5t-415 237t-254.5 331.5q-67 140 -67 294z" />
    <glyph glyph-name="R" unicode="R" horiz-adv-x="1371" 
d="M920 1004v41q0 108 -73.5 174.5t-211.5 66.5h-29q-111 0 -131.5 -38.5t-20.5 -282.5v-19l-1 -37v-81q0 -92 48 -92l16 -2l26 -1h56q146 0 233.5 74t87.5 197zM1318 70q0 -56 -165 -56q-100 0 -153.5 54.5t-139.5 238.5t-142 253t-139.5 69t-96.5 -53.5t-13 -215.5
t31 -218q15 -27 58 -57t43 -40q0 -38 -193 -38l-34 1q-168 0 -209 9.5t-41 39.5q0 16 55 47.5t72 77t17 263.5l2 139l3 176q0 372 -17.5 441.5t-53.5 97.5l-20 12l-21 11q-24 15 -24 26q0 37 311 37l135 1h71q332 0 431 -200q35 -70 35 -164.5t-48.5 -169.5t-115.5 -126.5
t-67 -87.5q0 -17 94.5 -192.5t140 -232t88.5 -77.5q106 -52 106 -66z" />
    <glyph glyph-name="S" unicode="S" horiz-adv-x="1115" 
d="M1010 365q0 -88 -38.5 -159.5t-94.5 -118.5q-118 -100 -294 -100h-36q-53 0 -149 24t-117 24l-82 -3q-39 0 -59 47q-29 69 -29 186v34q0 92 38 92q16 0 73 -94.5t116 -135.5q103 -72 219 -72t195 63.5t79 176t-108 191.5q-49 36 -242 122t-270 168t-77 208q0 172 119 273
t302 101q50 0 132.5 -17.5t150 -17.5t85 -52t17.5 -187q0 -73 -42 -73q-10 0 -60 83q-103 170 -274.5 170t-232.5 -98q-33 -54 -33 -108q0 -45 22 -90q31 -64 114 -115q31 -19 211 -99t241 -134q124 -111 124 -251v-38z" />
    <glyph glyph-name="T" unicode="T" horiz-adv-x="1272" 
d="M838 1266q-72 0 -93 -99q-11 -52 -11 -482t21 -511q13 -49 73.5 -82.5t60.5 -49.5q0 -32 -41 -38q-20 -3 -218 -3l-129 -1q-120 0 -120 29.5t63 63.5t78.5 102t15.5 494t-14 480t-33.5 72t-71.5 18q-178 0 -249 -121q-53 -89 -55 -89q-33 0 -33 66q0 183 34 233
q23 34 118 34l62 2l95 1h321l33 -1l260 1q134 0 162 -26t28 -188v-32q0 -80 -30 -80q-16 0 -56 65.5t-99 103.5t-172 38z" />
    <glyph glyph-name="U" unicode="U" horiz-adv-x="1457" 
d="M1239 787q0 -353 -13.5 -441.5t-60.5 -163.5q-127 -204 -438 -204t-433 209q-48 83 -59.5 190t-11.5 456.5t-13 383t-70 62t-57 51.5q0 50 237 50l75 2h38q108 0 108 -25q0 -9 -47 -56t-56 -120q-19 -149 -19 -435v-33q0 -259 15 -347q30 -182 177 -248q66 -30 155 -30
t168 38t125 119q61 107 61 457q0 494 -54 562q-17 22 -46.5 49t-29.5 32q0 37 123 37h39q165 0 205 -18q22 -10 22 -40q0 -14 -62 -53t-73 -102q-5 -29 -5 -382z" />
    <glyph glyph-name="V" unicode="V" horiz-adv-x="1379" 
d="M1332 1325q0 -15 -58 -62t-82 -98q-48 -103 -189 -502t-196.5 -533.5t-109.5 -134.5q-59 0 -114 126q-26 61 -81 217.5t-173 476.5t-137.5 362t-83 86.5t-63.5 76.5q0 41 270 41q166 0 166 -40q0 -12 -35.5 -42t-35.5 -73q0 -119 272 -833q42 -110 49 -110q16 0 49 87
q270 720 270 841q0 57 -22 84l-45 56q0 25 108 25l126 -3q115 0 115 -48z" />
    <glyph glyph-name="W" unicode="W" horiz-adv-x="1906" 
d="M1535 1170q0 140 168 140q85 0 85 -36l-8 -20l-19 -19l-18 -31q-39 -66 -52 -114q-219 -788 -236 -829q-59 -141 -134 -141q-51 0 -118 148.5t-147.5 394.5t-98 246t-114 -301t-123.5 -362.5t-60.5 -109t-70 -47.5t-67 31.5t-59.5 107t-98.5 313.5t-104.5 332t-56 202
l-9 46q-10 44 -22 85l-12 36l-16 28l-11 24v20q0 35 54 35q142 0 197.5 -29t55.5 -102l-4 -76q0 -100 59.5 -306.5t131.5 -354.5q12 -25 21 -25q19 0 34 52q130 458 130 723q0 86 144 86q37 0 93 -35.5t78 -76.5q10 -18 11 -64t8 -90t42 -157q118 -381 140 -381q36 0 56 52
q44 116 118 373q32 111 32 232z" />
    <glyph glyph-name="X" unicode="X" horiz-adv-x="1389" 
d="M1312 57q0 -31 -19 -40q-38 -17 -199 -17h-84q-152 0 -152 32q0 18 29 45.5t29 58.5q0 57 -173 324q-65 100 -97 100q-11 0 -73 -90q-166 -241 -166 -318q0 -29 15 -52l18 -22q30 -34 30 -39q0 -34 -145 -34l-43 -1q-43 -1 -85 -1q-126 0 -126 28t73.5 69.5t133.5 115.5
q147 183 277 395q25 41 25 73q0 61 -301 482q-43 61 -78 87q-106 80 -106 85q0 43 324 43q137 0 137 -37q0 -8 -30 -34.5t-30 -41.5q0 -70 138 -283q73 -113 95 -113q17 0 74 81q151 216 151 284q0 33 -14 55l-19 21q-31 29 -31 36q0 32 110 32l43 -1h43q190 0 190 -37
q0 -17 -72 -58t-124 -106q-272 -343 -272 -431t318 -518q44 -60 81 -91l30 -22l30 -18q45 -29 45 -42z" />
    <glyph glyph-name="Y" unicode="Y" horiz-adv-x="1326" 
d="M761 335q0 -129 18.5 -175.5t72.5 -75.5t54 -57t-94 -28h-65l-32 1l-63 1l-31 1l-96 1q-112 0 -112 36q0 18 59.5 45.5t74.5 59.5q28 60 28 220t-17 207.5t-157 301.5t-180.5 308.5t-97.5 91t-57 60.5q0 47 277 47h62q93 0 93 -40q0 -12 -30.5 -36.5t-30.5 -53.5
q0 -65 188 -401q67 -120 83.5 -120t82.5 113q180 307 180 401q0 30 -31 63t-31 40q0 33 180.5 33t180.5 -40q0 -21 -90 -84q-48 -34 -101 -117q-148 -232 -266 -476q-52 -108 -52 -327z" />
    <glyph glyph-name="Z" unicode="Z" horiz-adv-x="1235" 
d="M1150 309v-33q0 -122 -39 -200q-15 -30 -38 -43q-52 -30 -439 -30h-395q-143 0 -143 44q0 69 376.5 612.5t376.5 592.5q0 28 -206 28t-313 -48q-56 -25 -107.5 -100t-72 -75t-20.5 73q0 182 54 222q39 29 357 29h200q248 0 309.5 -7.5t61.5 -41.5q0 -55 -377.5 -608.5
t-377.5 -575.5q0 -45 228.5 -45t344.5 52q69 31 121.5 112t78.5 81q20 0 20 -39z" />
    <glyph glyph-name="bracketleft" unicode="[" horiz-adv-x="697" 
d="M553 -290h-23l-23 1q-88 4 -141 4q-132 0 -152 41q-13 26 -13 269v388l-2 72l-1 24l-1 73v25l1 24q1 24 1 48l1 24q1 24 1 60v278q0 324 10.5 353.5t40 41t96.5 11.5t91 1l70 3h24q71 0 71 -31t-65 -47q-17 -4 -64.5 -13t-58.5 -15q-36 -18 -50 -73.5t-14 -691t15 -687
t41.5 -67.5t111 -35t84.5 -45q0 -36 -51 -36z" />
    <glyph glyph-name="backslash" unicode="\" horiz-adv-x="862" 
d="M735 -128q-51 0 -99 122q-114 290 -344 848.5t-230 582.5q0 19 70 19q43 0 85 -89q29 -61 89 -218t170 -425l263 -642q65 -158 65 -178t-69 -20z" />
    <glyph glyph-name="bracketright" unicode="]" horiz-adv-x="697" 
d="M491 166q0 -363 -12.5 -396.5t-44 -43.5t-139.5 -10l-135 -5q-64 0 -64 38q0 22 92.5 42.5t101.5 26.5q28 17 43.5 65.5t15.5 694t-15.5 694t-34 63.5t-109.5 35.5t-91 51t72 30.5l22 -1l44 -3l93 -1q127 0 148 -47q13 -30 13 -252v-403l2 -97l2 -48v-49l-2 -48l-2 -96
v-241z" />
    <glyph glyph-name="asciicircum" unicode="^" horiz-adv-x="1059" 
d="M947 741q0 -23 -50.5 -23t-107.5 81q-63 89 -157.5 260t-99.5 171q-11 0 -114.5 -186t-140.5 -238q-62 -86 -112.5 -86t-50.5 14v11q0 2 145 263t186 324.5t86.5 63.5t82.5 -61q333 -555 333 -594z" />
    <glyph glyph-name="underscore" unicode="_" horiz-adv-x="1044" 
d="M1040 -176v-55q0 -24 -45 -24h-939q-54 0 -54 27v44q0 35 45 35h939q54 0 54 -27z" />
    <glyph glyph-name="grave" unicode="`" horiz-adv-x="769" 
d="M260 1454q52 0 108 -64q170 -194 170 -235v-4q0 -15 -28 -15h-14q-52 0 -193.5 123.5t-141.5 149.5v9q0 38 68 38h16q10 -2 15 -2z" />
    <glyph glyph-name="a" unicode="a" horiz-adv-x="990" 
d="M628 420q0 59 -30 59h-5q-34 0 -123 -27.5t-124 -54.5q-87 -68 -87 -153v-13q0 -55 35 -94.5t83 -39.5l12 -2h19q78 0 146 61t68 131q2 14 2 19l1 7l2 38v13l1 19v37zM932 99q0 -22 -27 -45q-61 -52 -139 -52q-42 0 -86 40.5t-60 40.5t-108 -48.5t-153 -48.5h-23
q-102 0 -171.5 67.5t-69.5 160.5v22q0 216 368 300q85 20 110 33q50 27 50 108.5t-42.5 126t-111.5 44.5t-122 -32q-27 -16 -63 -80t-81 -64q-63 0 -63 72t106 138t222 66q214 0 287 -132q35 -65 35 -329t16 -309t71 -51t55 -28z" />
    <glyph glyph-name="b" unicode="b" horiz-adv-x="1099" 
d="M827 445v25l-1 12q0 150 -65.5 254.5t-170.5 104.5h-10q-105 0 -174 -101q-40 -58 -40 -185l-2 -22l-1 -45v-102q0 -169 42 -226q64 -87 166 -87h10q112 0 179 107.5t67 264.5zM57 1356q0 23 26 41q65 44 193 44q49 0 61 -48q4 -16 4 -273t32 -257q3 0 87 37
q86 38 160 38q166 0 272 -130q52 -62 79.5 -147t27.5 -168v-26q0 -210 -117 -343t-276 -133q-67 0 -167 30t-114.5 30t-44.5 -12.5t-49 -12.5q-59 0 -59 153l12 249v72l-1 24v48l-5 239v48l-5 235q0 131 -25 175q-11 20 -51 42t-40 45z" />
    <glyph glyph-name="c" unicode="c" horiz-adv-x="962" 
d="M530 -16h-23q-190 0 -316 143q-49 56 -80.5 140t-31.5 180v25q0 101 36 190q73 181 230 254q84 40 171 40h22q147 0 260 -67q59 -35 59 -114.5t-65 -79.5q-23 0 -67.5 56.5t-87.5 80.5t-109 24q-115 0 -192 -98.5t-77 -272.5t84.5 -277t233.5 -103q72 0 164 54t118 54
q16 0 16 -29q0 -64 -120 -132t-225 -68z" />
    <glyph glyph-name="d" unicode="d" horiz-adv-x="1142" 
d="M776 515q0 189 -45 259q-27 42 -79 72.5t-105 30.5h-20q-103 0 -169.5 -97t-66.5 -261v-63q0 -153 64 -262q27 -46 75 -73t93 -27h30q106 0 175 101q45 65 45 202l2 23l1 47v48zM672 931h1q59 0 59 207q0 110 -12 136t-41 44t-29 33t26 27q73 34 189 34q51 0 69 -40.5
t18 -205.5l2 -48l2 -123v-323l-4 -229q0 -208 6 -252.5t44 -75t38 -42.5v-11q0 -8 -20 -19q-63 -36 -137.5 -36t-93.5 22q-4 4 -20 33.5t-26 29.5t-51.5 -27t-93 -51.5t-140.5 -24.5h-23q-49 0 -113.5 27.5t-103.5 80.5q-101 136 -101 321v27q0 105 34 199q71 198 224 269
q82 38 142.5 38t103 -10t51.5 -10z" />
    <glyph glyph-name="e" unicode="e" horiz-adv-x="968" 
d="M709 637v12q0 75 -57 139t-140 64h-39q-87 0 -145 -74.5t-58 -159.5q0 -38 141 -38h125l6 1l69 4l7 1l36 3q55 0 55 48zM851 216q20 0 20 -23.5t-38 -67.5t-128 -89q-91 -45 -189 -45q-198 0 -312.5 127t-114.5 337q0 311 251 449q78 43 167 43h42q128 0 221 -83
q49 -44 79 -109.5t30 -113.5v-20q0 -64 -66 -83.5t-260 -28.5t-220 -20q-55 -23 -55 -95q0 -129 93 -215q73 -68 200 -68q63 0 149 39q10 5 64 35.5t67 30.5z" />
    <glyph glyph-name="f" unicode="f" horiz-adv-x="734" 
d="M614 1411q76 0 124 -33t48 -90.5t-55 -57.5q-25 0 -80.5 33t-95.5 33q-67 0 -105.5 -56t-38.5 -152.5t29 -136t85.5 -63.5t56.5 -43.5t-58 -40t-71 -36.5q-24 -29 -24 -168l-2 -51q-1 -26 -1 -51l-2 -25l-1 -25q-5 -80 -5 -170.5t12.5 -124.5t55.5 -63.5t43 -48.5
q0 -46 -289 -46h-70q-61 0 -61 32q0 16 42 44q43 28 58.5 89.5t15.5 306t-11 288.5t-51 71q-39 27 -39 51t36.5 65t53.5 90q67 196 135 268q106 111 265 111z" />
    <glyph glyph-name="g" unicode="g" horiz-adv-x="1013" 
d="M823 -181v22q0 58 -62 94t-168 36l-10 1l-9 1l-73 3h-79q-97 0 -161.5 -44.5t-64.5 -116.5v-22q0 -64 79 -110t209 -46h10q135 0 232 52.5t97 129.5zM659 596v17q0 106 -47.5 180.5t-126.5 74.5h-22q-71 0 -116 -64.5t-45 -140.5l-2 -16v-51q0 -89 47 -163t127 -74h21
q76 0 120 69t44 168zM800 791q0 -20 7 -63t7 -105.5t-34 -130.5q-91 -179 -310 -193q-90 -6 -113 -15q-82 -31 -82 -83q0 -37 74 -58q39 -11 209 -23t238 -48q127 -67 127 -205q-1 -143 -121 -231q-121 -89 -304 -89h-4q-289 0 -385 145q-30 45 -30 93v24q0 72 108 165
q35 30 35 43t-25 34.5t-33 30.5q-33 38 -33 87.5t36 91.5q9 11 45.5 43t36.5 46t-17 38l-14 18q-67 87 -67 171q0 169 123.5 267.5t275.5 98.5h27q262 0 354 -48q13 -7 13 -19q0 -28 -72 -38t-72 -47z" />
    <glyph glyph-name="h" unicode="h" horiz-adv-x="1167" 
d="M101 1326q0 54 164 54h30q60 0 75 -53q11 -38 24 -255t47 -217q3 0 94.5 45t163.5 45t141.5 -45.5t98.5 -111t29 -300t14.5 -285.5t49.5 -88.5t35 -51t-21 -24.5q-60 -31 -181 -31t-121 35q0 11 19.5 34.5t25.5 37.5t6 144l1 37l2 36q5 102 5 232.5t-43.5 186.5
t-145.5 56q-38 0 -96.5 -30t-101 -96.5t-42.5 -267.5t14.5 -255t45.5 -83t31 -42q0 -33 -151 -33l-35 1h-35q-145 0 -145 42q0 16 40 61.5t53.5 96.5t13.5 268.5t-5.5 346.5t-5.5 138l5 133l2 63q0 82 -12.5 107.5t-33.5 37.5l-21 9q-34 15 -34 22z" />
    <glyph glyph-name="i" unicode="i" horiz-adv-x="606" 
d="M134 4q-45 0 -45 28.5t58 52.5t72 74t14 307.5t-15.5 304t-67.5 65t-52 38t21 30.5q82 43 227 43h13q41 0 46 -42v-254l-1 -46v-209.5t14 -234.5t71.5 -74.5t57.5 -54.5t-85 -28h-31l-15 1h-163l-60 -1h-59zM419 1289v-25q0 -25 -24 -55t-52 -30q-6 -2 -10 -2l-14 -2h-26
q-20 5 -33 5t-38 25t-25 62v21q0 32 24 62t57 30l3 1l4 1l30 2h3q46 0 73.5 -27.5t27.5 -67.5z" />
    <glyph glyph-name="j" unicode="j" horiz-adv-x="583" 
d="M436 762v-680q0 -230 -80 -346q-44 -63 -116.5 -99.5t-143.5 -36.5t-96.5 24t-25.5 41v15q0 55 74 55q18 0 44 -9t39 -9q76 0 109 107q26 83 26 458t-17 444.5t-68.5 102.5t-51.5 49.5t22 26.5q89 41 229 41q35 0 45.5 -22t10.5 -162zM446 1299v-29q-3 -9 -3 -24
t-25.5 -40.5t-54.5 -25.5q-12 -4 -22 -4l-15 -1l-4 1h-4q-40 0 -66.5 26.5t-26.5 58.5v24q0 40 29 69t59 29l22 3h19q40 0 66 -26t26 -61z" />
    <glyph glyph-name="k" unicode="k" horiz-adv-x="1105" 
d="M274 1408q77 0 87 -41q5 -20 5 -294.5t15.5 -371.5t57.5 -97q62 0 154 112q54 66 60 118.5t30.5 72.5t149 20t124.5 -36q0 -3 -160 -134.5t-160 -195.5q0 -92 252 -376q39 -44 102.5 -86.5t63.5 -43.5v-16q0 -28 -88 -28q-192 0 -232 25q-17 11 -38.5 90.5t-72.5 153.5
q-110 159 -170 159q-11 0 -36.5 -44.5t-25.5 -119t30 -137t30 -68.5q0 -12 -39.5 -30.5t-196.5 -18.5q-100 0 -100 40q0 9 13 29l23 35q30 57 38 111.5t8 478.5t-15.5 493.5t-43.5 93.5l-47 41q0 65 182 65z" />
    <glyph glyph-name="l" unicode="l" horiz-adv-x="640" 
d="M216 952q0 195 -13 261t-32 81.5t-49 28t-30 30t21 28.5q66 34 220 34q50 0 56 -48q1 -9 1 -76l-2 -99v-40l-1 -42v-103q1 -751 73 -867q18 -28 60.5 -51t42.5 -43q0 -45 -121 -45h-39l-20 1l-78 1q-174 0 -174 33q0 17 31.5 39t40 49t8.5 171l-1 20v39l5 184v125l1 63
v226z" />
    <glyph glyph-name="m" unicode="m" horiz-adv-x="1661" 
d="M281 917q59 0 83 -43q38 -68 46 -68l96 49q72 33 151.5 33t119.5 -15.5t82.5 -44t55 -28.5t117.5 62q102 61 181 61h3q158 0 221 -147q41 -97 41 -392q0 -128 13 -163t44.5 -67.5t31.5 -51.5t-28 -34q-90 -49 -203 -49q-55 0 -55 23q0 1 20.5 34.5t20.5 83.5l-1 40l-4 83
q-4 112 -4 129q0 204 -26 266.5t-70.5 85.5t-92 23t-86.5 -28t-53 -57q-38 -77 -38 -424q0 -81 22 -114l22 -23q44 -41 44 -45q0 -33 -30 -44q-54 -19 -259 -19q-92 0 -92 36q0 19 30 50t39 57.5t9 229t-25.5 282.5t-64.5 101q-24 13 -71.5 13t-102.5 -43.5t-78.5 -95.5
t-23.5 -229l7 -298q0 -32 14 -54l14 -17q21 -22 21 -32q0 -20 -39 -20h-36q-106 0 -178 21t-72 57q0 14 40 46.5t52 62t12 293.5t-10 294t-32.5 52t-22.5 34q41 44 145 44z" />
    <glyph glyph-name="n" unicode="n" horiz-adv-x="1176" 
d="M112 867q0 52 210 52q51 0 72 -52q29 -74 38 -74q8 1 58 31q131 80 256.5 80t186.5 -88q44 -64 44 -303t23 -298q10 -27 53.5 -60.5t43.5 -51.5t-21 -29q-81 -44 -277 -44q-39 0 -39 20q0 10 31 37l12 12q20 25 20 106l-1 30l-2 31l-1 60q0 268 -43 371
q-24 56 -71.5 87.5t-109.5 31.5q-126 0 -191 -96q-36 -53 -36 -282t12 -273.5t47 -76.5t35 -49q0 -32 -107 -32h-31q-240 0 -240 46q0 31 35 54q61 40 72.5 72t11.5 174l2 65l1 64l-7 184q0 101 -9 128.5t-43.5 44.5t-34.5 28z" />
    <glyph glyph-name="o" unicode="o" horiz-adv-x="1096" 
d="M819 435v64q0 165 -79 276.5t-185 111.5h-21q-108 0 -177.5 -107t-69.5 -256v-51q0 -165 59 -257q92 -143 196 -143h1h32q102 0 173 103t71 259zM108 455v34q0 204 129 347q129 142 318 142h16q195 0 318 -142t123 -350v-16q0 -98 -36 -192q-36 -92 -100 -160
q-130 -137 -321 -137t-319 134t-128 340z" />
    <glyph glyph-name="p" unicode="p" horiz-adv-x="1124" 
d="M845 520q0 133 -66.5 232.5t-170.5 99.5h-19q-103 0 -172 -101q-40 -58 -40 -238v-98l1 -11l1 -31l2 -41q0 -90 47 -141q69 -74 148 -74h38q88 0 158.5 96t70.5 222l2 24v61zM614 28q-69 0 -129 16t-62 16q-54 0 -54 -136.5t18 -174t67.5 -66.5t49.5 -49q0 -27 -132 -27
h-25l-25 1h-26q-214 0 -214 30q0 24 48.5 57t65 114.5t16.5 490.5t-12.5 458.5t-42.5 71.5q-60 44 -60 56t14 23q52 42 192 42q37 0 56 -39l12 -36q8 -24 14 -24q15 0 59 28q126 82 216 82q159 0 252 -102q57 -62 88 -141.5t31 -153.5v-55q0 -96 -33 -182
q-76 -197 -238 -267q-77 -33 -146 -33z" />
    <glyph glyph-name="q" unicode="q" horiz-adv-x="1122" 
d="M786 483v80q0 152 -43 218q-63 97 -169 97h-31q-107 0 -177.5 -108.5t-70.5 -245.5v-65q0 -149 73 -255.5t167 -106.5h18q106 0 181 109q48 70 48 219l2 23q2 23 2 35zM895 945q63 0 63 -140l-6 -134q-1 -22 -1 -169l1 -49v-49l2 -50l2 -99v-49l2 -122
q0 -287 10.5 -321.5t46.5 -54.5q65 -36 65 -54t-11 -25q-51 -32 -304 -32h-22q-67 0 -67 33q0 11 36.5 36.5t49 51.5t12.5 127.5t-21 178.5q-10 37 -46 37q-10 0 -51 -16t-70.5 -26.5t-99.5 -10.5t-143 34q-158 73 -213 263q-24 81 -24 179q0 189 103 320q63 80 142 120.5
t152 40.5h48q38 0 137.5 -31.5t110 -31.5t45 21.5t51.5 21.5z" />
    <glyph glyph-name="r" unicode="r" horiz-adv-x="822" 
d="M97 858q0 15 16 25q63 40 196 40q60 0 77 -47q28 -76 44 -76t54 32t51 41q58 38 113.5 38t85 -31t29.5 -66.5t-21 -60t-40.5 -24.5t-60 25.5t-78.5 25.5t-81 -35t-63 -86q-39 -100 -39 -276t22.5 -222.5t75 -77.5t52.5 -51q0 -31 -269 -31l-42 -1h-80q-61 0 -61 28.5
t51 52.5q52 24 62 48q18 42 18 307v42l-1 63l-2 107q0 83 -20 118t-54.5 56t-34.5 36z" />
    <glyph glyph-name="s" unicode="s" horiz-adv-x="874" 
d="M101 201v24q0 60 31 60h1q18 0 57 -63q96 -152 250 -153q88 0 138.5 41t50.5 112.5t-84 124.5q-35 22 -169.5 79.5t-184.5 104.5q-76 72 -76 177.5t83.5 180t211.5 74.5h26q28 0 98 -14t117 -14t64.5 -39t17.5 -118.5t-24 -79.5t-67.5 58.5t-94 88t-133 29.5t-132.5 -58
q-27 -31 -27 -68q0 -31 20 -64q34 -57 200.5 -122t236.5 -127t70 -168v-26q0 -108 -96.5 -183t-232.5 -75q-43 0 -124.5 18t-117.5 18l-41 -2q-69 0 -69 184z" />
    <glyph glyph-name="t" unicode="t" horiz-adv-x="742" 
d="M657 132q0 -48 -79.5 -89t-143.5 -41h-16q-53 0 -102.5 40t-73.5 112t-24 314t-17.5 295t-71 74.5t-53.5 42.5t25 38q4 3 29.5 16.5t32.5 21t81 160.5q37 76 85 76q35 0 58.5 -92t54.5 -115t116.5 -35t85.5 -40q0 -43 -98 -70t-117 -50q-40 -48 -40 -279t35.5 -304.5
t124.5 -73.5l14 2l29 6l13 2l25 5q27 0 27 -16z" />
    <glyph glyph-name="u" unicode="u" horiz-adv-x="1154" 
d="M865 7q-47 0 -67 41q-31 62 -38 62t-53 -31q-126 -85 -213 -85h-27q-173 0 -249 152q-34 70 -34 328.5t-13.5 309.5t-57 74.5t-43.5 47.5q0 36 185 36q75 0 85 -44t10 -331t23 -347q77 -101 165 -122q73 0 130 34.5t84 74.5q44 66 44 276.5t-14 266t-50.5 90.5
t-36.5 49.5t18 26.5q50 32 197 32q46 0 53.5 -23.5t7.5 -101.5l-1 -27l-2 -27q-2 -37 -2 -85l-4 -114q-2 -57 -2 -183q0 -207 50 -246l17 -11l19 -10q28 -17 28 -28q0 -35 -66 -60t-143 -25z" />
    <glyph glyph-name="v" unicode="v" horiz-adv-x="1050" 
d="M528 -8q-58 0 -103 100t-141.5 366.5t-119 304t-74.5 72.5t-52 63q0 47 120 47h120q122 0 122 -42q0 -1 -25.5 -35t-25.5 -84.5t169 -487.5q30 -77 37 -77q13 0 36 57q173 433 173 539q0 27 -26.5 56t-26.5 48q0 26 74 26h47l24 -1q148 0 148 -43q0 -25 -53.5 -71.5
t-62.5 -62.5t-124.5 -316.5t-153 -379.5t-82.5 -79z" />
    <glyph glyph-name="w" unicode="w" horiz-adv-x="1507" 
d="M764 919q66 0 114.5 -41t48.5 -104l-3 -29l-4 -31q0 -50 48.5 -221.5t78.5 -171.5q47 0 77 81q94 253 94 364q0 20 -9.5 56t-9.5 46q0 41 36 56t118.5 15t82.5 -42q0 -22 -29.5 -61.5t-60.5 -105.5t-103.5 -297t-115.5 -317.5t-89.5 -86.5t-92.5 95q-26 54 -100.5 274
t-92 220t-82.5 -198.5t-115.5 -297.5t-97 -99t-101.5 128q-23 53 -107 327t-134.5 330.5t-50.5 69.5q0 35 33 48.5t129 13.5h36q54 0 77 -15.5t23 -52.5l-11 -105q0 -46 45.5 -210t70 -209.5t43.5 -45.5q37 0 100 220q26 91 26 189l-6 124q0 26 34 55t100 29z" />
    <glyph glyph-name="x" unicode="x" horiz-adv-x="1066" 
d="M761 4q-128 0 -128 29q0 9 19 29t19 48t-78.5 141.5t-91.5 113.5q-19 0 -93 -99.5t-74 -157.5q0 -9 16 -35t16 -34q0 -38 -116 -38h-60q-130 0 -130 33q0 21 58.5 52.5t98.5 74.5q210 226 210 294t-210 329q-27 34 -81.5 67t-54.5 48q0 48 240 48h29q96 0 96 -34
q0 -8 -18 -30t-18 -30q0 -44 68.5 -139t74.5 -95q21 0 85 83t64 128q0 19 -18 48t-18 37q0 31 151.5 31t151.5 -28t-60.5 -61t-112.5 -93q-164 -189 -164 -248.5t234 -350.5q29 -36 81 -67t52 -47q0 -47 -238 -47z" />
    <glyph glyph-name="y" unicode="y" horiz-adv-x="1046" 
d="M258 -383q-53 0 -91 28t-38 52q0 57 116 57q71 0 139 88t68 203q0 45 -34 136q-133 354 -225 542q-15 31 -72 96.5t-57 81.5q0 44 224 44h30q85 0 85 -28q0 -14 -18 -51.5t-18 -63.5q0 -90 152 -453q32 -77 47 -77q10 0 35 58q150 352 150 481q0 38 -23.5 65t-23.5 33
q0 36 103 36q175 0 175 -37q0 -22 -56 -89t-76.5 -112t-174 -450t-194.5 -480q-87 -160 -197 -160h-26z" />
    <glyph glyph-name="z" unicode="z" horiz-adv-x="954" 
d="M871 233v-24q0 -133 -49 -180q-30 -29 -137 -29h-28l-28 1h-82l-56 1h-56q-254 0 -279 2q-67 5 -67 38q0 59 261.5 405t261.5 375.5t-143 29.5t-189.5 -21t-88.5 -76t-54 -55q-25 0 -25 61q0 123 35 163q23 26 136 26l28 -1l164 -3l27 -1l140 -1q135 0 165.5 -6t30.5 -38
q0 -55 -262.5 -410t-262.5 -369q0 -25 159 -25t217.5 26.5t102.5 86.5t55 60q24 0 24 -36z" />
    <glyph glyph-name="braceleft" unicode="{" horiz-adv-x="775" 
d="M142 573q0 25 56 54t88 74.5t32 159.5q0 24 -7 110t-7 157q0 173 85.5 253t229.5 80q33 0 33 -10v-13q0 -10 -62 -53t-94 -102.5t-32 -202.5l4 -188q0 -220 -137 -289q-33 -17 -33 -22.5t25.5 -19t54.5 -35t58.5 -85.5t29.5 -237l-4 -143q0 -132 44 -209
q19 -34 81.5 -80.5t62.5 -62.5t-24 -16h-21q-64 0 -132 28t-106 76q-64 81 -64 267l15 241q0 99 -27.5 142.5t-62.5 66.5q-86 57 -86 59z" />
    <glyph glyph-name="bar" unicode="|" horiz-adv-x="765" 
d="M444 1363v-1588q0 -92 -9.5 -109t-43.5 -17h-19q-35 0 -44.5 15t-9.5 110v1607q0 92 9.5 109t43.5 17h19q35 0 44.5 -15t9.5 -129z" />
    <glyph glyph-name="braceright" unicode="}" horiz-adv-x="775" 
d="M632 582q0 -14 -63 -54t-87.5 -85.5t-24.5 -172.5l2 -25l3 -49q9 -75 9 -206t-86.5 -214.5t-224.5 -83.5q-32 0 -32 10q0 21 68.5 70t94 112t25.5 213l-3 140q0 150 36 217t96 100l38 21q0 8 -24.5 21t-53 33.5t-61 81.5t-32.5 216l5 165q0 124 -29.5 184.5t-95 106.5
t-65.5 61.5t53.5 15.5t120 -27.5t105.5 -75.5q65 -79 65 -267l-15 -263q0 -137 111 -196q65 -35 65 -49z" />
    <glyph glyph-name="asciitilde" unicode="~" horiz-adv-x="1186" 
d="M361 812h22l11 -1q59 0 217.5 -76t215 -76t111.5 55q87 87 91 87q36 0 36 -39q0 -73 -77 -150t-164 -77h-23q-64 0 -217 76.5t-215 76.5t-120 -55q-10 -10 -40.5 -49t-50.5 -39q-36 0 -36 40v11q0 72 81 144t158 72z" />
    <glyph glyph-name="uni00A0" unicode="&#xa0;" horiz-adv-x="554" 
 />
    <glyph glyph-name="exclamdown" unicode="&#xa1;" horiz-adv-x="679" 
d="M292 575q0 102 46.5 102t46.5 -124l2 -23q7 -84 7 -119l8 -118l3 -34q2 -23 2 -35l4 -59l3 -35q8 -96 8 -120l5 -70l2 -23q10 -115 10 -141v-31q0 -50 -28.5 -76.5t-75.5 -26.5h-22q-74 0 -74 110v64l1 10l1 21q1 11 1 22l3 45l2 23q1 12 1 24l22 293l3 36q3 36 3 47
l3 36q2 24 2 36l3 36q5 60 5 83l2 23q1 12 1 24zM327 1070h26q36 0 64 -28t28 -60q2 -8 2 -11l1 -16l-1 -4q0 -53 -28.5 -81.5t-55.5 -28.5l-17 -3h-19q-39 0 -67 28t-28 62l-3 22v16l4 26q0 28 31 53t63 25z" />
    <glyph glyph-name="cent" unicode="&#xa2;" horiz-adv-x="1103" 
d="M521 351q14 112 14 151t28.5 210t28.5 181v17q0 52 -27 52h-15q-87 0 -171 -131q-63 -98 -63 -247v-20q0 -222 109 -322q26 -24 37 -24h6q53 0 53 133zM571 336.5q0 -150.5 94 -150.5q57 0 130 41.5t84.5 41.5t11.5 -7v-8q0 -46 -126.5 -127.5t-140.5 -95.5t-28 -32
l-22 -29q-39 -47 -55 -47h-10q-12 0 -39 39q-26 39 -50 64q-24 26 -64 78q-42 52 -78 92q-118 131 -118 321v27q0 191 115 328q50 60 196 133q74 37 129.5 109t66.5 72q44 0 180 -213q39 -61 39 -138q0 -47 -51 -47q-13 0 -59 55.5t-79 55.5q-47 0 -66 -99
q-60 -313 -60 -463.5z" />
    <glyph glyph-name="sterling" unicode="&#xa3;" horiz-adv-x="1156" 
d="M120 35q0 20 66.5 103.5t94.5 150t28 216.5q0 58 -67 77q-99 29 -99 58q0 14 56.5 54.5t61.5 48.5q23 39 35 151t42 196q28 84 96 156q129 137 335 137h3q100 0 166.5 -46t66.5 -113t-47 -67q-8 0 -69 43t-136 43q-113 0 -180.5 -97t-67.5 -263q0 -89 34.5 -122.5
t132 -60.5t97.5 -69q0 -19 -109.5 -37.5t-135.5 -49.5q-13 -15 -39 -120t-26 -180t33 -94.5t156 -19.5q206 0 301 66q51 35 75 35q37 0 37 -46t-21.5 -99.5t-67.5 -87t-158 -33.5h-33q-31 0 -212.5 23t-241.5 23l-149 -9q-58 0 -58 33z" />
    <glyph glyph-name="currency" unicode="&#xa4;" horiz-adv-x="1225" 
d="M625 1004h-21q-126 0 -213 -93t-87 -221v-45q0 -139 89.5 -228.5t215.5 -89.5l10 1q127 0 214 93t87 243v11q0 68 -30 139t-60 101q-89 89 -205 89zM155 232q0 17 53.5 76t53.5 80t-19.5 61t-33.5 90t-14 127t33.5 171t33.5 106t-54.5 70t-54.5 68v16q0 7 23.5 29t39 22
t70 -52.5t78.5 -52.5t62.5 18t82 32t114.5 14t151.5 -31t99.5 -31t70.5 51.5t62.5 51.5q63 0 63 -55q0 -14 -54.5 -74t-54.5 -88q0 -5 18 -45q50 -110 50 -199.5t-14 -135t-35 -93.5t-21 -65.5t55.5 -79t55.5 -69.5q0 -23 -24 -44.5t-39 -21.5t-70 55t-71 55t-100.5 -32.5
t-169.5 -32.5t-173 43q-38 18 -65 18t-79 -52t-62 -52q-62 0 -62 52z" />
    <glyph glyph-name="yen" unicode="&#xa5;" horiz-adv-x="1218" 
d="M252 693q0 13 25 27l42 23q47 36 47 84.5t-97 219t-111 185.5q-61 66 -61 86q0 42 185 42t185 -42q0 -9 -20 -36t-20 -49q0 -85 178 -427q36 -69 59 -69q11 0 59 93q150 289 150 388q0 16 -23.5 55t-23.5 43q0 45 121 45h80q93 0 93 -44q0 -7 -54 -70.5t-131.5 -212
t-77.5 -221.5q0 -27 58.5 -68t58.5 -57t-110 -49t-110 -82q0 -63 158 -87q82 -12 83 -40q-1 -27 -105 -41t-140.5 -42t-36.5 -105.5t33 -113.5q2 -3 47.5 -33.5t45.5 -43.5q0 -51 -151 -51h-177q-123 0 -123 29q0 20 25 43q70 64 71 65q21 33 21 106.5t-57 107.5
q-15 9 -112.5 32.5t-97.5 52.5q0 7 79 24.5t103 29.5q47 24 47 58q0 56 -107.5 85t-107.5 60z" />
    <glyph glyph-name="brokenbar" unicode="&#xa6;" horiz-adv-x="766" 
d="M298 -208v541q0 87 39 87h48q32 0 32 -101v-508q0 -104 -38 -104h-48q-33 0 -33 85zM297 856v519q0 90 44 90h16l8 -1q40 0 46 -14.5t6 -150.5v-461q0 -71 -9.5 -80.5t-51.5 -9.5h-24q-35 0 -35 108z" />
    <glyph glyph-name="section" unicode="&#xa7;" horiz-adv-x="1153" 
d="M804 404v47q0 81 -84 165q-258 258 -290 258h-5q-14 0 -45 -40t-31 -101v-18l1 -9q0 -96 75 -191t232 -235q33 -29 47 -29h5q20 0 57.5 48.5t37.5 104.5zM604.5 1332q-67.5 0 -121.5 -45t-54 -114.5t43 -119t181.5 -155t195 -184.5t56.5 -168.5t-37 -159.5
q-64 -121 -64 -136l9 -24q38 -94 38 -170q0 -127 -90.5 -219.5t-216.5 -92.5h-31q-117 0 -188.5 52.5t-71.5 114.5q0 83 65 83q33 0 57 -60t51 -83t97.5 -23t124 49.5t53.5 125.5t-51.5 137t-186 165.5t-192 183.5t-57.5 157v31q0 71 55 157t55 97.5t-13 43.5l-22 52
q-16 46 -16 116q0 108 90.5 194.5t227.5 86.5h33q101 0 178.5 -50t77.5 -114q0 -87 -66 -87q-34 0 -62 61.5t-45 73.5q-35 24 -102.5 24z" />
    <glyph glyph-name="dieresis" unicode="&#xa8;" horiz-adv-x="907" 
d="M284 1412q39 0 65 -26t26 -55l3 -21v-10l-5 -30q0 -19 -23.5 -42.5t-47.5 -23.5l-20 -3h-14l-22 4q-22 0 -45 28.5t-23 65.5v14l4 26q0 22 24.5 46.5t53.5 24.5l17 2h7zM571 1292v28q0 32 22.5 60t49.5 28q6 2 10 2l17 2h7q32 0 61 -23t29 -55l3 -20v-18l-4 -23
q0 -22 -23.5 -45.5t-48.5 -23.5l-20 -3h-14l-22 4q-22 0 -44.5 28.5t-22.5 58.5z" />
    <glyph glyph-name="copyright" unicode="&#xa9;" horiz-adv-x="1563" 
d="M745 76h39q105 0 212 49q109 49 188 141q159 185 159 429v3l-1 21v20q0 97 -44 211q-46 114 -126 198q-170 176 -404 176l-19 -1h-19q-104 0 -209 -56q-210 -112 -291 -335q-40 -111 -40 -211v-40q0 -239 164 -423q79 -88 185 -135t206 -47zM770 284q-164 0 -274 102
q-55 51 -89 128t-34 160v43q0 85 38 165q113 237 373 237q27 0 93.5 -12t112 -12t55.5 -19q24 -46 24 -155q0 -27 -15 -27t-49 50.5t-77.5 77.5t-115.5 27q-137 0 -202 -100.5t-65 -258.5t77.5 -245t188.5 -87t205 82q37 32 46 32q16 0 16 -23q0 -67 -95 -116t-213 -49z
M1414 729v-46q0 -132 -54 -263.5t-142 -219.5t-203.5 -141t-243.5 -53h-43q-115 0 -232 54t-203 146t-135 214t-49 251v46q0 132 55 261q109 256 344 361q127 57 244 57h21q115 0 234 -47t211 -139t144 -218.5t52 -262.5z" />
    <glyph glyph-name="ordfeminine" unicode="&#xaa;" horiz-adv-x="679" 
d="M411 1011v27q0 52 -18 52h-11l-4 -1h-8q-8 -2 -12 -2q-40 0 -118 -47q-41 -25 -41 -73l-3 -18v-20q3 -9 3 -18q0 -54 77 -54l4 1h7l15 2q37 0 88 51q21 21 21 100zM404 1211q0 99 -103 99q-53 0 -83 -42q-44 -63 -77 -63q-41 0 -41 47t70 89t152 42h16q126 0 175 -89
q20 -37 20 -205.5t8 -195.5t44 -27t36 -16q-1 -16 -27 -38t-76 -22l-2 -1q-49 1 -76 27q-28 26 -38 26t-37 -16q-78 -44 -139 -44t-109 39t-48 100v14q0 65 48.5 106t90.5 56t99 29.5t67 20.5q30 17 30 64z" />
    <glyph glyph-name="guillemotleft" unicode="&#xab;" horiz-adv-x="983" 
d="M552 894q0 -12 -129 -190.5t-129 -184.5t128.5 -184t128.5 -201t-34.5 -23t-210.5 199.5t-176 214t182 208t205 193.5h8q27 0 27 -24v-8zM895 887q0 -15 -124.5 -187.5t-124.5 -179t123.5 -181.5t123.5 -197.5t-32 -22.5h-8q-28 0 -199 194t-171 204.5t171.5 204.5
t201.5 194h8q31 0 31 -29z" />
    <glyph glyph-name="logicalnot" unicode="&#xac;" horiz-adv-x="1181" 
d="M1060 214h-27q-38 0 -56 18t-18 88l-4 57l-1 29v30q0 155 -53 174q-36 13 -377.5 13t-384 6.5t-42.5 52.5v29q0 29 481 29l181 1h75q207 0 223 -22.5t16 -180.5v-240l2 -57q0 -27 -15 -27z" />
    <glyph glyph-name="uni00AD" unicode="&#xad;" horiz-adv-x="772" 
d="M613 584q45 0 45 -24v-26l-1 -6q0 -64 -25.5 -73t-256.5 -9l-14 -1h-82l-27 -1h-109q-38 0 -38 30v19l1 6v7q0 55 26 65.5t271 10.5l157 2h53z" />
    <glyph glyph-name="registered" unicode="&#xae;" horiz-adv-x="1372" 
d="M745 1269h-50h-4q-79 0 -168 -39q-188 -82 -270 -271q-45 -104 -45 -192v-51q0 -100 40 -190q84 -187 254 -262q100 -45 190 -45h51h4q91 0 183 45q188 90 264 298q32 87 32 194q0 214 -139 359q-75 78 -166.5 116t-175.5 38zM611 815q0 -40 14 -40h32l5 1h15
q73 0 123 28.5t50 86.5v9q0 70 -45 107.5t-108 37.5h-15q-63 0 -63 -21q-2 -8 -2 -13l-2 -18v-89l-1 -10v-9l-1 -9v-17l-1 -8v-16l-1 -12v-8zM696 1330h40q107 0 206 -44t163.5 -119.5t115.5 -212.5t51 -267v-18q0 -126 -46 -205.5t-127 -138.5q-166 -121 -450 -121h-34
q-108 0 -193 54.5t-154 132t-88 138t-19 180.5v20l1 20q0 121 46.5 234t114.5 189.5t117 100.5q118 57 256 57zM475 994q0 55 -19 78t-19 31q0 22 174 22l34 1h34q290 0 290 -197q0 -51 -19.5 -82.5t-41 -57t-21.5 -36.5t33.5 -71.5t55.5 -103t55.5 -79.5t33.5 -47
q0 -42 -92 -42h-15q-59 0 -131 117t-140 117q-61 0 -61 -144q0 -28 15.5 -48.5t15.5 -29.5t-59 -9q-187 0 -187 56q0 10 23 28q22 18 27.5 40t5.5 188l2 85l4 102l2 33v49z" />
    <glyph glyph-name="macron" unicode="&#xaf;" horiz-adv-x="852" 
d="M764 1344v-15q0 -48 -110 -48h-467q-100 0 -100 35v29q0 39 49 39l342 2h155q131 0 131 -42z" />
    <glyph glyph-name="degree" unicode="&#xb0;" horiz-adv-x="915" 
d="M538 1158v24q0 64 -45.5 116t-115.5 52l-6 -1h-5q-67 0 -109.5 -54.5t-42.5 -122.5l1 -6q0 -71 44 -121t90 -50l27 -3h11q61 0 106 51t45 115zM644 1187v-34q0 -94 -78.5 -165.5t-172.5 -71.5h-35q-94 0 -172 71.5t-78 175.5v17q2 16 2 24q0 85 94 165q67 57 164 57h18
q102 0 180 -71.5t78 -167.5z" />
    <glyph glyph-name="plusminus" unicode="&#xb1;" horiz-adv-x="1256" 
d="M1132 78v-30q0 -42 -115 -42h-813q-59 0 -59 30v41q0 41 114 41h814q59 0 59 -40zM655 284h-38q-40 0 -40 169.5t-12 181.5t-198 12t-205 7.5t-19 49.5t22.5 48.5t203 6.5t194.5 16t14 167t8.5 166t55.5 15h19q39 0 39 -169t13.5 -181.5t200.5 -12.5t204 -6.5t17 -49
t-25 -50t-205 -7.5t-192.5 -13.5t-12.5 -165t-7.5 -168t-36.5 -16.5z" />
    <glyph glyph-name="uni00B2" unicode="&#xb2;" horiz-adv-x="793" 
d="M481 704h-57q-12 0 -77 5t-150.5 5t-85.5 21v10q0 58 151 214.5t163 174.5q38 57 38 112.5t-36 91.5t-101.5 36t-113 -65.5t-60.5 -65.5q-34 0 -34 44q0 75 72 124.5t173.5 49.5t170 -54t68.5 -144t-60 -160q-35 -41 -155.5 -142t-120.5 -127.5t123 -26.5t161.5 29.5
t56 29.5t17.5 -56.5t-26 -81t-117 -24.5z" />
    <glyph glyph-name="uni00B3" unicode="&#xb3;" horiz-adv-x="787" 
d="M253 1095q0 19 66 47.5t95.5 65t29.5 90.5q0 26 -32 51.5t-91.5 25.5t-99.5 -30q-10 -8 -28.5 -32t-32.5 -24q-28 0 -28 46t58.5 85.5t159.5 39.5h41q83 0 136.5 -36.5t53.5 -109.5t-87 -149q-30 -27 -30 -36t52 -36q106 -56 106 -165t-85 -176.5t-204 -67.5h-20
q-80 0 -144.5 34.5t-64.5 82.5v13q0 33 40 33q3 0 58.5 -43t132 -43t113.5 47.5t37 111t-54 105.5q-33 26 -105.5 35.5t-72.5 34.5z" />
    <glyph glyph-name="acute" unicode="&#xb4;" horiz-adv-x="847" 
d="M648 1418v-13q0 -37 -116 -127q-194 -151 -230 -151h-9q-29 0 -29 15v4q0 34 171 229q68 78 136 78h11q66 0 66 -35z" />
    <glyph glyph-name="mu" unicode="&#xb5;" horiz-adv-x="1113" 
d="M304 -163q0 -222 -96 -222h-21q-49 0 -49 123q0 33 11.5 185t11.5 295l1 31q1 32 1 65l1 32q1 32 1 65l1 33v115q0 123 -18.5 193t-18.5 100.5t24 41t84 10.5q79 0 96 -90q4 -21 4 -296.5t26 -333.5q40 -90 136 -90q60 0 125 40.5t92 112.5t27 435q0 53 -2 88l-2 25
l-4 40q0 57 85 57q59 0 86 -89q13 -42 13 -180l-1 -32q-1 -31 -1 -63l-1 -31v-113q0 -166 41.5 -223t41.5 -60q0 -27 -29.5 -45.5t-76.5 -18.5t-96 39.5t-77.5 39.5t-96 -33t-105 -44t-97 -14.5t-81.5 -19.5q-36 -25 -36 -168z" />
    <glyph glyph-name="paragraph" unicode="&#xb6;" horiz-adv-x="1193" 
d="M548 326q0 154 -51 236q-16 26 -112 76.5t-145 106.5q-86 99 -86 248q0 99 45 186q84 162 305 192q103 14 307 14t204 -28q0 -18 -30 -44t-36 -52q-24 -107 -24 -296l-5 -279l2 -81l1 -81v-205q0 -322 9 -416.5t9 -105.5q0 -59 -49 -59q-34 0 -48 92q-7 45 -7 331l-4 304
q0 367 -30 662q-5 50 -48 50q-93 0 -93 -54l2 -77v-116l1 -115v-233q0 -174 -9 -333.5t-9 -294t-10 -164.5q-16 -49 -51 -49q-44 0 -44 108l3 37l2 37l-6 215q0 24 2 74l2 37q3 57 3 77z" />
    <glyph glyph-name="periodcentered" unicode="&#xb7;" horiz-adv-x="685" 
d="M344 502q-39 0 -67.5 28.5t-28.5 60.5l-3 19v29q0 46 30.5 76.5t70.5 30.5h15q12 -3 28.5 -3t43.5 -27t27 -60l3 -15v-8l1 -12l-1 -4q0 -55 -28 -83t-51 -28l-25 -4h-15z" />
    <glyph glyph-name="cedilla" unicode="&#xb8;" horiz-adv-x="837" 
d="M457 22q13 0 13 -25l-8 -26q-9 -29 -9 -32q0 -11 70.5 -54.5t70.5 -116.5v-8q0 -63 -61.5 -109t-157.5 -46h-9l-9 1q-109 0 -109 31v7q0 36 77 36t105.5 21t28.5 61t-56 64t-56 50q0 48 46 123q15 24 51 24l7 -1h6z" />
    <glyph glyph-name="uni00B9" unicode="&#xb9;" horiz-adv-x="769" 
d="M222 702q-48 0 -48 21t50 44.5t63.5 62t13.5 239t-11 237.5t-96 37q-33 0 -33 22v8q0 10 19 20q124 65 203 65h11q35 0 35 -290v-235q2 -24 2 -58q0 -70 70 -107q48 -25 48 -39v-8q0 -19 -49 -19h-73l-13 1h-82l-49 -1h-61z" />
    <glyph glyph-name="ordmasculine" unicode="&#xba;" horiz-adv-x="718" 
d="M366 1329h-19q-56 0 -96.5 -57.5t-40.5 -147.5v-47q0 -109 45.5 -174t108.5 -65h7q72 0 107.5 64t35.5 157v15l-1 8v16l-2 30q0 75 -44 138t-101 63zM348 1383h51q108 0 183 -81t75 -186v-41q0 -124 -90.5 -208t-211.5 -84h-20q-118 0 -193.5 82t-75.5 196v20
q0 128 87 215t195 87z" />
    <glyph glyph-name="guillemotright" unicode="&#xbb;" horiz-adv-x="983" 
d="M554 517q0 -23 -176.5 -211t-208.5 -188t-32 24.5t124.5 197t124.5 179t-122.5 176t-122.5 196t35.5 26.5t206.5 -194t171 -206zM483 904q0 22 30 22h9q24 0 204.5 -192.5t180.5 -215t-181.5 -215.5t-213 -193t-31.5 29.5t129 195.5t129 183q0 2 -128 179.5t-128 206.5z
" />
    <glyph glyph-name="onequarter" unicode="&#xbc;" horiz-adv-x="1567" 
d="M1017 262h112q91 0 97.5 15t6.5 96v91l1 10v41l1 15v62q0 6 -2 6l-87 -116q-156 -208 -156 -214t27 -6zM907 245v21q0 44 220 329q122 158 157 158h11q34 0 42 -37q4 -18 4 -186t11 -194q3 -6 43 -43t40 -49t-13.5 -27t-29.5 -54t-16 -47t10 -24.5t10 -39.5t-24.5 -45.5
t-80.5 -22.5h-50q-79 0 -79 52q0 18 20.5 40t20.5 41q0 72 -96 72l-26 2l-40 1q-81 0 -120 31q-14 11 -14 22zM1218 1361h16q31 0 31 -17q0 -38 -721 -1200q-92 -148 -135 -148h-16q-31 0 -31 14.5t746 1243.5q65 107 110 107zM240.5 1285q-54.5 0 -54.5 21.5t21 30.5
q147 66 203 66h10q27 0 27 -291t9.5 -332t45.5 -64q62 -39 62 -50q0 -28 -185 -28l-85 -2h-49q-53 0 -53 28q0 18 43.5 36.5t63 49t20.5 81.5t1 63l1 27v91l1 26q0 181 -13.5 214t-68 33z" />
    <glyph glyph-name="onehalf" unicode="&#xbd;" horiz-adv-x="1588" 
d="M971 13v11q0 56 148.5 216t150.5 162q51 67 51 131.5t-38.5 97.5t-96.5 33t-99 -51q-64 -80 -71 -80q-32 0 -32 48q0 74 72 124q73 50 163 50h21q106 0 163.5 -62t57.5 -143.5t-63 -158.5q-21 -26 -146.5 -139t-125.5 -138t105.5 -25t134.5 10.5t53.5 28.5t41 18
t16.5 -59t-28.5 -81t-122.5 -22h-57l-173 9l-58 -1q-67 0 -67 21zM1191 1372q46 0 46 -19q0 -32 -693 -1173q-108 -178 -152 -178h-16q-30 0 -30 18l175 299q55 94 95 158.5t90 149.5l17 30q14 23 26 43l42 73q82 140 119.5 201.5t154.5 261.5q80 136 126 136zM234 631
q-55 0 -55 26q0 15 50.5 42t64.5 68.5t14 246.5t-13.5 237.5t-91.5 32.5q-33 0 -33 22v10q0 11 31 25q139 63 195 63h11q30 0 30 -293.5t9 -334t44 -64.5q64 -44 64 -50v-7q0 -22 -184 -22l-86 -2h-50z" />
    <glyph glyph-name="threequarters" unicode="&#xbe;" horiz-adv-x="1580" 
d="M1260 597l-35 -46l-26 -36q-14 -21 -96.5 -131t-82.5 -116.5t49 -6.5h64q107 0 118 9t11 183l1 10v30l1 20v82l-2 2h-2zM1308 -16h-38q-78 0 -78 61q0 15 20 33.5t20 51t-30 47.5t-120 15t-129 31q-17 13 -17 31q0 54 284 427q53 70 91 70h11q39 0 47 -46q2 -12 2 -175.5
t8 -184.5t47 -54.5t39 -52.5v-4q0 -4 -14 -19.5t-23 -42.5t-15.5 -41t-6.5 -18.5t10.5 -22t10.5 -40t-24 -44.5t-95 -22zM1249 1360h16q31 0 31 -17q0 -37 -722 -1200q-92 -148 -134 -148h-16q-31 0 -31 17q0 39 747 1242q66 106 109 106zM489 1225q0 97 -131 97
q-58 0 -99 -43.5t-53 -43.5q-21 0 -21 34q0 61 63 99.5t158 38.5h20q83 0 139.5 -37t56.5 -101t-30.5 -102.5t-57.5 -61.5t-27 -39q0 -2 44 -26t76.5 -62t32.5 -106v-19q0 -88 -82.5 -156t-197.5 -68h-20q-81 0 -143.5 33.5t-62.5 81.5v13q0 36 38 36q14 0 57 -45.5
t116 -45.5t117 40.5t44 115.5q0 120 -144 146q-79 15 -79 34q0 26 59 48q126 49 127 139z" />
    <glyph glyph-name="questiondown" unicode="&#xbf;" horiz-adv-x="969" 
d="M537 682q62 0 62 -157q0 -109 -151 -280q-62 -70 -88 -128t-26 -129t52 -123t125 -52t129 36q6 4 37 54.5t77 50.5q54 0 54 -77v-15q0 -79 -95.5 -138.5t-204.5 -59.5h-19q-73 0 -142 29.5t-113 73.5q-98 98 -98 228v19q0 102 52.5 176.5t157.5 159t127.5 125.5t27 124
t36.5 83zM550 1077q46 0 74.5 -28.5t28.5 -54.5l4 -26v-20q-3 -12 -3 -29.5t-29 -46.5t-68 -29h-22q-12 3 -18 3q-29 0 -55.5 32t-26.5 71v28l4 22q0 23 25.5 48.5t52.5 25.5q6 2 10 2l19 2h4z" />
    <glyph glyph-name="Agrave" unicode="&#xc0;" horiz-adv-x="1397" 
d="M865 587v6q0 23 -89.5 291.5t-93.5 268.5t-96 -275.5t-92 -281.5v-6q0 -22 180 -22l63 -1h31l7 1h15l29 2q46 0 46 17zM380 30q-311 0 -311 51q0 11 84 85q47 42 105.5 170.5t187.5 509t158 436.5q49 94 116 94q62 0 153 -201q45 -99 163.5 -455t193.5 -495
q26 -48 82.5 -87t56.5 -57q0 -50 -223 -50l-28 -1l-29 -2l-54 -1q-113 0 -113 36q0 12 36 37t36 57.5t-34.5 157t-54.5 146.5q-39 42 -228.5 42t-219.5 -28.5t-57 -117t-27 -152t27 -93.5q49 -55 49 -58q0 -24 -69 -24zM533 1784h15q51 0 120 -60q11 -9 167 -188
q24 -27 24 -43v-9q0 -14 -28 -14l-5 1q-79 0 -260 141q-103 80 -103 109v14q0 49 70 49z" />
    <glyph glyph-name="Aacute" unicode="&#xc1;" horiz-adv-x="1397" 
d="M865 580v13q0 30 -89 296.5t-91 266.5h-4q-2 0 -9 -21.5t-13 -36.5q-165 -413 -165 -507v-6q0 -18 189 -18l110 -3h7q65 0 65 16zM406 34q-327 0 -327 47q0 10 84 89q43 40 95.5 152t195 524.5t168.5 456.5q41 69 102 69t148 -201q50 -116 160.5 -447.5t161.5 -433
t94 -132.5q69 -49 69 -66q0 -32 -65 -43t-291 -11q-81 0 -81 36q0 10 36.5 33.5t36.5 58t-36.5 157.5t-56.5 144q-39 40 -174 40l-29 -1q-29 -1 -59 -1q-153 0 -181 -28t-57 -118t-29 -152t27 -92q7 -8 29 -26.5t22 -30.5q0 -24 -43 -24zM593 1484v8q0 16 64.5 99t128 138.5
t127.5 55.5h5q76 0 76 -49v-10q0 -36 -63 -85q-221 -172 -307 -172h-5q-26 0 -26 15z" />
    <glyph glyph-name="Acircumflex" unicode="&#xc2;" horiz-adv-x="1390" 
d="M780 569q74 0 74 19v6q0 25 -89 291.5t-91 266.5h-4q-3 0 -94 -273.5t-91 -280.5v-6q0 -22 187 -22l15 -1h93zM1355 99q0 -46 -167 -46l-138 -5h-27q-113 0 -113 37q0 12 37.5 37t37.5 53t-34.5 155t-57.5 151q-38 40 -226.5 40t-217.5 -27t-58 -118t-29 -153t26 -92
q49 -57 49 -59q0 -24 -43 -24h-25q-306 0 -306 48q0 8 67 69t113.5 168.5t199.5 527.5t154 423q50 94 115 94q59 0 139 -175q54 -118 165.5 -452t189.5 -487q36 -70 92.5 -110.5t56.5 -54.5zM714 1776h16q46 0 141 -112q138 -163 138 -179v-6q0 -21 -45 -21t-145.5 85
t-111 85t-103 -85t-135.5 -85t-43 22q0 55 187 242q54 54 101 54z" />
    <glyph glyph-name="Atilde" unicode="&#xc3;" horiz-adv-x="1390" 
d="M780 573q74 0 74 19v6q0 24 -89 291t-91 267h-4q-3 0 -94 -273.5t-91 -280.5v-6q0 -19 57 -19l14 -2l116 -2h108zM1356 106q0 -48 -195 -48q-19 0 -56 -2l-55 -3h-54q-84 0 -84 36q0 11 37 36t37 51t-36 154.5t-58 152.5q-40 42 -203 42l-30 -1q-30 -1 -59 -1
q-127 0 -154 -27t-56.5 -119t-29.5 -151.5t27 -90.5q49 -57 49 -58q0 -24 -44 -24q-330 0 -330 48q0 5 65 66t105 148q76 164 206.5 542t158.5 431q49 92 116 92q60 0 130.5 -156t181.5 -484t182 -470q35 -69 79 -100q70 -48 70 -64zM600 1715h16q47 0 136 -42t127 -42
t74.5 36.5t53.5 36.5q34 0 34 -28q0 -80 -59 -134t-137 -54q-33 0 -131 46t-136 46t-85 -47t-67 -47h-7q-21 0 -21 25q0 75 64.5 139.5t137.5 64.5z" />
    <glyph glyph-name="Adieresis" unicode="&#xc4;" horiz-adv-x="1390" 
d="M822 577q39 0 39 22.5t-89 290t-93.5 267.5t-96 -275t-91.5 -279v-6q0 -23 187 -23l63 -1h23l7 1h23q21 3 28 3zM399 35q-335 1 -335 49q0 12 84 86q44 39 101.5 161t189 509t161.5 445q49 95 116 95q62 0 139 -167.5t175 -476.5q161 -509 263 -580q71 -49 71 -66
q0 -49 -166 -49l-85 -3q-57 -2 -127 -2t-70 35q0 13 36 37.5t36 55.5t-34.5 156.5t-54.5 148.5q-37 42 -232 42l-30 -1q-30 -1 -59 -1q-112 0 -145 -51q-65 -100 -65 -240q0 -69 27 -100q47 -55 47 -58q0 -25 -43 -25zM534 1728h4l3 -1h7l12 -2q16 0 41.5 -20.5t25.5 -48.5
q3 -9 3 -13l2 -20v-4l-1 -3v-7l-5 -26q0 -18 -24 -42t-57 -24h-20l-4 1h-6q-6 2 -14.5 2t-34 20t-25.5 51q-2 6 -2 10l-2 17v11l4 26q0 28 28 50.5t65 22.5zM811 1588v18l1 4q0 46 27.5 80t71.5 34h14q8 -2 21 -2t39 -26t26 -53l5 -29v-26q0 -14 -26 -57q-11 -19 -33 -19
q-12 -4 -16 -4l-24 -2h-11l-4 1h-7l-29 6q-55 0 -55 75z" />
    <glyph glyph-name="Aring" unicode="&#xc5;" horiz-adv-x="1402" 
d="M809 577q67 0 67 14t-92 290t-97.5 276t-30 -74t-94.5 -260.5t-70 -221.5q0 -23 183 -23l56 -1h78zM831 1618v22l-1 4v7q-2 8 -2 17.5t-25.5 41.5t-65.5 32h-14l-4 -1h-7q-6 -2 -10 -2q-24 0 -50 -32.5t-26 -63.5v-23l1 -3v-7q2 -8 2 -17.5t24.5 -40t52.5 -30.5l21 -3h4
l27 4q22 0 47.5 32t25.5 63zM1382 60v-14q0 -38 -233 -38t-233 32q0 13 45 43t45 70.5t-39 168.5t-66.5 151.5t-217 23.5t-221 -20t-48.5 -71q-51 -150 -51 -219t37 -101q60 -52 60 -59q0 -20 -55 -20h-27l-29 1q-29 1 -59 1l-30 1q-30 1 -60 1q-147 0 -147 43
q0 18 65.5 62.5t111 141t120.5 302.5t101 285l18 57q76 229 120 328q61 139 118 139q45 0 71.5 -26.5t93.5 -174.5t175 -478q162 -494 242 -557q23 -18 58 -39.5t35 -33.5zM717 1807h32q62 0 117.5 -49t55.5 -121v-12q0 -70 -57.5 -120.5t-125.5 -50.5h-25
q-62 0 -120.5 45.5t-58.5 118.5v18q0 69 57 120t125 51z" />
    <glyph glyph-name="AE" unicode="&#xc6;" horiz-adv-x="1867" 
d="M792 632q87 0 99 28q7 17 7 239v173q0 166 -12 166q-6 0 -67.5 -95.5t-119 -226.5t-93 -186.5t-35.5 -70.5v-5q0 -15 47 -15q30 -4 38 -4l53 -3h83zM891 365q0 100 -34 142.5t-176 42.5t-195 -72.5t-100 -203t-47 -158t13.5 -51t13.5 -29.5q0 -20 -124.5 -20t-163.5 41
l-8 20q0 20 116 160q35 42 93.5 152.5t168.5 304.5t155 284q80 158 80 271q0 61 76 79.5t369 18.5h55q396 0 464 -80q41 -49 41 -129q0 -27 -18 -27q-7 0 -44.5 40t-90.5 65t-199 25t-182 -51q-48 -67 -48 -258q0 -78 27 -113.5t101.5 -35.5t109 17.5t71 50t57.5 32.5
l26 -17q39 -45 39 -220q0 -112 -49 -112l-26 21l-24 30l-29 29q-50 37 -129 37q-113 0 -149 -65q-21 -38 -21 -187t46.5 -196.5t191 -47.5t201 28t103.5 81.5t71 53.5t24 -52t-26 -113.5t-77 -84.5t-293 -23l-327 -3q-176 0 -209 33l-7 15q0 4 21 36t41.5 85.5t20.5 153.5z
" />
    <glyph glyph-name="Ccedilla" unicode="&#xc7;" horiz-adv-x="1402" 
d="M1286 1114q0 -123 -29 -123q-7 0 -79 98q-38 51 -146.5 122t-251.5 71q-194 0 -319.5 -159t-125.5 -432t135 -440.5t358 -167.5q133 0 259 72q44 25 119.5 100.5t81.5 75.5q27 0 27 -16q0 -34 -44.5 -107.5t-112.5 -118.5t-172.5 -80.5t-208.5 -35.5h-1l-2 -19l-3 -31
q0 -11 65.5 -60t65.5 -99v-24q0 -61 -63.5 -105t-142.5 -44h-17l-8 1h-17q-14 2 -22 2q-71 0 -71 30v6q0 37 50 37l79 -12q40 0 65.5 23.5t25.5 66t-46.5 72t-46.5 73t22 74.5q4 5 8 9q-131 3 -242 59q-237 118 -334 362q-52 132 -52 283q0 288 187 494q86 95 202.5 151.5
t228.5 56.5h36q53 0 183.5 -20.5t192.5 -24t88 -10.5q78 -24 78 -210z" />
    <glyph glyph-name="Egrave" unicode="&#xc8;" horiz-adv-x="1262" 
d="M466 911q0 -100 164 -100q72 0 107.5 22.5t64.5 60.5t34 38q41 0 56.5 -52t15.5 -239q0 -123 -43 -123q-22 0 -59 51.5t-51 60.5q-45 28 -138.5 28t-132.5 -49q-23 -29 -23 -105q0 -255 62 -332q38 -48 187 -48t222.5 33t135.5 97.5t75 64.5q19 0 19 -49t-26.5 -117
t-66.5 -102t-218 -34h-129q-281 0 -475 17q-116 10 -116 42q0 20 58 52.5t72.5 97t14.5 481t-12.5 471.5t-51.5 85q-79 60 -79 70q0 42 199 42l42 1l42 2q57 2 129 2l88 2h171q189 0 232 -29q60 -40 60 -224q0 -21 -26 -21q-7 0 -45 50t-69 68q-81 47 -242 47t-193 -46
q-55 -78 -55 -316zM461 1786h10q49 0 122 -64q190 -166 190 -231v-4q0 -18 -29 -18h-9q-66 0 -211 112.5t-145 147.5v10q0 47 72 47z" />
    <glyph glyph-name="Eacute" unicode="&#xc9;" horiz-adv-x="1262" 
d="M462 912q0 -97 166 -97q74 0 109.5 23t63.5 60.5t32 37.5q38 0 53.5 -54.5t15.5 -208.5t-44 -154q-22 0 -56.5 49t-51.5 59q-43 26 -140 26t-134 -46q-21 -26 -21 -105q0 -256 60 -332q40 -51 187.5 -51t224 33t122.5 82q83 88 91 88q19 0 19 -47.5t-27 -119.5t-55 -96
q-49 -41 -225 -41h-85q-281 0 -515 21q-114 10 -114 43q0 18 58 51t74 99.5t16 478t-12.5 465t-51.5 83.5q-78 60 -78 68l14 15q59 40 524 40h128q188 0 230 -31q57 -42 57 -197q0 -44 -27 -44q-6 0 -50 57t-115 84.5t-211 27.5t-175 -49q-57 -81 -57 -318zM507 1482v8
q0 19 15 34t39 46t67 80t51 56q85 74 156 74h9q58 0 58 -40v-15q0 -28 -108 -112q-188 -146 -249 -146h-11q-27 0 -27 15z" />
    <glyph glyph-name="Ecircumflex" unicode="&#xca;" horiz-adv-x="1262" 
d="M462 913q0 -99 164 -99q72 0 108.5 24t65 62t32.5 38q40 0 55.5 -52t15.5 -205.5t-43 -153.5q-21 0 -55.5 51t-51.5 62q-45 28 -138.5 28t-130.5 -46q-22 -27 -22 -103q0 -215 42 -303q24 -50 65 -64.5t162 -14.5t195 32.5t137 99.5t79.5 67t16.5 -51t-26.5 -118.5
t-55.5 -92.5q-48 -41 -264 -41h-42q-310 0 -513 18q-114 10 -114 42q0 19 57.5 51.5t71 96t13.5 475t-13 468t-52 87.5q-79 62 -79 68l15 14q47 30 307 30l85 2q86 2 129 2h127q183 0 233.5 -34t50.5 -221q0 -21 -26 -21q-8 0 -49.5 55.5t-111.5 84t-213 28.5t-174 -46
q-53 -79 -53 -320zM638 1775h16q42 0 78 -36q193 -193 193 -243q0 -23 -37 -23q-59 1 -193 111q-47 40 -51 40q-3 0 -23 -17q-20 -16 -40 -31l-19 -16q-15 -12 -33 -26q-101 -72 -138 -72h-7q-31 0 -31 23q0 48 148 209q74 81 137 81z" />
    <glyph glyph-name="Edieresis" unicode="&#xcb;" horiz-adv-x="1252" 
d="M463 915q0 -100 163 -100q71 0 105.5 22.5t64.5 61t34 38.5q38 0 55 -53t17 -206.5t-44 -153.5q-22 0 -47 34q-49 68 -64 76q-47 27 -140 27t-130 -49q-22 -29 -22 -105q0 -254 62 -330q39 -48 185.5 -48t220.5 32.5t137 98t78 65.5t15 -52.5t-28 -120.5t-58 -92
q-48 -38 -226 -38h-129q-281 0 -473 17q-114 10 -114 43q0 17 58 52t72.5 99t14.5 481.5t-12 470t-51 82.5q-79 61 -79 69l14 15q47 32 353 32l130 3h172q190 0 232 -28q60 -40 60 -224q0 -21 -25 -21q-8 0 -50.5 54.5t-110 81.5t-255.5 27q-98 0 -130 -46q-55 -78 -55 -315
zM457 1728q37 0 63.5 -26.5t26.5 -64.5v-28q0 -32 -22 -59.5t-46 -27.5l-22 -4h-20q-9 3 -22 3t-36 23t-23 51l-3 20v18l1 3v7q2 6 2 17.5t21 37.5t47 26q6 2 9 2l17 2h7zM861 1720q14 0 39 -31.5t25 -43.5l3 -26v-15q0 -41 -28.5 -69.5t-42.5 -28.5l-6 -2h-21l-3 1h-3
q-89 0 -89 50q-10 30 -10 46v20l5 33q0 20 23 43t59 23l26 3h3q6 -3 20 -3z" />
    <glyph glyph-name="Igrave" unicode="&#xcc;" horiz-adv-x="743" 
d="M114 1357q0 30 51 30h84l22 -1l258 1h21q88 0 88 -34q0 -23 -65 -52.5t-83 -98.5t-18 -504.5t19.5 -502t63.5 -86.5q85 -40 85 -64q0 -31 -69 -31h-63l-22 1h-43l-22 1h-43l-65 -1h-43l-65 -1q-89 0 -89 34q0 26 65.5 53t83 100.5t17.5 505t-19 497.5t-63 88
q-86 43 -86 65zM202 1787h10q60 0 116 -56q197 -197 197 -245v-4q0 -15 -30 -15l-5 1q-63 0 -211 115t-148 152v9q0 43 71 43z" />
    <glyph glyph-name="Iacute" unicode="&#xcd;" horiz-adv-x="744" 
d="M131 1360q0 32 67 32h41l20 -1l290 1q84 0 84 -34q0 -24 -64 -51t-79 -89q-21 -89 -21 -518t16.5 -491.5t59.5 -83.5q84 -41 84 -63q0 -32 -66 -32h-40l-20 1h-42l-42 1h-41l-125 -2h-41q-85 0 -85 33q0 24 72 55q54 24 73 93.5t19 521.5v90l1 45v91l-3 135
q0 105 -29 159q-17 31 -73 56.5t-56 50.5zM639 1741v-9l-1 -5q0 -28 -204 -206q-80 -70 -158 -70h-5q-28 0 -28 16v5q0 59 187 246q64 64 140 64l5 -1q64 0 64 -40z" />
    <glyph glyph-name="Icircumflex" unicode="&#xce;" horiz-adv-x="744" 
d="M123 1364q0 28 70 28h63l21 -1l274 1q85 0 85 -35q0 -23 -66 -50.5t-81 -91.5q-23 -97 -23 -518.5t19.5 -487t64.5 -84.5q85 -36 85 -64t-68 -28h-41l-21 1l-85 2h-42q-256 0 -256 31q0 25 75 54q56 22 75.5 93.5t19.5 501.5t-19.5 495.5t-63.5 85.5q-86 39 -86 67z
M369 1776h24q48 0 93 -49q175 -193 175 -230v-6q0 -23 -38 -23t-141 75t-112 75t-100 -74.5t-131 -74.5t-40 23v6q0 53 187 240q38 38 83 38z" />
    <glyph glyph-name="Idieresis" unicode="&#xcf;" horiz-adv-x="748" 
d="M122 1361q0 31 72 31h21l21 -1l150 -1q260 0 260 -33q0 -18 -88 -62q-47 -24 -63 -101t-16 -503.5t19.5 -491.5t62.5 -85q85 -38 85 -64q0 -31 -70 -31h-41l-22 1l-43 1h-151l-108 -2q-89 0 -89 34q0 23 65.5 52.5t84 98.5t18.5 503.5t-19.5 501.5t-62.5 87
q-86 40 -86 65zM193 1727h23q9 -3 22 -3t36.5 -23.5t23.5 -57.5l2 -17v-11l-4 -26q0 -23 -24.5 -47.5t-61.5 -24.5h-14q-38 0 -63 25t-25 59l-2 17v11l4 26q0 28 27.5 50t55.5 22zM576 1724l31 -4q17 0 40 -23t23 -57l3 -21v-15l-1 -4v-7q-2 -8 -2 -22t-21 -40t-45 -26
q-6 -2 -10 -2l-14 -2h-18q-40 0 -63.5 29.5t-23.5 78.5v4l1 3v11q3 16 3 28.5t21 38.5t47 26q6 2 10 2z" />
    <glyph glyph-name="Eth" unicode="&#xd0;" horiz-adv-x="1503" 
d="M486 993l2 -97q0 -87 27 -110t117.5 -28t120.5 -15t30 -44t-120 -50.5t-147.5 -45.5t-27.5 -246l-3 -58q-1 -19 -1 -83.5t29.5 -94t126.5 -29.5h21q353 0 468 329q45 128 45 267v45q0 107 -39.5 216.5t-114.5 187.5q-145 151 -377 151h-42q-77 0 -98 -21t-21 -78v-58z
M145 43q0 19 58.5 42.5t78 84t19.5 246.5t-13.5 207.5t-85 30.5t-71.5 50.5t57 48.5q94 12 95 12q22 13 22 111q0 266 -29 344q-18 48 -76 72.5t-58 55t348 30.5l81 1h111q311 0 485 -166q204 -194 204 -505v-29q-1 -144 -49 -272q-100 -264 -351 -357q-133 -49 -287 -49
h-137l-26 1h-79q-297 0 -297 41z" />
    <glyph glyph-name="Ntilde" unicode="&#xd1;" horiz-adv-x="1507" 
d="M494 77q0 -36 -318 -36q-80 0 -80 36q0 5 89 58q45 26 58.5 81t13.5 481t-13.5 485t-72.5 97.5t-59 64.5q0 34 173 34q135 0 223 -106q35 -42 327 -463.5t317 -421.5q16 0 16 383.5t-25 474.5q-10 38 -34 57l-28 17q-47 24 -47 28q0 37 115 37q177 0 238 -26l18 -14
q0 -28 -49 -72.5t-64.5 -122t-15.5 -484.5l-4 -381q0 -152 -9 -189.5t-38 -37.5q-65 0 -189 156q-28 35 -330 466t-319.5 431t-17.5 -236l6 -475q0 -117 16.5 -166.5t59.5 -91t43 -64.5zM1056 1722h16q21 0 21 -17v-8q0 -79 -73 -159q-48 -52 -108 -52t-147 49t-127.5 49
t-95 -50t-64.5 -50q-29 0 -29 25q0 87 79 166q45 45 102.5 45t152 -50t131 -50t83.5 51t59 51z" />
    <glyph glyph-name="Ograve" unicode="&#xd2;" horiz-adv-x="1488" 
d="M350 753v-99q0 -116 36 -230q70 -224 211 -306q78 -45 163 -45h17q166 0 281 168q48 71 79 184t31 245v20q0 263 -105 433q-51 82 -128 135q-79 53 -167 53q-181 0 -290 -143q-64 -84 -96 -202t-32 -213zM1374 745v-71q0 -130 -50 -264q-52 -136 -136 -230
q-170 -191 -410 -191h-3h-22q-261 0 -437 195q-77 86 -126 216.5t-49 281.5v48q0 132 50 264q49 132 133 226q174 194 438 194q263 0 438 -195q77 -86 125.5 -215t48.5 -259zM507 1733v9q0 47 76 47h5q93 0 221 -163q16 -21 57.5 -68t41.5 -64v-5q0 -17 -34 -17l-5 1
q-45 0 -203.5 105.5t-158.5 154.5z" />
    <glyph glyph-name="Oacute" unicode="&#xd3;" horiz-adv-x="1491" 
d="M1172 650v60q0 118 -31 232q-64 235 -219 325q-78 45 -170.5 45t-168.5 -46q-145 -89 -204 -297q-34 -121 -34 -256l1 -20q0 -277 116 -447q54 -79 131 -126.5t168 -47.5h17q76 0 152 44q149 86 208 299q34 125 34 235zM1371 748v-47q0 -128 -42.5 -262t-130 -238.5
t-199 -157t-226.5 -52.5h-44q-112 0 -223 51q-110 51 -192 149q-168 201 -168 489v24q0 291 174 500q84 100 196 154.5t229 54.5h43q236 0 408 -190q78 -87 126.5 -215t48.5 -260zM666 1472h-20q-24 0 -24 16v5q0 67 180 224q80 70 143 70h16q65 0 65 -45v-14
q0 -28 -146.5 -142t-213.5 -114z" />
    <glyph glyph-name="Ocircumflex" unicode="&#xd4;" horiz-adv-x="1484" 
d="M765 1311h-33h-3q-74 0 -148 -43q-148 -86 -207 -298q-33 -121 -33 -235v-60q0 -121 31 -235q59 -220 204 -312q83 -53 176 -53h17q81 0 155 45q144 88 202 298q33 117 33 234v59q0 252 -114 426q-52 80 -128.5 127t-151.5 47zM734 1416h43q113 0 221 -50
q223 -103 319 -354q49 -127 49 -257v-46q0 -143 -51 -279t-141 -232q-172 -185 -440 -185t-435 200t-167 477v23q0 285 175 495q86 102 201 155t226 53zM746 1779h16q48 0 106 -58q177 -177 177 -224q0 -26 -31 -26h-14q-25 0 -127 63l-83 60q-31 26 -40 26t-108.5 -74.5
t-133.5 -74.5h-14q-31 0 -31 19v6q0 30 182 229q50 54 101 54z" />
    <glyph glyph-name="Otilde" unicode="&#xd5;" horiz-adv-x="1484" 
d="M1161 654v60q0 254 -115 430q-54 82 -132.5 127t-164.5 45h-17q-81 0 -153 -44q-141 -86 -202 -283q-38 -122 -38 -232v-79q0 -252 115 -427q49 -75 125.5 -125t156.5 -50h33q77 0 153 44q148 85 206 299q33 121 33 235zM734 1416h43q114 0 230.5 -53.5t198.5 -153.5
q164 -202 164 -481v-23q0 -148 -47 -277q-101 -277 -333 -383q-107 -49 -224 -49h-44q-136 0 -248 61q-222 120 -301 363q-44 135 -44 264v24q0 294 175 501q81 96 194.5 151.5t235.5 55.5zM620 1726h25q42 0 133.5 -43t128.5 -43t83 42t57 42q27 0 27 -16v-16
q0 -68 -72 -140q-46 -46 -109 -46h-24q-44 0 -136.5 43.5t-127 43.5t-80.5 -41.5t-65.5 -41.5t-19.5 15v16q0 68 58.5 126.5t121.5 58.5z" />
    <glyph glyph-name="Odieresis" unicode="&#xd6;" horiz-adv-x="1484" 
d="M767 1314h-33q-89 0 -165.5 -52t-123.5 -128q-102 -166 -102 -397v-59q0 -120 31 -234q59 -220 204 -313q83 -53 176 -53h16q82 0 160 48q147 90 202 311q29 116 29 218v59q0 252 -114 426q-47 72 -122 123t-158 51zM319 1226q174 193 434 193t426 -179
q188 -201 188 -513v-23q0 -129 -42 -262t-130 -238t-199.5 -157.5t-229.5 -52.5h-44q-259 0 -440 224q-71 88 -110.5 213t-39.5 254v24q0 158 51 290t136 227zM471 1618v11q0 40 24 70t62 30h26q25 0 51.5 -21t26.5 -49q3 -9 3 -13l2 -17v-17l-4 -23q0 -22 -24.5 -46.5
t-63.5 -24.5h-10l-26 4q-22 0 -44.5 28t-22.5 68zM959 1502h-25q-34 0 -61.5 27.5t-27.5 76.5v15q0 40 26 72.5t75 32.5h10q12 -3 30 -3t42 -30t24 -65v-25l-4 -25q0 -23 -26.5 -49.5t-62.5 -26.5z" />
    <glyph glyph-name="multiply" unicode="&#xd7;" horiz-adv-x="1248" 
d="M717 597q0 -15 169 -173.5t169 -173t-21.5 -38.5t-41.5 -24t-188.5 158t-171.5 158q-22 0 -184.5 -157.5t-189.5 -157.5q-13 0 -39.5 24t-26.5 42.5t168 171t168 177.5q0 4 -167 160.5t-167 171t22.5 38.5t41 24t187 -158t172.5 -158q12 0 180.5 158.5t192.5 158.5
q9 0 37 -24.5t28 -43t-169 -172t-169 -162.5z" />
    <glyph glyph-name="Oslash" unicode="&#xd8;" horiz-adv-x="1515" 
d="M1194 773q0 133 -62 263q-15 31 -23 31q-2 0 -215 -279q-383 -503 -383 -561v-11q0 -48 84.5 -92t168.5 -44l13 1q173 0 299 166q55 73 87.5 189.5t32.5 233.5v60q-2 28 -2 43zM1028 1176q0 49 -76.5 92.5t-155.5 43.5h-13l-13 -1q-90 0 -176 -53q-159 -99 -218 -322
q-31 -120 -31 -244v-15q0 -190 59 -321q16 -35 22 -35q20 0 213 283q389 571 389 572zM1151 1340q12 0 56.5 39.5t73.5 39.5t29 -26.5t-29 -76t-29 -82.5q0 -32 37 -102q104 -195 104 -373v-56q0 -146 -54.5 -283.5t-145.5 -235.5q-183 -198 -449 -199q-116 0 -267 53
q-45 16 -76 16t-78.5 -46t-75.5 -46t-28 28.5t35.5 84t35.5 104.5q0 9 -44 88t-72.5 172.5t-28.5 240t52 285t145.5 240t206 151.5t229.5 50t228 -33t145 -33z" />
    <glyph glyph-name="Ugrave" unicode="&#xd9;" 
d="M1377 1325q0 -13 -58 -46t-73 -78t-15 -385.5t-12.5 -440.5t-69.5 -188.5t-163 -140.5t-228 -52h-45q-155 0 -263.5 61t-156 152t-59.5 232q-4 48 -4 396t-7.5 383t-48.5 56q-94 47 -94 66q0 41 212 41l111 3h39q110 0 110 -27q0 -8 -60 -62q-34 -30 -45 -106
q-24 -163 -24 -439q1 -276 15 -369q28 -181 175 -248q68 -31 154.5 -31t163 39t129 133t52.5 449q0 481 -52 547q-14 18 -45 44t-31 36q0 33 94 33q299 0 299 -33v-25zM490 1724v18q0 40 65 40h10q36 0 138 -79q186 -145 186 -203v-4q0 -18 -30 -18h-10l-4 1q-77 0 -216 108
t-139 137z" />
    <glyph glyph-name="Uacute" unicode="&#xda;" 
d="M1369 1335q0 -14 -57 -47t-71 -74t-14 -383t-12 -437.5t-66.5 -184.5t-161 -142t-265 -53t-265.5 60t-155 153.5t-58 226.5q-3 41 -3 401t-13 386.5t-74 50.5t-61 48q0 41 167 41q35 0 70 1l72 2q146 0 146 -27q0 -10 -58 -63q-35 -33 -45 -105q-21 -159 -21 -585
q0 -268 82 -378.5t265 -110.5q83 0 159 38t122 117q61 106 61 464q-1 475 -49 535q-14 18 -45.5 46t-31.5 39q0 34 161 34t201 -16q20 -8 20 -37zM981 1768q45 0 45 -31v-5l-1 -4v-4q0 -59 -173 -180q-111 -78 -183 -78h-10q-37 0 -37 18v10q0 38 138.5 157t202.5 119h4
q10 -2 14 -2z" />
    <glyph glyph-name="Ucircumflex" unicode="&#xdb;" 
d="M1372 1333q0 -12 -58.5 -46t-74 -80.5t-15.5 -395.5t-18 -449t-83 -184q-128 -166 -413 -167q-155 0 -261 59.5t-153.5 149t-59.5 231.5q-2 24 -2 392.5t-14 396t-73.5 51t-59.5 51.5q0 39 175 39l109 3q37 1 111 1h5q68 0 68 -23q0 -24 -43.5 -52.5t-56.5 -84.5
q-27 -120 -27 -489t52.5 -460.5t128.5 -125.5t163.5 -34t164.5 39t120 119q58 107 58 465t-26 469q-11 48 -28.5 68t-47 44.5t-29.5 34.5q0 33 92 33h73q223 0 223 -30v-25zM514 1461h-15q-34 0 -34 25q0 44 161 220q60 65 116 65h7q47 0 150 -122q11 -13 74.5 -76.5
t63.5 -73.5v-5q0 -12 -30.5 -12t-132.5 76q-101 76 -111 77q-10 0 -59 -45q-141 -128 -190 -129z" />
    <glyph glyph-name="Udieresis" unicode="&#xdc;" 
d="M1381 1331q0 -15 -63 -49.5t-73.5 -95.5t-10.5 -397t-17 -437q-17 -102 -83 -188q-129 -167 -415 -167q-153 0 -261.5 59t-158 151.5t-61.5 233.5q-4 47 -4 407.5t-14 389t-76 53.5t-62 52q0 42 210 42l112 2l39 1q111 0 111 -26q0 -12 -59 -63q-35 -31 -46 -104
q-24 -166 -24 -590q0 -272 82 -385t266 -113q84 0 159.5 38t128.5 133t53 450q0 482 -50 545q-14 18 -45.5 45t-31.5 36q0 34 92 34h37q198 0 243 -18q22 -9 22 -39zM562 1725h24q9 -3 22 -3t36 -23t23 -52l3 -20v-21q0 -32 -22 -59.5t-45 -27.5q-6 -2 -10 -2l-13 -2h-20
q-26 0 -53.5 22t-27.5 55l-3 21v20q0 34 23.5 63t62.5 29zM952 1498h-12q-36 0 -62.5 26.5t-26.5 53.5q-3 10 -3 15l-3 17v11q2 6 2 10l7 25q0 47 50 47q6 2 9 2l16 2h34l27 -4q59 0 59 -82l2 -18q0 -44 -30.5 -74.5t-68.5 -30.5z" />
    <glyph glyph-name="Yacute" unicode="&#xdd;" horiz-adv-x="1315" 
d="M766 363q0 -156 28 -217q13 -28 65 -53t52 -44q0 -36 -120 -36h-31l-31 1l-93 1q-217 0 -217 26t61.5 55.5t75.5 65.5q21 55 21 217t-19.5 212t-167.5 323.5t-174 306t-76.5 61.5t-50.5 61q0 37 234 37l30 1q61 2 62 2h30q77 0 77 -30q0 -20 -29.5 -40.5t-29.5 -77
t181 -400.5q56 -106 78 -106q8 0 63 99q176 319 176 408q0 37 -23 61l-18 15q-26 22 -26 28q0 43 86 43h123q140 0 140 -45q0 -23 -59.5 -60.5t-95.5 -89.5q-76 -110 -244 -440q-53 -104 -65.5 -166.5t-12.5 -218.5zM576 1486v9q0 42 170 212q73 73 151 73h6l5 -1
q59 0 59 -40v-9q0 -53 -231 -207q-81 -54 -127 -54h-5q-28 0 -28 17z" />
    <glyph glyph-name="Thorn" unicode="&#xde;" horiz-adv-x="1247" 
d="M490 940v-56l1 -10v-300l-1 -29v-56q0 -47 19.5 -62.5t97.5 -15.5h48q118 0 203 78.5t85 207.5v33q0 133 -83.5 210t-204.5 77h-49q-65 0 -90.5 -12t-25.5 -65zM139 44q0 29 63.5 56t78.5 77q26 88 26 532l-1 55v137l-1 27q-1 27 -1 55q0 173 -23 220.5t-61 67.5
q-77 42 -77 58q0 41 314 41l54 1h54q72 0 72 -35q0 -15 -49.5 -38.5t-58.5 -34.5q-31 -37 -31 -100q0 -38 46 -50q8 -2 92 -6.5t119 -8.5q256 -27 343 -199q40 -78 40 -172q0 -193 -148 -309q-111 -86 -324 -97q-134 -7 -148 -15q-27 -14 -27 -77.5t29 -103.5
q13 -18 72.5 -41.5t59.5 -53.5q0 -24 -75 -24l-27 1l-108 1h-81l-105 2q-117 0 -117 34z" />
    <glyph glyph-name="germandbls" unicode="&#xdf;" horiz-adv-x="1156" 
d="M205 -3q-107 0 -107 33v14q0 4 39.5 38t55 78t15.5 247t-5.5 239.5t-28 92t-22.5 79t19 71t47 179.5t80 202q114 155 324 155h3q134 0 216.5 -79.5t82.5 -215.5q0 -62 -76.5 -174t-76.5 -149t96.5 -135.5t126.5 -146.5q60 -96 60 -186v-39q0 -74 -40 -135t-90 -95
q-85 -57 -247 -57q-55 0 -90 32.5t-35 84t25 51.5t62.5 -34t76.5 -34q77 0 121 64.5t44 138.5t-31 127t-131 162.5t-100 175.5q0 29 69.5 154.5t69.5 205t-45 126.5t-118 47t-124.5 -56t-76 -150t-24.5 -584l1 -85v-126q0 -62 5 -124l7 -70l4 -31q0 -51 -37.5 -71
t-144.5 -20z" />
    <glyph glyph-name="agrave" unicode="&#xe0;" horiz-adv-x="1010" 
d="M654 438q0 47 -25 47h-10l-5 -1q-130 0 -243 -79q-87 -61 -87 -144v-32q0 -51 35.5 -90.5t82.5 -39.5l13 -2h13l7 1h6q82 0 158 76q49 49 49 117q2 12 2 19l1 6l3 58v64zM955 113v-15q0 -19 -29 -43q-58 -48 -139 -48q-41 0 -85 39.5t-55 39.5t-106 -47.5t-160 -47.5h-22
q-101 0 -168.5 67.5t-67.5 142.5v44q0 103 98 183q63 51 219 98.5t157 48.5q44 28 44 108.5t-43 122t-113 41.5t-116 -34q-11 -8 -62 -83q-35 -51 -81 -51q-56 0 -56 54q0 80 97 147.5t213 67.5h48q74 0 140.5 -30.5t105.5 -95.5t39 -329t16.5 -306.5t50.5 -48.5
q75 -14 75 -25zM338 1390h15q62 0 122 -69q171 -195 171 -233q0 -16 -27 -16h-15q-54 0 -194.5 123t-140.5 146v13q0 36 69 36z" />
    <glyph glyph-name="aacute" unicode="&#xe1;" horiz-adv-x="1013" 
d="M654 425q0 59 -30 59h-5q-134 0 -234 -70t-100 -153v-32q0 -64 43.5 -97.5t94.5 -33.5h6q102 0 174 81q50 56 50 195l1 19v32zM949 109q0 -18 -29 -42q-58 -48 -137 -48q-41 0 -84.5 39t-62 39t-62.5 -27q-112 -68 -191 -68h-22q-96 0 -164.5 66t-68.5 143v43
q0 203 366 293q81 21 104 35q44 28 44 107.5t-43.5 121.5t-110 42t-115.5 -34q-10 -7 -54 -69.5t-89 -62.5q-55 0 -55 54q0 90 103.5 151.5t209.5 61.5q190 0 269 -104q52 -69 52 -340.5t17 -314.5t70 -49t53 -37zM430 1061h-16q-31 0 -31 20q0 35 183 244q53 61 120 61h10
l6 -1q66 0 66 -41l-1 -5v-5q0 -44 -147.5 -158.5t-189.5 -114.5z" />
    <glyph glyph-name="acircumflex" unicode="&#xe2;" horiz-adv-x="990" 
d="M631 434q0 51 -28 51h-16q-117 0 -234 -78q-86 -57 -86 -148v-32q2 -14 2 -19q0 -43 41 -75t91 -32h6q93 0 156 63t63 135l1 7l1 6l3 58v64zM932 122q0 -18 -29 -42q-56 -46 -135 -46q-39 0 -86 40t-62 40t-61 -26q-118 -66 -192 -66h-2h-22q-96 0 -165.5 67t-69.5 171
q0 184 245 270q18 6 109.5 29.5t108.5 34.5q44 28 44 105t-44 118t-110.5 41t-116.5 -35q-10 -7 -55 -70.5t-89 -63.5q-54 0 -54 55q0 89 104.5 151t227.5 62h24q82 0 145.5 -32.5t101.5 -94t38 -318.5t18.5 -302.5t72.5 -51.5t54 -36zM732 1060h-14q-41 0 -142 93l-30 25
q-59 49 -64 49t-101 -80t-130 -80t-34 16q0 49 172 238q47 52 97 52h8q48 0 102 -59q171 -187 171 -234q0 -20 -35 -20z" />
    <glyph glyph-name="atilde" unicode="&#xe3;" horiz-adv-x="990" 
d="M630 428q0 57 -26 57h-15q-127 0 -238 -78q-86 -60 -86 -153v-13q0 -55 35.5 -95t93.5 -40h19q111 0 177 95q39 56 39 177l1 19v31zM933 143v-15q0 -18 -43.5 -52t-120.5 -34q-40 0 -86.5 39.5t-53.5 39.5t-103 -48t-160 -48h-22q-100 0 -168 68t-68 176q0 188 267 272
q42 13 108 28.5t88 30.5q42 27 42 105.5t-45 118.5t-110 40t-114 -36q-7 -5 -62 -83q-35 -50 -82 -50q-55 0 -55 55q0 81 99.5 147t211.5 66q211 0 288 -121q44 -70 44 -325t22 -309q15 -36 49 -41q74 -11 74 -24zM339 1313h37q29 0 122.5 -41t133 -41t77 41t56.5 41h7
q24 0 24 -20l-1 -8v-9q0 -66 -53.5 -124.5t-122.5 -58.5h-16q-46 0 -140.5 44.5t-131 44.5t-75.5 -39t-57.5 -39t-18.5 17v8q0 59 56.5 121.5t102.5 62.5z" />
    <glyph glyph-name="adieresis" unicode="&#xe4;" horiz-adv-x="990" 
d="M634 374v68q0 46 -30 46h-5q-20 -4 -29 -4q-108 0 -219 -78q-81 -57 -81 -144v-25q2 -14 2 -20q0 -30 34 -68.5t80 -38.5l12 -2h19q94 0 170 86q47 53 47 180zM935 132v-15q0 -20 -44.5 -55t-105 -35t-104 39t-56 39t-105.5 -46.5t-156 -46.5h-23q-97 0 -166.5 67
t-69.5 172q0 190 251 276q25 8 114.5 31t108.5 35q45 28 45 107t-43 120.5t-106 41.5t-99.5 -20t-78.5 -83.5t-95.5 -63.5t-53.5 56q0 83 100.5 148t234.5 65h24q166 0 247 -128q38 -60 38 -326t18 -306.5t51 -45.5q74 -11 74 -26zM399 1186q0 -59 -58 -59l-25 -5h-20
q-9 3 -21.5 3t-35 22.5t-22.5 50.5l-3 20v17q0 36 22 63t47 27l26 4h3l4 -1h6l13 -2q65 0 65 -67q2 -8 2 -10l2 -13v-24q-5 -15 -5 -26zM681 1321q38 0 63.5 -25.5t25.5 -70.5v-22l-4 -24q0 -67 -69 -67l-30 -4h-4l-31 5q-56 0 -56 67l-3 19v17q6 24 6 30q0 70 60 70l31 5
h11z" />
    <glyph glyph-name="aring" unicode="&#xe5;" horiz-adv-x="988" 
d="M635 434q0 52 -30 52l-5 -1h-6q-120 0 -234 -76q-91 -61 -91 -150v-26q0 -58 40.5 -93.5t94.5 -35.5h7q90 0 154.5 64.5t64.5 139.5q2 14 2 19l3 63v44zM393 1236l3 -22q0 -25 30.5 -49.5t46.5 -24.5l21 -3h3l4 1q39 0 65 32t26 58l2 14v19q-5 20 -5 33t-28 41t-61 28
h-18l-20 -4q-19 0 -43 -30t-24 -50l-3 -17v-23zM941 103q0 -18 -30 -43q-60 -49 -139 -49q-42 0 -85 40t-61.5 40t-65.5 -27q-122 -69 -213 -69t-167 62t-76 150v44q0 209 372 295q82 19 107 34q45 27 45 107.5t-43.5 122.5t-113.5 42t-118 -35q-12 -8 -56.5 -72t-91.5 -64
q-56 0 -56 56q0 93 107 155q106 62 214 62q291 0 324 -242q3 -22 3 -251.5t17 -272t72 -48.5t55 -37zM479 1424h32q73 0 124 -51t51 -109v-24q0 -65 -56 -114.5t-130 -49.5h-19q-72 0 -127 49t-55 123l1 6q0 70 56 120t123 50z" />
    <glyph glyph-name="ae" unicode="&#xe6;" horiz-adv-x="1468" 
d="M620 428q0 55 -39 55h-5l-6 -1h-6q-116 0 -227 -74q-78 -52 -78 -147v-32q0 -43 33.5 -81t82.5 -38l19 -2h19q89 0 162 83q43 49 43 169l1 6v12l1 25v25zM996 857q-81 0 -145.5 -73.5t-64.5 -170.5v-6q0 -28 82 -28l238 15q12 2 17 2q58 0 58 58l-1 6v12q0 74 -48 128.5
t-101 54.5l-11 2h-24zM150 725q0 86 101.5 146t204.5 60t194.5 -44t97.5 -44t54 26t96.5 44.5t130.5 18.5q134 0 231 -90q43 -40 72.5 -102.5t29.5 -111.5q0 -85 -65 -107q-35 -12 -227.5 -24t-208.5 -16q-63 -17 -63 -99q0 -112 74 -180.5t158.5 -68.5t132 22.5t97.5 53.5
t60 31q26 0 26 -18q0 -73 -111.5 -137t-210.5 -64t-164.5 27.5t-113.5 70t-56 42.5t-128 -69t-227.5 -69t-176 62.5t-68.5 166t85.5 181.5t259.5 113q107 22 125 32q46 24 46 110.5t-62 130.5q-37 26 -105.5 26t-114.5 -45q-12 -11 -40 -67t-65 -56q-69 0 -69 48z" />
    <glyph glyph-name="ccedilla" unicode="&#xe7;" horiz-adv-x="952" 
d="M853 217q15 0 15 -14q0 -51 -119 -127q-116 -74 -227 -76q4 -13 4 -39q0 -29 59.5 -73.5t59.5 -114.5v-8q0 -65 -64 -109t-149 -44h-8q-116 0 -116 39v7q0 34 58 34l76 -11q33 0 56 23t23 58.5t-47.5 70t-47.5 57.5q0 46 34 97q5 8 11 13q-70 0 -145 36q-147 69 -210 224
q-34 84 -34 182q0 187 110 316q57 67 138 110.5t170 43.5h22q156 0 282 -92q44 -32 44 -101q0 -93 -64 -93q-26 0 -80 70q-18 24 -35 54q-49 84 -168 84q-108 0 -188 -138q-42 -72 -42 -229.5t88.5 -262t212.5 -104.5q60 0 157 51l69 36q18 10 34.5 20t20.5 10z" />
    <glyph glyph-name="egrave" unicode="&#xe8;" horiz-adv-x="985" 
d="M723 632v30q-3 21 -3 31q0 65 -57.5 116t-120.5 51h-26q-12 -2 -19 -2q-73 0 -135 -79.5t-62 -155.5v-12q0 -27 119 -27h18l6 1l201 10l23 2q56 0 56 35zM543 -11h-44q-73 0 -152 37t-131 102q-104 129 -104 312v47q0 97 41 187q81 178 236 241q79 32 163 32h21
q140 0 234.5 -94.5t94.5 -230.5q0 -67 -91 -90q-66 -17 -252 -26t-207 -18q-51 -23 -51 -98q0 -128 93 -214q71 -66 168.5 -66t182.5 40q19 9 67.5 35.5t65 26.5t16.5 -22q0 -73 -152 -151q-97 -50 -199 -50zM288 1340v13q0 37 74 37h6q57 0 119 -62q177 -177 177 -236v-8
q0 -13 -31 -13h-10q-34 0 -220 145q-115 89 -115 124z" />
    <glyph glyph-name="eacute" unicode="&#xe9;" horiz-adv-x="985" 
d="M723 632v31q0 78 -52 137.5t-130 59.5h-25q-83 0 -149.5 -76t-66.5 -161v-11q0 -27 77 -27h85l6 1l175 9l24 2q56 0 56 35zM889 200q0 -64 -117.5 -131.5t-225.5 -67.5q-280 0 -385 240q-41 95 -41 208v46q0 77 32 165t92 153q129 139 309 139h21q130 0 226 -89.5
t96 -212.5v-21q0 -65 -91 -88q-61 -16 -246.5 -24.5t-208.5 -19.5q-50 -23 -50 -99q0 -122 93 -212q70 -67 168.5 -67t202.5 52t106 52q19 0 19 -23zM403 1072v9q0 66 166 232q70 70 137 70h5q72 0 72 -41v-9q0 -21 -145 -148t-199 -127l-5 1q-31 0 -31 13z" />
    <glyph glyph-name="ecircumflex" unicode="&#xea;" horiz-adv-x="985" 
d="M723 631v31q0 71 -49 134.5t-133 63.5h-19q-81 0 -151.5 -70.5t-70.5 -166.5v-12q0 -27 101 -27h42l6 1l206 11l23 2q45 0 45 33zM545 1h-43h-4q-71 0 -144 35q-154 73 -205 242q-28 91 -28 170v46q0 92 36 178q71 169 218 239q85 40 177 40q228 0 313 -188
q29 -63 29 -115v-20q0 -64 -92 -88q-61 -16 -239.5 -24.5t-199.5 -14.5q-65 -19 -65 -117.5t77 -181.5t197 -83q83 0 168 40q1 1 58 33t74.5 32t17.5 -22q0 -67 -119.5 -134t-225.5 -67zM303 1066h-14q-30 0 -30 18v5q0 61 185 246q43 43 94 43t102 -56q168 -183 168 -231
v-5q0 -17 -40.5 -17t-133.5 84.5t-100 84.5t-100.5 -86t-130.5 -86z" />
    <glyph glyph-name="edieresis" unicode="&#xeb;" horiz-adv-x="962" 
d="M697 635v32l-1 6q0 78 -50 135t-122 57h-32q-88 0 -150 -80t-62 -166q0 -34 104 -34h12l7 1l213 10l22 2q59 0 59 37zM281 407q0 -128 91 -212q71 -66 199 -66q82 0 211 70q53 28 69.5 28t16.5 -22q0 -64 -118.5 -130t-228.5 -66h-43q-61 0 -138 32q-157 65 -217 244
q-28 84 -28 170v46q1 82 35 171q34 90 94 152q128 134 304 134h21q126 0 219 -80q46 -40 76 -103.5t30 -114.5v-21q0 -68 -87 -91q-63 -17 -247.5 -26t-206.5 -18q-52 -22 -52 -97zM240 1235l2 16q0 30 25.5 50t40.5 20l26 4h3l4 -1q38 0 61 -23t23 -47q2 -6 2 -9l2 -14v-23
q0 -33 -21 -59t-42 -26l-25 -5h-17l-3 1h-6q-6 2 -9 2q-25 0 -46 28t-21 62v20zM706 1319q35 0 59.5 -24.5t24.5 -50.5q2 -6 2 -9l2 -17v-14l-4 -24q0 -21 -22.5 -43.5t-46.5 -22.5l-16 -3h-24q-29 0 -54.5 20.5t-25.5 46.5l-5 26v20l4 23q0 22 23.5 45.5t48.5 23.5l20 3h14
z" />
    <glyph glyph-name="igrave" unicode="&#xec;" horiz-adv-x="637" 
d="M425 366l2 -99q0 -94 28 -145q10 -18 59.5 -41.5t49.5 -45.5q0 -33 -81 -33h-44l-14 1h-145l-59 -1h-57q-50 0 -50 35q0 21 56.5 47t67.5 63q19 65 19 320.5t-23 314.5q-13 32 -62.5 50.5t-49.5 34.5q0 22 18 32q73 42 222 42h14q51 0 51 -51l1 -29v-44l-2 -74v-31
l-1 -46v-300zM166 1387q61 0 125 -73q167 -191 167 -225v-4q0 -16 -27 -16h-19q-51 0 -191 122.5t-140 150.5v4q0 39 60 39l10 2h15z" />
    <glyph glyph-name="iacute" unicode="&#xed;" horiz-adv-x="637" 
d="M185 13q-63 0 -63 36q0 20 55.5 45t68.5 63q20 60 20 310t-14.5 300t-57.5 67q-63 25 -63 46q0 13 17 24q67 42 219 42h13q50 0 50 -51v-101l-1 -45v-30l-1 -16v-60l-1 -46v-198l-1 -15v-31l2 -61q1 -15 1 -29q0 -86 26 -131q9 -15 59.5 -39t50.5 -46q0 -32 -222 -32h-29
l-28 -1h-29l-43 -1h-29zM243 1056h-10q-30 0 -30 19q0 43 167 234q64 73 134 73h11q10 -2 16 -2q51 0 51 -37v-4l-1 -5q0 -30 -190 -196q-94 -82 -148 -82z" />
    <glyph glyph-name="icircumflex" unicode="&#xee;" horiz-adv-x="609" 
d="M154 29q-49 0 -49 34q0 17 70 50q44 21 58 71t14 296.5t-17 295.5t-58 65q-62 24 -62 46q0 13 16 23q67 41 228 41q50 0 50 -50v-101l-3 -75v-45l-1 -31v-45q0 -360 17 -428q10 -40 66 -66.5t56 -48.5q0 -29 -232 -29l-14 -1h-28l-70 -2h-41zM309 1370h15q38 0 81 -47
q175 -193 175 -247q0 -21 -33 -21h-6q-32 0 -131 82.5t-106.5 82.5t-96 -80.5t-126 -80.5t-37.5 23q0 11 43.5 69t76.5 105.5t66 80.5t79 33z" />
    <glyph glyph-name="idieresis" unicode="&#xef;" horiz-adv-x="613" 
d="M170 23q-63 0 -63 36q0 22 68 53q43 20 58 72.5t15 299.5t-16.5 294.5t-57.5 64.5q-61 25 -61 38q0 21 19 32q71 41 232 41h13q32 0 38 -36q1 -6 1 -145l-2 -75v-367q2 -30 2 -45q0 -99 28 -143q11 -17 59 -40t48 -48q0 -30 -237 -30l-43 -1h-29l-43 -1h-29zM52 1233
q0 33 23 61.5t62 28.5h23q25 0 53 -22t28 -74v-13l-4 -26q0 -22 -23 -45t-46 -23l-19 -3h-13l-21 4q-59 0 -59 66q-2 6 -2 9l-2 13v24zM488 1104q-43 0 -65.5 28t-22.5 70v11q0 44 22.5 72.5t49.5 28.5l21 3h14q9 -3 25.5 -3t37.5 -27t21 -54l2 -17v-18l-4 -24
q0 -67 -67 -67l-13 -3h-21z" />
    <glyph glyph-name="eth" unicode="&#xf0;" horiz-adv-x="1074" 
d="M562 842h-30q-96 0 -162 -99t-66 -257v-71q2 -22 2 -34q0 -128 71 -222.5t168 -94.5h21q48 0 98 34q132 91 132 342v37q0 181 -58 260q-77 105 -176 105zM350 1128q0 5 40 48t40 77t-43 69q-79 65 -79 73q0 16 34.5 16t131 -39t182.5 -39l98 22q48 0 48 -23
q0 -14 -27 -52.5t-27 -72.5t70 -136q160 -236 160 -495v-58q0 -128 -42 -233q-77 -192 -230 -264q-83 -39 -177 -39q-190 0 -298.5 123.5t-108.5 316t121 335t312 142.5l128 -14q15 0 15 41q0 64 -87 151q-39 39 -112 39l-98 -16q-51 0 -51 28z" />
    <glyph glyph-name="ntilde" unicode="&#xf1;" horiz-adv-x="1150" 
d="M79 84q0 16 53 38t64.5 69.5t11.5 280.5t-23 305q-9 28 -46.5 51t-37.5 40.5t30 32.5q74 36 187 36q35 0 50 -35q1 -3 10 -41.5t19 -38.5t39 21l23 18q108 84 206 84h28q76 0 137.5 -38t97 -108.5t35.5 -320t12 -283.5t59 -66.5t47 -45.5q0 -43 -166 -43l-29 1h-30
q-136 0 -136 31q0 20 29 43.5t39 59t10 274t-36 307.5q-44 85 -160 85q-50 0 -104 -33.5t-88 -87.5t-34 -270.5t9.5 -255t45 -69.5t35.5 -45q0 -36 -156 -36l-145 -2q-86 0 -86 42zM447 1311h23q33 0 124.5 -43t133.5 -43t83.5 37.5t62.5 37.5t21 -19v-16q0 -66 -76 -135
q-36 -33 -105 -33q-28 0 -132 43t-135 43t-82.5 -47.5t-56.5 -47.5h-15q-21 0 -21 15v16q0 63 59 127.5t116 64.5z" />
    <glyph glyph-name="ograve" unicode="&#xf2;" horiz-adv-x="1083" 
d="M815 520q0 131 -73.5 238t-173.5 107h-20q-100 0 -168.5 -99.5t-68.5 -276.5l1 -12v-12q0 -176 74.5 -284.5t174.5 -108.5h31q89 0 157 98.5t68 250.5v62q-2 24 -2 37zM1000 494v-33q0 -203 -136 -354q-116 -127 -310 -127l-15 1h-4q-79 0 -157 35q-164 72 -226 272
q-24 75 -24 169v17q0 195 127 344q60 69 141 103.5t163 34.5h30q78 0 155 -34q78 -34 136 -98q120 -132 120 -330zM390 1389h15q63 0 122 -68q171 -195 171 -233v-4q0 -14 -34 -14h-5q-4 0 -226 148q-111 74 -111 124v9q0 38 68 38z" />
    <glyph glyph-name="oacute" unicode="&#xf3;" horiz-adv-x="1073" 
d="M553 864h-21q-99 0 -166 -97.5t-67 -228.5l-2 -25v-48q0 -176 75 -284.5t184 -108.5l11 1q99 0 166.5 98.5t67.5 249.5v62q0 165 -74 273t-174 108zM532 959h44q168 0 285.5 -130t117.5 -343l-1 -16q0 -201 -124 -339t-302 -138h-30q-77 0 -153.5 34t-131.5 98
q-117 136 -117 324v32q0 83 29.5 175t94.5 163.5t142 105.5t146 34zM804 1345v-9q0 -45 -149.5 -161t-191.5 -116h-10q-31 0 -31 15v4q0 42 165 231q66 75 134 75h21q62 0 62 -39z" />
    <glyph glyph-name="ocircumflex" unicode="&#xf4;" horiz-adv-x="1062" 
d="M547 866h-21q-99 0 -167.5 -99.5t-68.5 -251.5v-61q0 -167 84 -286q67 -95 166 -95h21q99 0 167 99t68 251v62q0 165 -74.5 273t-174.5 108zM111 458v48q1 98 41 186q82 177 234 241q73 31 152 31h15q177 0 292 -122q58 -61 93.5 -145t35.5 -171v-48q0 -200 -136 -342
q-54 -57 -131 -89.5t-160 -32.5h-30q-77 0 -151 32q-149 63 -217 224q-38 90 -38 188zM792 1062h-14q-25 0 -121 72l-54 45q-54 45 -58.5 45t-102 -81t-131.5 -81h-7q-32 0 -32 17v5q0 60 172 232q58 58 101 58l8 -1h8q45 0 155 -132t110 -155.5t-34 -23.5z" />
    <glyph glyph-name="otilde" unicode="&#xf5;" horiz-adv-x="1061" 
d="M797 427v62q0 165 -75 274t-186 109l-10 -1h-10q-38 0 -86 -28t-80 -83q-62 -105 -62 -266l1 -12v-12q0 -176 75 -285t176 -109h21q100 0 168 99t68 252zM523 964h45q175 0 291 -135q117 -135 117 -336l-1 -16q0 -201 -135 -351q-57 -63 -136.5 -93.5t-155.5 -30.5h-16
l-15 1q-85 0 -164.5 38.5t-132.5 102.5q-110 134 -110 312v48q0 87 34 175q71 182 227 250q80 35 152 35zM678 1104h-15q-46 0 -134 44t-124 44t-79 -43t-60 -43q-25 0 -25 25q0 77 60 132t128 55l8 -1q47 0 134 -43.5t122.5 -43.5t79.5 44t54 44h7q23 0 23 -19v-8
q0 -66 -55.5 -126.5t-123.5 -60.5z" />
    <glyph glyph-name="odieresis" unicode="&#xf6;" horiz-adv-x="1062" 
d="M550 872h-20q-100 0 -168 -99t-68 -240v-73q0 -157 72.5 -269t177.5 -112h21q99 0 167 99t68 251v62q0 168 -84 287q-66 94 -166 94zM539 969h30q174 0 290 -136t116 -338v-17q0 -94 -34 -185q-33 -91 -93 -157q-121 -134 -298 -134h-30q-174 0 -296 141
q-48 55 -79 139.5t-31 175.5v33q0 103 35 192q71 181 225 250q82 36 165 36zM277 1231l3 36q0 12 24.5 36.5t63.5 24.5h10q32 0 60.5 -23t28.5 -70v-21q0 -34 -23.5 -63.5t-61.5 -29.5h-20l-3 1h-6q-8 2 -10 2q-62 0 -62 67q-3 9 -3 12l-2 21v3zM723 1321h21
q35 0 59.5 -24.5t24.5 -48.5q2 -6 2 -10l2 -14v-24q-3 -12 -3 -24t-21.5 -38.5t-48.5 -26.5l-16 -3h-24q-12 3 -21 3t-35 20.5t-26 52.5q-2 6 -2 10l-2 17v7q0 42 24.5 72.5t65.5 30.5z" />
    <glyph glyph-name="divide" unicode="&#xf7;" horiz-adv-x="1241" 
d="M525 271q0 25 23 53.5t53 28.5q9 3 13 3l22 2l4 -1q50 0 76.5 -26.5t26.5 -52.5l2 -6v-25q-2 -8 -2 -10q0 -26 -30 -50t-64 -24h-26l-24 4q-16 0 -43.5 22t-27.5 51l-3 15v16zM1122 629v-31q0 -37 -24.5 -42t-170.5 -5h-618q-134 0 -147.5 6.5t-13.5 39.5v21q0 43 45 43
q20 2 32 2l270 2h434q193 0 193 -36zM532 985l2 26q0 14 28.5 36.5t58.5 22.5h28q30 0 60 -24t30 -62v-26q0 -27 -22.5 -55t-54.5 -28l-20 -3h-18l-23 4q-21 0 -44 23t-23 47l-3 19v16z" />
    <glyph glyph-name="oslash" unicode="&#xf8;" horiz-adv-x="1121" 
d="M577 73h33q95 0 169 99t74 250v65l-2 26l-2 34q0 72 -34 130q-8 14 -11 14h-5q-13 0 -188 -253t-175 -279v-7q0 -20 39 -49.5t102 -29.5zM373 248q16 0 80.5 100t173.5 252.5t109 175.5v7q0 20 -38 48.5t-99 28.5h-16q-53 0 -104 -31.5t-81 -79.5q-70 -114 -70 -273v-18
l1 -8l1 -26l2 -34q0 -65 19.5 -103.5t21.5 -38.5zM153 412v58q0 95 38 185q122 290 426 290q43 0 99.5 -10t93.5 -10t74 34t63 34t26 -29q0 -19 -24.5 -64.5t-24.5 -68.5t27 -69t49 -104.5t22 -154.5l-1 -20v-19q0 -74 -32 -164q-31 -90 -97 -165q-126 -142 -338 -142
l-193 19q-36 0 -78 -34.5t-56 -34.5q-30 0 -30 39q0 7 25.5 58t25.5 74q0 22 -22 58q-73 118 -73 240z" />
    <glyph glyph-name="ugrave" unicode="&#xf9;" horiz-adv-x="1150" 
d="M1075 84q0 -18 -18 -30q-62 -42 -192 -42q-48 0 -65 45q-25 65 -30.5 65t-55 -37.5t-101.5 -64.5q-53 -27 -129 -27q-175 0 -245 139q-40 78 -40 340.5t-15 303.5t-64 64t-49 51q0 34 196 34q77 0 87.5 -44t10.5 -321.5t25 -341.5t66 -90t97 -26t115.5 33.5t90 92
t30.5 260.5t-18 261t-53 84t-35 47l10 14q41 35 224 35q47 0 47 -109l-13 -363q0 -200 18 -256t43 -72q63 -41 63 -45zM394 1387h15q52 0 121 -69q170 -170 170 -229v-8q0 -12 -26 -12h-20q-51 0 -190.5 122t-139.5 146v13q0 37 70 37z" />
    <glyph glyph-name="uacute" unicode="&#xfa;" horiz-adv-x="1150" 
d="M1069 99q0 -15 -20 -29q-60 -42 -189 -42q-44 0 -62 46q-23 61 -34 61q-2 0 -54.5 -38.5t-75.5 -50.5q-70 -38 -148 -38q-174 0 -245 138q-38 73 -38 341v85l-1 28q-1 28 -1 99.5t-20 99.5t-62.5 46t-42.5 31v18q0 32 195 32q65 0 79 -26.5t14 -178.5l1 -28q1 -28 1 -71
v-100q0 -239 26 -300t65 -85.5t95 -24.5t110 30t81 68q47 66 47 274q0 286 -46 329q-12 12 -36.5 29.5t-24.5 31.5q0 58 207 58h25q46 0 46 -56l-1 -26q-1 -26 -1 -42.5t-4 -91.5l-8 -250q0 -204 17.5 -255.5t42.5 -66.5q62 -38 62 -45zM488 1059h-10q-35 0 -35 17v5
q0 50 172 222q78 78 141 78l6 -1q65 0 65 -39v-5q0 -36 -137.5 -156.5t-201.5 -120.5z" />
    <glyph glyph-name="ucircumflex" unicode="&#xfb;" horiz-adv-x="1131" 
d="M1057 104q0 -15 -18 -28q-55 -38 -190 -38q-47 0 -64 45q-24 63 -30 63t-55 -35.5t-76 -49.5q-73 -39 -150 -39q-172 0 -243 135q-42 80 -42 338.5t-14.5 296t-64 59.5t-49.5 49q0 35 192 35q76 0 86 -45q8 -35 8 -313.5t24 -338.5q45 -114 160 -114h1q114 0 186 97
q47 64 47 276.5t-17 267.5t-53 79t-36 48l11 13q43 31 198 31h25q49 0 49 -81l-1 -27q-1 -27 -1 -54l-2 -55q-1 -28 -1 -56l-2 -111q0 -265 13.5 -326t45.5 -79q63 -36 63 -43zM558 1368h21q31 0 143.5 -122.5t112.5 -168.5q0 -21 -41 -21h-7q-37 0 -137.5 85t-106.5 85
t-46.5 -33t-98.5 -76.5t-88 -43.5t-30 13v5q0 13 121 145t157 132z" />
    <glyph glyph-name="udieresis" unicode="&#xfc;" horiz-adv-x="1141" 
d="M867 18q-47 0 -65 45q-25 64 -31 64t-53.5 -36t-99.5 -64t-131 -28q-176 0 -246 139q-40 78 -40 340.5t-15.5 304t-64 63.5t-48.5 51q0 34 196 34q77 0 87.5 -44t10.5 -323t25 -341.5t64.5 -88.5t97 -26t116.5 33.5t90 91.5t31 259t-17.5 260.5t-53 85t-35.5 48.5l10 14
q43 34 224 34q48 0 48 -82l-1 -27q-12 -313 -12 -439q0 -215 61.5 -252.5t61.5 -44.5q0 -16 -18 -29q-60 -42 -192 -42zM293 1231l2 16q0 25 24.5 49.5t59.5 24.5h23q12 -3 24.5 -3t36.5 -24t24 -65v-21l-1 -3v-7q-2 -6 -2 -20t-24.5 -38.5t-59.5 -24.5h-20l-3 1h-7
q-6 2 -19.5 2t-35 26.5t-21.5 52.5l-2 13v18zM855 1228v-20q0 -35 -21.5 -61.5t-43.5 -26.5q-9 -3 -10 -3l-16 -2h-20q-9 3 -22 3t-37.5 24.5t-24.5 64.5v21q0 40 26.5 66.5t60.5 26.5h20q12 -3 25.5 -3t38 -24.5t24.5 -65.5z" />
    <glyph glyph-name="yacute" unicode="&#xfd;" horiz-adv-x="1028" 
d="M215 -415q-54 0 -87.5 26.5t-33.5 58.5q0 59 96 59l23 -1q30 -2 43 -2q68 0 133.5 100t65.5 189q0 47 -237 661q-21 54 -78 125.5t-57 82.5q0 43 139 43l29 2l28 1h59q82 0 82 -32q0 -12 -21.5 -45.5t-21.5 -70.5q0 -107 155 -494q22 -54 32.5 -54t33.5 59
q144 367 144 494q0 35 -27 67t-27 37q0 38 137 38t137 -36q0 -20 -52 -86.5t-72 -113.5q-18 -47 -76 -212q-191 -548 -276 -701q-106 -195 -246 -195h-25zM715 1390h15q68 0 68 -37v-4l-1 -5q0 -37 -151.5 -155t-185.5 -118h-15q-25 0 -25 14v4q0 60 173 233q68 68 122 68z
" />
    <glyph glyph-name="thorn" unicode="&#xfe;" horiz-adv-x="1151" 
d="M402 344l2 -53q0 -93 43 -143q61 -71 156 -71h19q99 0 170.5 107.5t71.5 259.5v49q0 138 -68.5 241t-168.5 103h-29q-82 0 -152 -87q-41 -51 -41 -164l-2 -22l-3 -99v-78l1 -11zM107 1310q0 16 28 28q81 36 191 36q50 0 63 -42q7 -23 7 -244t44 -221q1 0 43 20.5
t85.5 35.5t113.5 15t142.5 -36t124.5 -107q86 -116 86 -284v-33v-5q0 -103 -37 -195q-112 -282 -402 -282q-28 0 -84.5 15.5t-76 15.5t-30 -21.5t-10.5 -127t18 -149.5t67 -69.5t49 -47.5t-107 -22h-29l-29 1h-29q-221 0 -221 33q0 19 41.5 53t60 114t18.5 303l2 60v60l1 60
v301q0 464 -13 555.5t-48 119.5q-69 56 -69 60z" />
    <glyph glyph-name="ydieresis" unicode="&#xff;" horiz-adv-x="1049" 
d="M259 -385h-25q-53 0 -85.5 26.5t-32.5 57.5q0 58 94 58l22 -1q29 -2 42 -2q66 0 129.5 98t63.5 187q0 41 -34 134q-144 397 -210 542q-13 29 -66.5 96t-53.5 80q0 44 194 44h57q81 0 81 -31q0 -10 -21 -47t-21 -67q0 -113 153 -482q21 -51 31.5 -51t33.5 58
q141 363 141 482q0 34 -26 65t-26 37q0 35 102 35q168 0 168 -37q0 -19 -50.5 -81.5t-64 -95.5t-68 -182.5t-62.5 -173t-85 -232.5q-76 -208 -130 -308q-112 -208 -251 -209zM399 1317q42 0 65.5 -29.5t23.5 -63.5v-21q0 -34 -22.5 -62t-47.5 -28l-12 -3h-7l-9 -1l-4 1
q-43 0 -64.5 27t-21.5 49l-3 20v17q0 26 19.5 58.5t52.5 32.5l20 3h10zM772 1317q31 0 57 -20.5t26 -46.5l5 -26v-24q-3 -12 -3 -23.5t-21 -37.5t-46 -26q-6 -2 -9 -2l-17 -2h-6q-42 0 -65.5 29.5t-23.5 67.5v13l4 26q0 17 20.5 42.5t45.5 25.5q6 2 9 2l14 2h10z" />
    <glyph glyph-name="dotlessi" unicode="&#x131;" horiz-adv-x="631" 
d="M240 487q0 245 -18.5 285t-67.5 57.5t-49 33.5q0 22 18 33q65 41 221 41h13q44 0 50 -37v-329q0 -364 14.5 -414t69 -75.5t54.5 -48.5q0 -33 -66 -33h-43l-15 1h-44l-28 1h-43l-15 -1h-29l-58 -1h-43q-63 0 -63 25v11q0 22 51 45t63 42q25 40 25 149q2 30 2 45l1 31v139z
" />
    <glyph glyph-name="Lslash" unicode="&#x141;" horiz-adv-x="1251" 
d="M132 554.5q0 35.5 70 90.5t81.5 99.5t11.5 234.5t-15.5 236t-53.5 67q-75 42 -75 56q0 28 82 28h65q311 0 311 -45q0 -7 -43 -47.5t-58 -77.5q-37 -89 -37 -220.5t58 -131.5q4 0 48 21l54 26q70 32 98 32q19 0 19 -25q0 -38 -107 -123.5t-136.5 -146t-29.5 -248.5
t41 -232.5t194 -44.5t241 52q44 26 106 113t80 87q32 0 32 -47q0 -222 -52 -270q-35 -32 -357 -32l-36 -1q-35 -1 -71 -1l-184 -2h-109q-207 0 -207 46q0 5 50 40t71 100.5t21 254.5q0 87 -43 87l-84 -11q-36 0 -36 35.5z" />
    <glyph glyph-name="lslash" unicode="&#x142;" horiz-adv-x="737" 
d="M431 1275q0 -386 55 -386q11 0 47 17t54 17t18 -16v-15q0 -34 -64.5 -87.5t-86 -96.5t-21.5 -161q0 -379 83 -439q9 -6 45.5 -23t36.5 -32q0 -49 -175 -49h-22l-23 1h-23q-158 0 -158 33q0 6 54 63q27 28 27 117l-1 21q-1 21 -1 43q0 178 -39 259q-15 32 -63.5 32
t-48.5 30t63.5 91.5t77.5 93.5t14 216t-31 255q-11 25 -51.5 44t-40.5 32q0 56 181 56h20q46 0 59.5 -18.5t13.5 -97.5z" />
    <glyph glyph-name="OE" unicode="&#x152;" horiz-adv-x="1963" 
d="M999 772q0 300 -54 417q-48 103 -215.5 103t-286.5 -143q-59 -72 -95.5 -181t-36.5 -229v-75q0 -235 118 -402q54 -76 132 -121t160 -45h49q121 0 173.5 89.5t52.5 352.5l2 33l1 65v136zM1401 1256q-105 0 -146.5 -75.5t-41.5 -221.5q0 -71 20 -100q34 -50 105.5 -50
t108.5 22q5 3 45.5 37t52.5 34q39 0 56.5 -54.5t17.5 -211.5q0 -104 -55 -104q-10 0 -49.5 42t-83 58.5t-113 16.5t-95.5 -34.5t-26 -120.5q0 -247 43.5 -308.5t194 -61.5t239.5 38q41 18 88 67t61 49t14 -42t-29 -95.5t-72 -79.5q-74 -45 -328 -45q-113 0 -224.5 9.5
t-157 9.5t-161.5 -12t-129 -12q-273 0 -452 181t-179 496.5t198 509.5q175 171 439 171q33 0 90 -5t84 -6l167 -5l38 3l39 5q30 3 83 3l44 1l132 4l43 -1h43q135 0 193 -40q85 -59 85 -163q0 -25 -7.5 -25t-54 40t-98 58t-222.5 18z" />
    <glyph glyph-name="oe" unicode="&#x153;" horiz-adv-x="1646" 
d="M758 433v74q0 142 -56 248q-32 61 -78.5 90t-91.5 29h-19q-89 0 -155 -96t-66 -230l-2 -23v-49q0 -151 64 -271t180 -120l10 1q93 0 153.5 97t60.5 250zM1377 638v31q0 67 -54.5 128.5t-133.5 61.5h-13q-18 -3 -31 -3q-64 0 -123.5 -68t-59.5 -149v-6q0 -42 204 -42h95
q116 0 116 47zM1539 217q0 -64 -140 -140q-96 -52 -223 -52t-238 92q-47 39 -76 39q-8 0 -72 -46q-120 -86 -280 -86q-161 0 -281 126q-55 58 -89.5 140t-34.5 159v59q0 91 40 176q78 166 236 229q71 28 159 28q151 0 262 -90q58 -47 74 -47q18 0 60 38q108 98 257 98
t254 -94.5t105 -228.5q0 -75 -83 -97q-49 -13 -225.5 -19.5t-204.5 -16.5q-60 -22 -60 -114.5t79 -163.5t168.5 -71t163.5 38q21 11 65.5 40.5t53.5 29.5q30 0 30 -26z" />
    <glyph glyph-name="Scaron" unicode="&#x160;" horiz-adv-x="1104" 
d="M112 321q0 85 39 85q20 0 74.5 -97.5t106.5 -136.5q100 -75 215.5 -75t194.5 63.5t79 177t-104 191.5q-52 39 -242.5 124t-252.5 152q-82 90 -82 227t102 241q61 62 138 90.5t142 28.5h35q40 0 125 -16t105 -16l29 1l27 2q50 0 70 -39t20 -211q0 -70 -24 -70
q-30 0 -80 87.5t-114 129.5t-168 42t-173 -55.5t-69 -139.5q0 -113 99 -189q46 -36 239 -123t273 -172t80 -207v-37q0 -69 -32 -145q-34 -76 -92 -126q-124 -108 -295 -108h-36q-46 0 -141 21.5t-210 21.5q-39 0 -58.5 62t-19.5 216zM573 1482h-29q-42 0 -153 133t-111 139
v5q0 18 31 18h13q29 0 99.5 -49t104.5 -80q33 -30 42 -31q9 0 54 41q128 116 174.5 116.5t46.5 -17.5v-6q0 -26 -111.5 -147.5t-160.5 -121.5z" />
    <glyph glyph-name="scaron" unicode="&#x161;" horiz-adv-x="854" 
d="M719 731q0 -47 -24.5 -47t-66 60.5t-85.5 90.5t-121 30t-118 -36t-41 -93.5t58 -102.5q27 -21 170.5 -79t207 -116t63.5 -169t-87.5 -188.5t-232.5 -77.5q-51 0 -118.5 15.5t-126.5 15.5t-73 29q-20 43 -20 177v22q0 38 30 38q20 0 62 -70q87 -147 248 -147q66 0 115 37
t49 107.5t-75 121.5q-41 28 -164 80t-174 100q-73 69 -73 171.5t80 176t203 73.5h26q36 0 98.5 -11.5t112 -11.5t63.5 -39.5t14 -156.5zM203 1373h13q24 0 90 -51t94 -78l17 -17q26 -24 28 -24q13 0 97.5 84.5t139.5 84.5q31 0 31 -17v-5q0 -58 -178 -236q-48 -48 -96.5 -48
t-96.5 53q-174 191 -174 235q0 19 35 19z" />
    <glyph glyph-name="Ydieresis" unicode="&#x178;" horiz-adv-x="1323" 
d="M434 1387q76 0 76 -46q0 -4 -39 -37q-18 -15 -18 -64.5t190 -389.5q58 -103 81 -103q10 0 66 96q186 321 186 396q0 38 -21 62l-17 15q-24 23 -24 28q0 41 208 41q147 0 147 -45q0 -23 -63.5 -62.5t-111.5 -112.5q-130 -197 -263 -472q-59 -122 -59 -356q0 -122 25 -178
q12 -27 64 -52.5t52 -46.5q0 -38 -110 -38h-64l-32 1l-62 1q-219 0 -219 29t60 58.5t74 64.5q25 63 25 227.5t-59 276.5q-192 366 -258 463t-105 124q-83 57 -83 79q0 35 169 35l154 6h31zM420 1611v24q5 15 5 32.5t26.5 38.5t53.5 21h24q33 0 58 -25t25 -66v-28l-4 -23
q0 -21 -24 -45t-64 -24h-10l-26 4q-22 0 -43 26.5t-21 64.5zM874 1718h14l4 -1q96 0 96 -77v-29q0 -43 -24.5 -74t-47.5 -31l-24 -4h-15q-39 0 -64 31.5t-25 79.5v18q0 33 29 69q14 18 57 18z" />
    <glyph glyph-name="Zcaron" unicode="&#x17d;" horiz-adv-x="1240" 
d="M344 142q0 -37 248.5 -37t331 35.5t124.5 111.5q61 110 83.5 110t22.5 -94t-33 -177q-12 -29 -35 -45q-54 -37 -474 -37h-356q-148 0 -148 41q0 66 383.5 607.5t383.5 592.5q0 23 -222 23t-311 -40q-55 -25 -91 -84q-66 -109 -84 -109q-23 0 -23 70q0 185 44 223.5
t356 38.5h121l40 -1q279 0 344.5 -7t65.5 -41q0 -64 -385.5 -608.5t-385.5 -572.5zM648 1485h-15q-43 0 -160 127.5t-117 144.5t34 17h7q42 0 141 -82.5t104.5 -82.5t53.5 40l42 35q15 14 18 16q99 74 124 74h14q32 0 32 -17.5t-116.5 -144.5t-161.5 -127z" />
    <glyph glyph-name="zcaron" unicode="&#x17e;" horiz-adv-x="950" 
d="M541 103q115 0 164.5 27t77.5 67q56 79 62 79q27 0 27 -31q0 -157 -43 -203q-29 -31 -131 -31h-476q-123 0 -123 37q0 52 266 404.5t266 368.5q0 29 -152 29t-195 -18.5t-68 -55.5q-53 -78 -65 -78q-27 0 -27 56q0 124 26.5 157t107.5 33h109l26 -1l55 -1l27 -1l138 -2
q227 0 227 -42q0 -54 -266.5 -406.5t-266.5 -365.5q0 -24 152 -24l27 1q27 1 55 1zM504 1086h-15q-44 0 -156 134.5t-112 147.5v5q0 16 41 16t136.5 -87.5t98.5 -87.5t99 88t134.5 88t38.5 -15v-6q0 -14 -134 -175q-90 -108 -131 -108z" />
    <glyph glyph-name="florin" unicode="&#x192;" horiz-adv-x="1074" 
d="M139 -335q-77 0 -130 40q-26 20 -26 51q0 51 53 51q18 0 53.5 -16t77 -16t81 51t63.5 137q86 304 86 621q0 82 -23 131q-48 102 -48 104q0 14 53 45.5t79 79.5q9 16 28 76l8 27q74 258 246 333q59 26 107 26h28q74 0 116.5 -32t42.5 -64q0 -80 -56 -80q-31 0 -67 36
t-76 36q-81 0 -134 -93.5t-53 -245.5q0 -63 75.5 -96t75.5 -50q0 -23 -92 -68q-66 -32 -97.5 -109.5t-86.5 -389t-126 -424.5q-101 -161 -258 -161z" />
    <glyph glyph-name="circumflex" unicode="&#x2c6;" horiz-adv-x="811" 
d="M405.5 1452q52.5 0 96.5 -48q180 -198 180 -230v-5q0 -15 -45 -15t-138 84.5t-98 84.5q-19 0 -104.5 -85.5t-134.5 -85.5h-7q-31 0 -31 21q0 50 183 233q46 46 98.5 46z" />
    <glyph glyph-name="caron" unicode="&#x2c7;" horiz-adv-x="919" 
d="M753 1426q0 -40 -191 -248q-52 -57 -102 -57t-101 56q-193 211 -193 248v5q0 15 38 15t134 -81l6 -6l116 -105q7 0 112 96t146 96h7q28 0 28 -19z" />
    <glyph glyph-name="uni02C9" unicode="&#x2c9;" horiz-adv-x="832" 
d="M653 1304q40 0 40 -31v-39q0 -44 -41 -44h-33l-6 1h-74l-13 1h-271l-13 -1h-40l-20 -1h-13q-39 0 -39 30v40q0 43 34 43l476 1h13z" />
    <glyph glyph-name="breve" unicode="&#x2d8;" horiz-adv-x="865" 
d="M451 1156h-44q-96 0 -180 76.5t-84 163.5v8q0 21 21 21h7l8 -1q19 0 64 -54t84 -75t109 -21q116 0 185 92q44 58 73 58t29 -25q0 -80 -81.5 -161.5t-190.5 -81.5z" />
    <glyph glyph-name="dotaccent" unicode="&#x2d9;" horiz-adv-x="878" 
d="M544 1286q0 -49 -26.5 -75.5t-42.5 -27.5t-19 -1l-18 -2h-3l-4 1h-7l-14 2q-18 0 -45.5 22t-27.5 54q-2 8 -2 11l-2 15v15q0 42 25.5 73.5t69.5 31.5h25q12 -3 22.5 -3t37.5 -21.5t27 -54.5q2 -6 2 -10l2 -19v-11z" />
    <glyph glyph-name="ring" unicode="&#x2da;" horiz-adv-x="829" 
d="M448 1460h-30q-8 -2 -11 -2q-24 0 -53.5 -29.5t-29.5 -57.5q-2 -6 -2 -10l-1 -14l1 -4v-4q0 -38 30 -68t67 -30h23q12 3 26 3t44 30t30 73v11l-1 4v7q-2 6 -2 19.5t-29 42.5t-62 29zM420 1531h20q76 0 132.5 -50.5t56.5 -118.5v-18q0 -71 -58 -122.5t-135 -51.5h-6l-7 1
h-13q-12 2 -18 2q-61 0 -109.5 55t-48.5 111v18q0 70 58.5 122t127.5 52z" />
    <glyph glyph-name="ogonek" unicode="&#x2db;" horiz-adv-x="850" 
d="M657 -278v-11q0 -17 -38 -47t-115 -30h-29q-76 0 -121 45t-45 97v28q0 61 63.5 139t119.5 78h18q18 0 18 -8.5t-18 -33t-41.5 -61.5t-23.5 -85.5t29.5 -75t76.5 -26.5l84 12q22 0 22 -21z" />
    <glyph glyph-name="tilde" unicode="&#x2dc;" horiz-adv-x="862" 
d="M294 1403h16l8 -1q38 0 132.5 -44.5t130.5 -44.5t76 44t64.5 44t24.5 -19v-8q0 -64 -57.5 -121.5t-123.5 -57.5h-16q-29 0 -139.5 45.5t-137 45.5t-71.5 -45t-67 -45t-22 27q0 62 59 121t123 59z" />
    <glyph glyph-name="hungarumlaut" unicode="&#x2dd;" horiz-adv-x="882" 
d="M436 1504h10l4 -1q63 0 63 -36l-1 -4q0 -42 -138.5 -163t-163.5 -121h-14q-24 0 -24 13v7q0 10 79.5 129t84.5 124q52 52 100 52zM780 1500q46 0 46 -31v-9q0 -19 -131.5 -150.5t-179.5 -131.5h-9q-27 0 -27 14v4q0 10 76.5 124.5t83.5 121.5q60 60 102 60h24
q10 -2 15 -2z" />
    <glyph glyph-name="uni03A9" unicode="&#x3a9;" horiz-adv-x="1587" 
d="M1445 218q0 -35 -26 -90t-59 -78t-178.5 -23t-195.5 18t-50 64.5t115.5 216t136.5 222.5q49 122 49 248q-1 126 -31 215q-63 185 -225 257q-77 34 -177 34q-204 0 -320.5 -134t-116.5 -404q0 -115 44 -236q6 -16 113 -202t107 -253q0 -22 -34 -42.5t-140 -20.5l-49 1h-49
q-93 0 -128 18t-62.5 65.5t-27.5 89.5t17 42q3 0 78 -47.5t171.5 -47.5t96.5 42q0 23 -100 133q-209 230 -209 494.5t170 434.5q80 80 194 127t227 47h51q125 0 232 -46q110 -48 187 -129q147 -156 147 -414v-3v-3q0 -282 -225 -503q-100 -98 -100 -131t97 -33t149 27l32 23
l29 30l29 26q31 0 31 -35z" />
    <glyph glyph-name="uni03BC" unicode="&#x3bc;" horiz-adv-x="1298" 
d="M915 909q95 -1 95 -203q0 -94 -9.5 -214t-9.5 -194t38 -121q6 -8 37 -31.5t31 -37.5q0 -51 -111 -51q-23 0 -67.5 30t-68.5 30q-68 0 -124 -28q-126 -63 -193 -63l-103 9q-38 0 -50.5 -29t-12.5 -123q0 -251 -105 -251q-59 0 -59 132v29q0 9 19 259.5t19 420.5t-5 227
l-6 55l-4 25q-4 35 -4 77q0 74 70 74h29q43 0 63 -24.5t20 -140.5q0 -9 -4 -97l-6 -98q-8 -176 -8 -197q0 -153 41.5 -216.5t156.5 -63.5q70 0 135.5 50t84.5 106q39 113 39 511l-5 92q0 56 77 56z" />
    <glyph glyph-name="pi" unicode="&#x3c0;" horiz-adv-x="1282" 
d="M606.5 817q-97.5 0 -114.5 -38q-3 -6 -19 -120t-47 -293.5t-56 -253.5t-87 -74q-56 0 -56 63q0 9 13 41l9 21q31 68 65 208t34 305q0 42 -24.5 68.5t-51 26.5t-56 -10t-42.5 -10q-27 0 -27 41.5t44.5 80t135.5 59.5t408 21q29 0 59 1l60 2l176 1h27q71 0 71 -55
q0 -46 -79 -76t-95 -57q-42 -74 -42 -314q0 -311 128 -311q18 0 18 -19t-37 -48.5t-88 -29.5q-79 0 -129 105q-39 81 -39 233l25 325q0 56 -43 81.5t-140.5 25.5z" />
    <glyph glyph-name="endash" unicode="&#x2013;" horiz-adv-x="1161" 
d="M213 610h811q46 0 46 -43v-10l-1 -11q0 -36 -17 -45.5t-127 -9.5h-682q-120 0 -136.5 6t-16.5 37v11l1 11q0 39 22 46.5t100 7.5z" />
    <glyph glyph-name="emdash" unicode="&#x2014;" horiz-adv-x="1907" 
d="M54 520v36q0 50 146 50l1533 1q117 0 117 -35v-18q0 -44 -31 -56t-114 -12h-75l-19 1h-1291l-77 -1h-111q-78 0 -78 34z" />
    <glyph glyph-name="quoteleft" unicode="&#x2018;" horiz-adv-x="651" 
d="M506 1057v-14q0 -38 -30 -65t-67 -27h-27q-56 0 -86 47t-30 113v21q0 80 45 163.5t96 120.5t65 37h11q18 0 18 -26q0 -4 -51 -74t-51 -129q0 -30 53.5 -71.5t53.5 -95.5z" />
    <glyph glyph-name="quoteright" unicode="&#x2019;" horiz-adv-x="650" 
d="M254 1453h14l7 -1q46 0 79.5 -37t33.5 -113v-22q0 -87 -46.5 -166.5t-97 -121t-67.5 -41.5h-11q-18 0 -18 21v5q0 2 52 73.5t52 135.5q0 25 -51 65t-51 94t30.5 81t73.5 27z" />
    <glyph glyph-name="quotesinglbase" unicode="&#x201a;" horiz-adv-x="532" 
d="M378 16q0 -79 -79 -184.5t-129 -105.5h-5q-20 0 -20 19v9q1 12 29 46q73 88 73 156q0 29 -50 72.5t-50 110.5q0 32 27.5 59.5t70.5 27.5h21q55 0 85 -41t30 -105v-29q-3 -21 -3 -35z" />
    <glyph glyph-name="quotedblleft" unicode="&#x201c;" horiz-adv-x="957" 
d="M475 1068v-14q0 -39 -30 -65.5t-64 -26.5h-28q-40 0 -78 34.5t-38 107.5v51q2 14 2 21q0 77 75.5 181t131.5 104h6q19 0 19 -25q0 -4 -51.5 -75t-51.5 -127q0 -31 53.5 -72.5t53.5 -93.5zM611 1179q0 74 75.5 178t128.5 104h5q22 0 22 -23q0 -7 -51.5 -77.5t-51.5 -129.5
q0 -27 54 -69t54 -97v-7l-1 -7q0 -40 -31.5 -65t-73.5 -25h-7q-52 0 -89 37t-37 117v29q3 21 3 35z" />
    <glyph glyph-name="quotedblright" unicode="&#x201d;" horiz-adv-x="956" 
d="M372 1319v-37q0 -79 -46.5 -158.5t-96 -120t-67.5 -40.5h-10q-18 0 -18 21v5q0 3 52.5 75.5t52.5 115t-51.5 82.5t-51.5 93t30 80t67 27h27q56 0 84 -44.5t28 -98.5zM744 1312v-22q-3 -21 -3 -36q0 -76 -78 -183.5t-129 -107.5h-10q-18 0 -18 16v9q0 4 52 75.5t52 126.5
q0 31 -51.5 71.5t-51.5 93.5t30 80t67 27h27q52 0 82.5 -42t30.5 -108z" />
    <glyph glyph-name="quotedblbase" unicode="&#x201e;" horiz-adv-x="854" 
d="M365 92v-43q0 -79 -46 -158t-94.5 -118.5t-67.5 -39.5h-5q-20 0 -20 18v9q0 10 28 44q74 91 74 159q0 33 -50.5 72.5t-50.5 89t28 77.5t70 28h28q50 0 78 -44t28 -94zM527 -267h-10q-18 0 -18 20v5q0 14 29.5 50t33.5 42q38 60 38 103t-50.5 82t-50.5 91v7l1 7
q0 38 30 64.5t78 26.5l7 -1q51 0 84 -36.5t33 -105.5v-36q0 -81 -49.5 -165.5t-97 -119t-58.5 -34.5z" />
    <glyph glyph-name="dagger" unicode="&#x2020;" horiz-adv-x="1098" 
d="M488 1064q0 26 -15 123.5t-15 153.5q0 83 90 83q42 0 65.5 -22.5t23.5 -83.5l-30 -277q0 -62 53 -62q7 0 69 9t94 9q99 0 99 -66q0 -44 -29 -61.5t-94 -17.5l-43 3q-14 1 -53.5 1t-58 -36t-18.5 -175v-47l3 -49q0 -13 -3 -50l-5 -51q-12 -156 -12 -380t-11 -280t-46 -56
q-41 0 -54.5 53.5t-13.5 194.5v194l-2 53q-1 27 -1 44t-7 141l-8 130l2 49l-1 47l-3 111q0 63 -24 85t-93 22l-82 -4q-39 0 -64.5 21.5t-25.5 49.5v19q0 56 93 56l163 -20q57 0 57 86z" />
    <glyph glyph-name="daggerdbl" unicode="&#x2021;" horiz-adv-x="1100" 
d="M558 1423h2q74 0 74 -97q0 -42 -11 -114t-11 -134t53 -62l173 14q39 0 57 -23t18 -47t-23 -46t-66 -22l-27 1q-36 2 -81 2t-73.5 -19t-28.5 -83t11.5 -124.5t11.5 -148t34 -147.5q21 -37 113 -37t92 -59q0 -45 -42 -68q-24 -13 -133 -13q-57 0 -75.5 -27.5t-18.5 -87.5
l21 -225q0 -58 -22.5 -83.5t-47.5 -25.5q-58 0 -74 24.5t-16 69.5t10 117t10 156q0 75 -125 81q-70 4 -102.5 24t-32.5 64q0 49 84 53.5t104 26.5q41 46 41 232l5 29l12 57q7 41 7 100.5t-21.5 88t-115.5 28.5l-27 -1l-55 -3q-73 0 -73 74q0 18 21.5 41t63.5 23l146 -13
q65 0 65 84l-22 237q0 40 26.5 61.5t68.5 21.5z" />
    <glyph glyph-name="bullet" unicode="&#x2022;" horiz-adv-x="1000" 
d="M747 672v-17q0 -105 -72.5 -177.5t-170 -72.5t-174.5 70.5t-77 175.5v34q0 91 69 166t161 75h33q89 0 160 -77t71 -177z" />
    <glyph glyph-name="ellipsis" unicode="&#x2026;" horiz-adv-x="1777" 
d="M212 202l2 19q0 37 30.5 62.5t53.5 25.5l19 3h16q42 0 73.5 -31.5t31.5 -81.5v-28q-3 -12 -3 -27t-24.5 -44.5t-55.5 -29.5q-8 -2 -11 -2l-19 -2h-4q-53 0 -81.5 34.5t-28.5 77.5v20zM901 66q-47 0 -77 30t-30 66q-2 8 -2 12l-1 16l1 4q0 50 28.5 84t73.5 34h19
q36 0 68.5 -27t32.5 -63q3 -9 3 -15l2 -20v-4l-1 -4q0 -46 -26.5 -78t-60.5 -32l-22 -3h-8zM1609 175l-2 -19q0 -31 -29 -60t-67 -29h-27q-40 0 -70.5 30.5t-30.5 76.5v28q0 48 31 79t71 31h24l22 -4q20 0 47.5 -27.5t27.5 -61.5q2 -8 2 -11l2 -20v-9z" />
    <glyph glyph-name="perthousand" unicode="&#x2030;" horiz-adv-x="2181" 
d="M1161 621h-19q-57 0 -99 -76.5t-42 -194.5v-42l2 -24l2 -30q0 -61 38 -121t88 -60h13q71 0 108.5 83t37.5 189v42q0 101 -36.5 167.5t-92.5 66.5zM1969 328v76q0 101 -41 160t-94 59l-6 -1q-71 0 -109 -83.5t-38 -186.5v-42q0 -108 38.5 -172t96.5 -64l6 1h6
q48 0 92.5 63.5t44.5 149.5q4 32 4 40zM460 1327h-12l-7 -1q-60 0 -105 -82t-45 -199v-58q0 -91 34 -153t94 -62l6 1q65 0 110 82t45 217v33q0 95 -32 158.5t-88 63.5zM1162 713h20q105 0 178.5 -92t73.5 -234v-23q0 -159 -87.5 -260t-198.5 -101h-20q-111 0 -180.5 95
t-69.5 230v23q0 152 84 257t200 105zM1813 712h40q106 0 171.5 -98.5t65.5 -253.5t-91 -260t-218 -105l-10 1q-104 0 -175 89t-71 209v58q0 142 87.5 251t200.5 109zM1202 1405q45 0 45 -19q0 -32 -740 -1251q-76 -125 -136 -125q-45 0 -45 15.5t341 584t407.5 682
t127.5 113.5zM127 1018v45q0 154 87.5 255t205.5 101h11q114 0 188 -92.5t74 -214.5v-46q0 -144 -84.5 -249.5t-210.5 -105.5h-11q-114 0 -187 91.5t-73 215.5z" />
    <glyph glyph-name="guilsinglleft" unicode="&#x2039;" horiz-adv-x="666" 
d="M533 145q0 -27 -39 -27t-213.5 198t-174.5 202v9q0 5 175 203t213 198t38 -29t-128.5 -194t-128.5 -181t57 -89q200 -258 201 -290z" />
    <glyph glyph-name="guilsinglright" unicode="&#x203a;" horiz-adv-x="661" 
d="M125 899q0 28 32 28q47 0 221 -197q174 -198 174 -206t-175 -207q-175 -198 -215 -198h-8q-29 0 -29 22v7q0 27 129 193t129 182q0 2 -129 181t-129 195z" />
    <glyph glyph-name="fraction" unicode="&#x2044;" horiz-adv-x="467" 
d="M635 1393q48 0 48 -17t-243 -431.5t-359 -619.5q-203 -358 -245 -358q-47 0 -47 21q0 8 295 528t454 777q62 100 97 100z" />
    <glyph glyph-name="Euro" unicode="&#x20ac;" horiz-adv-x="1199" 
d="M101 560v18q0 5 44.5 35t44.5 62.5t-40 69.5t-40 48q0 1 83 118q6 9 74.5 128.5t139.5 182t155.5 92t159.5 29.5h41q153 0 228.5 -36t75.5 -150q0 -51 -31 -51q-8 0 -43 22l-63 41q-94 52 -187 52t-177 -73.5t-84 -167.5q0 -36 56 -69q15 -9 147.5 -42t132.5 -57
q0 -34 -149 -46q-25 -2 -78 -6l-40 -3l-80 -4l-35 -6q-53 -16 -53 -68t52 -63l38 -5q30 -3 76 -5l76 -3q146 -10 146 -42t-108.5 -60.5t-138.5 -47.5q-52 -33 -52 -104t92 -140.5t181 -69.5t192.5 38.5t119 38.5t15.5 -18q0 -79 -96 -140t-276 -61t-319 126q-84 75 -175 297
q-22 53 -63.5 95.5t-41.5 44.5z" />
    <glyph glyph-name="trademark" unicode="&#x2122;" horiz-adv-x="1758" 
d="M601 1395q62 0 79 -26t17 -92v-34q0 -32 -11 -32t-37 30.5t-32 36.5q-45 41 -106 41q-44 0 -56 -62q-4 -21 -4 -242.5t7.5 -255t19 -43t33 -21.5t21.5 -24q0 -31 -67 -31h-152q-68 0 -68 28q0 10 33.5 33.5t41 58.5t7.5 257.5t-8 254.5q-12 47 -53 47q-64 0 -106 -42
l-66 -66q-12 0 -12 29v16q0 99 23.5 119t88.5 20h67l17 -1l257 1h66zM1652 684q0 -35 -94 -35h-30q-98 0 -98 28q0 15 14 47t16.5 49.5t2.5 121t1 136.5l3 95q0 83 -11.5 83t-116.5 -267t-143 -267q-16 0 -125.5 267.5t-119 267.5t-9.5 -141l3 -97v-97q0 -106 20 -147.5
t20 -47.5q0 -29 -91.5 -29t-91.5 37q0 2 28.5 30.5t36.5 77t8 247t-9 226.5t-33 57t-24 45t93.5 16t131.5 -61q15 -24 105 -243.5t94 -219.5t92.5 215.5t105.5 243.5q40 66 116 66h30q68 0 68 -18q0 -6 -26 -44.5t-30.5 -73t-4.5 -231.5t7 -231.5t20 -54.5l15 -19
q26 -28 26 -32z" />
    <glyph glyph-name="Omega" unicode="&#x2126;" horiz-adv-x="1521" 
d="M615 87q0 -83 -205 -83h-95q-95 0 -120.5 14.5t-55 67.5t-29.5 99t21 46l26 -12l30 -24l32 -21q47 -23 172 -23q71 0 71 32t-87 108.5t-139 166.5q-89 154 -89 302q0 414 327 579q128 64 268 64t254 -37q114 -36 204 -124q180 -175 180 -452q0 -280 -240 -503
q-78 -72 -78 -89q0 -47 126 -47q77 0 124 26l31 23q44 35 59 35t15 -67.5t-56 -127.5q-34 -36 -156 -36h-47q-127 0 -171 12q-73 20 -73 77q0 41 81 184l23 38l53 71q115 170 115 386q0 268 -128 409q-116 129 -310 129q-98 0 -178 -46q-230 -133 -230 -486q0 -151 54 -277
q17 -39 119 -193.5t102 -220.5z" />
    <glyph glyph-name="partialdiff" unicode="&#x2202;" horiz-adv-x="1122" 
d="M306 364v-53q0 -106 52 -171t129 -65h9q121 0 221 142q59 84 94.5 202t35.5 178v10q0 83 -60 139t-140 56h-10q-122 0 -222 -124q-45 -55 -77 -146.5t-32 -167.5zM557 1309q-57 0 -99 -11t-81 -21.5t-42 -10.5q-32 0 -32 35t81.5 75t169.5 40h25q93 0 177 -48
q166 -94 223 -315q31 -119 31 -237v-53q0 -137 -42 -285q-42 -146 -118 -258q-154 -223 -382 -224q-152 0 -239 95.5t-87 248.5v26q0 199 158 363q127 131 310 131q57 0 135.5 -28.5t88.5 -28.5q45 0 45 86t-31 181q-50 153 -174 211q-60 28 -117 28z" />
    <glyph glyph-name="Delta" unicode="&#x2206;" horiz-adv-x="1328" 
d="M360 109h541q126 0 126 27q0 35 -189 516t-191.5 481t-61.5 -150t-75 -188t-137 -345.5t-121 -311.5v-10q0 -19 108 -19zM698 1393q32 0 96 -170q123 -328 288.5 -742t165.5 -457q0 -24 -75 -24l-39 -2l-60 -1h-852q-117 0 -117 22q0 34 47 151q400 1000 462 1135
q40 88 84 88z" />
    <glyph glyph-name="product" unicode="&#x220f;" horiz-adv-x="1558" 
d="M771 1321q-276 0 -301 -38t-25 -385l-2 -100q-1 -52 -1 -128v-178q0 -368 12.5 -473t36.5 -156l17 -30q24 -40 24 -46q0 -43 -115 -43h-44q-139 0 -194 47l-16 26q0 23 46 56.5t58 94.5t12 560t-16 600.5t-35.5 143t-43.5 67.5l-38 41l8 16q42 31 519 31h206l51 -1
q411 0 467 -25l22 -15q0 -18 -28.5 -51t-48.5 -71q-68 -133 -68 -1034q0 -250 15.5 -287.5t63 -72.5t47.5 -48l-7 -29l-34 -16q-87 -32 -174 -32q-152 0 -152 63l36 49q22 39 29.5 110t7.5 455l-1 51v102l5 511q0 191 -31.5 213t-307.5 22z" />
    <glyph glyph-name="summation" unicode="&#x2211;" horiz-adv-x="1381" 
d="M1218 1225q0 -57 -43 -57q-1 0 -51 54.5t-96 71.5q-82 31 -358.5 31t-276.5 -33t209 -332t209 -335.5t-236.5 -357.5t-236.5 -346q0 -52 215 -52l132 3q88 2 133 2q179 0 238 25t112.5 74.5t62.5 49.5q31 0 31 -65t-28.5 -130t-71.5 -85.5t-367 -20.5h-361
q-206 0 -259 10.5t-53 56t262.5 397t262.5 381.5q0 43 -250.5 396.5t-250.5 399.5q0 37 55.5 49t215.5 12h225q443 0 509.5 -27t66.5 -172z" />
    <glyph glyph-name="minus" unicode="&#x2212;" horiz-adv-x="1156" 
d="M991 611q61 0 61 -46v-21q0 -43 -15 -48.5t-95 -5.5h-777q-61 0 -61 47v31q0 42 56 42l459 1h372z" />
    <glyph glyph-name="uni2219" unicode="&#x2219;" horiz-adv-x="559" 
d="M392 627v-25q-3 -12 -3 -29t-31 -48t-76 -31h-16l-4 1h-8q-8 2 -20 2t-46 28.5t-34 79.5v25q0 41 29.5 76t64.5 35l24 3h4l4 -1q52 0 82 -36t30 -80z" />
    <glyph glyph-name="radical" unicode="&#x221a;" horiz-adv-x="1283" 
d="M1242 1647q0 -13 -90 -189t-127.5 -290.5t-172 -653.5t-159.5 -539q-70 0 -170 170q-21 36 -135 301.5t-149 265.5q-19 0 -56 -11.5t-41 -11.5q-41 0 -41 23q0 34 31 53q79 49 146.5 49t98.5 -44t85 -162q153 -332 203 -332q30 0 138 431.5t168.5 601t173.5 334.5
q27 40 57 40q40 0 40 -36z" />
    <glyph glyph-name="infinity" unicode="&#x221e;" horiz-adv-x="1537" 
d="M411 395h29q74 0 144 51q134 97 134 160v7q0 64 -130 159q-73 53 -158 53h-15q-94 0 -147.5 -65.5t-53.5 -138.5v-16q0 -88 61 -149t136 -61zM1341 591v39q0 85 -66 145t-145 60h-22q-74 0 -146 -59q-131 -107 -131 -164t121 -156q78 -64 154 -64h37q88 0 143 67t55 132z
M1153 288h-37q-78 0 -170 58q-40 25 -65 51.5t-56 63t-38 36.5t-74.5 -65t-131.5 -99t-176.5 -34t-200.5 88t-88 228.5t95 225t226 84.5t248 -117q73 -73 87 -73t70 59q134 140 287 140h19q118 0 213 -84.5t95 -223.5v-20q0 -128 -91.5 -223t-211.5 -95z" />
    <glyph glyph-name="integral" unicode="&#x222b;" horiz-adv-x="911" 
d="M664 1615q66 0 102.5 -26t36.5 -54q0 -75 -83 -75q-14 0 -52 16t-42 16q-94 0 -94 -285l-2 -50v-76l-1 -50v-76l1 -52v-52l2 -77q1 -26 1 -50l2 -25l3 -72q4 -96 4 -128l2 -57v-88q0 -352 -71 -509.5t-216 -157.5q-68 0 -104 26.5t-36 57.5t23.5 52.5t50 21.5t62.5 -17.5
t57 -17.5q54 0 73 147q12 94 12 355l-16 638q0 351 63 494q75 171 222 171z" />
    <glyph glyph-name="approxequal" unicode="&#x2248;" horiz-adv-x="1185" 
d="M837 279h-34q-72 0 -215 71.5t-213 71.5q-99 0 -177 -90q-26 -30 -47 -30q-35 0 -35 52t85.5 118.5t161.5 66.5h34q63 0 219 -71.5t217 -71.5t107.5 34.5t68.5 59.5t41 25q35 0 35 -43v-10q0 -54 -87.5 -118.5t-160.5 -64.5zM833 662h-22q-69 0 -226.5 72t-216 72
t-114.5 -38q-16 -11 -52 -47t-45 -36q-41 0 -41 52.5t84 119t165 66.5h22q70 0 227 -72t214 -72q93 0 169 82q36 38 46 38q41 0 41 -36v-10q0 -57 -85 -124t-166 -67z" />
    <glyph glyph-name="notequal" unicode="&#x2260;" horiz-adv-x="1248" 
d="M1091 428q0 -53 -58 -61.5t-241 -8.5t-230 -38.5t-95 -149.5t-89 -111q-34 0 -34 35q0 29 30.5 105t30.5 84q0 42 -49 57q-8 2 -70 6q-128 6 -128 68q0 34 42 48q22 7 153.5 7t157.5 16t70.5 98.5t44.5 96.5q0 34 -252 34q-141 0 -178.5 9.5t-37.5 45.5v24q0 43 322 43
q154 0 213 44q35 27 84.5 140.5t91.5 113.5q35 0 35 -35q0 -22 -31.5 -100.5t-31.5 -89.5q0 -42 52 -55q3 -1 67 -4.5t86 -13.5q43 -19 43 -62q0 -49 -162.5 -49t-192 -18t-73 -103.5t-43.5 -91.5q0 -31 198.5 -31t236.5 -9.5t38 -43.5z" />
    <glyph glyph-name="lessequal" unicode="&#x2264;" horiz-adv-x="1197" 
d="M1084 59v-49q0 -28 -77 -28h-53l-10 1h-64l-22 1h-86l-22 1h-65l-22 1h-66l-32 1h-77l-11 1h-87l-21 1h-54l-32 1h-53l-10 1h-21q-20 2 -30 2q-41 0 -41 55v10q0 45 39 45l20 2h105l11 -1l677 -8l52 -2q52 0 52 -35zM312 716q0 -6 261 -126t402 -199q82 -46 82 -95
t-28 -49q-63 0 -817 388q-68 35 -68 78t50 69q770 396 832 396q28 0 28 -45t-65 -87q-41 -27 -212 -110t-318 -148.5t-147 -71.5z" />
    <glyph glyph-name="greaterequal" unicode="&#x2265;" horiz-adv-x="1197" 
d="M1090 73v-30q0 -43 -28 -47q-63 -10 -469 -10h-44l-22 -1h-43l-22 -1h-65l-22 -1h-43l-21 -1h-42l-32 -1q-102 0 -102 34v30q0 49 59 49l20 2l772 10q104 0 104 -33zM907 712.5q0 5.5 -134 66t-305.5 143.5t-209.5 105q-95 55 -95 113q0 39 16 39h13q2 0 156 -75
t399 -187.5t286.5 -138.5t41.5 -65.5t-25.5 -55.5t-374 -180t-413 -196.5t-71.5 -32.5q-26 0 -26 47.5t84 95.5q117 67 387.5 191.5t270.5 130z" />
    <glyph glyph-name="lozenge" unicode="&#x25ca;" horiz-adv-x="1142" 
d="M242 688q0 -10 160 -305.5t164 -295.5t165.5 298t161.5 300.5t-161.5 301t-166 298.5t-38.5 -63l-39 -73q-246 -422 -246 -461zM1015 686.5q0 -2.5 -163 -309.5t-233 -406q-20 -28 -56 -28t-78 73q-364 627 -364 671q0 5 150 287t233 416q25 40 63 40q43 0 133 -169
l102 -185q14 -24 113.5 -205.5t99.5 -184z" />
    </font>
</defs>
</svg>
