<?xml version="1.0" standalone="no"?>
<!DOCTYPE svg PUBLIC "-//W3C//DTD SVG 1.1//EN" "http://www.w3.org/Graphics/SVG/1.1/DTD/svg11.dtd" >
<svg xmlns="http://www.w3.org/2000/svg" xmlns:xlink="http://www.w3.org/1999/xlink" version="1.1">
<metadata>
Created by FontForge 20170731 at Fri May 12 15:34:39 1995
 By Aleksey,,,
Copyright (c)1986-1995 SWFTE International, Ltd. All rights reserved.
</metadata>
<defs>
<font id="CopperfieldCondensedRegularSWFTE" horiz-adv-x="350" >
  <font-face 
    font-family="CopperfieldCondensed"
    font-weight="400"
    font-stretch="normal"
    units-per-em="1000"
    panose-1="0 0 4 0 0 0 0 0 0 0"
    ascent="800"
    descent="-200"
    x-height="535"
    cap-height="728"
    bbox="-120 -258 1136.04 1038"
    underline-thickness="70"
    underline-position="-255"
    unicode-range="U+0020-F002"
  />
<missing-glyph horiz-adv-x="500" 
d="M63 0v766h375v-766h-375zM125 63h250v641h-250v-641z" />
    <glyph glyph-name=".notdef" horiz-adv-x="500" 
d="M63 0v766h375v-766h-375zM125 63h250v641h-250v-641z" />
    <glyph glyph-name="glyph1" horiz-adv-x="0" 
 />
    <glyph glyph-name="nonmarkingreturn" horiz-adv-x="207" 
 />
    <glyph glyph-name="space" unicode=" " horiz-adv-x="207" 
 />
    <glyph glyph-name="exclam" unicode="!" horiz-adv-x="269" 
d="M221 583q0 -93 -29 -195q-29 -105 -58 -105q-26 0 -56 96q-32 101 -32 203q0 159 86 159q89 0 89 -158zM217 103q0 -44 -18 -76q-23 -40 -64 -40q-31 0 -55 28q-28 33 -28 89q0 52 27 87q25 32 57 32t56.5 -34.5t24.5 -85.5z" />
    <glyph glyph-name="quotedbl" unicode="&#x22;" horiz-adv-x="248" 
d="M225 656q0 -8 -33 -248h-16l-33 248q0 58 42 58q40 0 40 -58zM105 656q0 -8 -32 -248h-17l-32 246q0 60 41 60q40 0 40 -58z" />
    <glyph glyph-name="numbersign" unicode="#" horiz-adv-x="539" 
d="M540 539l-34 -133h-86l-26 -103h88l-33 -131h-88l-45 -180h-98l44 180h-77l-46 -180h-98l45 180h-87l34 131h86l24 103h-87l34 133h88l43 180h99l-44 -180h78l44 180h100l-46 -180h88zM324 408h-82l-27 -107h82z" />
    <glyph glyph-name="dollar" unicode="$" horiz-adv-x="436" 
d="M419 205q0 -88 -45.5 -145.5t-120.5 -57.5q0 -39 -2 -50.5t-7 -14.5q-8 -6 -42 -11q-11 -4 -17 -4q-23 0 -23 33q-1 15 -2 47q-147 26 -147 138q0 82 40 82q25 0 57 -60q30 -56 61 -56q40 0 40 32q0 24 -56 70q-30 22 -61 44q-36 30 -51 56q-23 42 -23 111q0 81 30 137
q42 81 138 81q0 44 3 56.5t18 12.5h10q7 -1 15 -1q38 -8 40 -10.5t2 -48.5q0 -6 28 -17q40 -16 56 -26q46 -28 46 -86q0 -33 -16.5 -55t-40.5 -22q-23 0 -53 43q-10 14 -20 29q-23 25 -51 25q-14 0 -27 -10t-13 -27q0 -27 49 -58l86 -50q99 -60 99 -187z" />
    <glyph glyph-name="percent" unicode="%" horiz-adv-x="655" 
d="M279 475q0 -96 -33 -146t-92 -50q-52 0 -90 46q-47 56 -47 159q0 82 36.5 135.5t92.5 53.5t93 -51q40 -54 40 -147zM176 449q0 43 -9.5 80.5t-23.5 37.5q-21 0 -21 -65q0 -39 9 -75q10 -41 24 -41q21 0 21 63zM628 197q0 -196 -125 -196q-52 0 -90 46q-47 56 -47 159
q0 82 36.5 135.5t92.5 53.5t93 -51q40 -55 40 -147zM524 171q0 43 -9 80.5t-24 37.5q-21 0 -21 -65q0 -39 10 -76q10 -40 24 -40q20 0 20 63zM508 608l-90 -166q-102 -203 -172 -410q-11 -49 -26 -49q-8 0 -32.5 22t-30.5 30q-4 4 -4 13q0 16 11 37q7 6 70 140l-2 -6
l126 292q0 -1 -1 -3q28 70 57 139q7 17 19 37q3 6 10 6q19 0 62 -49q12 -13 3 -33z" />
    <glyph glyph-name="ampersand" unicode="&#x26;" horiz-adv-x="681" 
d="M671 575q0 -120 -82 -181q-28 -21 -78 -46q24 -47 24 -115q0 -113 -77 -184q-73 -68 -177 -68q-98 0 -170 78q-80 86 -80 227q0 135 94 206q-16 42 -16 79q0 64 30 110q39 61 121 61q46 0 79 -15q45 -21 45 -64q0 -50 -37 -50q-7 0 -34 7t-30 7q-17 0 -29 -15
q-14 -18 -14 -48q0 -45 42 -69q25 -14 25 -37q0 -24 -11 -49q-14 -35 -40 -35q-7 0 -18 3.5t-13 3.5q-17 0 -17 -58q0 -86 43 -144q37 -51 80 -51q26 0 48 24.5t22 55.5q0 53 -32 53q-5 0 -26.5 -13.5t-22.5 -13.5q-9 0 -16 19t-7 40q0 46 43 91q25 26 86.5 69t81.5 62
q36 34 36 67q0 40 -19 40q-3 0 -18.5 -9t-18.5 -9q-18 0 -18 26q0 34 19 64q26 40 74 40q46 0 75 -39q33 -43 33 -120z" />
    <glyph glyph-name="quotesingle" unicode="'" horiz-adv-x="205" 
d="M180 594q0 -120 -51 -220q-26 -51 -52 -51q-11 0 -21 10q-13 12 -13 31q0 10 5 21q9 18 17 35q15 33 15 56q0 18 -18 42q-24 31 -28 41q-11 21 -11 60q0 45 17 80q21 43 59 43q30 0 51 -27q30 -39 30 -121z" />
    <glyph glyph-name="parenleft" unicode="(" horiz-adv-x="334" 
d="M277 615q-41 -74 -41 -284q0 -293 58 -390q13 -17 25 -33q16 -23 16 -39q0 -31 -33 -31q-40 0 -96 44q-68 54 -111 145q-52 114 -52 266q0 143 48 254q41 92 107 147q57 47 104 47q27 0 33 -28q0 -30 -58 -98z" />
    <glyph glyph-name="parenright" unicode=")" horiz-adv-x="334" 
d="M83 615q-58 67 -58 98q6 28 34 28q47 0 104 -47q66 -55 106 -147q49 -111 49 -254q0 -152 -53 -266q-42 -91 -110 -145q-56 -44 -97 -44q-32 0 -32 31q0 16 15 39q13 16 25 33q59 95 59 390q0 210 -42 284z" />
    <glyph glyph-name="asterisk" unicode="*" horiz-adv-x="390" 
d="M346 564q0 -28 -13 -50t-35 -22q-3 2 -19.5 8.5t-24.5 6.5q-11 0 -13 -11q0 -9 20 -23q13 -10 27 -19q21 -19 21 -53q0 -30 -18 -53t-38 -23q-15 0 -27 13q-15 15 -17 42q-2 22 -3 44q-3 28 -13 28t-10 -52q0 -35 -13.5 -54.5t-33.5 -19.5q-19 0 -35 17q-21 21 -21 55
q0 47 34.5 66t34.5 32q0 10 -20 10q-9 0 -22 -6.5t-18 -6.5q-19 0 -32.5 21.5t-13.5 49.5q0 31 14 52q16 25 42 25q19 0 36 -33.5t28 -33.5q6 0 6 9t-12 39q-5 11 -15 42q0 78 53 78q22 0 37 -20t15 -49q0 -19 -9 -40q-6 -13 -13 -27q-11 -32 5 -32q8 2 20 24q23 44 43 44
q21 0 37 -21.5t16 -56.5z" />
    <glyph glyph-name="plus" unicode="+" horiz-adv-x="582" 
d="M496 232h-157v-232h-95v232h-158v133h158v231h95v-231h157v-133z" />
    <glyph glyph-name="comma" unicode="," horiz-adv-x="218" 
d="M195 78q0 -86 -39 -179q-34 -83 -55 -83q-38 0 -38 26q0 -4 20.5 50t20.5 87q0 11 -2 15q-4 8 -23 18q-52 28 -52 113q0 48 21.5 82.5t56.5 34.5q37 0 61 -38q29 -44 29 -126z" />
    <glyph glyph-name="hyphen" unicode="-" horiz-adv-x="271" 
d="M223 207q-10 -22 -15 -27q-8 -8 -27 -8t-69 -1q-40 -1 -56 0q-23 0 -27 6t-4 31q0 48 18 114q7 23 12.5 29t24.5 6q8 0 31 -1q17 -1 112 -1q14 0 18 -4.5t4 -30.5q0 -60 -22 -113z" />
    <glyph glyph-name="hyphen" unicode="&#x2010;" horiz-adv-x="271" 
d="M223 207q-10 -22 -15 -27q-8 -8 -27 -8t-69 -1q-40 -1 -56 0q-23 0 -27 6t-4 31q0 48 18 114q7 23 12.5 29t24.5 6q8 0 31 -1q17 -1 112 -1q14 0 18 -4.5t4 -30.5q0 -60 -22 -113z" />
    <glyph glyph-name="period" unicode="." horiz-adv-x="218" 
d="M194 109q0 -48 -20 -82q-24 -40 -66 -40q-30 0 -55 27q-30 33 -30 95q0 49 19 81q23 39 66 39q39 0 62.5 -33.5t23.5 -86.5z" />
    <glyph glyph-name="slash" unicode="/" horiz-adv-x="190" 
d="M210 727q0 -7 -141 -799q-4 -20 -40 -20q-34 0 -37 1q-7 2 -7 19l144 791q4 23 42 23q30 0 24 1q15 -2 15 -16z" />
    <glyph glyph-name="zero" unicode="0" horiz-adv-x="436" 
d="M423 315q0 -162 -65 -252q-55 -77 -133 -77q-86 0 -147 92q-64 97 -64 248q0 134 56.5 226.5t147.5 92.5q100 0 156 -103q49 -91 49 -227zM259 265q0 79 -15.5 141t-36.5 62q-11 0 -19.5 -27t-8.5 -71q0 -62 12 -124q15 -82 40 -82q28 0 28 101z" />
    <glyph glyph-name="one" unicode="1" horiz-adv-x="436" 
d="M69 468q-28 0 -28 40q0 56 101 100q87 38 159 38q58 0 58 -46q0 -22 -10 -31q-8 -5 -17 -11q-12 -7 -16 -21q-8 -21 -9 -106q-2 -60 0 -146q2 -97 2 -73q3 -67 27 -86q2 -2 42 -14q22 -7 22 -43q0 -53 -62 -67q-25 -6 -107 -6q-112 0 -156 14.5t-44 55.5q0 46 33 46
q3 0 15 -1q9 -1 15 -1q8 1 14 5q12 9 16 48q5 53 5 213q0 55 -2 65q-7 32 -34 32q-5 0 -12.5 -2.5t-11.5 -2.5z" />
    <glyph glyph-name="two" unicode="2" horiz-adv-x="436" 
d="M430 139q0 -72 -24 -132t-56 -60q-15 0 -29 28q-3 23 -56 23h-208q-44 0 -44 33q0 24 11 39l84 128q73 120 73 187q0 47 -36 47q-18 0 -39 -23q-28 -32 -44 -32q-20 0 -34 24q-12 20 -12 44q0 70 65 128t154 58q79 0 125 -51q43 -49 43 -123q0 -45 -17 -94
q-8 -16 -58 -90q-42 -62 -42 -80q0 -26 25 -26q24 0 50 32q23 28 34 28q35 0 35 -88z" />
    <glyph glyph-name="three" unicode="3" horiz-adv-x="436" 
d="M424 175q0 -115 -61 -191q-70 -86 -198 -86q-54 0 -106 22q-67 28 -67 77q0 68 38 68q9 0 47.5 -10.5t52.5 -10.5q35 0 58 25.5t23 64.5q0 30 -13 53q-15 28 -43 28q-11 0 -45 -4q-43 0 -43 82q0 26 9 35q2 2 26 14q32 16 43 28q16 19 17 56q2 68 -51 68q-3 0 -28.5 -12
t-32.5 -12q-13 0 -22.5 18.5t-9.5 41.5q0 51 61 86q53 30 109 30q72 0 123 -36q61 -43 61 -121q0 -70 -42 -112q-15 -15 -17 -22q-3 -11 19 -16q92 -21 92 -164z" />
    <glyph glyph-name="four" unicode="4" horiz-adv-x="436" 
d="M419 44q0 -37 -19 -43q-10 -3 -19 -5q0 -1 1.5 -31t1.5 -50q0 -41 -15 -48q-9 -4 -71 -4q-71 0 -81 7q-13 9 -13 64q0 -8 2 16q1 20 0 32q-2 18 -9 18h-145q-50 0 -50 78q0 69 64 209q62 137 139 241q85 116 137 116q33 0 41 -42q3 -12 3 -68q0 -23 -4.5 -156.5
t-4.5 -184.5q0 -9 4.5 -12t11.5 -2l10 2q19 0 18 -36zM215 209v133q0 25 -11 25q-19 0 -61 -79.5t-42 -101.5q4 -19 45 -19q49 0 59 6t10 36z" />
    <glyph glyph-name="five" unicode="5" horiz-adv-x="436" 
d="M411 156q0 -115 -78 -190q-73 -70 -173 -70q-140 0 -140 96q0 61 28 61q1 0 36 -10t43 -10q59 0 58 78q-1 45 -69 74q-39 14 -79 27q-22 17 -22 49q0 30 28 152q30 130 56 204q5 16 27 16h248q35 0 35 -43q0 -156 -70 -156l-153 1q-29 0 -29 -33q0 -14 41 -22
q93 -19 139 -53q74 -56 74 -171z" />
    <glyph glyph-name="six" unicode="6" horiz-adv-x="436" 
d="M423 269q0 -127 -66 -210q-61 -75 -137 -75q-81 0 -140 78q-64 86 -64 225q0 109 40 216q31 86 80 150q42 56 63 56q22 0 57 -23q42 -27 42 -59q0 -14 -33 -72q-38 -66 -49 -102q40 26 77 26q55 0 91 -52q39 -58 39 -158zM258 207q0 39 -12 76q-13 41 -30 41
q-26 0 -26 -55q0 -39 12 -77q14 -42 33 -42q23 0 23 57z" />
    <glyph glyph-name="seven" unicode="7" horiz-adv-x="436" 
d="M426 588q0 -40 -64 -321l-76 -326q-12 -54 -16 -60q-7 -12 -40 -12h-7q-40 0 -70.5 21.5t-30.5 47.5q0 12 74 222.5t74 226.5q0 29 -25 29h-83q-24 0 -48 -31t-38 -33q-61 0 -61 113q0 64 11 116q18 80 56 79q4 0 30.5 -14t47.5 -14q-4 0 30 0q54 0 176 1q30 0 43 -7
q17 -10 17 -38z" />
    <glyph glyph-name="eight" unicode="8" horiz-adv-x="436" 
d="M424 218q0 -125 -74 -187q-57 -47 -135 -47q-89 0 -147 60t-58 149q0 87 53 141q-49 65 -49 148q0 82 37 135q51 72 162 72q201 0 201 -169q0 -79 -60 -127q70 -63 70 -175zM271 519q0 55 -46 55q-10 0 -20 -9q-12 -12 -11 -34t11.5 -35.5t45.5 -38.5q20 30 20 62z
M253 158q-4 34 -44 66q-28 21 -38 24q-16 7 -26 14q-5 -18 -5 -39q0 -42 22 -76.5t51 -34.5q20 0 31.5 13t8.5 33z" />
    <glyph glyph-name="nine" unicode="9" horiz-adv-x="436" 
d="M426 375q0 -106 -41 -231q-34 -106 -85 -189q-48 -78 -73 -78t-62.5 27.5t-37.5 53.5q0 4 39 68.5t39 112.5q-30 -10 -48 -10q-56 0 -97 65q-45 72 -45 189q0 112 52 184q56 79 152 79q82 0 137 -56q70 -72 70 -215zM260 343q0 40 -15 82.5t-34 42.5q-26 0 -26 -52
q0 -36 14 -75q16 -46 38 -46q23 0 23 48z" />
    <glyph glyph-name="colon" unicode=":" horiz-adv-x="258" 
d="M215 420q0 -55 -25 -88.5t-61 -33.5q-34 0 -58 33q-27 35 -27 89q0 53 23 86.5t62 33.5q36 0 61 -32t25 -88zM215 109q0 -51 -26 -87t-60 -36t-59.5 36.5t-25.5 86.5q0 49 19 81q23 39 66 39q34 0 58 -26q28 -32 28 -94z" />
    <glyph glyph-name="semicolon" unicode=";" horiz-adv-x="258" 
d="M213 417q0 -52 -25.5 -83.5t-56.5 -31.5q-34 0 -60 32.5t-26 87.5q0 46 24 83t59 37q37 0 61 -39t24 -86zM211 80q0 -79 -35 -174q-34 -90 -57 -90q-38 0 -38 24q0 7 17 46q26 60 26 85t-28 41q-51 29 -51 113q0 45 18 78q21 39 59 39q34 0 57 -31q32 -42 32 -131z" />
    <glyph glyph-name="less" unicode="&#x3c;" horiz-adv-x="582" 
d="M492 -8l-402 238v137l402 238v-148l-273 -158l273 -160v-147z" />
    <glyph glyph-name="equal" unicode="=" horiz-adv-x="582" 
d="M496 348h-410v132h410v-132zM496 117h-410v133h410v-133z" />
    <glyph glyph-name="greater" unicode="&#x3e;" horiz-adv-x="582" 
d="M492 230l-402 -238v147l274 160l-274 158v148l402 -238v-137z" />
    <glyph glyph-name="question" unicode="?" horiz-adv-x="399" 
d="M377 546q0 -127 -113 -181q-9 -28 -17 -56q-11 -34 -44 -34q-51 0 -51 77q0 22 27 106.5t27 105.5q0 59 -28 59q-15 0 -17 -24.5t-3 -50.5q-3 -41 -17 -65q-18 -32 -54 -32q-25 0 -43 20q-22 24 -22 71q0 64 42 125q51 72 130 72q85 0 137 -64q46 -56 46 -129zM286 104
q0 -44 -19 -78q-23 -40 -61 -40q-33 0 -57 30q-27 33 -27 88q0 41 18 74q23 43 65 43q34 0 59 -37q22 -35 22 -80z" />
    <glyph glyph-name="at" unicode="@" horiz-adv-x="690" 
d="M650 385q0 -134 -49 -230q-50 -99 -126 -99q-73 0 -77 92q-44 -91 -98 -91q-45 0 -76 39q-36 46 -36 132q0 102 55 187t126 85q62 0 74 -86l15 74h80l-61 -306q-5 -29 -5 -48q0 -41 24 -41q33 0 72 63q53 86 53 227q0 132 -69 213q-64 76 -157 76q-119 0 -201.5 -121.5
t-82.5 -299.5q0 -143 53 -235q67 -113 203 -113q69 0 125 31q35 20 90 70l16 -31q-109 -114 -236 -114q-124 0 -207 77q-112 103 -112 323q0 209 108 339q98 117 232 117q126 0 199 -97q68 -91 68 -233zM420 403q0 53 -29 53q-43 0 -80 -109q-32 -97 -32 -176
q0 -28 10.5 -49.5t26.5 -21.5q42 0 76 131q28 108 28 172z" />
    <glyph glyph-name="A" unicode="A" horiz-adv-x="604" 
d="M603 66q0 -72 -163 -72q-73 0 -104 13q-34 15 -34 52q0 34 26 45q21 9 21 29q0 44 -112 44q-75 0 -75 -47q0 -26 20 -26q26 0 26 -45q0 -37 -26.5 -52t-85.5 -15q-58 0 -82.5 15.5t-24.5 51.5q0 32 32 48q17 8 22 13q8 10 21 45q31 84 85 274q54 186 57 221q5 42 10 53
q14 29 55 29q57 0 93.5 -60.5t97.5 -259.5q12 -38 76 -254q12 -40 38.5 -56t26.5 -46zM317 311q-39 141 -57 141q-8 0 -17 -21q-12 -28 -37 -120h111z" />
    <glyph glyph-name="B" unicode="B" horiz-adv-x="540" 
d="M528 225q0 -90 -37 -150q-46 -75 -137 -75h-281q-63 0 -63 51q0 27 18.5 42.5t20.5 21.5q25 52 17 453q-1 44 -21 53q-30 14 -34 41q0 42 14 53q18 14 86 14q8 0 25.5 -1t57.5 -1q20 0 53.5 1t52.5 1q94 0 138 -36q49 -41 48 -136q0 -73 -42 -125q-17 -21 -17 -26
q0 -8 20 -18q42 -22 57 -47q24 -37 24 -116zM307 516q0 49 -8 69q-12 30 -50 30q-8 0 -8 -21v-151q0 -19 19 -19q47 0 47 92zM329 212q0 101 -68 101q-19 0 -19 -18q-2 -20 0 -86q1 -57 2 -67q3 -30 25 -30q60 0 60 100z" />
    <glyph glyph-name="C" unicode="C" horiz-adv-x="554" 
d="M528 531q0 -63 -33 -94q-22 -20 -43 -19t-48 52q-12 25 -24 51q-40 62 -90 62q-85 0 -85 -137q0 -95 41 -173q46 -89 115 -89q45 0 74 29q12 15 25 30q18 21 26 21q12 0 22 -14q13 -19 13 -58q0 -43 -15 -83q-20 -52 -56 -52q-75 -73 -165 -73q-103 0 -179 94
q-85 105 -85 277q0 146 73 261q78 124 194 124q33 0 83 -20t45 -20q1 1 2 1q-2 0 8 4t26 4q29 0 52.5 -55t23.5 -123z" />
    <glyph glyph-name="D" unicode="D" horiz-adv-x="588" 
d="M572 363q0 -183 -57 -267q-72 -105 -254 -102l-174 2q-76 0 -76 62q0 37 20 51l22 14q6 6 7 20q6 62 8 249q1 179 -2 196q-1 4 -22.5 23.5t-21.5 47.5q0 50 33 63q15 5 68 5l167 1q128 0 196 -70q86 -89 86 -295zM380 348q0 252 -116 251q-15 0 -20 -17q-4 -13 -3 -36
q3 -40 3 -33q0 4 0 -8q0 -13 1 -40q0 -38 -1 -102q-1 -139 4 -207q2 -33 26 -33q106 0 106 225z" />
    <glyph glyph-name="E" unicode="E" horiz-adv-x="514" 
d="M510 181q0 -50 -21 -119q-24 -80 -53 -80q-6 0 -23 6q-20 6 -22 6q-40 6 -334 6q-27 0 -37 6q-16 11 -16 44q0 29 27 51q36 23 36 249q0 240 -19 263q-15 12 -30 25q-10 9 -10 26q0 65 74 65q9 0 25 -1t22 -1q3 0 55.5 -1.5t84.5 -1.5q41 0 52 1q55 7 98 11q29 3 47 -35
t18 -109q0 -88 -43 -88q-25 0 -41 41q-22 60 -101 60q-45 0 -55 -11q-13 -15 -13 -75q0 -65 5 -80t29 -15q8 0 13 1q18 5 22 50q2 29 3 33q7 27 29 27q49 0 49 -145q0 -187 -51 -187q-18 0 -34 69q-6 26 -11.5 34.5t-22.5 8.5q-20 0 -24.5 -14t-4.5 -71q0 -77 10 -92.5
t58 -15.5q83 0 115 65q20 40 27 50q12 16 25 17q42 -4 42 -73z" />
    <glyph glyph-name="F" unicode="F" horiz-adv-x="486" 
d="M489 580q0 -71 -42 -71q-12 0 -37 32q-18 24 -37.5 48.5t-84.5 24.5q-29 0 -37 -9q-12 -15 -12 -76q-1 -35 -1 -50q0 -23 2 -28q4 -8 21 -8q25 0 33 8.5t13 47t29 38.5q50 0 50 -159q0 -175 -51 -175q-27 0 -31 48q-4 36 -6 43q-9 26 -37 26q-11 0 -12 -1q-10 -5 -10 -30
q0 -96 3 -119.5t5 -28.5q5 -12 22 -15q38 -8 38 -59q0 -40 -20 -56q-32 -24 -130 -24q-143 0 -143 81q0 34 23 51q29 21 35 98q-1 -2 -1 108q0 76 -3 148q-3 76 -3 75q0 9 1 9q-5 41 -7 47.5t-21 20.5q-24 10 -24 42t14 45q18 17 66 17q18 0 49 -1q27 -1 38 -1q94 0 247 13
q25 2 45 -59q16 -52 16 -101z" />
    <glyph glyph-name="G" unicode="G" horiz-adv-x="605" 
d="M602 287q0 -46 -38 -57q-23 -7 -23 -39q-8 -75 -57 -134q-64 -77 -173 -77q-124 0 -204 95q-85 103 -85 278v12q0 156 78 263q80 111 203 111q29 0 71 -12q38 -11 49 -20q4 1 21.5 10.5t27.5 9.5q26 0 46 -48q22 -52 22 -130q0 -36 -14 -62q-17 -32 -47 -32q-17 0 -26 6
q-24 16 -52 68q-38 70 -86 70t-77 -57q-25 -52 -25 -131q0 -118 42 -203q40 -79 88 -79q39 0 39 66q0 24 -10 30q-3 2 -26 7t-32 16.5t-9 40.5q0 86 159 86q138 0 138 -88z" />
    <glyph glyph-name="H" unicode="H" horiz-adv-x="604" 
d="M592 662q1 -19 -9 -33l-25 -25q-15 -15 -17 -34q-3 -45 -3 -261q0 -139 4 -167q3 -18 22 -30q20 -17 20 -45q0 -74 -117 -74q-87 0 -120 16q-25 13 -30 44q0 53 29 70q14 10 17 35q2 20 2 111q0 31 -12 39q-8 5 -42 5q-51 0 -62 -9q-16 -13 -16 -65q0 -103 23.5 -124.5
t23.5 -47.5q0 -71 -144 -71q-46 0 -79 14q-44 19 -44 58q-1 39 37 55q18 20 18 262q0 -37 2 73q2 56 -4 91q-7 49 -27 64q-4 0 -11 7q-13 12 -13 39q0 69 142 69q129 0 129 -64q0 -20 -32 -59q-10 -11 -10 -14q-5 -16 -5 -66q0 -62 6 -72q8 -13 55 -13q39 0 49 6
q19 11 19 55q0 19 -3 47q-4 34 -7 42t-20 25t-17 43q0 72 136 72q76 0 105 -15t30 -53z" />
    <glyph glyph-name="I" unicode="I" horiz-adv-x="323" 
d="M301 662q0 -24 -12 -41q-7 -7 -15 -14q-14 -12 -18 -30q-5 -26 -5 -114q0 -35 -1.5 -85t-1.5 -113q0 -80 3 -101q4 -27 21 -44q27 -26 27 -53q0 -73 -146 -73q-136 0 -136 74q0 32 29 55q16 12 20 23q7 17 7 63q8 253 2 352q-4 27 -32 52q-19 16 -19 48q0 67 145 67
q132 0 132 -66z" />
    <glyph glyph-name="J" unicode="J" horiz-adv-x="476" 
d="M457 654q0 -34 -22 -51q-13 -10 -16 -15q-10 -16 -12 -50q-1 -122 -8 -328q-16 -229 -200 -229q-92 0 -146 63q-49 57 -49 137q0 56 22 94t59 38q34 0 56 -28q26 -31 26 -88q0 -26 -2 -37q0 -32 -1 -19q2 -23 20 -23q21 0 33.5 31.5t12.5 80.5v293q0 37 -5.5 49.5
t-26.5 23.5q-24 13 -24 52q0 37 23 55q34 26 128 26q74 0 103 -17.5t29 -57.5z" />
    <glyph glyph-name="K" unicode="K" horiz-adv-x="617" 
d="M615 49q0 -36 -16 -48q-12 -9 -50 -9q-148 0 -156 14q-35 65 -69 130q-54 99 -67 99q-14 0 -14 -49q0 -50 14 -70q8 -11 17 -22q9 -15 9 -40q0 -68 -135 -68q-129 0 -129 69q0 29 21 50q9 13 12 23q7 19 11 61.5t4 174.5q1 116 -1 161q-3 63 -28 82q-19 15 -19 49
q0 73 150 73q108 0 108 -70q0 -35 -29 -59q-17 -14 -17 -85q0 -44 18 -44q14 0 43 56.5t29 75.5q0 3 -5.5 24t-5.5 32q0 38 29.5 54.5t101.5 16.5q117 0 117 -68q0 -54 -65 -54q-29 0 -47 -21q-32 -38 -61 -87q-11 -23 -6 -43q9 -42 84 -164q70 -114 107 -155q17 -18 33 -35
q12 -17 12 -54z" />
    <glyph glyph-name="L" unicode="L" horiz-adv-x="476" 
d="M397 -14q-12 4 -25 7q-26 7 -70 7h-245q-17 0 -30 15.5t-13 44.5q0 24 13 43q9 9 18 17q16 20 21 51.5t6 219.5q1 147 2 116q-4 92 -31 103q-14 6 -19 10q-9 10 -9 30q-2 84 156 84q138 0 138 -73q0 -38 -32 -53q-13 -10 -15 -11q-9 -13 -11 -42q-4 -80 -3 -350
q0 -49 12 -63.5t49 -14.5q58 0 74 51q7 23 13 47q11 31 27 31q20 0 33.5 -22t13.5 -61q0 -49 -19 -111q-22 -77 -54 -76z" />
    <glyph glyph-name="M" unicode="M" horiz-adv-x="682" 
d="M666 62q0 -38 -29.5 -53t-105.5 -15q-133 0 -133 69q0 31 20 48q6 5 12.5 11.5t9.5 31.5q4 33 4 101q0 69 -17 69q-15 0 -39 -81q-14 -59 -29 -117q-32 -112 -57 -112q-11 0 -19.5 16t-31.5 84l-34 124q-27 94 -38 94q-24 0 -24 -79q0 -28 6 -98q2 -27 5 -35
q4 -13 17 -20q24 -13 24 -46q0 -29 -17 -43q-24 -18 -88 -18q-94 0 -94 59q0 34 23 47q16 9 21 21t9 50q11 113 11 261q0 141 -17 161q-12 10 -23 21q-20 23 -20 51q0 67 110 67q56 0 86 -14q15 -12 71 -156q52 -137 64 -137q16 0 73.5 147.5t73.5 153t69 5.5q61 0 84 -13.5
t23 -53.5q0 -26 -21 -44q-19 -11 -26 -94q-12 -162 3 -351q3 -30 4 -37q3 -10 13 -16q27 -15 27 -59z" />
    <glyph glyph-name="N" unicode="N" horiz-adv-x="605" 
d="M602 663q0 -27 -12.5 -37t-24.5 -19q-15 -23 -20 -85q-4 -177 -11 -389q-6 -84 -17 -115q-8 -24 -25 -24q-22 0 -62 45q-55 76 -111 151q-108 146 -120 146q-15 0 -20 -19q-5 -22 -5 -96q0 -57 6 -79l8 -14q10 -11 21 -21q16 -20 16 -41q0 -72 -97 -72q-62 0 -87.5 16
t-25.5 51q0 29 26 51q9 10 12 14q7 13 11 38q6 54 6 178q0 127 -6 185q-4 38 -8 50q-7 19 -27 29q-25 12 -25 48q0 69 104 69q61 0 73 -6q23 -11 69 -76q146 -209 173 -209q13 0 16 27q3 18 3 75q0 62 -27 78q-7 6 -15 11q-11 12 -11 34q0 35 17 50q22 22 85 22
q68 0 89.5 -13t21.5 -53z" />
    <glyph glyph-name="O" unicode="O" horiz-adv-x="592" 
d="M574 361q0 -172 -85 -280q-80 -101 -196 -101q-102 0 -182 92q-95 109 -95 291q0 152 75 261q80 117 206 117q118 0 195 -97q82 -104 82 -283zM386 265q0 83 -29 185q-36 130 -90 130q-60 0 -60 -113q0 -107 36 -211q39 -113 89 -113q22 0 38 31.5t16 90.5z" />
    <glyph glyph-name="P" unicode="P" horiz-adv-x="502" 
d="M496 508q0 -106 -40 -169q-52 -81 -165 -81q-15 0 -43 2q-2 -101 -3 -78q2 -47 29 -68q23 -19 23 -48q0 -44 -40 -62q-34 -14 -109 -14q-133 0 -133 84q0 24 23 42q7 7 15 14q11 18 13 65q13 272 1 377q-4 35 -29 47q-31 15 -31 49q0 57 64 57q9 0 36.5 -2t31.5 -2
q4 1 57 5q59 5 87 5q119 0 170 -62q43 -53 43 -161zM318 496q0 45 -13 75q-16 35 -43 35q-15 0 -18 -26q-3 -19 -3 -114q0 -61 2.5 -73.5t13.5 -12.5q20 0 37 21q24 30 24 95z" />
    <glyph glyph-name="Q" unicode="Q" horiz-adv-x="592" 
d="M577 -66q0 -47 -41 -87q-46 -46 -115 -46q-43 0 -127 40q-58 27 -136 74l-66 40l-11 -3t-19 -3q-36 0 -36 40q0 29 16.5 50t44.5 21q24 0 55 -15q-125 117 -125 316q0 159 80 269.5t203 110.5q111 0 187 -90q88 -104 88 -289q0 -117 -39 -209q-52 -121 -160 -155
q72 -36 107 -36q14 0 39.5 9.5t28.5 9.5q26 0 26 -47zM390 250q0 99 -34 209q-40 126 -91 126q-63 0 -63 -114q0 -94 33 -204q40 -130 94 -130q61 0 61 113z" />
    <glyph glyph-name="R" unicode="R" horiz-adv-x="578" 
d="M52 131q6 24 10 95q6 133 5 245q-2 114 -11 131q-1 2 -25 24q-20 19 -20 37q0 64 93 64q17 0 38.5 -1l21.5 -1q-7 0 40.5 2.5t86.5 2.5q205 0 205 -192q0 -91 -56 -136q-22 -17 -22 -29q0 -11 20 -22q29 -16 37 -23q34 -32 43 -123q6 -59 10 -72q6 -18 27.5 -28t21.5 -33
q0 -86 -119 -86q-63 0 -91.5 37t-45.5 135q-15 83 -17 90q-16 55 -49 55q-3 0 -17 -4q-3 -34 -2 -86q0 -82 12 -94l18 -16q19 -21 19 -42q0 -48 -51 -62q-24 -7 -91 -7q-71 0 -94 9q-37 13 -37 59q0 26 11 39q9 6 17.5 13t11.5 19zM308 515q0 97 -51 97q-21 0 -24 -39
q0 3 0 -54q0 -71 1 -78q4 -22 23 -22q51 0 51 96z" />
    <glyph glyph-name="S" unicode="S" horiz-adv-x="486" 
d="M469 255q0 -111 -57 -185q-66 -84 -188 -84q-97 0 -160 51q-53 44 -53 189q0 69 34 69q16 0 28 -14q21 -38 42 -77q44 -67 96 -69q19 -1 35 9q20 12 20 35q0 28 -32 44q-50 25 -87 48q-124 78 -124 234q0 106 63 175q60 65 146 65q27 0 64 -10.5t41 -10.5q5 0 19 4t19 4
q34 0 61 -63q24 -54 24 -100q0 -79 -50 -79q-17 0 -48 36q-15 21 -31 41q-33 33 -69 33q-20 0 -30.5 -14.5t-10.5 -29.5q0 -43 99 -77q149 -51 149 -224z" />
    <glyph glyph-name="T" unicode="T" horiz-adv-x="514" 
d="M152 578q-11 -1 -44 -63q-29 -56 -53 -56q-18 0 -32 17q-17 22 -17 59q0 54 28 125q30 78 63 78q3 0 17 -5.5t24 -7.5h245q7 1 25.5 8.5t21.5 7.5q27 0 53 -49q31 -57 31 -140q0 -90 -54 -90q-19 0 -31 12t-32 57q-22 49 -33 49q-16 0 -18 -31q0 13 0 -35q0 34 -1 -100
q-1 -102 0 -167q3 -92 10 -105t31 -32q19 -15 19 -38q0 -36 -19 -51q-34 -27 -147 -27q-139 0 -139 78q0 38 35 53q16 10 18 16q12 26 16 110q7 173 4 257q-3 72 -21 70z" />
    <glyph glyph-name="U" unicode="U" horiz-adv-x="604" 
d="M596 664q0 -29 -15.5 -41t-30.5 -24q-8 -10 -10 -44q-1 -22 -1 -127q0 -236 -39 -326q-51 -118 -204 -118q-90 0 -149 49q-77 65 -77 203l1 280q-2 40 -5 49q-6 19 -30 37q-16 17 -16 43q0 36 36 58q41 25 121 25q55 0 79 -8q41 -15 41 -60q0 -29 -16 -45q-9 -9 -19 -18
q-11 -13 -12 -23q-6 -39 -6 -198q0 -125 15 -167q19 -53 79 -53t82 55q17 44 17 146q0 24 -1 69q-1 51 -1 74q-1 61 -4 79q-5 32 -25 42q-25 13 -25 46q0 32 45 49q34 12 75 12q95 0 95 -64z" />
    <glyph glyph-name="V" unicode="V" horiz-adv-x="570" 
d="M570 662q0 -22 -4.5 -30.5t-20 -13t-18.5 -6.5q-12 -10 -22 -38q-77 -248 -159 -513q-19 -46 -27 -57q-16 -22 -40 -22q-29 0 -51 43q-11 22 -24 66q-34 109 -118 424q-13 50 -23 67q-8 14 -25 21q-25 7 -25 39q0 90 130 90q69 0 96 -11q42 -17 42 -70q0 -33 -21 -42
q-8 -6 -8 -11q0 -11 12 -55q14 -55 43 -165q6 -20 13 -20t22 40l17 55q20 62 29 96q11 44 11 53q0 10 -15 22q-20 16 -20 35q0 72 106 72q50 0 70 -9q30 -15 30 -60z" />
    <glyph glyph-name="W" unicode="W" horiz-adv-x="766" 
d="M764 666q0 -39 -35 -57q-4 -3 -9 -6q-10 -10 -17 -33.5t-68 -249.5q-65 -237 -74 -269q-21 -70 -56 -70q-21 0 -32 18q-17 25 -36 105l-46 195q-5 20 -12 20q-5 0 -10 -18q-30 -119 -60 -239q-25 -78 -61 -78q-34 0 -72 136q-15 69 -31 138q-6 27 -42 159
q-34 128 -38 139q-8 25 -35 44q-22 10 -22 46q0 84 117 84q71 0 92 -6q42 -13 42 -59q0 -28 -8 -43l-10 -10q-3 -16 39 -184q9 -34 18 -34q8 0 22 53q12 48 12 56q0 7 -9.5 45.5t-13.5 49.5q-2 5 -16 25q-12 17 -12 40q0 71 133 71q106 0 106 -64q0 -31 -6.5 -38.5
t-11.5 -12.5q-9 -9 -9 -19q0 -29 45 -178q5 -27 15 -27t33.5 92t23.5 107q0 16 -18.5 29t-18.5 43q0 68 100 68q48 0 65 -9q26 -14 26 -59z" />
    <glyph glyph-name="X" unicode="X" horiz-adv-x="592" 
d="M584 69q0 -41 -26 -57q-35 -22 -137 -22q-77 0 -108.5 13.5t-31.5 47.5q0 26 17 44q13 14 13 28q-4 32 -54 111q-9 -13 -41 -79q-11 -23 -11 -32q0 -13 13 -28q18 -21 18 -39q0 -43 -40 -55q-17 -5 -76 -5q-115 0 -115 64q0 45 43 52q17 3 21 4q15 6 27 25q32 49 108 201
q-21 39 -110 208q-10 20 -16 28q-11 14 -28 20q-35 12 -35 53q0 78 166 78q68 0 93 -11q35 -15 35 -61q0 -24 -14 -39q-10 -11 -10 -18q0 -17 39 -73q37 65 37 83q0 11 -10 18q-21 19 -21 39q0 61 98 61q68 0 91 -11q28 -13 28 -55q0 -28 -11.5 -39.5t-39.5 -11.5
q-21 0 -41 -31q-3 -2 -86 -146q37 -67 113 -212q13 -25 25 -50q21 -38 35.5 -47.5t30.5 -18.5q11 -10 11 -37z" />
    <glyph glyph-name="Y" unicode="Y" horiz-adv-x="506" 
d="M520 670q0 -29 -28 -46q-15 -7 -30 -13q-12 -11 -83 -140q-28 -51 -33 -76q-6 -28 -6 -130q0 -68 1 -78q6 -47 32 -67q21 -21 21 -48q0 -42 -32 -60.5t-107 -18.5q-143 0 -143 75q0 46 32 57q20 15 23 89q0 -22 0 99q0 41 -4 59q-6 28 -29 71q-63 116 -69 126
q-17 28 -34 35q-34 14 -34 57q0 41 23 54q28 17 120 17q136 0 136 -63q0 -33 -19 -60q0 -25 22 -61q10 -15 19 -15q7 0 13 10q24 39 24 57q0 10 -7 25q-9 19 -10 23q-3 12 -3 22q0 62 104 62q59 0 82 -16q19 -13 19 -46z" />
    <glyph glyph-name="Z" unicode="Z" horiz-adv-x="462" 
d="M457 676q0 -41 -104.5 -274t-104.5 -246q0 -19 34 -19q42 0 59 19q7 8 21 44q18 48 41 48q41 -1 41 -76q0 -55 -19 -115q-21 -69 -47 -69q-5 0 -23.5 6t-279.5 6q-46 0 -62 18q-11 12 -12 41q0 28 44 121q86 181 173 363q10 23 10 36q0 23 -31 23q-38 0 -51 -11t-27 -52
q-12 -34 -21 -44.5t-27 -10.5q-39 0 -39 65q0 57 22 118q25 69 58 69q6 0 20 -3.5l14 -3.5h249q34 0 48 -11t14 -42z" />
    <glyph glyph-name="bracketleft" unicode="[" horiz-adv-x="334" 
d="M335 -79q0 -34 -7 -46q-9 -17 -37 -17q4 0 -24 0q-45 0 -148 1q-31 0 -52 23.5t-21 68.5v686q0 40 19.5 66t53.5 26h158q36 0 47 -11t11 -50q0 -54 -35 -54h-9q-6 1 -7 1q-31 1 -42 -4q-18 -8 -18 -37v-560q0 -40 38 -40q45 0 56 -7q17 -9 17 -46z" />
    <glyph glyph-name="backslash" unicode="\" horiz-adv-x="194" 
d="M212 -72q0 -16 -13 -19q-3 -1 -27 -1q-40 0 -43 20l-143 799q0 11 4.5 13t33.5 2q40 0 45 -23z" />
    <glyph glyph-name="bracketright" unicode="]" horiz-adv-x="334" 
d="M17 -78q0 37 17 47q12 7 56 7q38 0 38 40v560q0 26 -15 34q-11 7 -45 7q-12 -3 -17 -3q-34 0 -34 55q0 40 11 50.5t47 10.5h158q34 0 53.5 -26t19.5 -65v-686q0 -45 -21 -69t-52 -24l-172 -1q-28 0 -37 17q-7 13 -7 46z" />
    <glyph glyph-name="asciicircum" unicode="^" horiz-adv-x="700" 
d="M558 438h-46l-163 154l-163 -154h-45l160 277h98z" />
    <glyph glyph-name="underscore" unicode="_" 
d="M350 -234h-350v136h350v-136z" />
    <glyph glyph-name="grave" unicode="`" 
d="M254 642q0 -13 -5 -29q-7 -27 -22 -27q-5 0 -22 6l-130 45q-25 9 -25 29q0 14 7 42q9 38 23 38q7 0 22 -8l118 -60q34 -17 34 -36z" />
    <glyph glyph-name="a" unicode="a" horiz-adv-x="425" 
d="M421 104q0 -36 -34 -74q-38 -42 -84 -42q-25 0 -46.5 28t-25.5 28q-3 0 -12 -13q-10 -17 -25 -26q-23 -13 -62 -13q-56 0 -90 44.5t-34 110.5t33 112q42 57 119 57q22 0 58 -7l1 53q0 90 -29 90q-21 0 -50 -52t-55 -52q-49 0 -49 68q0 48 42 84q49 41 133 41
q97 0 133 -48.5t36 -172.5q-3 -38 -3 -79q0 -97 18 -102q26 -8 26 -35zM218 200q0 36 -15 36q-41 0 -41 -68q0 -58 32 -58q11 0 16 9q8 19 8 81z" />
    <glyph glyph-name="b" unicode="b" horiz-adv-x="480" 
d="M463 311q0 -123 -53 -216q-62 -107 -164 -107q-72 0 -135 69q-28 -16 -45 -16q-28 0 -28 25q4 35 8 69q6 74 6 157q0 178 -3 220q-3 39 -16 39q-39 7 -39 45q0 48 69 90q64 38 122 38q22 0 28 -10q3 -6 3 -26v-215q47 71 105 71q57 0 98 -61q44 -67 44 -172zM293 226
q1 63 -14.5 103t-35.5 40q-25 0 -25 -51v-133q0 -87 30 -87q43 0 45 128z" />
    <glyph glyph-name="c" unicode="c" horiz-adv-x="399" 
d="M391 386q0 -42 -20 -74.5t-51 -32.5q-41 0 -62 55q-14 39 -17 43q-9 15 -24 15q-16 0 -27.5 -18.5t-11.5 -48.5q0 -47 24 -92q28 -51 66 -51q18 0 46 15q21 15 40 15q37 0 37 -65q0 -67 -59 -114q-53 -44 -118 -44q-92 0 -147 88q-51 80 -51 191q0 122 67 200
q63 73 152 73q71 0 115 -46q41 -44 41 -109z" />
    <glyph glyph-name="d" unicode="d" horiz-adv-x="488" 
d="M491 82q0 -36 -51.5 -65.5t-104.5 -29.5q-31 0 -41 9t-10 43q0 16 -4 16t-15 -10q-42 -49 -90 -49q-57 0 -105 67q-57 80 -57 207q0 118 51 196t128 78q40 0 82 -30q2 0 2 58q0 24 -23 34.5t-23 22.5q0 46 78 76q61 23 113 23q11 0 15 -5q7 -10 7 -45q0 -197 -3 -493
q-1 -44 19 -56q13 -5 20 -12q12 -12 12 -35zM277 301q0 75 -1 84q-5 37 -32 37t-42 -49q-12 -43 -12 -107q0 -40 7 -75q11 -53 35 -53q45 0 45 163z" />
    <glyph glyph-name="e" unicode="e" horiz-adv-x="399" 
d="M391 322q0 -78 -38 -78h-159q-23 0 -23 -17q0 -26 21 -56q26 -40 67 -40q30 0 58 23q24 20 34 20q29 0 29 -51q0 -45 -50 -90q-52 -48 -114 -48q-77 0 -134 64q-67 75 -67 209q0 103 48 185q57 98 153 98q66 0 115 -50q60 -60 60 -169zM255 379q0 64 -39 64
q-18 0 -31.5 -21.5t-13.5 -52.5q0 -26 27 -26q1 0 11.5 1t22.5 1q23 1 23 34z" />
    <glyph glyph-name="f" unicode="f" horiz-adv-x="320" 
d="M332 593q0 -83 -60 -83q-23 0 -33 11q-15 21 -29 42q-25 35 -36 37q-27 0 -27 -31q0 -41 31 -70q28 -26 46 -49l14 -18q-5 0 8.5 -1.5t34.5 -0.5t24 -6t3 -49q0 -40 -4.5 -52t-20.5 -12h-4q-29 0 -33 -3q-9 -5 -9 -31q0 -63 8 -117q2 -16 6 -23q7 -12 28 -24
q26 -15 26 -47q0 -45 -33.5 -61.5t-118.5 -16.5q-126 0 -126 71q0 26 23 46q12 13 14 17q9 11 9 23q8 96 8 116q0 33 -2 38q-5 12 -32 12q-18 0 -22.5 6.5t-4.5 36.5q0 70 25 74q17 7 17 13q-28 80 -28 118q0 64 32 110q43 58 128 58q55 0 93 -30q45 -36 45 -104z" />
    <glyph glyph-name="g" unicode="g" horiz-adv-x="425" 
d="M424 514q0 -48 -41 -104q2 -20 2 -38q0 -85 -53 -134q-49 -45 -122 -45q-26 0 -60 6q-11 -10 -11 -22q0 -14 16.5 -26t48.5 -12q-6 0 39.5 6.5t69.5 6.5q109 0 109 -133q0 -100 -68 -158q-63 -54 -157 -54q-86 0 -141 46q-53 43 -53 105q0 51 47 73q-43 35 -43 92
q0 63 68 104q-57 49 -57 128q0 77 51.5 131.5t120.5 54.5q37 0 76 -12t45 -12q17 0 38 10q9 6 30 25q14 13 20 13q25 0 25 -51zM245 343q0 118 -48 118q-32 0 -32 -76q0 -115 47 -115q33 0 33 73zM265 -46q0 19 -7 22.5t-40 3.5q-62 -8 -105 10q-8 -86 82 -86
q31 0 50.5 14.5t19.5 35.5z" />
    <glyph glyph-name="h" unicode="h" horiz-adv-x="515" 
d="M505 53q0 -61 -112 -61q-121 0 -121 64q0 8 12 39t13 38q4 25 4 142q0 95 -48 95q-34 0 -34 -50q0 -148 2 -162q0 -32 11 -53q16 -29 16 -51q0 -63 -115 -63q-125 0 -125 74q0 26 21 42.5t21 113.5q0 233 -1 300q-1 28 -4.5 37t-22.5 25q-16 9 -16 40q0 46 70 80
q60 29 110 29q26 0 32 -14q3 -9 3 -50v-195q0 -21 6 -21q7 0 21 27q31 63 96 63q47 0 79 -35q44 -49 44 -152q0 -12 -1 -51t-1 -63q0 -114 20 -139.5t20 -48.5z" />
    <glyph glyph-name="i" unicode="i" horiz-adv-x="283" 
d="M225 676q0 -44 -29 -74q-35 -36 -99 -36q-77 0 -77 72q0 40 35.5 70t89.5 30q80 0 80 -62zM271 62q0 -70 -133 -70q-121 0 -121 76q0 19 33 61q11 13 11 124q0 78 -4 102.5t-21 36.5q-21 16 -21 38q0 47 80 83q67 31 118 31q11 0 14 -7q4 -12 4 -58v-311q2 -21 3 -26
q3 -14 17 -28q20 -22 20 -52z" />
    <glyph glyph-name="j" unicode="j" horiz-adv-x="284" 
d="M232 663q0 -41 -39 -70.5t-87 -29.5q-78 0 -78 75q0 35 27 63q35 36 95 36q82 0 82 -74zM232 -2q0 -96 -29 -141q-31 -48 -104 -48q-94 0 -94 88q0 28 25 28h25q13 4 13 28v53l-4 325v29q-2 11 -13 18q-31 22 -31 51q0 46 57 79q54 31 122 31q20 0 24 -2q9 -6 9 -27v-512
z" />
    <glyph glyph-name="k" unicode="k" horiz-adv-x="525" 
d="M532 55q0 -37 -22 -52q-17 -10 -55 -10h-27q-18 1 -27 1q-40 0 -49 3q-18 6 -29 26q-8 14 -77 159q-10 21 -19 21q-8 0 -8 -20q0 -66 13 -79q17 -17 19 -43q0 -70 -100 -70q-76 0 -108.5 15.5t-32.5 51.5q0 22 17 38q10 13 19 25q6 15 7 76q1 37 1 236q0 77 -2 103t-9 34
l-20 11q-26 9 -26 36q0 43 78 81q67 32 109 32q8 -1 13 -1q18 -5 18 -65v-260q0 -19 12 -19q13 0 34 18q25 19 25 37q0 3 -2 7q-3 8 -7 15q-6 14 -6 22q0 53 99 53q109 0 109 -68q0 -18 -24 -30q-13 -6 -26 -11q-56 -42 -56 -71q0 -24 57.5 -130t79.5 -122.5t22 -49.5z" />
    <glyph glyph-name="l" unicode="l" horiz-adv-x="281" 
d="M276 63q0 -35 -24 -51q-33 -22 -118 -22q-124 0 -124 73q0 34 26 44q15 9 18 61q1 22 8 309q-4 45 -8.5 57.5t-26.5 26.5q-26 17 -26 45q0 46 60.5 84.5t136.5 38.5q19 0 25 -6q8 -9 8 -39v-86v-11q-1 -13 -2 -66q-1 -131 -1 -236q0 -147 20 -167q28 -28 28 -55z" />
    <glyph glyph-name="m" unicode="m" horiz-adv-x="694" 
d="M675 63q0 -71 -110 -71q-98 0 -98 66q0 19 8 42q14 42 14 161q0 114 -31 114q-34 0 -34 -131q0 -81 7 -110q5 -12 9 -23q8 -22 8 -45q0 -73 -97 -73q-109 0 -109 62q0 17 13 49q16 38 16 118q0 150 -34 150q-31 0 -31 -133q0 -82 6 -109q11 -50 11 -65q0 -34 -17 -50
q-23 -21 -84 -21q-107 0 -107 67q0 24 16 42.5t19 56.5q0 7 2 55q2 43 2 70q0 82 -13 102q-25 34 -25 55q0 45 72 76q56 24 93 24q19 0 25 -21q1 -7 2 -37q1 -35 12 -35q4 0 10 9q30 82 107 82q57 0 85 -73q4 -11 8 -14q7 0 19 23q16 30 31 44q26 23 65 23q106 0 106 -172
q0 -240 3 -248q21 -39 21 -60z" />
    <glyph glyph-name="n" unicode="n" horiz-adv-x="517" 
d="M506 63q0 -71 -118 -71q-60 0 -85 12q-31 15 -31 53q0 16 12 33q15 22 18 81q-1 -17 -1 85q0 118 -47 117q-15 0 -22 -19q-9 -27 -9 -100q0 -129 15 -150q10 -15 10 -38q0 -35 -17 -51q-27 -23 -99 -23q-112 0 -112 71q0 23 25 48q10 17 10 194q0 44 -2 55q-4 17 -19 31
q-19 17 -19 40q0 45 77 84q64 32 98 32t34 -43q0 -46 8 -46q2 0 6 5l24 42q29 37 73 37q140 0 140 -212q0 -15 -1 -82.5t-1 -77.5q0 -40 22 -72q11 -17 11 -35z" />
    <glyph glyph-name="o" unicode="o" horiz-adv-x="447" 
d="M435 279q0 -118 -59 -203q-64 -90 -163 -90q-86 0 -143 78.5t-57 191.5q0 119 66 202t158 83q86 0 142 -73t56 -189zM271 186q0 60 -12 127q-18 97 -51 97q-28 -4 -28 -74q0 -60 12 -126q19 -97 53 -97q26 6 26 73z" />
    <glyph glyph-name="p" unicode="p" horiz-adv-x="502" 
d="M486 286q0 -117 -44 -205q-46 -92 -116 -92q-37 0 -72 28q-15 8 -18 8q-5 0 -5 -9q0 -4 3 -40q2 -15 4 -20q6 -15 24 -25q20 -15 22 -17q9 -10 10 -31q0 -38 -25 -55q-34 -22 -130 -22q-59 0 -90 21t-31 52q0 25 28 51q18 17 21 26q6 18 6 84q0 299 -16 312q-13 8 -27 15
q-18 13 -18 41q0 49 83 94q70 39 109 39q17 0 21 -11q1 -5 1 -36q-5 -19 6 -19q5 0 13 8q45 56 91 56q59 0 100 -56q50 -68 50 -197zM315 252q0 55 -13 93q-14 43 -41 43q-22 0 -28 -25.5t-6 -110.5q0 -125 36 -125q52 0 52 125z" />
    <glyph glyph-name="q" unicode="q" horiz-adv-x="488" 
d="M492 -121q0 -74 -134 -74q-152 0 -152 75q0 31 33 52q17 11 19 14q13 18 13 63q0 19 -9 19q1 0 -27 -20t-59 -20q-73 0 -119 85q-43 80 -43 193q0 118 51 194q55 81 148 81q22 0 68.5 -10.5t52.5 -10.5q8 0 42.5 12.5t43.5 12.5q31 0 31 -51q0 -22 -5 -60q-8 -60 -9 -226
q-1 -165 6 -222q5 -40 22 -53l16 -18q11 -17 11 -36zM274 220q0 118 -5 153q-8 50 -34 49q-44 -1 -44 -117q0 -170 57 -170q26 0 26 85z" />
    <glyph glyph-name="r" unicode="r" horiz-adv-x="398" 
d="M407 412q0 -51 -23 -92q-25 -45 -63 -45q-43 0 -71 63q-6 16 -12 16q-7 0 -10 -25q-4 -35 -1 -116q2 -56 2 -59q7 -30 39 -49q16 -10 16 -41q0 -42 -32 -58q-27 -13 -94 -13q-68 0 -99 12q-43 18 -45 67q-1 26 22 49l2 2q13 14 17 39q4 32 4 133q0 57 -2 69.5t-15 22.5
q-7 6 -15 13q-11 11 -11 28q-1 46 68 80q59 29 108 29q31 0 31 -32q0 -45 9 -45q8 0 17 31q15 50 62 50q33 0 61 -27q35 -36 35 -102z" />
    <glyph glyph-name="s" unicode="s" horiz-adv-x="346" 
d="M335 167q0 -82 -41 -130.5t-103 -48.5q-21 0 -52 9l-26 8q-9 2 -21 -4t-17 -6q-24 0 -47 52q-21 48 -21 88q0 63 34 63q14 0 35 -26q14 -21 28 -41q25 -28 41 -27q15 0 15 21q0 19 -36 49q-27 23 -53 45q-55 58 -55 142q0 72 42 124.5t99 52.5q8 0 34.5 -6.5t31.5 -6.5
q8 0 22 8t16 8q23 0 45 -45t22 -85q0 -59 -40 -59q-17 0 -33 18q-39 47 -40 48q-8 8 -21 8q-19 0 -19 -24q0 -15 13 -29q41 -31 81 -61q66 -63 66 -145z" />
    <glyph glyph-name="t" unicode="t" horiz-adv-x="335" 
d="M333 489q0 -56 -5.5 -66t-75.5 -10q-27 0 -27 -24v-186q0 -61 35 -61q8 0 26 11t21 11q25 0 25 -57q0 -47 -47 -83t-99 -36q-54 0 -88 42q-39 48 -39 142v244h-29q-27 0 -27 35q-1 34 12 52q4 7 40 40q78 74 80 76q40 34 61 34q25 0 32 -23q4 -11 4 -45q0 -4 -2 -58h74
q20 0 24.5 -7t4.5 -31z" />
    <glyph glyph-name="u" unicode="u" horiz-adv-x="514" 
d="M503 82q0 -42 -64 -69q-51 -21 -104 -21q-24 0 -28.5 5t-4.5 41q-1 25 -11 25q-8 0 -22 -16q-34 -32 -34 -33q-27 -18 -64 -18q-61 0 -92 47q-27 40 -28 106q-1 102 -1 177q0 47 -20 61q-22 19 -22 48q0 37 71 74q66 34 118 34q14 0 20 -5t6 -29q-8 -120 -8 -251
q0 -1 -1 -15.5t-1 -24.5q0 -85 44 -85q27 0 37 33.5t9 164.5q0 41 -20 59q-23 20 -23 43q0 42 73 78q64 31 111 31q16 0 19 -3q7 -6 7 -33q0 -47 -1 -130q-1 -67 -2.5 -124t-1.5 -40q0 -64 5 -71q10 -10 20 -19q13 -16 13 -40z" />
    <glyph glyph-name="v" unicode="v" horiz-adv-x="476" 
d="M479 489q0 -35 -28 -51q-23 -13 -30 -28q-14 -34 -110 -320q-34 -105 -70 -104q-21 0 -40 34q-17 30 -71.5 179t-54.5 162q-11 29 -15 36q-7 13 -24 22q-25 13 -30 22q-3 5 -3 25q0 36 25 52q32 21 118 21q119 0 119 -62q0 -17 -7 -30q-5 -7 -9 -14q-10 -13 -10 -21
q0 -12 11 -49q13 -47 29 -47q15 0 30 44q13 39 13 61q0 6 -9 25q-11 16 -11 31q0 62 96 62q81 0 81 -50z" />
    <glyph glyph-name="w" unicode="w" horiz-adv-x="694" 
d="M697 480q-1 -12 -3 -17q-6 -13 -21.5 -20.5t-16.5 -8.5q-11 -9 -20 -31q-31 -103 -63 -206q-70 -207 -106 -207q-16 0 -30 28q-23 48 -57 142q-23 64 -33 64q-7 0 -12 -12q-11 -24 -47 -131q-31 -95 -57 -95q-15 0 -37 48q-2 5 -95 264l-28 77q-10 22 -35 42
q-33 27 -33 46q0 32 33 53q37 24 100 24q107 0 107 -62q0 -13 -5 -27q-7 -22 -4 -41q25 -94 41 -94q10 0 20 28q9 25 9 37q0 35 -24 55q-7 6 -11 12.5t-5 20.5q0 68 115 68q61 0 86 -13.5t25 -43.5q0 -14 -11.5 -34.5t-11.5 -35.5q0 -20 12 -55q13 -41 28 -41q8 0 24 35
q19 40 19 71q0 16 -8.5 34t-8.5 28q0 29 20.5 42t79.5 13q64 0 64 -57z" />
    <glyph glyph-name="x" unicode="x" horiz-adv-x="462" 
d="M454 491q1 -20 -21 -43l-28 -30q-18 -26 -39 -68q-28 -57 -28 -79q1 -9 9 -33q56 -126 84 -135q24 -7 24 -38q0 -29 -28 -49q-35 -24 -102 -24q-147 0 -147 54q0 12 8 27l14 16q9 12 9 22q0 19 -11 43t-21 24q-19 0 -31 -51q-8 -32 0 -51q7 -17 7 -31q0 -48 -73 -48
q-86 0 -86 49q0 36 30 48q19 7 30 28l18 36q15 31 29 63q26 58 25 72q-1 15 -31 67q-32 57 -51 62q-33 9 -33 44q0 39 26 54q35 20 146 20q98 0 98 -53q0 -8 -7 -29t-7 -28q8 -44 22 -44q7 0 19 14.5t12 30.5q0 9 -4 16q0 2 -5 9.5t-5 26.5q0 58 82 58q64 0 66 -50z" />
    <glyph glyph-name="y" unicode="y" horiz-adv-x="462" 
d="M467 475q0 -38 -20 -54q-14 -6 -27 -12q-22 -12 -36 -85q-14 -78 -28 -155q-33 -149 -79 -239q-64 -123 -149 -123q-48 0 -80.5 38t-32.5 98q0 36 16 66q20 36 52 36q41 0 58 -74l8 -37q2 -6 13 -6q14 6 14 34q0 41 -51 198l-55 168q-7 23 -14 45q-6 15 -18 20
q-35 13 -35 55q0 37 32 60q37 27 111 27q63 0 87.5 -15.5t24.5 -52.5q0 -15 -11.5 -30t-11.5 -25q0 -21 13 -61q14 -48 31 -49q12 -1 19 12q0 1 11 30q14 34 14 54q0 21 -16 45q-14 19 -14 31q0 59 85 59q89 0 89 -58z" />
    <glyph glyph-name="z" unicode="z" horiz-adv-x="396" 
d="M391 138q0 -43 -19 -93q-22 -58 -52 -58q-11 0 -27 9q-14 5 -70 5q-3 -1 -103 -1q-4 0 -21.5 -2t-25.5 -2q-50 0 -50 52q0 31 22 79q47 103 93 206q19 44 19 63q-1 16 -22 16q-20 0 -30 -11q-2 -2 -21 -44q-15 -33 -34 -33q-37 0 -37 64q0 39 18 91q21 62 48 62
q10 0 24.5 -7.5t30.5 -7.5q65 0 126.5 1.5t53.5 1.5q56 0 56 -40q0 -30 -26 -94q-95 -244 -95 -255q0 -19 25 -19q23 0 40 38q22 49 39 49q13 0 25 -16q13 -20 13 -54z" />
    <glyph glyph-name="braceleft" unicode="{" 
d="M293 740v-35q-61 0 -61 -108q0 -152 -8 -193q-13 -67 -65 -93q56 -28 67 -84q6 -31 6 -204q0 -50 7 -70q13 -36 54 -37v-33q-70 0 -96 15q-30 17 -40 69q-8 45 -8 163q0 81 -11 107q-16 41 -76 50v45q64 12 79 59q8 26 8 137t14 156q13 40 46 49q8 3 84 7z" />
    <glyph glyph-name="bar" unicode="|" 
d="M223 -234h-96v998h96v-998z" />
    <glyph glyph-name="braceright" unicode="}" 
d="M62 740q75 -4 83 -7q33 -9 46 -49q14 -45 14 -156t8 -137q15 -47 80 -59v-45q-60 -9 -77 -50q-11 -26 -11 -107q0 -118 -8 -163q-10 -52 -40 -69q-26 -15 -95 -15v33q40 1 53 37q7 20 7 70q0 173 6 204q11 56 67 84q-52 26 -65 93q-8 40 -8 193q0 108 -60 108v35z" />
    <glyph glyph-name="asciitilde" unicode="~" horiz-adv-x="700" 
d="M561 639q-17 -66 -37 -97q-32 -51 -84 -51q-31 0 -105.5 29t-89.5 29q-47 0 -77 -57l-29 22q19 72 42 106q30 42 79 42q32 0 106.5 -29.5t89.5 -29.5q46 0 76 55z" />
    <glyph glyph-name="nonbreakingspace" unicode="&#xa0;" 
 />
    <glyph glyph-name="exclamdown" unicode="&#xa1;" horiz-adv-x="269" 
d="M221 142q0 93 -29 196.5t-58 103.5q-26 0 -56 -96q-32 -101 -32 -203q0 -159 86 -159q89 0 89 158zM217 622q0 44 -18 76q-23 40 -64 40q-31 0 -55 -28q-28 -33 -28 -89q0 -52 26 -85.5t58 -33.5t56.5 34.5t24.5 85.5z" />
    <glyph glyph-name="cent" unicode="&#xa2;" horiz-adv-x="436" 
d="M411 445q0 -51 -25 -83q-22 -28 -49 -28q-47 0 -68 87q-11 43 -32 43q-24 0 -35 -36q-7 -22 -7 -39q0 -47 18 -88q26 -54 72 -54q16 0 40.5 9.5t30.5 9.5q18 0 28 -19t10 -42q0 -59 -46 -100q-37 -31 -84 -41v-26q1 -15 1 -19q0 -22 -10.5 -26.5t-56.5 -4.5q-23 0 -27 15
q-2 8 -2 69q-141 70 -141 257q0 100 56 190q52 82 95 81q0 49 6 58t38 12q26 2 27 2q13 0 15 -9.5t2 -53.5q68 0 108 -53q36 -46 36 -111z" />
    <glyph glyph-name="sterling" unicode="&#xa3;" horiz-adv-x="436" 
d="M426 153q0 -68 -35 -113q-41 -51 -114 -51q-25 0 -38 5q-24 9 -65 43q-41 -44 -84 -44q-29 0 -51 27t-22 68q0 53 34.5 88t78.5 35q0 25 -17 68q-16 -1 -46 -1t-36 5q-9 8 -9 51q0 44 30 44q5 0 14 -1t20 -2q-10 44 -10 81q0 87 46 138.5t122 51.5q65 0 109 -34
q49 -38 49 -105q0 -32 -14.5 -62t-31.5 -30q-14 0 -24 24q-16 40 -49 40q-55 0 -55 -73q0 -13 2 -27q11 -1 32 -2q48 -1 59 -12q6 -6 6 -35q0 -28 -3 -37q-4 -14 -20 -14h-63q0 -36 -6 -76q17 -13 34 -25q28 -20 47 -20q39 0 60 37q13 23 26 23q24 0 24 -65zM123 100
q-18 26 -38 26q-28 0 -28 -40q0 -35 26 -35q29 0 40 49z" />
    <glyph glyph-name="currency" unicode="&#xa4;" horiz-adv-x="423" 
d="M407 221l-44 -67l-69 100q-40 -35 -82 -35q-41 0 -80 35l-69 -100l-46 67l68 99q-22 54 -22 113q0 58 22 112l-68 100l46 64l69 -98q38 33 80 33t82 -33l69 98l44 -64l-68 -100q21 -56 21 -113q0 -58 -21 -112zM295 432q0 44 -22 80q-25 39 -60 39q-31 0 -54 -30
q-27 -35 -27 -99q0 -39 20 -71q24 -37 61 -37q33 0 57.5 35.5t24.5 82.5z" />
    <glyph glyph-name="yen" unicode="&#xa5;" horiz-adv-x="436" 
d="M442 576q0 -25 -16 -34t-32 -17q-9 -6 -13 -13q-9 -14 -41 -74h34q54 0 54 -32q0 -27 -37 -27h-84q-14 -39 -17 -61h101q36 0 36 -26q0 -30 -36 -30h-103q3 -82 5 -106q3 -27 5 -32q4 -11 17 -17q20 -9 20 -45q0 -46 -36 -59q-22 -9 -90 -9q-112 0 -112 64q0 36 21 48
q13 7 14 9q7 7 9 31q2 20 2 116h-100q-37 0 -37 27q0 29 37 29h98q-5 30 -25 61h-73q-38 0 -38 28q0 32 52 32h23l7 -1q-11 19 -25.5 47.5t-43.5 40.5q-19 8 -19 43q0 32 19 45q24 17 90 17q61 0 81 -5q45 -12 45 -55q0 -10 -7 -26.5t-7 -24.5q0 -14 12 -38q12 -27 22 -27
q8 2 18.5 24t10.5 41q0 9 -3 16q-13 22 -13 41q0 54 91 54q84 0 84 -55z" />
    <glyph glyph-name="section" unicode="&#xa7;" horiz-adv-x="390" 
d="M392 283q0 -104 -76 -156q28 -47 37 -70q12 -33 12 -77q0 -94 -54 -146q-48 -45 -121 -45q-82 0 -123 40q-33 32 -33 82q0 31 15 56q16 30 43 30q41 0 56 -58q8 -35 16 -46q13 -18 41 -18q21 0 37 15t16 45t-13 49q-22 33 -92 68q-88 44 -121 86q-36 46 -36 128
q0 122 80 181q-49 58 -49 118q0 67 37 114q48 63 145 63q58 0 96 -27q44 -32 44 -90q0 -71 -54 -71q-38 0 -54 75q-3 14 -17.5 26t-35.5 12q-20 0 -34.5 -16.5t-14.5 -42.5q0 -28 19 -48q22 -23 92 -60q79 -42 110.5 -88t31.5 -129zM291 245q0 47 -72 92q-60 38 -90 38
q-42 0 -42 -57q0 -46 71 -91q59 -38 90 -38q43 0 43 56z" />
    <glyph glyph-name="dieresis" unicode="&#xa8;" 
d="M148 654q0 -66 -47 -66q-19 0 -33.5 17t-14.5 49q0 29 13 47.5t35 18.5q47 0 47 -66zM301 654q0 -66 -47 -66q-18 0 -33 17t-15 49q0 33 17 51q13 14 30 14q48 0 48 -65z" />
    <glyph glyph-name="copyright" unicode="&#xa9;" horiz-adv-x="575" 
d="M547 330q0 -92 -31 -173q-35 -90 -99 -144q-60 -50 -130 -50q-93 0 -164 84q-94 112 -94 282q0 151 75.5 261.5t183.5 110.5q70 0 129 -50q63 -53 98 -146q32 -84 32 -175zM505 330q0 127 -64.5 219t-153.5 92q-90 0 -153 -92t-63 -218q0 -145 80 -239q61 -71 136 -71
q63 0 116 49q45 42 72 107q30 70 30 153zM417 424q0 -21 -10 -40q-12 -24 -32 -22q-11 1 -26 28l-14 28q-25 35 -49 35q-47 0 -47 -76q0 -52 23 -95q25 -49 63 -49q24 0 40 16l14 16q11 12 15 12q20 0 20 -39q0 -24 -9 -46q-11 -28 -31 -28q-41 -41 -91 -41q-56 0 -98 52
q-47 58 -47 152q0 80 40 144q43 68 107 68q18 0 45.5 -11t25.5 -11v1q12 4 19 4q16 0 29 -30.5t13 -67.5z" />
    <glyph glyph-name="ordfeminine" unicode="&#xaa;" horiz-adv-x="318" 
d="M318 419q0 -27 -25 -56q-29 -31 -63 -31q-20 0 -35.5 21t-18.5 21t-10 -11t-18 -18q-17 -10 -47 -10q-42 0 -67.5 33t-25.5 83t25 85q31 42 89 42q19 0 43 -5l2 39q0 68 -23 68q-15 0 -37 -39t-41 -39q-37 0 -37 51q0 36 31 63q37 31 100 31q73 0 100 -36.5t27 -129.5
q-7 -130 12 -136.5t19 -25.5zM166 491q0 27 -11 27q-31 0 -31 -51q0 -44 24 -44q18 0 18 68z" />
    <glyph glyph-name="guillemotleft" unicode="&#xab;" horiz-adv-x="391" 
d="M199 458q0 -28 -63 -192q18 -42 35 -83q27 -73 27 -105q0 -39 -20 -39q-30 0 -99 101q-66 97 -66 124q0 32 68 129.5t95 97.5q23 0 23 -33zM376 458q0 -28 -64 -192q62 -146 62 -188q0 -39 -21 -39q-28 0 -98 101q-66 97 -66 124q0 32 68 129.5t94 97.5q25 0 25 -33z" />
    <glyph glyph-name="logicalnot" unicode="&#xac;" horiz-adv-x="582" 
d="M496 180h-93v115h-317v129h410v-244z" />
    <glyph glyph-name="registered" unicode="&#xae;" horiz-adv-x="575" 
d="M547 324q-2 -148 -77.5 -254.5t-182.5 -106.5q-70 0 -130 52q-51 44 -85 114q-43 90 -43 204q0 149 74.5 258.5t183.5 109.5q77 0 139 -59q53 -49 86 -129q36 -89 35 -189zM505 330q0 127 -64.5 219t-153.5 92q-90 0 -153 -92t-63 -218q0 -145 80 -239q61 -71 136 -71
q63 0 116 49q45 42 72 107q30 70 30 153zM166 213q4 13 5 52q10 183 -2 207q-1 1 -13 12t-12 21q0 36 51 36h21l12 -1q39 2 70 2q113 0 113 -105q0 -50 -32 -75q-12 -9 -12 -16q1 -6 12 -12q16 -9 20 -13q19 -19 24 -68q3 -32 6 -40.5t15 -14.5t12 -18q0 -47 -66 -47
q-35 0 -50.5 20.5t-25.5 74.5q-8 46 -9 49q-9 30 -26 30q-2 0 -10 -2q-2 -12 -2 -48q1 -45 6.5 -50t10.5 -10q11 -12 11 -23q0 -26 -29 -34q-14 -4 -50 -4q-38 0 -51 5q-20 7 -20 32q0 14 6 22q5 3 9.5 7t5.5 11zM307 424q0 53 -28 53q-11 0 -13 -21q0 2 0 -30q0 -39 1 -43
q1 -12 12 -12q28 0 28 53z" />
    <glyph glyph-name="macron" unicode="&#xaf;" 
d="M350 627h-350v137h350v-137z" />
    <glyph glyph-name="macron" unicode="&#x2c9;" 
d="M350 627h-350v137h350v-137z" />
    <glyph glyph-name="degree" unicode="&#xb0;" horiz-adv-x="280" 
d="M233 593q0 -52 -25 -92q-27 -44 -69 -44q-46 0 -73 46q-23 40 -23 90q0 55 28.5 95t67.5 40q36 0 63 -34q31 -39 31 -101zM196 593q0 29 -13 52q-16 30 -44 30q-21 0 -37 -18q-21 -23 -21 -64q0 -31 13 -54q15 -29 45 -29q20 0 36 18q21 22 21 65z" />
    <glyph glyph-name="plusminus" unicode="&#xb1;" horiz-adv-x="582" 
d="M496 332h-157v-150h-95v150h-158v133h158v150h95v-150h157v-133zM496 -20h-410v133h410v-133z" />
    <glyph glyph-name="acute" unicode="&#xb4;" 
d="M101 642q0 19 34 36l118 60q15 8 21 8q14 0 24 -38q7 -29 7 -42q0 -20 -25 -29l-130 -45q-18 -6 -23 -6q-15 0 -22 27q-4 16 -4 29z" />
    <glyph glyph-name="mu" unicode="&#xb5;" horiz-adv-x="433" 
d="M435 148q0 -41 -25 -92q-32 -66 -80 -66q-60 0 -66 94q-31 -92 -91 -92q-39 0 -59 24q-15 20 -22 64q-12 -126 -17 -201q-6 -87 -52 -86q-45 1 -45 67q0 21 25 154q30 155 33 172l37 246h115l-40 -264q-5 -31 -5 -52q0 -52 29 -52q23 0 34 29q9 22 19 85l40 254h114
l-39 -250q-3 -22 -3 -37q0 -43 28 -43q11 0 17 6t18.5 35t21.5 29q13 0 13 -24z" />
    <glyph glyph-name="mu" unicode="&#x3bc;" horiz-adv-x="433" 
d="M435 148q0 -41 -25 -92q-32 -66 -80 -66q-60 0 -66 94q-31 -92 -91 -92q-39 0 -59 24q-15 20 -22 64q-12 -126 -17 -201q-6 -87 -52 -86q-45 1 -45 67q0 21 25 154q30 155 33 172l37 246h115l-40 -264q-5 -31 -5 -52q0 -52 29 -52q23 0 34 29q9 22 19 85l40 254h114
l-39 -250q-3 -22 -3 -37q0 -43 28 -43q11 0 17 6t18.5 35t21.5 29q13 0 13 -24z" />
    <glyph glyph-name="paragraph" unicode="&#xb6;" 
d="M346 652h-35v-652h-67v652h-49v-652h-69v383q-59 1 -92 50q-30 46 -30 120t36.5 122t95.5 48h210v-71z" />
    <glyph glyph-name="periodcentered" unicode="&#xb7;" horiz-adv-x="413" 
d="M206 518q42 0 71.5 -42.5t29.5 -101.5q0 -60 -29.5 -102.5t-71.5 -42.5t-71.5 42.5t-29.5 102.5q0 59 29.5 101.5t71.5 42.5z" />
    <glyph glyph-name="periodcentered" unicode="&#x2219;" horiz-adv-x="413" 
d="M206 518q42 0 71.5 -42.5t29.5 -101.5q0 -60 -29.5 -102.5t-71.5 -42.5t-71.5 42.5t-29.5 102.5q0 59 29.5 101.5t71.5 42.5z" />
    <glyph glyph-name="cedilla" unicode="&#xb8;" 
d="M286 -121q0 -53 -32 -81q-26 -23 -65 -23q-50 0 -77 20q-24 16 -24 39q0 28 25 28q8 0 14 -3q42 -20 59 -20q30 0 30 34q0 27 -43 27q-27 0 -27 20q0 10 9 80h40q-3 -31 -3 -47q12 3 25 3q69 0 69 -77z" />
    <glyph glyph-name="ordmasculine" unicode="&#xba;" horiz-adv-x="335" 
d="M326 549q0 -88 -44 -152q-48 -68 -122 -68q-64 0 -107 59.5t-43 143.5q0 89 49 151.5t118 62.5q66 0 107.5 -55t41.5 -142zM203 480q0 45 -9 96q-13 72 -38 72q-21 -4 -21 -56q0 -47 10 -96q13 -71 39 -71q19 4 19 55z" />
    <glyph glyph-name="guillemotright" unicode="&#xbb;" horiz-adv-x="391" 
d="M192 458q0 33 24 33q26 0 94.5 -97.5t68.5 -129.5q0 -27 -67 -124q-69 -101 -99 -101q-20 0 -20 39q0 32 28 105q17 41 34 83q-63 164 -63 192zM15 458q0 33 25 33q27 0 95 -97.5t68 -129.5q0 -27 -67 -124q-69 -101 -98 -101q-21 0 -21 39q0 42 62 188q-64 164 -64 192z
" />
    <glyph glyph-name="questiondown" unicode="&#xbf;" horiz-adv-x="399" 
d="M368 173q0 127 -113 181q-8 28 -17 56q-10 34 -43 34q-52 0 -52 -77q0 -22 27.5 -106.5t27.5 -105.5q0 -59 -29 -59q-15 0 -16.5 24.5t-2.5 50.5q-4 41 -17 65q-18 32 -55 32q-25 0 -42 -20q-23 -24 -23 -71q0 -64 43 -125q51 -72 129 -72q85 0 138 64q45 57 45 129z
M278 615q0 44 -20 78q-23 40 -61 40q-32 0 -56 -30q-28 -33 -28 -88q0 -41 18 -74q23 -43 66 -43q34 0 57.5 36t23.5 81z" />
    <glyph glyph-name="Agrave" unicode="&#xc0;" horiz-adv-x="604" 
d="M603 66q0 -72 -163 -72q-73 0 -104 13q-34 15 -34 52q0 34 26 45q21 9 21 29q0 44 -112 44q-75 0 -75 -47q0 -26 20 -26q26 0 26 -45q0 -37 -26.5 -52t-85.5 -15q-58 0 -82.5 15.5t-24.5 51.5q0 32 32 48q17 8 22 13q8 10 21 45q31 84 85 274q54 186 57 221q5 42 10 53
q14 29 55 29q57 0 93.5 -60.5t97.5 -259.5q12 -38 76 -254q12 -40 38.5 -56t26.5 -46zM317 311q-39 141 -57 141q-8 0 -17 -21q-12 -28 -37 -120h111zM370 831q0 -13 -4 -29q-8 -27 -22 -27q-6 0 -23 6l-131 45q-24 8 -24 29q0 14 7 42q10 38 24 38q6 0 21 -8l117 -60
q35 -18 35 -36z" />
    <glyph glyph-name="Aacute" unicode="&#xc1;" horiz-adv-x="604" 
d="M603 66q0 -72 -163 -72q-73 0 -104 13q-34 15 -34 52q0 34 26 45q21 9 21 29q0 44 -112 44q-75 0 -75 -47q0 -26 20 -26q26 0 26 -45q0 -37 -26.5 -52t-85.5 -15q-58 0 -82.5 15.5t-24.5 51.5q0 32 32 48q17 8 22 13q8 10 21 45q31 84 85 274q54 186 57 221q5 42 10 53
q14 29 55 29q57 0 93.5 -60.5t97.5 -259.5q12 -38 76 -254q12 -40 38.5 -56t26.5 -46zM317 311q-39 141 -57 141q-8 0 -17 -21q-12 -28 -37 -120h111zM226 837q0 18 35 36l118 60q15 8 21 8q14 0 23 -38q7 -28 7 -42q0 -21 -24 -29l-130 -45q-18 -6 -23 -6q-15 0 -22 27
q-5 16 -5 29z" />
    <glyph glyph-name="Acircumflex" unicode="&#xc2;" horiz-adv-x="604" 
d="M603 66q0 -72 -163 -72q-73 0 -104 13q-34 15 -34 52q0 34 26 45q21 9 21 29q0 44 -112 44q-75 0 -75 -47q0 -26 20 -26q26 0 26 -45q0 -37 -26.5 -52t-85.5 -15q-58 0 -82.5 15.5t-24.5 51.5q0 32 32 48q17 8 22 13q8 10 21 45q31 84 85 274q54 186 57 221q5 42 10 53
q14 29 55 29q57 0 93.5 -60.5t97.5 -259.5q12 -38 76 -254q12 -40 38.5 -56t26.5 -46zM317 311q-39 141 -57 141q-8 0 -17 -21q-12 -28 -37 -120h111zM417 792q0 -14 -38 -14q-19 0 -26 3q-12 5 -23 24q-18 32 -29 55q-3 0 -13 -18q-16 -30 -35 -56q-7 -9 -42 -9
q-31 0 -31 16q0 5 6 16l65 108q10 18 18.5 23.5t31.5 5.5q26 0 41 -24q75 -128 75 -130z" />
    <glyph glyph-name="Atilde" unicode="&#xc3;" horiz-adv-x="604" 
d="M603 66q0 -72 -163 -72q-73 0 -104 13q-34 15 -34 52q0 34 26 45q21 9 21 29q0 44 -112 44q-75 0 -75 -47q0 -26 20 -26q26 0 26 -45q0 -37 -26.5 -52t-85.5 -15q-58 0 -82.5 15.5t-24.5 51.5q0 32 32 48q17 8 22 13q8 10 21 45q31 84 85 274q54 186 57 221q5 42 10 53
q14 29 55 29q57 0 93.5 -60.5t97.5 -259.5q12 -38 76 -254q12 -40 38.5 -56t26.5 -46zM317 311q-39 141 -57 141q-8 0 -17 -21q-12 -28 -37 -120h111zM431 916q0 -33 -19 -72q-26 -50 -65 -50q-17 0 -61.5 19t-50.5 19q-24 0 -36 -40q-5 -16 -17 -16q-18 0 -18 23
q0 28 21 73q26 56 59 56q16 0 57 -20.5t55 -20.5q30 0 42 41q3 13 16 13q17 0 17 -25z" />
    <glyph glyph-name="Adieresis" unicode="&#xc4;" horiz-adv-x="604" 
d="M421 846q0 -65 -47 -65t-47 65q0 27 12.5 46t34.5 19q47 0 47 -65zM268 846q0 -66 -48 -66q-18 0 -32 16.5t-14 49.5q0 66 46 66q48 0 48 -66zM603 66q0 -72 -163 -72q-73 0 -104 13q-34 15 -34 52q0 34 26 45q21 9 21 29q0 44 -112 44q-75 0 -75 -47q0 -26 20 -26
q26 0 26 -45q0 -37 -26.5 -52t-85.5 -15q-58 0 -82.5 15.5t-24.5 51.5q0 32 32 48q17 8 22 13q8 10 21 45q31 84 85 274q54 186 57 221q5 42 10 53q14 29 55 29q57 0 93.5 -60.5t97.5 -259.5q12 -38 76 -254q12 -40 38.5 -56t26.5 -46zM317 311q-39 141 -57 141
q-8 0 -17 -21q-12 -28 -37 -120h111z" />
    <glyph glyph-name="Aring" unicode="&#xc5;" horiz-adv-x="604" 
d="M376 915q0 -43 -19 -78q-23 -45 -66 -45q-40 0 -63.5 35.5t-23.5 87.5q0 43 19 78q23 45 66 45q35 0 61 -34.5t26 -88.5zM325 917q0 45 -36 45q-34 0 -34 -47q0 -19 9.5 -34t25.5 -15q35 0 35 51zM613 66q0 -72 -163 -72q-73 0 -103 13q-34 15 -34 52q0 34 25 45
q21 9 21 29q0 44 -111 44q-76 0 -76 -47q0 -26 20 -26q26 0 26 -45q0 -37 -26 -52t-86 -15q-57 0 -82 15.5t-25 51.5q0 32 32 48q18 8 22 13q8 10 21 45q31 84 86 274q53 186 57 221q5 42 10 53q14 29 54 29q58 0 94 -60.5t97 -259.5q12 -38 76 -254q12 -40 38.5 -56
t26.5 -46zM328 311q-40 141 -57 141q-9 0 -18 -21q-11 -28 -36 -120h111z" />
    <glyph glyph-name="AE" unicode="&#xc6;" horiz-adv-x="806" 
d="M797 184q0 -62 -23 -131q-23 -72 -47 -72q-13 0 -28 7q-39 12 -99 12h-247q-26 0 -36 7q-16 10 -16 40q0 26 26.5 53t26.5 54q0 25 -71 25q-70 0 -95 -11q-21 -10 -21 -36q0 -16 24 -28.5t24 -41.5q0 -70 -99 -70q-65 0 -93.5 15t-28.5 52q3 19 6 25q6 13 29 24
q13 6 20 14q11 14 25 51q44 117 150 382q10 24 10 31q0 21 -23 38q-16 12 -20 17q-8 11 -8 31q0 57 75 57q165 0 229 -6q33 -3 72 -3q120 0 148 15q35 0 52 -50q13 -39 13 -96q0 -86 -43 -86q-12 0 -36 35l-26 40q-27 29 -87 29q-49 0 -59 -37q-2 -8 -2 -82q0 -40 5.5 -52.5
t26.5 -12.5q18 0 24 7q10 10 14 45q7 61 30 61q52 0 52 -150q0 -183 -54 -183q-16 0 -21 20t-9 41q-10 51 -33 51q-24 0 -30 -23q-3 -12 -3 -62q0 -59 3 -72q10 -37 49 -37q66 0 95 19q23 15 40 54.5t27 50.5q7 9 20 9q42 0 42 -70zM365 552q0 47 -12 50q-8 0 -20 -30
q-24 -58 -47 -115q-1 -1 -56 -146q67 2 134 0q-1 39 1 241z" />
    <glyph glyph-name="Ccedilla" unicode="&#xc7;" horiz-adv-x="554" 
d="M300 -16q-2 -30 -2 -31q12 3 24 3q69 0 69 -77q0 -51 -32 -80q-27 -24 -65 -24q-55 0 -81 22q-19 16 -19 37q0 28 24 28q5 0 36.5 -11.5t36.5 -11.5q30 0 30 35q0 24 -26 24t-35 5t-9 21q0 3 7 62q-103 13 -170 118.5t-67 250.5q0 146 73 261q78 124 194 124q40 0 77 -17
q43 -20 57 -20q4 0 12.5 3t17.5 3q29 1 52.5 -54.5t23.5 -123.5q0 -52 -20 -83t-50 -31q-13 0 -18 3q-20 13 -41 61q-44 102 -109 102q-85 0 -85 -137q0 -95 41 -173q46 -89 115 -89q30 0 65 40t60 40q12 0 22 -14q13 -19 13 -58q0 -49 -13 -85q-18 -50 -58 -50
q-68 -67 -150 -73z" />
    <glyph glyph-name="Egrave" unicode="&#xc8;" horiz-adv-x="514" 
d="M510 181q0 -50 -21 -119q-24 -80 -53 -80q-6 0 -23 6q-20 6 -22 6q-40 6 -334 6q-27 0 -37 6q-16 11 -16 44q0 29 27 51q36 23 36 249q0 240 -19 263q-15 12 -30 25q-10 9 -10 26q0 65 74 65q9 0 25 -1t22 -1q3 0 55.5 -1.5t84.5 -1.5q41 0 52 1q55 7 98 11q29 3 47 -35
t18 -109q0 -88 -43 -88q-25 0 -41 41q-22 60 -101 60q-45 0 -55 -11q-13 -15 -13 -75q0 -65 5 -80t29 -15q8 0 13 1q18 5 22 50q2 29 3 33q7 27 29 27q49 0 49 -145q0 -187 -51 -187q-18 0 -34 69q-6 26 -11.5 34.5t-22.5 8.5q-20 0 -24.5 -14t-4.5 -71q0 -77 10 -92.5
t58 -15.5q83 0 115 65q20 40 27 50q12 16 25 17q42 -4 42 -73zM324 830q0 -13 -5 -30q-7 -27 -22 -27q-5 0 -22 6l-130 46q-25 9 -25 29q0 14 7 42q9 38 23 38q9 0 22 -9l118 -59q34 -17 34 -36z" />
    <glyph glyph-name="Eacute" unicode="&#xc9;" horiz-adv-x="514" 
d="M510 181q0 -50 -21 -119q-24 -80 -53 -80q-6 0 -23 6q-20 6 -22 6q-40 6 -334 6q-27 0 -37 6q-16 11 -16 44q0 29 27 51q36 23 36 249q0 240 -19 263q-15 12 -30 25q-10 9 -10 26q0 65 74 65q9 0 25 -1t22 -1q3 0 55.5 -1.5t84.5 -1.5q41 0 52 1q55 7 98 11q29 3 47 -35
t18 -109q0 -88 -43 -88q-25 0 -41 41q-22 60 -101 60q-45 0 -55 -11q-13 -15 -13 -75q0 -65 5 -80t29 -15q8 0 13 1q18 5 22 50q2 29 3 33q7 27 29 27q49 0 49 -145q0 -187 -51 -187q-18 0 -34 69q-6 26 -11.5 34.5t-22.5 8.5q-20 0 -24.5 -14t-4.5 -71q0 -77 10 -92.5
t58 -15.5q83 0 115 65q20 40 27 50q12 16 25 17q42 -4 42 -73zM178 832q0 -13 5 -29q8 -27 22 -27q5 0 22 6l131 45q25 9 25 29q0 14 -7 42q-10 38 -24 38q-6 0 -22 -8l-117 -60q-35 -17 -35 -36z" />
    <glyph glyph-name="Ecircumflex" unicode="&#xca;" horiz-adv-x="514" 
d="M510 181q0 -50 -21 -119q-24 -80 -53 -80q-6 0 -23 6q-20 6 -22 6q-40 6 -334 6q-27 0 -37 6q-16 11 -16 44q0 29 27 51q36 23 36 249q0 240 -19 263q-15 12 -30 25q-10 9 -10 26q0 65 74 65q9 0 25 -1t22 -1q3 0 55.5 -1.5t84.5 -1.5q41 0 52 1q55 7 98 11q29 3 47 -35
t18 -109q0 -88 -43 -88q-25 0 -41 41q-22 60 -101 60q-45 0 -55 -11q-13 -15 -13 -75q0 -65 5 -80t29 -15q8 0 13 1q18 5 22 50q2 29 3 33q7 27 29 27q49 0 49 -145q0 -187 -51 -187q-18 0 -34 69q-6 26 -11.5 34.5t-22.5 8.5q-20 0 -24.5 -14t-4.5 -71q0 -77 10 -92.5
t58 -15.5q83 0 115 65q20 40 27 50q12 16 25 17q42 -4 42 -73zM370 792q0 -14 -38 -14q-19 0 -26 3q-12 5 -23 24q-18 32 -29 55q-3 0 -13 -18q-16 -30 -35 -56q-7 -9 -42 -9q-31 0 -31 16q0 5 6 16l65 108q10 18 18.5 23.5t31.5 5.5q27 0 41 -24q75 -128 75 -130z" />
    <glyph glyph-name="Edieresis" unicode="&#xcb;" horiz-adv-x="514" 
d="M374 846q0 -65 -46 -65q-23 0 -35.5 18.5t-12.5 46.5q0 30 13.5 47.5t34.5 17.5q46 0 46 -65zM221 846q0 -66 -47 -66t-47 66q0 31 13.5 48.5t33.5 17.5t33.5 -17.5t13.5 -48.5zM510 181q0 -50 -21 -119q-24 -80 -53 -80q-6 0 -23 6q-20 6 -22 6q-40 6 -334 6
q-27 0 -37 6q-16 11 -16 44q0 29 27 51q36 23 36 249q0 240 -19 263q-15 12 -30 25q-10 9 -10 26q0 65 74 65q9 0 25 -1t22 -1q3 0 55.5 -1.5t84.5 -1.5q41 0 52 1q55 7 98 11q29 3 47 -35t18 -109q0 -88 -43 -88q-25 0 -41 41q-22 60 -101 60q-45 0 -55 -11
q-13 -15 -13 -75q0 -65 5 -80t29 -15q8 0 13 1q18 5 22 50q2 29 3 33q7 27 29 27q49 0 49 -145q0 -187 -51 -187q-18 0 -34 69q-6 26 -11.5 34.5t-22.5 8.5q-20 0 -24.5 -14t-4.5 -71q0 -77 10 -92.5t58 -15.5q83 0 115 65q20 40 27 50q12 16 25 17q42 -4 42 -73z" />
    <glyph glyph-name="Igrave" unicode="&#xcc;" horiz-adv-x="323" 
d="M301 662q0 -24 -12 -41q-7 -7 -15 -14q-14 -12 -18 -30q-5 -26 -5 -114q0 -35 -1.5 -85t-1.5 -113q0 -80 3 -101q4 -27 21 -44q27 -26 27 -53q0 -73 -146 -73q-136 0 -136 74q0 32 29 55q16 12 20 23q7 17 7 63q8 253 2 352q-4 27 -32 52q-19 16 -19 48q0 67 145 67
q132 0 132 -66zM230 828q0 -13 -5 -29q-7 -27 -22 -27q-5 0 -22 6l-131 45q-25 9 -25 29q0 14 7 42q10 38 24 38q6 0 22 -8l117 -60q35 -17 35 -36z" />
    <glyph glyph-name="Iacute" unicode="&#xcd;" horiz-adv-x="323" 
d="M301 662q0 -24 -12 -41q-7 -7 -15 -14q-14 -12 -18 -30q-5 -26 -5 -114q0 -35 -1.5 -85t-1.5 -113q0 -80 3 -101q4 -27 21 -44q27 -26 27 -53q0 -73 -146 -73q-136 0 -136 74q0 32 29 55q16 12 20 23q7 17 7 63q8 253 2 352q-4 27 -32 52q-19 16 -19 48q0 67 145 67
q132 0 132 -66zM80 837q0 19 34 36l118 60q15 8 21 8q15 0 24 -38q7 -28 7 -42q0 -20 -25 -29l-130 -45q-18 -6 -23 -6q-14 0 -22 27q-4 16 -4 29z" />
    <glyph glyph-name="Icircumflex" unicode="&#xce;" horiz-adv-x="323" 
d="M301 662q0 -24 -12 -41q-7 -7 -15 -14q-14 -12 -18 -30q-5 -26 -5 -114q0 -35 -1.5 -85t-1.5 -113q0 -80 3 -101q4 -27 21 -44q27 -26 27 -53q0 -73 -146 -73q-136 0 -136 74q0 32 29 55q16 12 20 23q7 17 7 63q8 253 2 352q-4 27 -32 52q-19 16 -19 48q0 67 145 67
q132 0 132 -66zM276 792q0 -14 -39 -14q-19 0 -26 3q-11 5 -23 24q-17 32 -28 55q-3 0 -13 -18q-17 -30 -35 -56q-8 -9 -43 -9q-31 0 -31 16q0 5 7 16l64 108q11 18 19.5 23.5t31.5 5.5q26 0 40 -24q76 -128 76 -130z" />
    <glyph glyph-name="Idieresis" unicode="&#xcf;" horiz-adv-x="323" 
d="M280 846q0 -31 -14 -48t-33 -17q-47 0 -47 65q0 27 12.5 46t34.5 19q18 0 31 -14q16 -18 16 -51zM127 846q0 -66 -47 -66q-22 0 -34.5 18.5t-12.5 47.5t12.5 47.5t34.5 18.5q47 0 47 -66zM301 662q0 -24 -12 -41q-7 -7 -15 -14q-14 -12 -18 -30q-5 -26 -5 -114
q0 -35 -1.5 -85t-1.5 -113q0 -80 3 -101q4 -27 21 -44q27 -26 27 -53q0 -73 -146 -73q-136 0 -136 74q0 32 29 55q16 12 20 23q7 17 7 63q8 253 2 352q-4 27 -32 52q-19 16 -19 48q0 67 145 67q132 0 132 -66z" />
    <glyph glyph-name="Ntilde" unicode="&#xd1;" horiz-adv-x="605" 
d="M602 663q0 -27 -12.5 -37t-24.5 -19q-15 -23 -20 -85q-4 -177 -11 -389q-6 -84 -17 -115q-8 -24 -25 -24q-22 0 -62 45q-55 76 -111 151q-108 146 -120 146q-15 0 -20 -19q-5 -22 -5 -96q0 -57 6 -79l8 -14q10 -11 21 -21q16 -20 16 -41q0 -72 -97 -72q-62 0 -87.5 16
t-25.5 51q0 29 26 51q9 10 12 14q7 13 11 38q6 54 6 178q0 127 -6 185q-4 38 -8 50q-7 19 -27 29q-25 12 -25 48q0 69 104 69q61 0 73 -6q23 -11 69 -76q146 -209 173 -209q13 0 16 27q3 18 3 75q0 62 -27 78q-7 6 -15 11q-11 12 -11 34q0 35 17 50q22 22 85 22
q68 0 89.5 -13t21.5 -53zM430 916q0 -33 -19 -72q-25 -50 -65 -50q-17 0 -61 19t-51 19q-23 0 -36 -40q-5 -16 -17 -16q-17 0 -17 23q0 28 20 73q26 56 59 56q17 0 57.5 -20.5t55.5 -20.5q30 0 41 41q4 13 17 13q16 0 16 -25z" />
    <glyph glyph-name="Ograve" unicode="&#xd2;" horiz-adv-x="592" 
d="M574 361q0 -172 -85 -280q-80 -101 -196 -101q-102 0 -182 92q-95 109 -95 291q0 152 75 261q80 117 206 117q118 0 195 -97q82 -104 82 -283zM386 265q0 83 -29 185q-36 130 -90 130q-60 0 -60 -113q0 -107 36 -211q39 -113 89 -113q22 0 38 31.5t16 90.5zM367 832
q0 -14 -4 -30q-7 -27 -22 -27q-6 0 -23 6l-130 46q-25 9 -25 28q0 14 7 42q10 39 24 39q8 0 22 -9l117 -59q34 -17 34 -36z" />
    <glyph glyph-name="Oacute" unicode="&#xd3;" horiz-adv-x="592" 
d="M574 361q0 -172 -85 -280q-80 -101 -196 -101q-102 0 -182 92q-95 109 -95 291q0 152 75 261q80 117 206 117q118 0 195 -97q82 -104 82 -283zM386 265q0 83 -29 185q-36 130 -90 130q-60 0 -60 -113q0 -107 36 -211q39 -113 89 -113q22 0 38 31.5t16 90.5zM214 837
q0 19 34 36l118 60q16 8 22 8q13 0 23 -38q8 -29 8 -42q0 -20 -26 -29l-130 -45q-17 -6 -22 -6q-15 0 -22 27q-5 16 -5 29z" />
    <glyph glyph-name="Ocircumflex" unicode="&#xd4;" horiz-adv-x="592" 
d="M574 361q0 -172 -85 -280q-80 -101 -196 -101q-102 0 -182 92q-95 109 -95 291q0 152 75 261q80 117 206 117q118 0 195 -97q82 -104 82 -283zM386 265q0 83 -29 185q-36 130 -90 130q-60 0 -60 -113q0 -107 36 -211q39 -113 89 -113q22 0 38 31.5t16 90.5zM408 791
q0 -14 -38 -14q-20 0 -26 3q-12 5 -23 24q-18 32 -29 55q-3 0 -13 -18q-17 -30 -35 -56q-8 -9 -42 -9q-31 0 -31 16q0 5 6 16l64 108q11 18 19.5 23.5t31.5 5.5q26 0 40 -24q76 -128 76 -130z" />
    <glyph glyph-name="Otilde" unicode="&#xd5;" horiz-adv-x="592" 
d="M574 361q0 -172 -85 -280q-80 -101 -196 -101q-102 0 -182 92q-95 109 -95 291q0 152 75 261q80 117 206 117q118 0 195 -97q82 -104 82 -283zM386 265q0 83 -29 185q-36 130 -90 130q-60 0 -60 -113q0 -107 36 -211q39 -113 89 -113q22 0 38 31.5t16 90.5zM423 918
q0 -33 -20 -72q-25 -50 -64 -50q-18 0 -62 19t-50 19q-24 0 -37 -40q-5 -16 -16 -16q-18 0 -18 23q0 28 21 73q25 56 58 56q17 0 57.5 -20.5t55.5 -20.5q30 0 41 41q4 13 17 13q17 0 17 -25z" />
    <glyph glyph-name="Odieresis" unicode="&#xd6;" horiz-adv-x="592" 
d="M574 361q0 -172 -85 -280q-80 -101 -196 -101q-102 0 -182 92q-95 109 -95 291q0 152 75 261q80 117 206 117q118 0 195 -97q82 -104 82 -283zM386 265q0 83 -29 185q-36 130 -90 130q-60 0 -60 -113q0 -107 36 -211q39 -113 89 -113q22 0 38 31.5t16 90.5zM209 918
q20 0 34.5 -20t14.5 -48t-14.5 -48.5t-34.5 -20.5t-34 20t-14 49q0 28 14 48t34 20zM365 918q20 0 34 -19.5t14 -48.5t-14 -49t-34 -20t-34 20t-14 49t14 48.5t34 19.5z" />
    <glyph glyph-name="Oslash" unicode="&#xd8;" horiz-adv-x="592" 
d="M574 355q0 -177 -84 -280q-77 -94 -190 -94q-75 0 -139 44l-52 -111q-14 -29 -28 -29t-27 17q-8 11 -8 27q0 17 10 38l53 109q-93 129 -93 285q0 148 75 258q81 120 205 120q61 0 127 -32l40 92q13 29 30 29q14 0 23.5 -15t9.5 -29q0 -17 -9 -38l-40 -84q97 -112 97 -307
zM334 521q-28 59 -70 59q-24 0 -41 -26q-21 -33 -21 -97q0 -59 22 -156zM391 266q0 79 -30 181l-111 -226q19 -35 29 -47q20 -27 42 -31q70 0 70 123z" />
    <glyph glyph-name="Ugrave" unicode="&#xd9;" horiz-adv-x="604" 
d="M596 664q0 -29 -15.5 -41t-30.5 -24q-8 -10 -10 -44q-1 -22 -1 -127q0 -236 -39 -326q-51 -118 -204 -118q-90 0 -149 49q-77 65 -77 203l1 280q-2 40 -5 49q-6 19 -30 37q-16 17 -16 43q0 36 36 58q41 25 121 25q55 0 79 -8q41 -15 41 -60q0 -29 -16 -45q-9 -9 -19 -18
q-11 -13 -12 -23q-6 -39 -6 -198q0 -125 15 -167q19 -53 79 -53t82 55q17 44 17 146q0 24 -1 69q-1 51 -1 74q-1 61 -4 79q-5 32 -25 42q-25 13 -25 46q0 32 45 49q34 12 75 12q95 0 95 -64zM384 830q0 -13 -5 -30q-7 -27 -22 -27q-5 0 -22 6l-131 46q-25 9 -25 29
q0 14 7 42q10 38 24 38q8 0 22 -9l117 -59q35 -17 35 -36z" />
    <glyph glyph-name="Uacute" unicode="&#xda;" horiz-adv-x="604" 
d="M596 664q0 -29 -15.5 -41t-30.5 -24q-8 -10 -10 -44q-1 -22 -1 -127q0 -236 -39 -326q-51 -118 -204 -118q-90 0 -149 49q-77 65 -77 203l1 280q-2 40 -5 49q-6 19 -30 37q-16 17 -16 43q0 36 36 58q41 25 121 25q55 0 79 -8q41 -15 41 -60q0 -29 -16 -45q-9 -9 -19 -18
q-11 -13 -12 -23q-6 -39 -6 -198q0 -125 15 -167q19 -53 79 -53t82 55q17 44 17 146q0 24 -1 69q-1 51 -1 74q-1 61 -4 79q-5 32 -25 42q-25 13 -25 46q0 32 45 49q34 12 75 12q95 0 95 -64zM235 834q0 18 35 36l118 60q15 8 21 8q14 0 24 -38q7 -28 7 -42q0 -21 -25 -29
l-130 -45q-17 -6 -23 -6q-15 0 -22 27q-5 16 -5 29z" />
    <glyph glyph-name="Ucircumflex" unicode="&#xdb;" horiz-adv-x="604" 
d="M596 664q0 -29 -15.5 -41t-30.5 -24q-8 -10 -10 -44q-1 -22 -1 -127q0 -236 -39 -326q-51 -118 -204 -118q-90 0 -149 49q-77 65 -77 203l1 280q-2 40 -5 49q-6 19 -30 37q-16 17 -16 43q0 36 36 58q41 25 121 25q55 0 79 -8q41 -15 41 -60q0 -29 -16 -45q-9 -9 -19 -18
q-11 -13 -12 -23q-6 -39 -6 -198q0 -125 15 -167q19 -53 79 -53t82 55q17 44 17 146q0 24 -1 69q-1 51 -1 74q-1 61 -4 79q-5 32 -25 42q-25 13 -25 46q0 32 45 49q34 12 75 12q95 0 95 -64zM428 790q0 -14 -39 -14q-19 0 -26 3q-11 5 -23 24q-18 32 -29 55q-3 0 -13 -18
q-16 -30 -34 -56q-8 -9 -43 -9q-31 0 -31 16q0 5 7 16l64 108q11 18 19.5 23.5t30.5 5.5q27 0 41 -24q76 -128 76 -130z" />
    <glyph glyph-name="Udieresis" unicode="&#xdc;" horiz-adv-x="604" 
d="M596 664q0 -29 -15.5 -41t-30.5 -24q-8 -10 -10 -44q-1 -22 -1 -127q0 -236 -39 -326q-51 -118 -204 -118q-90 0 -149 49q-77 65 -77 203l1 280q-2 40 -5 49q-6 19 -30 37q-16 17 -16 43q0 36 36 58q41 25 121 25q55 0 79 -8q41 -15 41 -60q0 -29 -16 -45q-9 -9 -19 -18
q-11 -13 -12 -23q-6 -39 -6 -198q0 -125 15 -167q19 -53 79 -53t82 55q17 44 17 146q0 24 -1 69q-1 51 -1 74q-1 61 -4 79q-5 32 -25 42q-25 13 -25 46q0 32 45 49q34 12 75 12q95 0 95 -64zM227 918q20 0 34 -20t14 -48t-14 -48.5t-34 -20.5t-34.5 20t-14.5 49
q0 28 14.5 48t34.5 20zM382 918q20 0 34 -20t14 -48q0 -29 -14 -49t-34 -20t-33.5 20t-13.5 49t13.5 48.5t33.5 19.5z" />
    <glyph glyph-name="germandbls" unicode="&#xdf;" horiz-adv-x="488" 
d="M466 223q0 -92 -31 -151q-38 -74 -117 -74q-41 0 -67 24.5t-26 58.5q0 30 21.5 42t31.5 27q22 34 24 101q1 77 -37.5 109.5t-38.5 46.5q0 17 36 52q12 21 12 66q0 40 -12.5 65t-31.5 25q-28 0 -28 -49q3 -267 5 -388l2 -74q0 -69 -21.5 -91t-85.5 -22q-103 0 -103 78
q0 22 14 38l14 10q24 28 24 226q0 45 -1.5 100t-1.5 54q0 235 177 235q90 0 138 -52q44 -49 44 -131q0 -63 -30 -106q-19 -18 -19 -24q0 -8 21 -17q87 -38 87 -179z" />
    <glyph glyph-name="agrave" unicode="&#xe0;" horiz-adv-x="425" 
d="M421 104q0 -36 -34 -74q-38 -42 -84 -42q-25 0 -46.5 28t-25.5 28q-3 0 -12 -13q-10 -17 -25 -26q-23 -13 -62 -13q-56 0 -90 44.5t-34 110.5t33 112q42 57 119 57q22 0 58 -7l1 53q0 90 -29 90q-21 0 -50 -52t-55 -52q-49 0 -49 68q0 48 42 84q49 41 133 41
q97 0 133 -48.5t36 -172.5q-3 -38 -3 -79q0 -97 18 -102q26 -8 26 -35zM218 200q0 36 -15 36q-41 0 -41 -68q0 -58 32 -58q11 0 16 9q8 19 8 81zM291 642q0 -13 -4 -29q-8 -27 -22 -27q-5 0 -23 6l-130 45q-25 9 -25 29q0 14 7 42q9 38 24 38q6 0 21 -8l118 -60
q34 -17 34 -36z" />
    <glyph glyph-name="aacute" unicode="&#xe1;" horiz-adv-x="425" 
d="M421 104q0 -36 -34 -74q-38 -42 -84 -42q-25 0 -46.5 28t-25.5 28q-3 0 -12 -13q-10 -17 -25 -26q-23 -13 -62 -13q-56 0 -90 44.5t-34 110.5t33 112q42 57 119 57q22 0 58 -7l1 53q0 90 -29 90q-21 0 -50 -52t-55 -52q-49 0 -49 68q0 48 42 84q49 41 133 41
q97 0 133 -48.5t36 -172.5q-3 -38 -3 -79q0 -97 18 -102q26 -8 26 -35zM218 200q0 36 -15 36q-41 0 -41 -68q0 -58 32 -58q11 0 16 9q8 19 8 81zM141 642q0 -13 5 -29q7 -27 22 -27q5 0 22 6l131 45q25 9 25 29q0 14 -7 42q-10 38 -24 38q-6 0 -22 -8l-117 -60
q-35 -17 -35 -36z" />
    <glyph glyph-name="acircumflex" unicode="&#xe2;" horiz-adv-x="425" 
d="M421 104q0 -36 -34 -74q-38 -42 -84 -42q-25 0 -46.5 28t-25.5 28q-3 0 -12 -13q-10 -17 -25 -26q-23 -13 -62 -13q-56 0 -90 44.5t-34 110.5t33 112q42 57 119 57q22 0 58 -7l1 53q0 90 -29 90q-21 0 -50 -52t-55 -52q-49 0 -49 68q0 48 42 84q49 41 133 41
q97 0 133 -48.5t36 -172.5q-3 -38 -3 -79q0 -97 18 -102q26 -8 26 -35zM218 200q0 36 -15 36q-41 0 -41 -68q0 -58 32 -58q11 0 16 9q8 19 8 81zM335 602q0 -14 -39 -14q-19 0 -26 3q-11 5 -23 24q-18 32 -29 55q-3 0 -13 -18q-16 -30 -34 -56q-8 -9 -43 -9q-31 0 -31 16
q0 5 7 16l64 108q11 18 19.5 23.5t30.5 5.5q27 0 41 -24q76 -128 76 -130z" />
    <glyph glyph-name="atilde" unicode="&#xe3;" horiz-adv-x="425" 
d="M421 104q0 -36 -34 -74q-38 -42 -84 -42q-25 0 -46.5 28t-25.5 28q-3 0 -12 -13q-10 -17 -25 -26q-23 -13 -62 -13q-56 0 -90 44.5t-34 110.5t33 112q42 57 119 57q22 0 58 -7l1 53q0 90 -29 90q-21 0 -50 -52t-55 -52q-49 0 -49 68q0 48 42 84q49 41 133 41
q97 0 133 -48.5t36 -172.5q-3 -38 -3 -79q0 -97 18 -102q26 -8 26 -35zM218 200q0 36 -15 36q-41 0 -41 -68q0 -58 32 -58q11 0 16 9q8 19 8 81zM341 729q0 -33 -20 -72q-25 -50 -64 -50q-18 0 -62 19t-50 19q-24 0 -37 -40q-4 -16 -16 -16q-18 0 -18 23q0 28 21 73
q25 56 58 56q17 0 57.5 -20.5t55.5 -20.5q30 0 41 41q4 13 17 13q17 0 17 -25z" />
    <glyph glyph-name="adieresis" unicode="&#xe4;" horiz-adv-x="425" 
d="M186 654q0 -66 -47 -66t-47 66q0 31 13.5 48.5t33.5 17.5q47 0 47 -66zM339 654q0 -32 -16 -51q-13 -15 -31 -15q-17 0 -31 15q-16 19 -16 51q0 65 47 65q17 0 30 -14q17 -18 17 -51zM421 104q0 -36 -34 -74q-38 -42 -84 -42q-25 0 -46.5 28t-25.5 28q-3 0 -12 -13
q-10 -17 -25 -26q-23 -13 -62 -13q-56 0 -90 44.5t-34 110.5t33 112q42 57 119 57q22 0 58 -7l1 53q0 90 -29 90q-21 0 -50 -52t-55 -52q-49 0 -49 68q0 48 42 84q49 41 133 41q97 0 133 -48.5t36 -172.5q-3 -38 -3 -79q0 -97 18 -102q26 -8 26 -35zM218 200q0 36 -15 36
q-41 0 -41 -68q0 -58 32 -58q11 0 16 9q8 19 8 81z" />
    <glyph glyph-name="aring" unicode="&#xe5;" horiz-adv-x="425" 
d="M313 713q0 -57 -24 -95q-27 -42 -73 -42q-39 0 -66 33q-31 37 -31 104q0 60 29 99.5t69 39.5q33 0 62 -32q34 -40 34 -107zM255 715q0 52 -40 52q-39 0 -39 -54q0 -55 40 -55q39 0 39 57zM421 104q0 -36 -34 -74q-38 -42 -84 -42q-25 0 -46.5 28t-25.5 28q-3 0 -12 -13
q-10 -17 -25 -26q-23 -13 -62 -13q-56 0 -90 44.5t-34 110.5t33 112q42 57 119 57q22 0 58 -7l1 53q0 90 -29 90q-21 0 -50 -52t-55 -52q-49 0 -49 68q0 48 42 84q49 41 133 41q97 0 133 -48.5t36 -172.5q-3 -38 -3 -79q0 -97 18 -102q26 -8 26 -35zM218 200q0 36 -15 36
q-41 0 -41 -68q0 -58 32 -58q11 0 16 9q8 19 8 81z" />
    <glyph glyph-name="ae" unicode="&#xe6;" horiz-adv-x="595" 
d="M587 325q0 -81 -40 -81h-157q-23 0 -23 -14q0 -30 24 -63q26 -39 60 -39q26 0 68 32q19 15 28 15q27 0 27 -52q0 -48 -48 -91q-52 -46 -122 -46q-42 0 -62 9q-32 14 -67 60q-34 -29 -50 -38q-44 -26 -93 -25q-50 1 -81 31q-43 39 -43 124q0 75 41.5 122t110.5 47
q28 0 58 -7q3 15 3 50q0 92 -38 92q-7 -1 -13 -7q-12 -11 -31 -45q-30 -51 -60 -51q-42 0 -42 63q0 57 47.5 94.5t135.5 37.5q51 0 93 -41q56 40 103 40q65 0 115 -56q56 -62 56 -161zM451 379q0 64 -40 64q-16 0 -30 -16q-15 -19 -15 -48q0 -28 5 -30.5t50 -2.5q18 0 21 2
q9 5 9 31zM218 205q0 32 -14 32q-45 0 -45 -72q0 -60 33 -60q14 0 19 13q7 20 7 87z" />
    <glyph glyph-name="ccedilla" unicode="&#xe7;" horiz-adv-x="399" 
d="M181 -7q-54 0 -103 64q-62 79 -62 211q0 131 73 207q63 66 146 66q81 0 123 -54q33 -43 33 -101q0 -42 -20 -74.5t-51 -32.5q-42 0 -62 55q-6 17 -12 35q-12 24 -30 24q-15 0 -26.5 -20t-11.5 -48q0 -47 24 -92q28 -51 66 -51q18 0 46 15q21 15 40 15q37 0 37 -65
q0 -49 -43 -98q-51 -59 -127 -60q-1 -17 -1 -36q11 3 24 3q69 0 69 -77q0 -42 -21 -70q-25 -35 -76 -34q-49 1 -77 20q-24 16 -24 38q0 30 26 30q11 0 25 -6q3 -3 6 -5q17 -9 33 -9q17 0 29 9.5t12 20.5q0 24 -45 27q-17 1 -20 3q-6 4 -6 19q0 13 6 71z" />
    <glyph glyph-name="egrave" unicode="&#xe8;" horiz-adv-x="399" 
d="M391 322q0 -78 -38 -78h-159q-23 0 -23 -17q0 -26 21 -56q26 -40 67 -40q30 0 58 23q24 20 34 20q29 0 29 -51q0 -45 -50 -90q-52 -48 -114 -48q-77 0 -134 64q-67 75 -67 209q0 103 48 185q57 98 153 98q66 0 115 -50q60 -60 60 -169zM255 379q0 64 -39 64
q-18 0 -31.5 -21.5t-13.5 -52.5q0 -26 27 -26q1 0 11.5 1t22.5 1q23 1 23 34zM278 644q0 -13 -5 -30q-7 -27 -22 -27q-5 0 -22 6l-130 46q-26 9 -26 28q0 14 7 42q10 39 24 39q8 0 22 -9l118 -59q34 -17 34 -36z" />
    <glyph glyph-name="eacute" unicode="&#xe9;" horiz-adv-x="399" 
d="M391 322q0 -78 -38 -78h-159q-23 0 -23 -17q0 -26 21 -56q26 -40 67 -40q30 0 58 23q24 20 34 20q29 0 29 -51q0 -45 -50 -90q-52 -48 -114 -48q-77 0 -134 64q-67 75 -67 209q0 103 48 185q57 98 153 98q66 0 115 -50q60 -60 60 -169zM255 379q0 64 -39 64
q-18 0 -31.5 -21.5t-13.5 -52.5q0 -26 27 -26q1 0 11.5 1t22.5 1q23 1 23 34zM129 639q0 19 34 36l118 60q15 8 21 8q15 0 24 -38q7 -28 7 -42q0 -20 -25 -29l-130 -45q-18 -6 -23 -6q-14 0 -22 27q-4 16 -4 29z" />
    <glyph glyph-name="ecircumflex" unicode="&#xea;" horiz-adv-x="399" 
d="M391 322q0 -78 -38 -78h-159q-23 0 -23 -17q0 -26 21 -56q26 -40 67 -40q30 0 58 23q24 20 34 20q29 0 29 -51q0 -45 -50 -90q-52 -48 -114 -48q-77 0 -134 64q-67 75 -67 209q0 103 48 185q57 98 153 98q66 0 115 -50q60 -60 60 -169zM255 379q0 64 -39 64
q-18 0 -31.5 -21.5t-13.5 -52.5q0 -26 27 -26q1 0 11.5 1t22.5 1q23 1 23 34zM326 602q0 -14 -38 -14q-19 0 -26 3q-12 5 -23 24q-18 32 -29 55q-3 0 -13 -18q-16 -30 -35 -56q-7 -9 -42 -9q-31 0 -31 16q0 5 6 16l65 108q10 18 18.5 23.5t31.5 5.5q26 0 41 -24
q75 -128 75 -130z" />
    <glyph glyph-name="edieresis" unicode="&#xeb;" horiz-adv-x="399" 
d="M172 654q0 -66 -47 -66t-47 66t47 66t47 -66zM325 654q0 -66 -46 -66q-19 0 -33.5 18t-14.5 48q0 65 47 65t47 -65zM391 322q0 -78 -38 -78h-159q-23 0 -23 -17q0 -26 21 -56q26 -40 67 -40q30 0 58 23q24 20 34 20q29 0 29 -51q0 -45 -50 -90q-52 -48 -114 -48
q-77 0 -134 64q-67 75 -67 209q0 103 48 185q57 98 153 98q66 0 115 -50q60 -60 60 -169zM255 379q0 64 -39 64q-18 0 -31.5 -21.5t-13.5 -52.5q0 -26 27 -26q1 0 11.5 1t22.5 1q23 1 23 34z" />
    <glyph glyph-name="igrave" unicode="&#xec;" horiz-adv-x="283" 
d="M276 62q0 -70 -133 -70q-121 0 -121 76q0 17 15 39q9 11 19 23.5t10 122.5q0 78 -4 102.5t-21 36.5q-21 16 -21 38q0 47 80 83q67 31 118 31q11 0 14 -7q4 -12 4 -58v-311q2 -22 3 -26q3 -14 16 -28q21 -22 21 -52zM227 645q0 -13 -5 -29q-7 -27 -22 -27q-6 0 -23 6
l-130 45q-25 8 -25 29q0 14 7 42q10 38 24 38q6 0 21 -8l118 -60q35 -18 35 -36z" />
    <glyph glyph-name="iacute" unicode="&#xed;" horiz-adv-x="283" 
d="M275 63q0 -69 -133 -69q-121 0 -121 75q0 23 34 61q10 15 10 124q0 66 -1 75q-4 48 -23 65q-22 15 -22 38q0 46 80 82q68 31 118 31q11 0 14 -7q4 -12 4 -58v-311q0 -33 20 -54t20 -52zM63 644q0 18 35 36l118 59q12 9 21 9q14 0 23 -39q7 -28 7 -42q0 -19 -24 -28
l-130 -46q-17 -6 -23 -6q-15 0 -22 27q-5 17 -5 30z" />
    <glyph glyph-name="icircumflex" unicode="&#xee;" horiz-adv-x="283" 
d="M275 63q0 -69 -133 -69q-121 0 -121 75q0 23 34 61q10 15 10 124q0 66 -1 75q-4 48 -23 65q-22 15 -22 38q0 46 80 82q68 31 118 31q11 0 14 -7q4 -12 4 -58v-311q0 -33 20 -54t20 -52zM267 602q0 -14 -38 -14q-19 0 -26 3q-12 5 -23 24q-18 32 -29 55q-3 0 -13 -18
q-16 -30 -34 -56q-8 -9 -43 -9q-31 0 -31 16q0 5 6 16l65 108q10 18 19 23.5t31 5.5q27 0 41 -24q75 -128 75 -130z" />
    <glyph glyph-name="idieresis" unicode="&#xef;" horiz-adv-x="283" 
d="M115 654q0 -66 -47 -66q-48 0 -48 66t48 66q47 0 47 -66zM268 654q0 -29 -12.5 -47.5t-34.5 -18.5q-18 0 -32.5 18t-14.5 48q0 65 46 65q48 0 48 -65zM275 63q0 -69 -133 -69q-121 0 -121 75q0 23 34 61q10 15 10 124q0 66 -1 75q-4 48 -23 65q-22 15 -22 38q0 46 80 82
q68 31 118 31q11 0 14 -7q4 -12 4 -58v-311q0 -33 20 -54t20 -52z" />
    <glyph glyph-name="ntilde" unicode="&#xf1;" horiz-adv-x="517" 
d="M506 63q0 -71 -118 -71q-60 0 -85 12q-31 15 -31 53q0 16 12 33q15 22 18 81q-1 -17 -1 85q0 118 -47 117q-15 0 -22 -19q-9 -27 -9 -100q0 -129 15 -150q10 -15 10 -38q0 -35 -17 -51q-27 -23 -99 -23q-112 0 -112 71q0 23 25 48q10 17 10 194q0 44 -2 55q-4 17 -19 31
q-19 17 -19 40q0 45 77 84q64 32 98 32t34 -43q0 -46 8 -46q2 0 6 5q12 21 24 43q29 36 73 36q140 0 140 -212q0 -15 -1 -82.5t-1 -77.5q0 -40 22 -72q11 -17 11 -35zM391 727q0 -33 -19 -72q-26 -50 -65 -50q-17 0 -61.5 19t-50.5 19q-24 0 -36 -40q-5 -16 -17 -16
q-17 0 -17 23q0 28 20 73q26 56 59 56q16 0 57 -20.5t55 -20.5q30 0 42 41q3 13 16 13q17 0 17 -25z" />
    <glyph glyph-name="ograve" unicode="&#xf2;" horiz-adv-x="447" 
d="M435 279q0 -118 -59 -203q-64 -90 -163 -90q-86 0 -143 78.5t-57 191.5q0 119 66 202t158 83q86 0 142 -73t56 -189zM271 186q0 60 -12 127q-18 97 -51 97q-28 -4 -28 -74q0 -60 12 -126q19 -97 53 -97q26 6 26 73zM300 638q0 -13 -5 -29q-7 -27 -22 -27q-9 0 -23 5
l-130 46q-25 9 -25 29q0 14 7 42q10 38 24 38q8 0 21 -9l118 -59q35 -18 35 -36z" />
    <glyph glyph-name="oacute" unicode="&#xf3;" horiz-adv-x="447" 
d="M435 279q0 -118 -59 -203q-64 -90 -163 -90q-86 0 -143 78.5t-57 191.5q0 119 66 202t158 83q86 0 142 -73t56 -189zM271 186q0 60 -12 127q-18 97 -51 97q-28 -4 -28 -74q0 -60 12 -126q19 -97 53 -97q26 6 26 73zM153 644q0 19 34 36l117 59q14 9 22 9q14 0 24 -39
q7 -28 7 -42q0 -19 -25 -28l-130 -46q-17 -6 -23 -6q-14 0 -22 27q-4 17 -4 30z" />
    <glyph glyph-name="ocircumflex" unicode="&#xf4;" horiz-adv-x="447" 
d="M435 279q0 -118 -59 -203q-64 -90 -163 -90q-86 0 -143 78.5t-57 191.5q0 119 66 202t158 83q86 0 142 -73t56 -189zM271 186q0 60 -12 127q-18 97 -51 97q-28 -4 -28 -74q0 -60 12 -126q19 -97 53 -97q26 6 26 73zM344 603q0 -14 -39 -14q-19 0 -26 3q-11 5 -23 24
q-18 32 -29 55q-3 0 -13 -18q-16 -30 -34 -56q-8 -9 -43 -9q-31 0 -31 16q0 5 7 16l64 108q11 18 19.5 23.5t30.5 5.5q27 0 41 -24q76 -128 76 -130z" />
    <glyph glyph-name="otilde" unicode="&#xf5;" horiz-adv-x="447" 
d="M435 279q0 -118 -59 -203q-64 -90 -163 -90q-86 0 -143 78.5t-57 191.5q0 119 66 202t158 83q86 0 142 -73t56 -189zM271 186q0 60 -12 127q-18 97 -51 97q-28 -4 -28 -74q0 -60 12 -126q19 -97 53 -97q26 6 26 73zM360 726q0 -33 -19 -72q-25 -50 -65 -50q-17 0 -61 19
t-51 19q-23 0 -36 -40q-5 -16 -17 -16q-17 0 -17 23q0 28 20 73q26 56 59 56q17 0 57.5 -20.5t55.5 -20.5q30 0 41 41q4 13 17 13q16 0 16 -25z" />
    <glyph glyph-name="odieresis" unicode="&#xf6;" horiz-adv-x="447" 
d="M195 654q0 -30 -13 -48t-34 -18q-18 0 -31 15q-16 18 -16 51q0 34 17 52q13 14 30 14q47 0 47 -66zM349 654q0 -66 -47 -66q-19 0 -33.5 18t-14.5 48q0 29 13 47t35 18q18 0 32.5 -17t14.5 -48zM435 279q0 -118 -59 -203q-64 -90 -163 -90q-86 0 -143 78.5t-57 191.5
q0 119 66 202t158 83q86 0 142 -73t56 -189zM271 186q0 60 -12 127q-18 97 -51 97q-28 -4 -28 -74q0 -60 12 -126q19 -97 53 -97q26 6 26 73z" />
    <glyph glyph-name="divide" unicode="&#xf7;" horiz-adv-x="582" 
d="M344 497q0 -32 -16 -54.5t-38 -22.5t-37.5 22.5t-15.5 54.5q0 31 15.5 53.5t37.5 22.5q23 0 38.5 -22t15.5 -54zM496 232h-410v133h410v-133zM344 100q0 -32 -16 -54.5t-38 -22.5t-37.5 22.5t-15.5 54.5q0 31 15.5 53.5t37.5 22.5q23 0 38.5 -22t15.5 -54z" />
    <glyph glyph-name="oslash" unicode="&#xf8;" horiz-adv-x="447" 
d="M435 283q0 -140 -72 -224q-64 -74 -150 -74q-40 0 -78 21q-36 -104 -66 -104q-12 0 -22.5 12.5t-10.5 31.5q0 28 43 107q-68 87 -68 200q0 105 57 190q65 97 166 97q38 0 80 -19q11 24 21 47q23 46 42 46q9 0 20 -12t11 -33q0 -33 -36 -90q63 -77 63 -196zM248 367
q-15 44 -35 45q-39 1 -39 -79q0 -35 9 -97zM276 184q0 25 -11 99l-64 -127q19 -46 43 -46q32 0 32 74z" />
    <glyph glyph-name="ugrave" unicode="&#xf9;" horiz-adv-x="514" 
d="M503 82q0 -42 -64 -69q-51 -21 -104 -21q-24 0 -28.5 5t-4.5 41q-1 25 -11 25q-8 0 -22 -16q-34 -32 -34 -33q-27 -18 -64 -18q-61 0 -92 47q-27 40 -28 106q-1 102 -1 177q0 47 -20 61q-22 19 -22 48q0 37 71 74q66 34 118 34q14 0 20 -5t6 -29q-8 -120 -8 -251
q0 -1 -1 -15.5t-1 -24.5q0 -85 44 -85q27 0 37 33.5t9 164.5q0 41 -20 59q-23 20 -23 43q0 42 73 78q64 31 111 31q16 0 19 -3q7 -6 7 -33q0 -47 -1 -130q-1 -67 -2.5 -124t-1.5 -40q0 -64 5 -71q10 -10 20 -19q13 -16 13 -40zM335 644q0 -13 -5 -30q-8 -27 -23 -27
q-5 0 -22 6l-130 46q-25 9 -25 28q0 14 7 42q10 39 23 39q9 0 22 -9l118 -59q35 -18 35 -36z" />
    <glyph glyph-name="uacute" unicode="&#xfa;" horiz-adv-x="514" 
d="M503 82q0 -42 -64 -69q-51 -21 -104 -21q-24 0 -28.5 5t-4.5 41q-1 25 -11 25q-8 0 -22 -16q-34 -32 -34 -33q-27 -18 -64 -18q-61 0 -92 47q-27 40 -28 106q-1 102 -1 177q0 47 -20 61q-22 19 -22 48q0 37 71 74q66 34 118 34q14 0 20 -5t6 -29q-8 -120 -8 -251
q0 -1 -1 -15.5t-1 -24.5q0 -85 44 -85q27 0 37 33.5t9 164.5q0 41 -20 59q-23 20 -23 43q0 42 73 78q64 31 111 31q16 0 19 -3q7 -6 7 -33q0 -47 -1 -130q-1 -67 -2.5 -124t-1.5 -40q0 -64 5 -71q10 -10 20 -19q13 -16 13 -40zM186 644q0 19 34 36l118 59q14 9 22 9
q14 0 24 -39q7 -28 7 -42q0 -19 -26 -28l-130 -46q-17 -6 -22 -6q-15 0 -22 27q-5 17 -5 30z" />
    <glyph glyph-name="ucircumflex" unicode="&#xfb;" horiz-adv-x="514" 
d="M503 82q0 -42 -64 -69q-51 -21 -104 -21q-24 0 -28.5 5t-4.5 41q-1 25 -11 25q-8 0 -22 -16q-34 -32 -34 -33q-27 -18 -64 -18q-61 0 -92 46q-27 41 -28 107q-1 102 -1 177q0 47 -20 61q-22 19 -22 48q0 37 71 74q66 34 118 34q14 0 20 -5t6 -29q-8 -120 -8 -251
q0 -1 -1 -15.5t-1 -24.5q0 -85 44 -85q27 0 37 33.5t9 164.5q0 41 -20 59q-23 20 -23 43q0 42 73 78q64 31 111 31q16 0 19 -3q7 -6 7 -33q0 -47 -1 -130q-1 -67 -2.5 -124t-1.5 -40q0 -64 5 -71q10 -10 20 -19q13 -16 13 -40zM377 602q0 -14 -39 -14q-19 0 -26 3
q-11 5 -23 24q-18 32 -29 55q-3 0 -13 -18q-16 -30 -34 -56q-8 -9 -43 -9q-31 0 -31 16q0 5 7 16l64 108q11 18 19.5 23.5t30.5 5.5q27 0 41 -24q76 -128 76 -130z" />
    <glyph glyph-name="udieresis" unicode="&#xfc;" horiz-adv-x="514" 
d="M230 654q0 -66 -47 -66q-48 0 -48 66t48 66q47 0 47 -66zM383 654q0 -29 -13 -47.5t-34 -18.5q-18 0 -33 18t-15 48q0 65 47 65q48 0 48 -65zM503 82q0 -42 -64 -69q-51 -21 -104 -21q-24 0 -28.5 5t-4.5 41q-1 25 -11 25q-8 0 -22 -16q-34 -32 -34 -33q-27 -18 -64 -18
q-61 0 -92 47q-27 40 -28 106q-1 102 -1 177q0 47 -20 61q-22 19 -22 48q0 37 71 74q66 34 118 34q14 0 20 -5t6 -29q-8 -120 -8 -251q0 -1 -1 -15.5t-1 -24.5q0 -85 44 -85q27 0 37 33.5t9 164.5q0 41 -20 59q-23 20 -23 43q0 42 73 78q64 31 111 31q16 0 19 -3q7 -6 7 -33
q0 -47 -1 -130q-1 -67 -2.5 -124t-1.5 -40q0 -64 5 -71q10 -10 20 -19q13 -16 13 -40z" />
    <glyph glyph-name="ydieresis" unicode="&#xff;" horiz-adv-x="462" 
d="M202 654q0 -66 -47 -66t-47 66t47 66t47 -66zM356 654q0 -66 -47 -66q-18 0 -33 18t-15 48q0 65 47 65q48 0 48 -65zM467 475q0 -38 -20 -54q-14 -6 -27 -12q-22 -12 -36 -85q-14 -78 -28 -155q-33 -149 -79 -239q-64 -123 -149 -123q-48 0 -80.5 38t-32.5 98q0 36 16 66
q20 36 52 36q41 0 58 -74l8 -37q2 -6 13 -6q14 6 14 34q0 41 -51 198l-55 168q-7 23 -14 45q-6 15 -18 20q-35 13 -35 55q0 37 32 60q37 27 111 27q63 0 87.5 -15.5t24.5 -52.5q0 -15 -11.5 -30t-11.5 -25q0 -21 13 -61q14 -48 31 -49q12 -1 19 12q0 1 11 30q14 34 14 54
q0 21 -16 45q-14 19 -14 31q0 59 85 59q89 0 89 -58z" />
    <glyph glyph-name="dotlessi" unicode="&#x131;" horiz-adv-x="283" 
d="M271 62q0 -70 -133 -70q-121 0 -121 76q0 21 20 44.5t24 66.5v74q0 78 -4 102.5t-21 36.5q-21 16 -21 38q0 45 58 73q27 14 103 34q27 7 37 7q13 0 15 -7q3 -10 3 -58v-311q0 -32 20 -55t20 -51z" />
    <glyph glyph-name="OE" unicode="&#x152;" horiz-adv-x="811" 
d="M801 182q0 -64 -24.5 -132t-52.5 -68q-91 19 -245 19q-55 0 -186 -19q-116 0 -194 118q-76 112 -76 264q0 159 76 266q78 111 203 111q3 0 62 -7.5t72 -8.5h141q34 0 90 4q4 0 22 3.5t25 3.5q28 0 45 -40.5t17 -107.5q0 -84 -40 -84q-11 0 -18 6q-9 10 -31 47
q-29 48 -87 48q-56 0 -66 -12.5t-10 -89.5q0 -6 -1 -19t-1 -19q0 -42 34 -42q15 0 21 5q11 11 16 48q8 60 29 60q52 0 52 -145q0 -116 -17 -158q-11 -29 -36 -29q-21 0 -28 46q-3 39 -7 48q-8 17 -38 17q-23 0 -23 -62q0 -79 6 -103q4 -15 9 -19q13 -11 53 -11q54 0 84 25
q14 12 16 15q11 14 26 48q20 46 42 46q40 0 40 -72zM378 259q0 103 -25 205q-35 138 -95 138q-65 0 -65 -137q0 -106 29 -212q35 -133 92 -133q64 0 64 139z" />
    <glyph glyph-name="oe" unicode="&#x153;" horiz-adv-x="641" 
d="M633 329q0 -40 -4 -54q-8 -31 -35 -31h-159q-21 0 -21 -12q0 -33 22 -66q26 -38 61 -38q18 0 36 10q6 3 33 22q20 14 26 14q28 0 28 -46q0 -58 -52.5 -100t-115.5 -42q-53 0 -115 49q-57 -49 -121 -49q-97 0 -154 92q-49 78 -49 179q0 104 57 188q64 96 165 96
q59 0 118 -43q57 43 112 43q60 0 108 -51q53 -56 60 -148v-13zM496 381q0 23 -9 41q-11 23 -31 23q-24 0 -36 -28q-10 -22 -9 -49q1 -23 26 -23q42 0 48 3q11 5 11 33zM267 194q0 94 -15 159q-17 73 -46 73q-31 0 -31 -93q0 -66 8 -124q14 -105 49 -105t35 90z" />
    <glyph glyph-name="Ydieresis" unicode="&#x178;" horiz-adv-x="506" 
d="M414 849q0 -30 -13.5 -47.5t-33.5 -17.5q-19 0 -32 17q-16 18 -16 48q0 65 47 65q48 0 48 -65zM260 849q0 -66 -47 -66t-47 66q0 30 13 48.5t34 18.5q19 0 33 -17t14 -50zM520 670q0 -29 -28 -46q-15 -7 -30 -13q-12 -11 -83 -140q-28 -51 -33 -76q-6 -28 -6 -130
q0 -68 1 -78q6 -47 32 -67q21 -21 21 -48q0 -42 -32 -60.5t-107 -18.5q-143 0 -143 75q0 46 32 57q20 15 23 89q0 -22 0 99q0 41 -4 59q-6 28 -29 71q-63 116 -69 126q-17 28 -34 35q-34 14 -34 57q0 41 23 54q28 17 120 17q136 0 136 -63q0 -33 -19 -60q0 -25 22 -61
q10 -15 19 -15q7 0 13 10q24 39 24 57q0 10 -7 25q-9 19 -10 23q-3 12 -3 22q0 62 104 62q59 0 82 -16q19 -13 19 -46z" />
    <glyph glyph-name="florin" unicode="&#x192;" horiz-adv-x="436" 
d="M435 627q0 -30 -12 -54q-14 -30 -40 -30q-24 0 -52 31.5t-38 31.5q-17 0 -17 -38q0 -93 87 -137q14 -10 17 -16q7 -12 7 -45q0 -39 -8 -47q-11 -13 -54 -9q-6 -81 -13 -162q-12 -134 -26 -205q-23 -113 -54 -155q-36 -50 -113 -50q-61 0 -95 38q-29 33 -29 82
q0 37 18 64.5t45 27.5q22 0 45 -41q20 -37 37 -37t17 43q0 23 -12 56.5t-12 72.5q0 52 20 272q-13 0 -30.5 -1t-21.5 -1q-25 0 -25 29q0 10 2 24q4 50 9 53.5t73 3.5q2 34 10 117q11 90 50 140t98 50q49 0 82 -27q35 -30 35 -81z" />
    <glyph glyph-name="circumflex" unicode="&#x2c6;" 
d="M295 602q0 -14 -38 -14q-19 0 -26 3q-12 5 -23 24q-18 32 -29 55q-3 0 -13 -18q-16 -30 -34 -56q-8 -9 -43 -9q-31 0 -31 16q0 5 6 16l65 108q10 18 19 23.5t31 5.5q27 0 41 -24q75 -128 75 -130z" />
    <glyph glyph-name="caron" unicode="&#x2c7;" 
d="M283 740q8 -2 -5 -20l-65 -110q-6 -9 -8 -11q-8 -8 -21 -9l-14 -1q-15 -1 -28 19l-69 112q-5 20 -2 21q22 5 35 5q17 0 25 -13l45 -78l45 78q8 13 26 13q6 0 36 -6z" />
    <glyph glyph-name="breve" unicode="&#x2d8;" 
d="M283 728q0 -50 -24 -91q-29 -49 -81 -49q-46 0 -79 50q-29 43 -29 88q0 28 10 28q6 0 20 -20q17 -25 27 -34q17 -15 56 -14q28 0 45 15q9 8 25 31q14 20 18 20q12 0 12 -24z" />
    <glyph glyph-name="dotaccent" unicode="&#x2d9;" 
d="M223 654q0 -66 -47 -66q-18 0 -31 16q-16 18 -16 50q0 33 16 51q13 14 31 14q47 0 47 -65z" />
    <glyph glyph-name="ring" unicode="&#x2da;" horiz-adv-x="230" 
d="M225 561q0 -56 -28 -103q-32 -54 -82 -54q-43 0 -76.5 45t-33.5 109q0 76 37 122q32 39 73 39q46 0 78 -47t32 -111zM167 562q0 75 -52 75q-23 0 -37.5 -22.5t-14.5 -53.5q0 -30 14.5 -51.5t37.5 -21.5q52 0 52 74z" />
    <glyph glyph-name="ogonek" unicode="&#x2db;" 
d="M227 1q-13 -8 -34 -38q-29 -43 -29 -80q0 -9 1 -17q6 -29 45 -29q45 0 72 52q2 -60 -25 -91q-23 -26 -59 -26q-27 0 -51 14.5t-32 36.5q-6 17 -6 36q0 77 84 142h34z" />
    <glyph glyph-name="tilde" unicode="&#x2dc;" 
d="M310 726q0 -33 -20 -72q-25 -50 -64 -50q-18 0 -62 19t-50 19q-24 0 -36 -40q-5 -16 -17 -16q-18 0 -18 23q0 28 21 73q26 56 58 56q17 0 57.5 -20.5t55.5 -20.5q30 0 41 41q4 13 17 13q17 0 17 -25z" />
    <glyph glyph-name="hungarumlaut" unicode="&#x2dd;" 
d="M140 552q-6 8 -6 20t12 41l63 154q12 31 23 31q13 0 33 -17q16 -14 21 -23q9 -15 -6 -45l-79 -154q-10 -19 -15 -25.5t-12 -6.5q-14 0 -34 25zM373 773q7 -8 7 -20t-13 -41l-63 -153q-10 -32 -23 -32t-33 18q-14 12 -21 22q-9 15 6 45l79 155q16 31 28 31q13 0 33 -25z
" />
    <glyph glyph-name="endash" unicode="&#x2013;" 
d="M324 182h-298q-27 0 -27 41v13q1 14 1 28q0 5 -1 24q0 19 0 17q0 41 27 41h298q26 0 28 -22q-1 13 -2 -45q0 -20 1 -43.5t1 -27.5q0 -16 -5.5 -21t-22.5 -5z" />
    <glyph glyph-name="emdash" unicode="&#x2014;" horiz-adv-x="700" 
d="M700 182h-700v164h700v-164z" />
    <glyph glyph-name="quoteleft" unicode="&#x2018;" horiz-adv-x="205" 
d="M180 438q0 -41 -16 -74q-20 -43 -57 -43q-32 0 -56 35q-29 42 -29 119q0 79 31 168q34 98 73 98q11 0 22.5 -10t11.5 -28q0 -10 -11 -40q-9 -23 -17 -44.5t-8 -35.5q0 -13 15 -34q41 -44 41 -111z" />
    <glyph glyph-name="quoteright" unicode="&#x2019;" horiz-adv-x="205" 
d="M23 625q0 40 16 73q20 43 57 43q32 0 56 -35q29 -42 29 -119q0 -79 -31 -168q-34 -98 -73 -98q-11 0 -21 9q-13 11 -13 29q0 10 11 40l18 46q7 20 7 34q0 13 -15 34q-41 44 -41 112z" />
    <glyph glyph-name="quotesinglbase" unicode="&#x201a;" horiz-adv-x="216" 
d="M23 128q0 40 16 73q20 43 57 43q32 0 56 -35q29 -42 29 -119q0 -79 -31 -168q-34 -98 -73 -98q-11 0 -21 9q-13 11 -13 29q0 10 11 40l18 46q7 20 7 34q0 13 -15 34q-41 44 -41 112z" />
    <glyph glyph-name="quotedblleft" unicode="&#x201c;" horiz-adv-x="398" 
d="M181 438q0 -40 -15 -74q-21 -43 -58 -43q-32 0 -56 35q-29 42 -29 119q0 79 31 168q34 98 73 98q12 0 22 -8q13 -11 13 -30q0 -3 -30 -86q-7 -19 -7 -33q0 -13 15 -34q21 -30 22 -31q19 -37 19 -81zM374 438q0 -40 -15 -74q-20 -43 -57 -43q-33 0 -57 35q-29 42 -29 119
q0 79 31 168q34 98 74 98q11 0 21 -8q13 -11 13 -30q0 -3 -30 -86q-6 -19 -6 -33q0 -13 14 -34q11 -16 22 -31q19 -37 19 -81z" />
    <glyph glyph-name="quotedblright" unicode="&#x201d;" horiz-adv-x="398" 
d="M23 625q0 40 16 73q20 43 57 43q32 0 56 -35q29 -42 29 -119q0 -79 -31 -168q-34 -98 -73 -98q-11 0 -21 9q-13 11 -13 29q0 10 11 40l18 46q7 20 7 34q0 13 -15 34q-41 44 -41 112zM216 625q0 40 15 73q20 43 57 43q33 0 57 -35q29 -42 29 -119q0 -79 -30 -168
q-35 -98 -75 -98q-10 0 -22 10t-12 28q0 10 12 40l18 46q7 20 7 34q0 13 -15 34l-22 30q-19 38 -19 82z" />
    <glyph glyph-name="quotedblbase" unicode="&#x201e;" horiz-adv-x="398" 
d="M23 128q0 40 16 73q20 43 57 43q32 0 56 -35q29 -42 29 -119q0 -79 -31 -168q-34 -98 -73 -98q-11 0 -21 9q-13 11 -13 29q0 10 11 40l18 46q7 20 7 34q0 13 -15 34q-41 44 -41 112zM216 128q0 40 15 73q20 43 57 43q33 0 57 -35q29 -42 29 -119q0 -79 -30 -168
q-35 -98 -75 -98q-10 0 -22 10t-12 28q0 10 12 40l18 46q7 20 7 34q0 13 -15 34l-22 30q-19 38 -19 82z" />
    <glyph glyph-name="dagger" unicode="&#x2020;" horiz-adv-x="390" 
d="M381 467q0 -80 -51 -80q-15 0 -49 19q-38 22 -57 26q3 -77 38 -190q-38 -141 -38 -451h-60q-7 254 -8 281q-6 80 -30 170q34 106 39 190q-20 -3 -55.5 -24t-47.5 -21q-52 0 -52 80t52 80q14 0 33 -12q9 -7 18 -13q15 -10 23 -14q17 -8 32 -10q-2 34 -7 49q-7 26 -15 52
q-12 43 -12 62q0 80 61 80q22 0 38 -17q20 -22 20 -62q0 -24 -12 -66q-7 -25 -15 -51q-4 -17 -5 -47q29 7 59 25q41 24 50 24q51 0 51 -80z" />
    <glyph glyph-name="daggerdbl" unicode="&#x2021;" horiz-adv-x="390" 
d="M381 64q0 -78 -51 -78q-12 0 -47 19q-26 14 -62 26q2 -42 11 -70q22 -65 22 -94q0 -76 -59 -76t-59 76q0 33 16 76q5 15 9 29q6 27 7 59q-15 -4 -60 -26q-39 -19 -46 -19q-52 0 -52 78q0 81 52 81q17 0 57 -28q14 -10 46 -19q-2 27 -5 55q-8 57 -33 113q32 75 38 166
q-22 -4 -56 -24.5t-47 -20.5q-52 0 -52 80t52 80q14 0 36 -13q18 -11 21 -16q14 -7 49 -20q-3 45 -12 72t-21 82q0 89 61 89q57 0 57 -77q0 -30 -14 -74q-8 -17 -18 -92q29 7 59 25q41 24 50 24q51 0 51 -80t-51 -80q-15 0 -49 19q-38 22 -57 26q6 -90 40 -166
q-15 -33 -21 -54q-15 -48 -19 -114q37 11 56 23q31 20 32 21q6 3 18 3q51 0 51 -81z" />
    <glyph glyph-name="bullet" unicode="&#x2022;" horiz-adv-x="218" 
d="M194 316q0 -60 -29 -94q-24 -28 -57 -28q-34 0 -59.5 34t-25.5 88q0 53 23 87t62 34q37 0 61.5 -33.5t24.5 -87.5z" />
    <glyph glyph-name="ellipsis" unicode="&#x2026;" horiz-adv-x="700" 
d="M115 230q34 0 59 -35t25 -85t-24.5 -85t-59.5 -35t-59.5 35t-24.5 85t24.5 85t59.5 35zM344 230q35 0 59.5 -35t24.5 -85t-24 -85t-60 -35q-34 0 -59 35t-25 85t25 85t59 35zM580 230q34 0 59 -35t25 -85t-25 -85t-59 -35q-36 0 -60 35t-24 85t24.5 85t59.5 35z" />
    <glyph glyph-name="perthousand" unicode="&#x2030;" horiz-adv-x="945" 
d="M924 174q-2 -83 -40 -130q-35 -43 -85 -43q-52 0 -91 48q-45 57 -45 156q0 88 39 142q37 49 90 49q65 0 100 -57.5t32 -164.5zM822 173q0 40 -9 75q-9 41 -24 41q-21 0 -21 -69q0 -37 7 -71q9 -43 25 -43q22 0 22 67zM293 477q0 -96 -33 -146t-92 -50q-52 0 -90 46
q-47 56 -47 159q0 82 36.5 135.5t92.5 53.5t93 -51q40 -54 40 -147zM190 451q0 43 -9.5 80.5t-23.5 37.5q-21 0 -21 -65q0 -39 9 -75q10 -41 24 -41q21 0 21 63zM642 199q0 -196 -125 -196q-52 0 -90 46q-47 56 -47 159q0 82 36.5 135.5t92.5 53.5t93 -51q40 -55 40 -147z
M538 173q0 43 -9 80.5t-24 37.5q-21 0 -21 -65q0 -39 10 -76q10 -40 24 -40q20 0 20 63zM522 610l-90 -166q-102 -203 -172 -410q-11 -49 -26 -49q-8 0 -32.5 22t-30.5 30q-4 4 -4 13q0 16 11 37q7 6 70 140l-2 -6l126 292q0 -1 -1 -3q28 70 57 139q7 17 19 37q3 6 10 6
q19 0 62 -49q12 -13 3 -33z" />
    <glyph glyph-name="guilsinglleft" unicode="&#x2039;" horiz-adv-x="211" 
d="M199 458q0 -28 -63 -192q18 -42 35 -83q27 -73 27 -105q0 -39 -20 -39q-30 0 -99 101q-66 97 -66 124q0 32 68 129.5t95 97.5q23 0 23 -33z" />
    <glyph glyph-name="guilsinglright" unicode="&#x203a;" horiz-adv-x="211" 
d="M13 458q0 33 24 33q27 0 95 -97.5t68 -129.5q0 -27 -67 -124q-69 -101 -98 -101q-20 0 -20 39q0 43 61 188q-63 164 -63 192z" />
    <glyph glyph-name="fraction" unicode="&#x2044;" horiz-adv-x="118" 
d="M239 597q0 2 -107 -218q-116 -240 -157 -379q-4 -12 -8 -23q-10 -22 -19 -22q-15 0 -41.5 28t-26.5 38q0 14 15 39q23 39 26 45q63 149 127 298q111 259 122 259t39 -23q30 -26 30 -42z" />
    <glyph glyph-name="trademark" unicode="&#x2122;" horiz-adv-x="575" 
d="M111 664q-5 0 -16.5 -23.5t-22.5 -23.5q-20 0 -20 30q0 22 12 51.5t25 29.5q1 0 6.5 -2t10.5 -3h98q2 0 9.5 3t9.5 3q10 0 20 -19q12 -23 12 -56q0 -36 -21 -36q-13 0 -25 28q-7 19 -13 19q-7 0 -7 -26q0 -143 3 -148.5t11.5 -12.5t8.5 -16q0 -15 -7 -20q-14 -11 -59 -11
q-56 0 -56 31q0 15 14 21q6 3 7 6q5 11 7 44q3 66 1 103q-1 30 -8 28zM521 457q0 -27 -54 -27q-53 0 -53 28q0 12 7.5 19.5l7.5 7.5q4 11 4 49q0 28 -7 28q-6 0 -16 -33q-20 -91 -34 -91q-7 0 -20 40q-10 33 -24 77q-2 10 -5 10q-9 0 -9 -41q0 -22 1 -30q1 -11 2.5 -15
t6.5 -7q9 -4 9 -18q0 -24 -41 -24q-38 0 -38 23q0 14 9.5 19.5t11.5 27.5q5 49 5 94q0 68 -12 80q-12 9 -12 24q0 27 44 27q27 0 33.5 -5.5t28.5 -61.5t27 -56q6 0 29 59t28 61t29 2q42 0 42 -27q0 -9 -8 -17q-8 -4 -10 -38q-5 -60 1 -140q1 -18 6 -22q11 -3 11 -23z" />
    <glyph glyph-name="apple" unicode="&#xf000;" horiz-adv-x="1147" 
d="M1136 152h-174q0 -63 38 -63q14 0 28 13.5t16 13.5h81q-28 -59 -57 -82.5t-76 -23.5t-71 19q-19 15 -43 66q-10 -33 -10 -49t7 -30h-78q-26 0 -35 19q-5 12 -5 44q0 50 18 178h-44q-14 -41 -33 -241h-92l25 210h-7l-73 -210h-88v168h-19l-48 -168h-88q-11 74 -11 121h-11
q-14 -68 -62 -103q-40 -29 -97 -29q-113 0 -121 153h100q8 -48 44 -48q12 0 26 10.5t14 26.5q0 22 -40 36q-58 21 -74 34q-40 31 -40 93q0 84 50 129q43 39 104 39q114 0 114 -142h-95q-12 37 -41 37q-11 0 -20 -9t-9 -22q0 -19 40 -34q60 -23 101 -61q-1 17 2 58h78
q0 -13 6.5 -67t11.5 -75l41 142h91v-147h15q10 55 29 99h121q10 27 12 79h-41q20 80 21 83q11 29 35 39t88 10v-84q-32 0 -35 -2q-8 -5 -17 -40h52q3 33 11 94h89q-5 -31 -12 -100h45l-5 -31q33 26 44 32q26 15 63 15q60 0 85 -42q27 -45 26 -158zM1048 221q-3 47 -30 47
q-17 0 -25.5 -16t-15.5 -31h71zM890 252h-19q0 6 -7 -58q-6 -60 -4 -73h11l2 56q1 8 17 75z" />
    <glyph glyph-name="fi" unicode="&#xf001;" horiz-adv-x="575" 
d="M517 660q0 -41 -34 -72t-81 -31q-72 0 -72 74q0 42 34 70.5t78 28.5q74 0 75 -70zM312 604q0 -82 -55 -82q-15 0 -43.5 41t-42.5 41q-25 1 -25 -31q0 -40 50 -85q12 -9 33 -42q8 -20 37 -12q28 0 31.5 -4t3.5 -47q0 -50 -5 -58q-6 -11 -37 -11q-22 0 -27 -11
q-4 -7 -4 -23q0 -88 12 -126q7 -22 25 -37q26 -22 26 -48q0 -50 -44 -67q-29 -12 -96 -12q-124 0 -124 71q0 22 13 36.5t26 28.5q14 20 14 142q0 33 -4 39.5t-33 6.5q-14 0 -18.5 6.5t-4.5 31.5q0 64 14 73q3 2 18 8q10 3 10 8q-8 23 -15 47q-13 44 -13 74q0 71 44 119.5
t117 48.5q52 0 84.5 -32t32.5 -94zM563 65q0 -72 -130 -72q-118 0 -118 74q0 18 10 32q21 27 24 36q9 26 9 103q0 82 -19 119q-11 12 -22 25q-6 7 -6 20q0 43 77 79q62 29 110 33q22 2 26 -23q1 -3 1 -42v-281q0 -31 19 -55.5t19 -47.5z" />
    <glyph glyph-name="fl" unicode="&#xf002;" horiz-adv-x="577" 
d="M568 67q0 -77 -138 -77q-119 0 -120 73q0 26 22.5 41.5t24.5 63.5q3 74 3 344q0 34 -10 48l-12 10q-15 16 -15 39q0 37 63 79.5t109 42.5q19 0 24 -7q7 -10 7 -46q0 5 -2.5 -109t-2.5 -199q0 -180 12 -233q1 -4 18 -26.5t17 -43.5zM313 604q0 -41 -16.5 -61.5
t-39.5 -20.5q-24 0 -43 39q-10 15 -19 30q-10 12 -24 13q-24 1 -24 -30q0 -45 49 -86q21 -17 29.5 -33.5t8.5 -17t41 -3.5q22 -1 25 -9q2 -4 2 -29q0 -67 -4.5 -74.5t-38.5 -7.5q-29 0 -29 -32q0 -101 10 -132q4 -13 26 -33q27 -24 27 -48q0 -79 -142 -79q-124 0 -124 71
q0 29 24 48q7 6 13 13q9 11 11 26q6 48 6 112q0 1 1 7t1 11q0 36 -39 36q-16 0 -21 10q-3 7 -3 32q0 50 11 65q4 6 21 11q11 3 11 9q-9 26 -18 51q-11 36 -11 70q0 68 40 116q44 52 121 52q57 0 89 -38q29 -34 29 -88z" />
    <glyph glyph-name=".null" horiz-adv-x="920" 
d="M685 384q90 27 179 27v-42q-111 0 -172 -33l42 -522l-66 1q-11 409 -11 510q-4 0 -38 -14q-5 -40 -10 -141q-5 -115 -3 -163q-10 -4 -50 -4v50q6 59 19 159q11 89 11 88q-5 2 -16.5 -4t-13.5 -6q-7 0 -7 12q0 38 45 55q9 96 37 447h24q11 -29 18 -59q0 -44 4 -185
q5 -152 8 -176zM652 681q-5 -20 -14 -151q-11 -153 -12 -161q7 2 29 10q0 41 -1.5 169t-1.5 133zM165 445q-83 -20 -137 -140q55 22 137 140zM214 102l-37 2q0 304 1 313q-16 -47 -66.5 -95.5t-77.5 -48.5q-17 0 -21.5 5t-4.5 26q0 60 71 123q62 56 91 55l-6 58q-6 53 -6 84
q0 52 16 52t30 -189q12 0 57 58q53 67 96 150q54 104 75 203h50q-23 -97 -117 -257q-84 -144 -115 -168l118 -387q39 5 66 31q66 64 66 226q0 101 -36 213v26h18q42 -133 42 -273q0 -108 -42.5 -183t-104.5 -78l88 -251l-33 -14q-28 80 -55 173q-25 85 -26 87q-14 0 -43 22
t-41 47q12 3 42 9l28 -34q-28 99 -56 199q-48 164 -58 164q-3 0 -11 -3.5t-9 -3.5q-1 -12 4 -170q5 -161 7 -171zM658 -77h-34v-5q4 -7 7 -7t5.5 2.5t3.5 2.5h17q-11 -21 -28 -21q-14 0 -22 17q-4 -11 -1 -16h-15q-9 3 -9 12q0 8 4 36h-9q-1 -5 -7 -48h-18l5 38v4h-1
l-15 -42h-17v33h-4l-10 -33h-17q-2 12 -2 24h-2q-6 -26 -33 -26q-23 0 -23 30h19q2 -9 9 -9q8 0 8 7q0 4 -15.5 10t-15.5 23q0 33 31 33q17 0 23 -21v-7h-19q-2 7 -8 7t-6 -6q0 -4 8 -7q12 -4 20 -12q0 3 1 12h15q0 -14 4 -29l7 29h19v-30h3q4 16 6 20h24q2 6 2 16h-7
q4 17 5.5 19.5t10.5 6.5h12v-17q-8 0 -10 -8h10q1 6 2 19h18q-1 -7 -2 -20h8v-6q1 0 9 5q5 4 12 4q23 0 22 -40zM641 -63q-1 9 -6 9q-4 0 -8 -9h14zM609 -57h-4q-2 -9 -2 -22v-4h2q0 10 4 26z" />
    <glyph glyph-name="glyph213" 
 />
  </font>
</defs>
</svg>
